<?xml version="1.0" encoding="UTF-8" standalone="no"?>
<svg xmlns:dc="http://purl.org/dc/elements/1.1/" xmlns:cc="http://creativecommons.org/ns#" xmlns:rdf="http://www.w3.org/1999/02/22-rdf-syntax-ns#" xmlns:svg="http://www.w3.org/2000/svg" xmlns="http://www.w3.org/2000/svg" xmlns:xlink="http://www.w3.org/1999/xlink" xmlns:inkscape="http://www.inkscape.org/namespaces/inkscape" version="1.1" width="16" height="16" id="svg2"><defs id="defs4"><linearGradient id="linearGradient3754"><stop id="stop3756" style="stop-color:#ff9215;stop-opacity:1" offset="0"/><stop id="stop3760" style="stop-color:#ff8800;stop-opacity:1" offset="0.5"/><stop id="stop3758" style="stop-color:#ec7e00;stop-opacity:1" offset="1"/></linearGradient><linearGradient x1="24.46484" y1="4.2924876" x2="17.75495" y2="21.772348" id="linearGradient3078" xlink:href="#linearGradient3754" gradientUnits="userSpaceOnUse" gradientTransform="matrix(0.85454268,0,0,0.85454268,-373.63364,971.02671)"/><linearGradient x1="20" y1="-3.5527137e-15" x2="20" y2="16" id="linearGradient3939" xlink:href="#linearGradient3754" gradientUnits="userSpaceOnUse" gradientTransform="translate(0,1036.3622)"/></defs><metadata id="metadata7"><rdf:RDF><cc:Work rdf:about=""><dc:format>image/svg+xml</dc:format><dc:type rdf:resource="http://purl.org/dc/dcmitype/StillImage"/></cc:Work></rdf:RDF></metadata><g transform="translate(0,-1036.3622)" id="layer1"><g id="g3941"><rect width="13.672683" height="13.672683" ry="2.857502" x="-373.63364" y="971.02673" transform="matrix(0.93358043,-0.35836795,0.35836795,0.93358043,0,0)" id="rect3762" style="fill:url(#linearGradient3078);fill-opacity:1;stroke:none"/><path d="M 7.34375,3.0625 C 7.2995259,3.0564438 7.2337359,3.081375 7.1875,3.09375 l -0.96875,0.25 C 6.0338416,3.39275 5.9503757,3.565 6,3.75 L 6.34375,5.125 C 6.088075,5.2746156 5.863237,5.4775511 5.65625,5.6875 L 4.4375,4.96875 c -0.1658603,-0.095 -0.3730004,-0.0408 -0.46875,0.125 l -0.5,0.875 c -0.096,0.1655 -0.040879,0.37305 0.125,0.46875 L 4.8125,7.15625 C 4.7381436,7.4298215 4.6875,7.7045683 4.6875,8 c 0,0.010702 -1.04e-4,0.02057 0,0.03125 L 3.3125,8.375 C 3.1279381,8.425 3.0442604,8.6276 3.09375,8.8125 l 0.25,0.96875 C 3.392886,9.96615 3.5650105,10.0496 3.75,10 L 5.125,9.65625 c 0.1496128,0.255675 0.3525532,0.480511 0.5625,0.6875 L 4.96875,11.5625 c -0.09501,0.166 -0.040789,0.37295 0.125,0.46875 l 0.875,0.5 c 0.1654882,0.096 0.3730353,0.0409 0.46875,-0.125 L 7.15625,11.1875 c 0.2735748,0.07436 0.5483105,0.125 0.84375,0.125 0.010702,0 0.02057,1.04e-4 0.03125,0 l 0.34375,1.375 c 0.050236,0.1846 0.2525392,0.26825 0.4375,0.21875 l 0.96875,-0.25 C 9.9662857,12.60725 10.049639,12.435 10,12.25 L 9.65625,10.875 c 0.255675,-0.149616 0.480513,-0.352551 0.6875,-0.5625 l 1.21875,0.71875 c 0.166045,0.095 0.372976,0.0408 0.46875,-0.125 l 0.5,-0.875 c 0.09598,-0.1657 0.0409,-0.37305 -0.125,-0.46875 L 11.1875,8.84375 C 11.261856,8.5701785 11.3125,8.2954317 11.3125,8 c 0,-0.010702 1.04e-4,-0.02057 0,-0.03125 L 12.6875,7.625 c 0.184823,-0.05 0.268205,-0.2526 0.21875,-0.4375 l -0.25,-0.96875 C 12.60699,6.03375 12.43502,5.9504 12.25,6 L 10.875,6.34375 C 10.725387,6.088075 10.522447,5.8632392 10.3125,5.65625 L 11.03125,4.4375 c 0.09568,-0.1657 0.04074,-0.37295 -0.125,-0.46875 l -0.875,-0.5 C 9.8655901,3.37275 9.6582573,3.42785 9.5625,3.59375 L 8.84375,4.8125 C 8.5701752,4.7381416 8.2954395,4.6875 8,4.6875 c -0.010702,0 -0.02057,-1.04e-4 -0.03125,0 L 7.625,3.3125 C 7.5874205,3.174125 7.4764224,3.0806687 7.34375,3.0625 z M 8,6.09375 C 9.0576322,6.09375 9.90625,6.9424 9.90625,8 9.90625,9.0576 9.0576322,9.90625 8,9.90625 6.9423678,9.90625 6.09375,9.0576 6.09375,8 6.09375,6.9424 6.9423678,6.09375 8,6.09375 z" inkscape:connector-curvature="0" transform="translate(0,1036.3622)" id="path3875" style="font-size:medium;font-style:normal;font-variant:normal;font-weight:normal;font-stretch:normal;text-indent:0;text-align:start;text-decoration:none;line-height:normal;letter-spacing:normal;word-spacing:normal;text-transform:none;direction:ltr;block-progression:tb;writing-mode:lr-tb;text-anchor:start;baseline-shift:baseline;color:#000000;fill:#ffffff;fill-opacity:1;stroke:none;stroke-width:1.39999998;marker:none;visibility:visible;display:inline;overflow:visible;enable-background:accumulate;font-family:Sans;-inkscape-font-specification:Sans"/><path d="m 10.920205,1037.7821 -10.24220069,3.3911 4.38951459,9.689 9.7544771,-3.3912 -3.901791,-9.6889 z m -3.5664806,1.9983 c 0.129415,0.018 0.2376878,0.1082 0.2743446,0.2422 l 0.3353102,1.3322 c 0.010418,-10e-5 0.020043,0 0.030483,0 0.2881858,0 0.5561761,0.049 0.823034,0.1212 l 0.701103,-1.1809 c 0.093406,-0.1607 0.2956486,-0.2141 0.4572411,-0.1211 l 0.8535167,0.4845 c 0.16167,0.092 0.215262,0.2936 0.121931,0.4542 l -0.701103,1.1808 c 0.204792,0.2005 0.402749,0.4184 0.548689,0.6661 l 1.341241,-0.333 c 0.180477,-0.048 0.348225,0.033 0.396275,0.2119 l 0.243862,0.9386 c 0.04824,0.1792 -0.03309,0.3754 -0.213379,0.4239 l -1.341241,0.3331 c 1.02e-4,0.01 0,0.02 0,0.031 0,0.2862 -0.0494,0.5524 -0.121931,0.8174 l 1.188827,0.6964 c 0.161827,0.092 0.215555,0.2936 0.121931,0.4543 l -0.487724,0.8477 c -0.09342,0.1606 -0.295273,0.2132 -0.457241,0.1211 l -1.188827,-0.6964 c -0.201905,0.2034 -0.421222,0.4001 -0.6706196,0.545 l 0.3353102,1.3322 c 0.04842,0.1793 -0.032887,0.3462 -0.2133792,0.3937 l -0.9449649,0.2422 c -0.1804196,0.048 -0.3777558,-0.033 -0.4267584,-0.2119 l -0.3353101,-1.3322 c -0.010418,10e-5 -0.020043,0 -0.030483,0 -0.2881858,0 -0.5561761,-0.049 -0.823034,-0.1212 l -0.701103,1.1809 c -0.093365,0.1607 -0.295816,0.2141 -0.4572411,0.1211 l -0.8535167,-0.4844 c -0.1617184,-0.092 -0.2146082,-0.2935 -0.121931,-0.4543 l 0.7011031,-1.1808 c -0.2047922,-0.2005 -0.4027499,-0.4184 -0.5486894,-0.6661 l -1.3412405,0.3331 c -0.1804476,0.048 -0.348346,-0.033 -0.3962756,-0.212 l -0.243862,-0.9387 c -0.048275,-0.1791 0.033349,-0.3753 0.2133792,-0.4238 l 1.3412406,-0.3331 c -1.015e-4,-0.01 0,-0.02 0,-0.031 0,-0.2863 0.0494,-0.5525 0.1219309,-0.8175 l -1.1888268,-0.6964 c -0.1618067,-0.092 -0.215574,-0.2939 -0.121931,-0.4542 l 0.4877239,-0.8478 c 0.093399,-0.1606 0.295453,-0.2132 0.4572411,-0.1211 l 1.1888268,0.6964 c 0.201905,-0.2034 0.4212227,-0.4001 0.6706203,-0.545 l -0.3353101,-1.3323 c -0.048406,-0.1792 0.033011,-0.3461 0.2133791,-0.3936 l 0.944965,-0.2422 c 0.045101,-0.012 0.1092754,-0.036 0.1524137,-0.031 z m 0.6401375,2.9369 c -1.0316649,0 -1.8594471,0.8224 -1.8594471,1.8471 0,1.0246 0.8277822,1.8469 1.8594471,1.8469 1.0316649,0 1.8594472,-0.8223 1.8594472,-1.8469 0,-1.0247 -0.8277823,-1.8471 -1.8594472,-1.8471 z" inkscape:connector-curvature="0" id="path3924" style="opacity:0.3;fill:url(#linearGradient3939);fill-opacity:1;stroke:none"/></g></g></svg>
