<?xml version="1.0" encoding="UTF-8" standalone="no"?>
<!-- Created with Inkscape (http://www.inkscape.org/) -->

<svg
   xmlns:dc="http://purl.org/dc/elements/1.1/"
   xmlns:cc="http://creativecommons.org/ns#"
   xmlns:rdf="http://www.w3.org/1999/02/22-rdf-syntax-ns#"
   xmlns:svg="http://www.w3.org/2000/svg"
   xmlns="http://www.w3.org/2000/svg"
   xmlns:xlink="http://www.w3.org/1999/xlink"
   xmlns:sodipodi="http://sodipodi.sourceforge.net/DTD/sodipodi-0.dtd"
   xmlns:inkscape="http://www.inkscape.org/namespaces/inkscape"
   version="1.1"
   width="128"
   height="32"
   id="svg2"
   inkscape:version="0.48.5 r10040"
   sodipodi:docname="wallet.svg">
  <sodipodi:namedview
     pagecolor="#ffffff"
     bordercolor="#666666"
     borderopacity="1"
     objecttolerance="10"
     gridtolerance="10"
     guidetolerance="10"
     inkscape:pageopacity="0"
     inkscape:pageshadow="2"
     inkscape:window-width="1920"
     inkscape:window-height="1017"
     id="namedview3018"
     showgrid="false"
     inkscape:zoom="1"
     inkscape:cx="-3.9821827"
     inkscape:cy="-68.908611"
     inkscape:window-x="0"
     inkscape:window-y="27"
     inkscape:window-maximized="1"
     inkscape:current-layer="svg2"
     inkscape:snap-bbox="true"
     showborder="false">
    <inkscape:grid
       type="xygrid"
       id="grid3374"
       empspacing="5"
       visible="true"
       enabled="true"
       snapvisiblegridlinesonly="true" />
  </sodipodi:namedview>
  <defs
     id="defs4">
    <linearGradient
       id="linearGradient4164">
      <stop
         style="stop-color:#d89362;stop-opacity:1;"
         offset="0"
         id="stop4166" />
      <stop
         id="stop4369"
         offset="0.5"
         style="stop-color:#c37f50;stop-opacity:1;" />
      <stop
         style="stop-color:#d89362;stop-opacity:1;"
         offset="1"
         id="stop4168" />
    </linearGradient>
    <linearGradient
       id="linearGradient4156">
      <stop
         id="stop4160"
         offset="0"
         style="stop-color:#ffffff;stop-opacity:1;" />
      <stop
         id="stop4158"
         offset="1"
         style="stop-color:#9d9d9d;stop-opacity:1;" />
    </linearGradient>
    <linearGradient
       id="linearGradient3592-9">
      <stop
         id="stop3594-6"
         style="stop-color:#000000;stop-opacity:0.2"
         offset="0" />
      <stop
         id="stop3596-3"
         style="stop-color:#000000;stop-opacity:0"
         offset="1" />
    </linearGradient>
    <radialGradient
       inkscape:collect="always"
       xlink:href="#linearGradient3592-9"
       id="radialGradient3185"
       gradientUnits="userSpaceOnUse"
       gradientTransform="matrix(1,0,0,0.3125,-2e-4,18.5626)"
       cx="16"
       cy="27"
       fx="16"
       fy="27"
       r="16" />
    <linearGradient
       inkscape:collect="always"
       xlink:href="#linearGradient4164"
       id="linearGradient3187"
       gradientUnits="userSpaceOnUse"
       gradientTransform="matrix(-1,0,0,1,33,0)"
       x1="9.1875"
       y1="35.000854"
       x2="26.625"
       y2="56.09375" />
    <radialGradient
       inkscape:collect="always"
       xlink:href="#linearGradient4156"
       id="radialGradient3189"
       gradientUnits="userSpaceOnUse"
       cx="23"
       cy="48"
       fx="23"
       fy="48"
       r="1.3" />
    <radialGradient
       inkscape:collect="always"
       xlink:href="#linearGradient5195-0"
       id="radialGradient4629"
       gradientUnits="userSpaceOnUse"
       gradientTransform="matrix(0.84472205,-1.3923892e-6,1.3343892e-6,0.8814524,446.14615,1.2397114)"
       cx="2873.21"
       cy="11.073713"
       fx="2873.21"
       fy="11.073713"
       r="6.2500243" />
    <linearGradient
       id="linearGradient5195-0">
      <stop
         id="stop5197-6"
         offset="0"
         style="stop-color:#9bff7e;stop-opacity:1;" />
      <stop
         id="stop5199-2-2"
         offset="1"
         style="stop-color:#2fba18;stop-opacity:1;" />
    </linearGradient>
    <radialGradient
       inkscape:collect="always"
       xlink:href="#linearGradient4073"
       id="radialGradient4631"
       gradientUnits="userSpaceOnUse"
       cx="2889"
       cy="5.5"
       fx="2889"
       fy="5.5"
       r="5.5000229" />
    <linearGradient
       id="linearGradient4073">
      <stop
         id="stop4075"
         offset="0"
         style="stop-color:#9bff7e;stop-opacity:0;" />
      <stop
         style="stop-color:#9bff7e;stop-opacity:0.22352941;"
         offset="0.67647058"
         id="stop4081" />
      <stop
         id="stop4077"
         offset="1"
         style="stop-color:#9bff7e;stop-opacity:0.67716533;" />
    </linearGradient>
  </defs>
  <metadata
     id="metadata7">
    <rdf:RDF>
      <cc:Work
         rdf:about="">
        <dc:format>image/svg+xml</dc:format>
        <dc:type
           rdf:resource="http://purl.org/dc/dcmitype/StillImage" />
        <dc:title />
      </cc:Work>
    </rdf:RDF>
  </metadata>
  <use
     x="0"
     y="0"
     xlink:href="#g3191"
     id="use3201"
     transform="translate(32,0)"
     width="128"
     height="32" />
  <use
     x="0"
     y="0"
     xlink:href="#use5780"
     id="use3376"
     transform="translate(96,1.7166138e-5)"
     width="96"
     height="32" />
  <g
     id="g3191">
    <rect
       width="32"
       height="10"
       x="0"
       y="21.999983"
       id="use5780"
       style="fill:url(#radialGradient3185);fill-opacity:1;fill-rule:evenodd;stroke:none" />
    <g
       transform="matrix(0.93358043,-0.35836795,0.35836795,0.93358043,-16.927807,-23.499903)"
       id="use4598">
      <path
         style="fill:#d89362;fill-opacity:1;stroke:#6e4020;stroke-width:1px;stroke-linecap:round;stroke-linejoin:round;stroke-opacity:1"
         d="m 12.5,48.5 -6,0 c -1,0 -1,1 -1,1 l 0,-5 c 0,0 0,-1 1,-1 l 6,0 z"
         id="path5006"
         inkscape:connector-curvature="0"
         sodipodi:nodetypes="ccccccc" />
      <path
         style="fill:#a46235;fill-opacity:1;stroke:#85512d;stroke-width:1px;stroke-linecap:round;stroke-linejoin:round;stroke-opacity:1"
         d="m 27.5,55.5 0,-17 c 0,0 0,-1 -1,-1 l -19,0 0,17 19,0 z"
         id="path5008"
         inkscape:connector-curvature="0"
         sodipodi:nodetypes="ccccccc" />
      <path
         sodipodi:nodetypes="ccccccc"
         inkscape:connector-curvature="0"
         id="path5010"
         d="m 27.5,38.5 0,17 c 0,0 0,1 -1,1 l -20,0 0,-17 20,0 c 1,0 1,-1 1,-1 z"
         style="fill:url(#linearGradient3187);fill-opacity:1;stroke:#85512d;stroke-width:1px;stroke-linecap:round;stroke-linejoin:round;stroke-opacity:1" />
      <path
         sodipodi:nodetypes="ccccccccc"
         inkscape:connector-curvature="0"
         id="path5012"
         d="m 12.5,45.5 -6,0 c -1,0 -1,-1 -1,-1 l 0,5 c 0,0 0,1 1,1 l 6,0 c 1,0 1,-1 1,-1 l 0,-3 c 0,0 0,-1 -1,-1 z"
         style="fill:#d89362;fill-opacity:1;stroke:#6e4020;stroke-width:1px;stroke-linecap:round;stroke-linejoin:round;stroke-opacity:1" />
      <path
         d="m 24,48 c 0,0.552285 -0.447715,1 -1,1 -0.552285,0 -1,-0.447715 -1,-1 0,-0.552285 0.447715,-1 1,-1 0.552285,0 1,0.447715 1,1 z"
         sodipodi:ry="1"
         sodipodi:rx="1"
         sodipodi:cy="48"
         sodipodi:cx="23"
         id="path5014"
         style="fill:url(#radialGradient3189);fill-opacity:1;stroke:#606060;stroke-width:0.60000002;stroke-linecap:round;stroke-linejoin:round;stroke-miterlimit:4;stroke-opacity:1;stroke-dasharray:none;stroke-dashoffset:0"
         sodipodi:type="arc"
         transform="matrix(-1.2692308,0,0,1.2692308,39.242308,-12.873078)" />
      <path
         sodipodi:nodetypes="cccc"
         inkscape:connector-curvature="0"
         id="path5016"
         d="m 8.4,54.5 17.1,0 0,-13 -17.1,0"
         style="fill:none;stroke:#e4b596;stroke-width:1;stroke-linecap:round;stroke-linejoin:round;stroke-miterlimit:4;stroke-opacity:0.19920319;stroke-dasharray:1, 2;stroke-dashoffset:0.9" />
    </g>
  </g>
  <use
     x="0"
     y="0"
     xlink:href="#use4598"
     id="use4812"
     transform="translate(94.75,0)"
     width="96"
     height="32" />
  <use
     x="0"
     y="0"
     xlink:href="#use4598"
     id="use4814"
     transform="translate(97.25,0)"
     width="96"
     height="32" />
  <use
     x="0"
     y="0"
     xlink:href="#g3191"
     id="use3203"
     transform="translate(64,0)"
     width="128"
     height="32" />
  <g
     id="g3205"
     transform="translate(32,0)">
    <path
       d="m 52.5,14.5 2,4 2,-4 z"
       inkscape:connector-curvature="0"
       id="path3966-4-44"
       style="fill:#ffcc77;fill-opacity:1;stroke:#995500;stroke-width:1px;stroke-linecap:butt;stroke-linejoin:round;stroke-opacity:1" />
    <path
       d="m 52.5,2.5 4,0 0,12 -4,0 z"
       inkscape:connector-curvature="0"
       id="path3158-9-6-5"
       style="fill:#ff8800;fill-opacity:1;stroke:#995500;stroke-width:1px;stroke-linecap:round;stroke-linejoin:round;stroke-opacity:1" />
  </g>
  <g
     id="g5344"
     transform="translate(-2827.5,-1000.8623)">
    <path
       sodipodi:open="true"
       sodipodi:end="12.542317"
       sodipodi:start="6.2629197"
       transform="matrix(1.0417505,0,0,0.99834845,-108.66787,1000.8837)"
       d="m 2877.9988,12.878415 c 0.064,3.313028 -2.4573,6.053203 -5.6323,6.120353 -3.175,0.06715 -5.801,-2.564155 -5.8653,-5.877183 -0.064,-3.3130277 2.4573,-6.0532032 5.6323,-6.120353 3.1665,-0.06697 5.7887,2.5505801 5.8648,5.85446"
       sodipodi:ry="6"
       sodipodi:rx="5.75"
       sodipodi:cy="13"
       sodipodi:cx="2872.25"
       id="path5322"
       style="fill:url(#radialGradient4629);fill-opacity:1;stroke:#19640c;stroke-width:1;stroke-linecap:round;stroke-linejoin:round;stroke-miterlimit:4;stroke-opacity:1;stroke-dasharray:none"
       sodipodi:type="arc" />
    <path
       sodipodi:open="true"
       sodipodi:end="12.542317"
       sodipodi:start="6.2629197"
       transform="translate(-5.5,1008.3622)"
       d="m 2894.4989,5.3885468 c 0.061,3.0369424 -2.3505,5.5487702 -5.3874,5.6103242 -3.037,0.06155 -5.5488,-2.3504754 -5.6104,-5.3874178 -0.061,-3.0369424 2.3505,-5.54876992 5.3874,-5.61032383 3.0289,-0.0613891 5.537,2.33803173 5.6099,5.36658853"
       sodipodi:ry="5.5"
       sodipodi:rx="5.5"
       sodipodi:cy="5.5"
       sodipodi:cx="2889"
       id="path5334"
       style="fill:url(#radialGradient4631);fill-opacity:1;stroke:none"
       sodipodi:type="arc" />
    <path
       sodipodi:nodetypes="ccccccccccccc"
       inkscape:connector-curvature="0"
       id="path5290"
       d="m 2880,1014.8622 0,-2 2.5,0 0,-2.5 2,0 0,2.5 2.5,0 0,2 -2.5,0 0,2.5 -2,0 0,-2.5 z"
       style="fill:#ffffff;fill-opacity:0.94117647;stroke:#19640c;stroke-width:1px;stroke-linecap:round;stroke-linejoin:round;stroke-opacity:0.25098039" />
  </g>
</svg>
