<?xml version="1.0" encoding="UTF-8" standalone="no"?>
<!-- Created with Inkscape (http://www.inkscape.org/) -->

<svg
   xmlns:dc="http://purl.org/dc/elements/1.1/"
   xmlns:cc="http://creativecommons.org/ns#"
   xmlns:rdf="http://www.w3.org/1999/02/22-rdf-syntax-ns#"
   xmlns:svg="http://www.w3.org/2000/svg"
   xmlns="http://www.w3.org/2000/svg"
   xmlns:xlink="http://www.w3.org/1999/xlink"
   xmlns:sodipodi="http://sodipodi.sourceforge.net/DTD/sodipodi-0.dtd"
   xmlns:inkscape="http://www.inkscape.org/namespaces/inkscape"
   version="1.1"
   width="160"
   height="32"
   id="svg2"
   inkscape:version="0.48.5 r10040"
   sodipodi:docname="wallet.svg">
  <sodipodi:namedview
     pagecolor="#ffffff"
     bordercolor="#666666"
     borderopacity="1"
     objecttolerance="10"
     gridtolerance="10"
     guidetolerance="10"
     inkscape:pageopacity="0"
     inkscape:pageshadow="2"
     inkscape:window-width="1920"
     inkscape:window-height="1044"
     id="namedview3018"
     showgrid="true"
     inkscape:zoom="11.313708"
     inkscape:cx="143.72453"
     inkscape:cy="20.929592"
     inkscape:window-x="1920"
     inkscape:window-y="0"
     inkscape:window-maximized="1"
     inkscape:current-layer="svg2"
     inkscape:snap-bbox="true"
     showborder="false">
    <inkscape:grid
       type="xygrid"
       id="grid3374"
       empspacing="5"
       visible="true"
       enabled="true"
       snapvisiblegridlinesonly="true" />
  </sodipodi:namedview>
  <defs
     id="defs4">
    <linearGradient
       id="linearGradient4164">
      <stop
         style="stop-color:#d89362;stop-opacity:1;"
         offset="0"
         id="stop4166" />
      <stop
         id="stop4369"
         offset="0.5"
         style="stop-color:#c37f50;stop-opacity:1;" />
      <stop
         style="stop-color:#d89362;stop-opacity:1;"
         offset="1"
         id="stop4168" />
    </linearGradient>
    <linearGradient
       id="linearGradient4156">
      <stop
         id="stop4160"
         offset="0"
         style="stop-color:#ffffff;stop-opacity:1;" />
      <stop
         id="stop4158"
         offset="1"
         style="stop-color:#9d9d9d;stop-opacity:1;" />
    </linearGradient>
    <linearGradient
       id="linearGradient3592-9">
      <stop
         id="stop3594-6"
         style="stop-color:#000000;stop-opacity:0.2"
         offset="0" />
      <stop
         id="stop3596-3"
         style="stop-color:#000000;stop-opacity:0"
         offset="1" />
    </linearGradient>
    <radialGradient
       inkscape:collect="always"
       xlink:href="#linearGradient5195-0"
       id="radialGradient4629"
       gradientUnits="userSpaceOnUse"
       gradientTransform="matrix(0.84472205,-1.3923892e-6,1.3343892e-6,0.8814524,446.14615,1.2397114)"
       cx="2873.21"
       cy="11.073713"
       fx="2873.21"
       fy="11.073713"
       r="6.2500243" />
    <linearGradient
       id="linearGradient5195-0">
      <stop
         id="stop5197-6"
         offset="0"
         style="stop-color:#9bff7e;stop-opacity:1;" />
      <stop
         id="stop5199-2-2"
         offset="1"
         style="stop-color:#2fba18;stop-opacity:1;" />
    </linearGradient>
    <radialGradient
       inkscape:collect="always"
       xlink:href="#linearGradient4073"
       id="radialGradient4631"
       gradientUnits="userSpaceOnUse"
       cx="2889"
       cy="5.5"
       fx="2889"
       fy="5.5"
       r="5.5000229" />
    <linearGradient
       id="linearGradient4073">
      <stop
         id="stop4075"
         offset="0"
         style="stop-color:#9bff7e;stop-opacity:0;" />
      <stop
         style="stop-color:#9bff7e;stop-opacity:0.22352941;"
         offset="0.67647058"
         id="stop4081" />
      <stop
         id="stop4077"
         offset="1"
         style="stop-color:#9bff7e;stop-opacity:0.67716533;" />
    </linearGradient>
    <radialGradient
       inkscape:collect="always"
       xlink:href="#linearGradient3592-9"
       id="radialGradient3025"
       gradientUnits="userSpaceOnUse"
       gradientTransform="matrix(1,0,0,0.3125,-2e-4,18.5626)"
       cx="16"
       cy="27"
       fx="16"
       fy="27"
       r="16" />
    <linearGradient
       inkscape:collect="always"
       xlink:href="#linearGradient4164"
       id="linearGradient3027"
       gradientUnits="userSpaceOnUse"
       gradientTransform="matrix(-1,0,0,1,33,0)"
       x1="9.1875"
       y1="35.000854"
       x2="26.625"
       y2="56.09375" />
    <radialGradient
       inkscape:collect="always"
       xlink:href="#linearGradient4156"
       id="radialGradient3029"
       gradientUnits="userSpaceOnUse"
       cx="23"
       cy="48"
       fx="23"
       fy="48"
       r="1.3" />
    <linearGradient
       id="linearGradient3815">
      <stop
         style="stop-color:#f9c7cd;stop-opacity:1;"
         offset="0"
         id="stop3817" />
      <stop
         style="stop-color:#f18995;stop-opacity:1;"
         offset="1"
         id="stop3819" />
    </linearGradient>
    <linearGradient
       id="linearGradient4024">
      <stop
         style="stop-color:#7c7c7c;stop-opacity:1;"
         offset="0"
         id="stop4026" />
      <stop
         id="stop4032"
         offset="0.5"
         style="stop-color:#d0d0d0;stop-opacity:1;" />
      <stop
         style="stop-color:#7c7c7c;stop-opacity:1;"
         offset="1"
         id="stop4028" />
    </linearGradient>
    <radialGradient
       inkscape:collect="always"
       xlink:href="#linearGradient3815"
       id="radialGradient3102"
       gradientUnits="userSpaceOnUse"
       gradientTransform="matrix(2.1831102,-0.7125144,0.53656697,1.6440153,-198.43346,55.280644)"
       cx="147.13474"
       cy="39.382381"
       fx="147.13474"
       fy="39.382381"
       r="7.5" />
    <linearGradient
       inkscape:collect="always"
       xlink:href="#linearGradient4024"
       id="linearGradient3104"
       gradientUnits="userSpaceOnUse"
       x1="138.91158"
       y1="4.0345407"
       x2="139.99422"
       y2="10.530419" />
  </defs>
  <metadata
     id="metadata7">
    <rdf:RDF>
      <cc:Work
         rdf:about="">
        <dc:format>image/svg+xml</dc:format>
        <dc:type
           rdf:resource="http://purl.org/dc/dcmitype/StillImage" />
        <dc:title />
      </cc:Work>
    </rdf:RDF>
  </metadata>
  <use
     x="0"
     y="0"
     xlink:href="#g3191"
     id="use3201"
     transform="translate(32,0)"
     width="128"
     height="32" />
  <use
     x="0"
     y="0"
     xlink:href="#use5780"
     id="use3376"
     transform="translate(96,1.7166138e-5)"
     width="96"
     height="32" />
  <g
     id="g3191">
    <rect
       width="32"
       height="10"
       x="0"
       y="21.999983"
       id="use5780"
       style="fill:url(#radialGradient3025);fill-opacity:1;fill-rule:evenodd;stroke:none" />
    <g
       transform="matrix(0.93358043,-0.35836795,0.35836795,0.93358043,-16.927807,-23.499903)"
       id="use4598">
      <path
         style="fill:#d89362;fill-opacity:1;stroke:#6e4020;stroke-width:1px;stroke-linecap:round;stroke-linejoin:round;stroke-opacity:1"
         d="m 12.5,48.5 -6,0 c -1,0 -1,1 -1,1 l 0,-5 c 0,0 0,-1 1,-1 l 6,0 z"
         id="path5006"
         inkscape:connector-curvature="0"
         sodipodi:nodetypes="ccccccc" />
      <path
         style="fill:#a46235;fill-opacity:1;stroke:#85512d;stroke-width:1px;stroke-linecap:round;stroke-linejoin:round;stroke-opacity:1"
         d="m 27.5,55.5 0,-17 c 0,0 0,-1 -1,-1 l -19,0 0,17 19,0 z"
         id="path5008"
         inkscape:connector-curvature="0"
         sodipodi:nodetypes="ccccccc" />
      <path
         sodipodi:nodetypes="ccccccc"
         inkscape:connector-curvature="0"
         id="path5010"
         d="m 27.5,38.5 0,17 c 0,0 0,1 -1,1 l -20,0 0,-17 20,0 c 1,0 1,-1 1,-1 z"
         style="fill:url(#linearGradient3027);fill-opacity:1;stroke:#85512d;stroke-width:1px;stroke-linecap:round;stroke-linejoin:round;stroke-opacity:1" />
      <path
         sodipodi:nodetypes="ccccccccc"
         inkscape:connector-curvature="0"
         id="path5012"
         d="m 12.5,45.5 -6,0 c -1,0 -1,-1 -1,-1 l 0,5 c 0,0 0,1 1,1 l 6,0 c 1,0 1,-1 1,-1 l 0,-3 c 0,0 0,-1 -1,-1 z"
         style="fill:#d89362;fill-opacity:1;stroke:#6e4020;stroke-width:1px;stroke-linecap:round;stroke-linejoin:round;stroke-opacity:1" />
      <path
         d="m 24,48 a 1,1 0 1 1 -2,0 1,1 0 1 1 2,0 z"
         sodipodi:ry="1"
         sodipodi:rx="1"
         sodipodi:cy="48"
         sodipodi:cx="23"
         id="path5014"
         style="fill:url(#radialGradient3029);fill-opacity:1;stroke:#606060;stroke-width:0.60000002;stroke-linecap:round;stroke-linejoin:round;stroke-miterlimit:4;stroke-opacity:1;stroke-dasharray:none;stroke-dashoffset:0"
         sodipodi:type="arc"
         transform="matrix(-1.2692308,0,0,1.2692308,39.242308,-12.873078)" />
      <path
         sodipodi:nodetypes="cccc"
         inkscape:connector-curvature="0"
         id="path5016"
         d="m 8.4,54.5 17.1,0 0,-13 -17.1,0"
         style="fill:none;stroke:#e4b596;stroke-width:1;stroke-linecap:round;stroke-linejoin:round;stroke-miterlimit:4;stroke-opacity:0.19920319;stroke-dasharray:1, 2;stroke-dashoffset:0.9" />
    </g>
  </g>
  <use
     x="0"
     y="0"
     xlink:href="#use4598"
     id="use4812"
     transform="translate(94.75,0)"
     width="96"
     height="32" />
  <use
     x="0"
     y="0"
     xlink:href="#use4598"
     id="use4814"
     transform="translate(97.25,0)"
     width="96"
     height="32" />
  <use
     x="0"
     y="0"
     xlink:href="#g3191"
     id="use3203"
     transform="translate(64,0)"
     width="128"
     height="32" />
  <g
     id="g3205"
     transform="translate(32,0)">
    <path
       d="m 52.5,14.5 2,4 2,-4 z"
       inkscape:connector-curvature="0"
       id="path3966-4-44"
       style="fill:#ffcc77;fill-opacity:1;stroke:#995500;stroke-width:1px;stroke-linecap:butt;stroke-linejoin:round;stroke-opacity:1" />
    <path
       d="m 52.5,2.5 4,0 0,12 -4,0 z"
       inkscape:connector-curvature="0"
       id="path3158-9-6-5"
       style="fill:#ff8800;fill-opacity:1;stroke:#995500;stroke-width:1px;stroke-linecap:round;stroke-linejoin:round;stroke-opacity:1" />
  </g>
  <g
     id="g5344"
     transform="translate(-2827.5,-1000.8623)">
    <path
       sodipodi:open="true"
       sodipodi:end="12.542317"
       sodipodi:start="6.2629197"
       transform="matrix(1.0417505,0,0,0.99834845,-108.66787,1000.8837)"
       d="m 2877.9988,12.878415 a 5.75,6 0 1 1 -5e-4,-0.02272"
       sodipodi:ry="6"
       sodipodi:rx="5.75"
       sodipodi:cy="13"
       sodipodi:cx="2872.25"
       id="path5322"
       style="fill:url(#radialGradient4629);fill-opacity:1;stroke:#19640c;stroke-width:1;stroke-linecap:round;stroke-linejoin:round;stroke-miterlimit:4;stroke-opacity:1;stroke-dasharray:none"
       sodipodi:type="arc" />
    <path
       sodipodi:open="true"
       sodipodi:end="12.542317"
       sodipodi:start="6.2629197"
       transform="translate(-5.5,1008.3622)"
       d="m 2894.4989,5.3885468 a 5.5,5.5 0 1 1 -5e-4,-0.020829"
       sodipodi:ry="5.5"
       sodipodi:rx="5.5"
       sodipodi:cy="5.5"
       sodipodi:cx="2889"
       id="path5334"
       style="fill:url(#radialGradient4631);fill-opacity:1;stroke:none"
       sodipodi:type="arc" />
    <path
       sodipodi:nodetypes="ccccccccccccc"
       inkscape:connector-curvature="0"
       id="path5290"
       d="m 2880,1014.8622 0,-2 2.5,0 0,-2.5 2,0 0,2.5 2.5,0 0,2 -2.5,0 0,2.5 -2,0 0,-2.5 z"
       style="fill:#ffffff;fill-opacity:0.94117647;stroke:#19640c;stroke-width:1px;stroke-linecap:round;stroke-linejoin:round;stroke-opacity:0.25098039" />
  </g>
  <use
     x="0"
     y="0"
     xlink:href="#use3376"
     id="use3082"
     transform="translate(32,0)"
     width="160"
     height="32" />
  <path
     sodipodi:nodetypes="cccccccccccccssscc"
     inkscape:connector-curvature="0"
     id="path3975"
     d="m 136.3455,10.558506 0.59414,2.861175 c -0.84867,1.111015 -1.23124,3.006035 -1.03511,4.660285 l -1.37307,0.608526 1.37048,3.437771 1.38926,-0.563404 c 0.81251,1.328631 2.23418,2.513333 4.04191,2.813008 0.90812,0.155883 1.33549,1.857793 1.64475,2.66345 l 3.26735,-1.254218 -0.45318,-1.180574 c 0.8668,-0.183418 1.38693,-0.353981 2.14407,-0.82303 l 0.45318,1.180574 3.26731,-1.254202 c -0.42653,-1.479486 -0.83206,-1.92345 -0.21846,-3.159976 1.50362,-3.030014 1.41817,-5.485104 0.6752,-7.192661 -1.68696,-3.8770453 -6.18981,-5.0189777 -10.41909,-3.3955094 -0.60787,0.2333374 -2.04675,1.0173154 -2.56578,1.3598834 z"
     style="fill:url(#radialGradient3102);fill-opacity:1;stroke:#c1646f;stroke-width:1;stroke-linecap:round;stroke-linejoin:round;stroke-miterlimit:4;stroke-opacity:1;stroke-dasharray:none;stroke-dashoffset:1.49999999" />
  <path
     sodipodi:nodetypes="cssc"
     inkscape:connector-curvature="0"
     id="path3977"
     d="m 151.7,11.9 c 0.9902,-1.013832 2.73235,-1.818842 1.52613,-2.4341107 -0.54782,-0.279433 -1.19494,0.6209427 -0.48335,1.0125757 0.57409,0.315956 1.71588,0.291756 2.48408,-0.07964"
     style="fill:none;stroke:#c1646f;stroke-width:0.80000000999999998;stroke-linecap:round;stroke-linejoin:miter;stroke-miterlimit:4;stroke-opacity:1;stroke-dasharray:none" />
  <path
     transform="matrix(1.0210374,-0.39193952,0.39193952,1.0210374,-53.525008,43.375617)"
     d="m 174,40 a 1,1 0 1 1 -2,0 1,1 0 1 1 2,0 z"
     sodipodi:ry="1"
     sodipodi:rx="1"
     sodipodi:cy="40"
     sodipodi:cx="173"
     id="path3979"
     style="fill:#c1646f;fill-opacity:1;stroke:none"
     sodipodi:type="arc" />
  <use
     x="0"
     y="0"
     xlink:href="#path3987"
     id="use3989"
     transform="translate(1.970117,-3.2701456)"
     width="160"
     height="32" />
  <path
     sodipodi:type="arc"
     style="fill:#f7f7f7;fill-opacity:1;stroke:url(#linearGradient3104);stroke-width:1.08264649;stroke-linecap:round;stroke-linejoin:round;stroke-miterlimit:4;stroke-opacity:1;stroke-dasharray:none;stroke-dashoffset:1.49999999"
     id="path3987"
     sodipodi:cx="141"
     sodipodi:cy="7.3125"
     sodipodi:rx="2.6875"
     sodipodi:ry="2.6875"
     d="m 143.6875,7.3125 a 2.6875,2.6875 0 1 1 -5.375,0 2.6875,2.6875 0 1 1 5.375,0 z"
     transform="matrix(0.9236625,0,0,0.9236625,11.80829,1.5367882)" />
  <path
     sodipodi:nodetypes="cc"
     inkscape:connector-curvature="0"
     id="path3981"
     d="m 140.57834,12.767871 c 2.58125,-1.589765 4.86842,-1.504556 5.97705,-1.166197"
     style="fill:none;stroke:#c5636f;stroke-width:1;stroke-linecap:round;stroke-linejoin:round;stroke-miterlimit:4;stroke-opacity:1;stroke-dasharray:none" />
</svg>
