<?xml version="1.0" encoding="UTF-8" standalone="no"?>
<svg xmlns:dc="http://purl.org/dc/elements/1.1/" xmlns:cc="http://creativecommons.org/ns#" xmlns:rdf="http://www.w3.org/1999/02/22-rdf-syntax-ns#" xmlns:svg="http://www.w3.org/2000/svg" xmlns="http://www.w3.org/2000/svg" xmlns:xlink="http://www.w3.org/1999/xlink" xmlns:inkscape="http://www.inkscape.org/namespaces/inkscape" version="1.1" width="128" height="32" id="svg11864"><defs id="defs11866"><linearGradient id="linearGradient5496"><stop id="stop5498" style="stop-color:#dedede;stop-opacity:1" offset="0"/><stop id="stop5500" style="stop-color:#f2f2f2;stop-opacity:1" offset="1"/></linearGradient><linearGradient id="linearGradient4574-3"><stop id="stop4576-0" style="stop-color:#ffd231;stop-opacity:1" offset="0"/><stop id="stop4578-6" style="stop-color:#ffff88;stop-opacity:1" offset="1"/></linearGradient><linearGradient id="linearGradient4584-6"><stop id="stop4586-6" style="stop-color:#af8800;stop-opacity:1" offset="0"/><stop id="stop4588-0" style="stop-color:#c7af00;stop-opacity:1" offset="1"/></linearGradient><linearGradient id="linearGradient3592-9-6"><stop id="stop3594-6-5" style="stop-color:#777777;stop-opacity:0.46666667" offset="0"/><stop id="stop3596-3-6" style="stop-color:#777777;stop-opacity:0" offset="1"/></linearGradient><linearGradient x1="3530" y1="44.5" x2="3530" y2="61.5" id="linearGradient12130" xlink:href="#linearGradient5496" gradientUnits="userSpaceOnUse" gradientTransform="matrix(0.8538542,-0.33746499,0.33746499,0.8538542,526.90263,2182.3229)"/><radialGradient cx="16" cy="27" r="16" fx="16" fy="27" id="radialGradient12146" xlink:href="#linearGradient3592-9-6" gradientUnits="userSpaceOnUse" gradientTransform="matrix(1,0,0,0.3125,-2.0000745e-4,1038.9248)"/><linearGradient x1="10" y1="25" x2="2" y2="5" id="linearGradient12148" xlink:href="#linearGradient4574-3" gradientUnits="userSpaceOnUse" gradientTransform="matrix(0.59995997,0,0,0.59995997,3524.3907,1029.5568)"/><linearGradient x1="8" y1="25" x2="0" y2="5" id="linearGradient12150" xlink:href="#linearGradient4584-6" gradientUnits="userSpaceOnUse" gradientTransform="matrix(0.59995997,0,0,0.59995997,3524.3907,1029.5568)"/><linearGradient x1="3548.0938" y1="22.484375" x2="3542.9844" y2="9.671875" id="linearGradient12152" xlink:href="#linearGradient4584-6" gradientUnits="userSpaceOnUse"/><linearGradient x1="3530" y1="44.5" x2="3530" y2="61.5" id="linearGradient12227" xlink:href="#linearGradient5496" gradientUnits="userSpaceOnUse" gradientTransform="matrix(0.8538542,-0.33746499,0.33746499,0.8538542,494.80285,2181.3226)"/><linearGradient x1="10" y1="25" x2="2" y2="5" id="linearGradient12233" xlink:href="#linearGradient4574-3" gradientUnits="userSpaceOnUse" gradientTransform="matrix(0.59995997,0,0,0.59995997,3523.2127,1029.5568)"/><linearGradient x1="8" y1="25" x2="0" y2="5" id="linearGradient12235" xlink:href="#linearGradient4584-6" gradientUnits="userSpaceOnUse" gradientTransform="matrix(0.59995997,0,0,0.59995997,3523.2127,1029.5568)"/><linearGradient x1="3548.0938" y1="22.484375" x2="3542.9844" y2="9.671875" id="linearGradient12237" xlink:href="#linearGradient4584-6" gradientUnits="userSpaceOnUse"/></defs><metadata id="metadata11869"><rdf:RDF><cc:Work rdf:about=""><dc:format>image/svg+xml</dc:format><dc:type rdf:resource="http://purl.org/dc/dcmitype/StillImage"/><dc:title/></cc:Work></rdf:RDF></metadata><g transform="translate(0,-1020.3622)" id="layer1"><g transform="translate(96,0)" id="g12119"><rect width="32" height="10" x="0" y="1042.3622" id="rect4375" style="fill:url(#radialGradient12146);fill-opacity:1;fill-rule:evenodd;stroke:none"/><g transform="translate(-3550.6,0)" id="g5358"><path d="m 3558.1597,1028.2245 2.3623,5.977 5.9769,-2.3623 -2.3623,-5.977 z m 8.5386,-3.3747 2.3623,5.977 5.977,-2.3623 -2.3623,-5.977 z m 3.3747,8.5387 2.3623,5.9769 5.977,-2.3623 -2.3623,-5.9769 z m -8.5386,3.3747 2.3623,5.9769 5.9769,-2.3623 -2.3623,-5.9769 z" inkscape:connector-curvature="0" id="use4584" style="fill:url(#linearGradient12130);fill-opacity:1;stroke:#8a8a8a;stroke-width:1;stroke-linejoin:round;stroke-miterlimit:4;stroke-opacity:1;stroke-dasharray:none"/><g transform="matrix(1.188445,0,0,1.188445,-637.21464,-195.27987)" id="g4586" style="stroke-width:0.84143567;stroke-miterlimit:4;stroke-dasharray:none"><path d="m 3531.2153,1030.7567 c -2.1533,0.044 -3.8684,1.8214 -3.8248,3.9747 0.042,2.0635 1.6808,3.7098 3.7123,3.8061 l 2.5686,6.262 1.8186,0.3562 1.1812,-1.5561 -1.0852,-0.4747 0.443,-1.0861 -1.0852,-0.4747 0.4431,-1.0862 -1.0852,-0.4747 0.443,-1.0861 -0.321,-0.7804 -0.3211,-0.7804 c 0.6913,-0.7199 1.1092,-1.6982 1.0874,-2.7749 l 0,-0.056 c -0.068,-2.1352 -1.8389,-3.8119 -3.9747,-3.7686 z" inkscape:connector-curvature="0" id="path4588" style="fill:url(#linearGradient12148);fill-opacity:1;stroke:url(#linearGradient12150);stroke-width:0.84143567;stroke-linecap:round;stroke-linejoin:round;stroke-miterlimit:4;stroke-opacity:1;stroke-dasharray:none"/><path d="m 3542.1094,12.5625 a 1.03125,1.03125 0 1 1 -2.0625,0 1.03125,1.03125 0 1 1 2.0625,0 z" transform="translate(-10.328838,1020.7557)" id="path4590" style="fill:url(#linearGradient12152);fill-opacity:1;stroke:none"/></g><use transform="translate(3.000004,0.14527944)" id="use4602" x="0" y="0" width="3648" height="32" xlink:href="#g4586"/></g></g><g transform="translate(-32,0)" id="g12083"><use transform="translate(32,1.7382813e-5)" id="use12081" x="0" y="0" width="128" height="32" xlink:href="#rect4375"/><g transform="translate(-3486.6,0)" id="g5642"><g transform="translate(-1.30022,0.999951)" id="use5622"><path d="m 3526.0599,1027.2242 2.3623,5.977 5.9769,-2.3623 -2.3622,-5.977 z m 8.5386,-3.3747 2.3623,5.977 5.977,-2.3623 -2.3622,-5.977 z m 3.3748,8.5387 2.3622,5.9769 5.977,-2.3623 -2.3622,-5.9769 z m -8.5387,3.3747 2.3623,5.9769 5.9769,-2.3623 -2.3622,-5.9769 z" inkscape:connector-curvature="0" id="use11727" style="fill:url(#linearGradient12227);fill-opacity:1;stroke:#8a8a8a;stroke-width:1;stroke-linejoin:round;stroke-miterlimit:4;stroke-opacity:1;stroke-dasharray:none"/><g transform="matrix(1.188445,0,0,1.188445,-666.51442,-196.28021)" id="g11729" style="stroke-width:0.84143567;stroke-miterlimit:4;stroke-dasharray:none"><path d="m 3530.0373,1030.7567 c -2.1533,0.044 -3.8684,1.8214 -3.8248,3.9747 0.042,2.0635 1.6808,3.7098 3.7123,3.8061 l 2.5686,6.262 1.8186,0.3562 1.1812,-1.5561 -1.0852,-0.4747 0.443,-1.0861 -1.0852,-0.4747 0.4431,-1.0862 -1.0852,-0.4747 0.443,-1.0861 -0.321,-0.7804 -0.3211,-0.7804 c 0.6913,-0.7199 1.1092,-1.6982 1.0874,-2.7749 l 0,-0.056 c -0.068,-2.1352 -1.8389,-3.8119 -3.9747,-3.7686 z" inkscape:connector-curvature="0" id="path11731" style="fill:url(#linearGradient12233);fill-opacity:1;stroke:url(#linearGradient12235);stroke-width:0.84143567;stroke-linecap:round;stroke-linejoin:round;stroke-miterlimit:4;stroke-opacity:1;stroke-dasharray:none"/><path d="m 3542.1094,12.5625 a 1.03125,1.03125 0 1 1 -2.0625,0 1.03125,1.03125 0 1 1 2.0625,0 z" transform="translate(-11.506845,1020.7557)" id="path11733" style="fill:url(#linearGradient12237);fill-opacity:1;stroke:none"/></g></g></g></g><use transform="translate(32,0)" id="use12115" x="0" y="0" width="128" height="32" xlink:href="#g12083"/><use transform="translate(32,0)" id="use12117" x="0" y="0" width="128" height="32" xlink:href="#use12115"/><g transform="translate(-68,0)" id="g6242"><path d="m 152.5,1034.8622 2,4 2,-4 z" inkscape:connector-curvature="0" id="path3966-4-44" style="fill:#ffcc77;fill-opacity:1;stroke:#995500;stroke-width:1px;stroke-linecap:butt;stroke-linejoin:round;stroke-opacity:1"/><path d="m 152.5,1022.8622 4,0 0,12 -4,0 z" inkscape:connector-curvature="0" id="path3158-9-6-5" style="fill:#ff8800;fill-opacity:1;stroke:#995500;stroke-width:1px;stroke-linecap:round;stroke-linejoin:round;stroke-opacity:1"/></g><g transform="translate(-19.999873,1.0001129)" id="g6634"><path d="m 2878.4882,12.868066 a 6.2394724,6.5106826 0 1 1 -5e-4,-0.02466" transform="matrix(1.0417505,0,0,0.99834845,-2916.168,1020.3836)" id="path6624" style="fill:#33ce00;fill-opacity:1;stroke:#2ba115;stroke-width:0.9805665;stroke-linecap:round;stroke-linejoin:round;stroke-miterlimit:4;stroke-opacity:1;stroke-dasharray:none"/><path d="m 72,1034.3621 0,-2 3.000026,0 0,-3 2,0 0,3 2.999974,0 0,2 -2.999974,0 0,3.0001 -2,0 0,-3.0001 z" inkscape:connector-curvature="0" id="path6628" style="fill:#ffffff;fill-opacity:0.94117647;stroke:none"/></g></g></svg>
