<?xml version="1.0" encoding="UTF-8" standalone="no"?>
<svg xmlns:dc="http://purl.org/dc/elements/1.1/" xmlns:cc="http://creativecommons.org/ns#" xmlns:rdf="http://www.w3.org/1999/02/22-rdf-syntax-ns#" xmlns:svg="http://www.w3.org/2000/svg" xmlns="http://www.w3.org/2000/svg" xmlns:xlink="http://www.w3.org/1999/xlink" xmlns:inkscape="http://www.inkscape.org/namespaces/inkscape" version="1.1" width="96" height="32" id="svg3589"><defs id="defs3591"><linearGradient x1="3530" y1="44.5" x2="3530" y2="61.5" id="linearGradient3595" xlink:href="#linearGradient5496" gradientUnits="userSpaceOnUse" gradientTransform="matrix(0.99285412,-0.39240131,0.39240131,0.99285412,-3489.6316,2373.836)"/><linearGradient id="linearGradient5496"><stop id="stop5498" style="stop-color:#dedede;stop-opacity:1" offset="0"/><stop id="stop5500" style="stop-color:#f2f2f2;stop-opacity:1" offset="1"/></linearGradient><linearGradient x1="3530" y1="44.5" x2="3530" y2="61.5" id="linearGradient3926" xlink:href="#linearGradient5496" gradientUnits="userSpaceOnUse" gradientTransform="matrix(0.99285412,-0.39240131,0.39240131,0.99285412,-3520.4796,2371.9837)"/><linearGradient id="linearGradient3592-2"><stop id="stop3594-9" style="stop-color:#777777;stop-opacity:0.46666667" offset="0"/><stop id="stop3596-7" style="stop-color:#777777;stop-opacity:0" offset="1"/></linearGradient><radialGradient cx="16" cy="27" r="16" fx="16" fy="27" id="radialGradient3688" xlink:href="#linearGradient3592-2" gradientUnits="userSpaceOnUse" gradientTransform="matrix(1,0,0,0.3125,-2.0003057e-4,1038.9249)"/><linearGradient id="linearGradient5496-4"><stop id="stop5498-0" style="stop-color:#dedede;stop-opacity:1" offset="0"/><stop id="stop5500-6" style="stop-color:#f2f2f2;stop-opacity:1" offset="1"/></linearGradient><linearGradient id="linearGradient3604"><stop id="stop3606-2" style="stop-color:#ff8800;stop-opacity:1" offset="0"/><stop id="stop3608" style="stop-color:#dd7700;stop-opacity:1" offset="1"/></linearGradient><linearGradient x1="29" y1="2" x2="34" y2="17" id="linearGradient4477" xlink:href="#linearGradient3604" gradientUnits="userSpaceOnUse" gradientTransform="translate(832,1052.3622)"/><linearGradient x1="3530" y1="44.5" x2="3530" y2="61.5" id="linearGradient4479" xlink:href="#linearGradient5496-4" gradientUnits="userSpaceOnUse" gradientTransform="matrix(0.47719989,-0.18860158,0.18860158,0.47719989,-1584.1739,1677.2229)"/></defs><metadata id="metadata3594"><rdf:RDF><cc:Work rdf:about=""><dc:format>image/svg+xml</dc:format><dc:type rdf:resource="http://purl.org/dc/dcmitype/StillImage"/><dc:title/></cc:Work></rdf:RDF></metadata><g transform="translate(0,-1020.3622)" id="layer1"><use transform="translate(64,0)" id="use4475" x="0" y="0" width="96" height="32" xlink:href="#use9699"/><use transform="translate(32,0)" id="use3707" x="0" y="0" width="96" height="32" xlink:href="#use9699"/><rect width="32" height="10" x="0" y="1042.3622" id="use9699" style="fill:url(#radialGradient3688);fill-opacity:1;fill-rule:evenodd;stroke:none"/><path d="m 4.2392372,1030.0083 2.7469,6.9501 6.9498998,-2.7469 -2.7468,-6.95 z m 9.9285998,-3.924 2.7469,6.95 6.95,-2.7469 -2.7467,-6.95 z m 3.9242,9.9288 2.7468,6.9498 6.95,-2.7468 -2.7468,-6.9499 z m -9.9286998,3.924 2.7467998,6.9499 6.9499,-2.7469 -2.7467,-6.9499 z" inkscape:connector-curvature="0" id="use11727" style="fill:url(#linearGradient3926);fill-opacity:1;stroke:#8a8a8a;stroke-width:0.95047444;stroke-linejoin:round;stroke-miterlimit:4;stroke-opacity:1;stroke-dasharray:none"/><path d="m 43.151237,1032.9369 2.7469,6.9501 6.9499,-2.747 -2.7468,-6.95 z" inkscape:connector-curvature="0" id="path3589" style="fill:url(#linearGradient3595);fill-opacity:1;stroke:#8a8a8a;stroke-width:0.95047444;stroke-linejoin:round;stroke-miterlimit:4;stroke-opacity:1;stroke-dasharray:none"/><g transform="translate(-32,0)" id="g4469"><g transform="translate(-736,-31.999983)" id="use4339"><path d="m 841,1079.3622 -6,-15 1,-3 5,-2 4,1 10,-4 6,15 -20,8 z" inkscape:connector-curvature="0" id="path11703" style="fill:#ffeedd;fill-opacity:1;stroke:#bb5500;stroke-width:1px;stroke-linecap:butt;stroke-linejoin:round;stroke-opacity:1"/><path d="m 841,1079.4872 20,-8.125 -6,-15 -10,4 -2,4 -5,2 -3,-2 6,15.125 z" inkscape:connector-curvature="0" id="path11705" style="fill:url(#linearGradient4477);fill-opacity:1;stroke:#bb5500;stroke-width:1px;stroke-linecap:butt;stroke-linejoin:round;stroke-opacity:1"/></g><path d="m 109.92744,1032.2233 1.32024,3.3404 3.34035,-1.3202 -1.32018,-3.3404 z m 4.77203,-1.886 1.32023,3.3404 3.34042,-1.3203 -1.32018,-3.3403 z m 1.8861,4.7721 1.32018,3.3403 3.34041,-1.3202 -1.32018,-3.3404 z m -4.77209,1.886 1.32024,3.3403 3.34036,-1.3202 -1.32018,-3.3404 z" inkscape:connector-curvature="0" id="use11727-9" style="fill:url(#linearGradient4479);fill-opacity:1;stroke:#8a8a8a;stroke-width:0.55887747;stroke-linejoin:round;stroke-miterlimit:4;stroke-opacity:1;stroke-dasharray:none"/></g></g></svg>
