<?xml version="1.0" encoding="UTF-8" standalone="no"?>
<svg xmlns:dc="http://purl.org/dc/elements/1.1/" xmlns:cc="http://creativecommons.org/ns#" xmlns:rdf="http://www.w3.org/1999/02/22-rdf-syntax-ns#" xmlns:svg="http://www.w3.org/2000/svg" xmlns="http://www.w3.org/2000/svg" xmlns:xlink="http://www.w3.org/1999/xlink" xmlns:inkscape="http://www.inkscape.org/namespaces/inkscape" version="1.1" width="96" height="32" id="svg9290"><defs id="defs9292"><linearGradient id="linearGradient10733"><stop id="stop10735" style="stop-color:#2fba18;stop-opacity:1" offset="0"/><stop id="stop10741" style="stop-color:#28a114;stop-opacity:1" offset="0.5"/><stop id="stop10737" style="stop-color:#2fba18;stop-opacity:1" offset="1"/></linearGradient><linearGradient id="linearGradient3592-9"><stop id="stop3594-6" style="stop-color:#777777;stop-opacity:0.46666667" offset="0"/><stop id="stop3596-3" style="stop-color:#777777;stop-opacity:0" offset="1"/></linearGradient><linearGradient x1="7" y1="33" x2="7" y2="44" id="linearGradient8309" xlink:href="#linearGradient10733" gradientUnits="userSpaceOnUse" gradientTransform="matrix(0.92882422,-0.37052069,0.37052069,0.92882422,-12.517883,999.67238)"/><radialGradient cx="16" cy="27" r="16" fx="16" fy="27" id="radialGradient8327" xlink:href="#linearGradient3592-9" gradientUnits="userSpaceOnUse" gradientTransform="matrix(1,0,0,0.3125,63.9998,1038.9247)"/><radialGradient cx="16" cy="27" r="16" fx="16" fy="27" id="radialGradient3810" xlink:href="#linearGradient3592-9" gradientUnits="userSpaceOnUse" gradientTransform="matrix(1,0,0,0.3125,-1.9998813e-4,1038.9247)"/></defs><metadata id="metadata9295"><rdf:RDF><cc:Work rdf:about=""><dc:format>image/svg+xml</dc:format><dc:type rdf:resource="http://purl.org/dc/dcmitype/StillImage"/><dc:title/></cc:Work></rdf:RDF></metadata><g transform="translate(0,-1020.3622)" id="layer1"><rect width="32" height="10" x="64" y="1042.3622" id="rect8313" style="fill:url(#radialGradient8327);fill-opacity:1;fill-rule:evenodd;stroke:none"/><path d="m 66.539199,1036.0798 22.364743,-8.9215 4.460802,11.1823 L 71,1047.2622 z" inkscape:connector-curvature="0" id="path8317" style="fill:#e58d39;fill-opacity:1;stroke:#ab5e13;stroke-width:0.99999994;stroke-linecap:round;stroke-linejoin:round;stroke-miterlimit:4;stroke-opacity:1;stroke-dasharray:none;stroke-dashoffset:0"/><path d="m 67.803289,1029.0946 -1.264091,6.9852 22.364744,-8.9215 -5.724891,-4.1972 -15.375762,6.1335" inkscape:connector-curvature="0" id="path8319" style="fill:#f2d09b;fill-opacity:1;stroke:#ab5e13;stroke-width:0.99999994;stroke-linecap:round;stroke-linejoin:round;stroke-miterlimit:4;stroke-opacity:1;stroke-dasharray:none"/><path d="M 75.40625,5.7187499 77.59375,11.125" inkscape:connector-curvature="0" transform="translate(0,1020.3622)" id="path3012" style="fill:none;stroke:#ab5e13;stroke-width:1px;stroke-linecap:butt;stroke-linejoin:miter;stroke-opacity:0.61445785"/><path d="M 73.851563,5.7851561 75.45234,12.672823 77.03125,16.65625 81.859375,14.703125 80.209597,10.79766 76.508598,4.7820827 z" inkscape:connector-curvature="0" transform="translate(0,1020.3622)" id="path3782" style="fill:#ffd25d;fill-opacity:0.48995984;stroke:none"/><path d="m 85.9375,1039.6122 -1.25,-3.1875 5.328125,-2.1875 1.34375,3.2031 z" inkscape:connector-curvature="0" id="path3784" style="fill:#ffffff;fill-opacity:0.53413654;stroke:none"/><path d="m 85.708803,1037.16 4.070313,-1.6954" inkscape:connector-curvature="0" id="path3786" style="fill:none;stroke:#e58d39;stroke-width:0.60000002;stroke-linecap:butt;stroke-linejoin:miter;stroke-miterlimit:4;stroke-opacity:0.50196078;stroke-dasharray:none"/><use transform="translate(0.49700324,1.2091279)" id="use3788" x="0" y="0" width="96" height="32" xlink:href="#path3786"/><g id="g3814"><rect width="32" height="10" x="0" y="1042.3622" id="use5574" style="fill:url(#radialGradient3810);fill-opacity:1;fill-rule:evenodd;stroke:none"/><g id="g10820"><path d="m 8.6352568,1039.8021 14.8611872,-5.9283 2.964166,7.4306 -14.861188,5.9283 z" inkscape:connector-curvature="0" id="path10796" style="fill:#e58d39;fill-opacity:1;stroke:#ab5e13;stroke-width:1;stroke-linecap:round;stroke-linejoin:round;stroke-miterlimit:4;stroke-opacity:1;stroke-dashoffset:0"/><path d="m 9.4752342,1035.1605 -0.8399778,4.6416 14.8611876,-5.9283 -3.804143,-2.789 -10.2170668,4.0757" inkscape:connector-curvature="0" id="path10798" style="fill:#f2d09b;fill-opacity:1;stroke:#ab5e13;stroke-width:1px;stroke-linecap:round;stroke-linejoin:round;stroke-opacity:1"/></g><path d="m 21.089188,1041.8739 -0.804264,-2.0509 3.428173,-1.4074 0.864584,2.0609 z" inkscape:connector-curvature="0" id="path3812" style="fill:#ffffff;fill-opacity:0.53413654;stroke:none"/></g><path d="m 15.024809,1034.9803 2.60878,-9.6537 -0.370521,-0.9288 -3.715297,1.4821 -1.311123,-3.2867 -3.7152963,1.4821 1.3111233,3.2866 -3.7152974,1.4821 0.3705207,0.9288 z" inkscape:connector-curvature="0" id="path10800" style="fill:url(#linearGradient8309);fill-opacity:1;stroke:#228811;stroke-width:1px;stroke-linecap:round;stroke-linejoin:round;stroke-opacity:1"/><use transform="translate(32,1.7382813e-5)" id="use3821" x="0" y="0" width="96" height="32" xlink:href="#g3814"/><use transform="matrix(-1,0,0,-1,57.127339,2057.5624)" id="use10832" x="0" y="0" width="64" height="32" xlink:href="#path10800"/></g></svg>
