<?xml version="1.0" encoding="UTF-8" standalone="no"?>
<svg xmlns:dc="http://purl.org/dc/elements/1.1/" xmlns:cc="http://creativecommons.org/ns#" xmlns:rdf="http://www.w3.org/1999/02/22-rdf-syntax-ns#" xmlns:svg="http://www.w3.org/2000/svg" xmlns="http://www.w3.org/2000/svg" xmlns:xlink="http://www.w3.org/1999/xlink" xmlns:inkscape="http://www.inkscape.org/namespaces/inkscape" version="1.1" width="128" height="32" id="svg14106"><defs id="defs14108"><linearGradient id="linearGradient4862"><stop id="stop4864" style="stop-color:#969696;stop-opacity:1" offset="0"/><stop id="stop4866" style="stop-color:#b4b4b4;stop-opacity:1" offset="1"/></linearGradient><linearGradient id="linearGradient4714"><stop id="stop4716" style="stop-color:#ff0078;stop-opacity:1" offset="0"/><stop id="stop4718" style="stop-color:#ff1985;stop-opacity:1" offset="1"/></linearGradient><linearGradient id="linearGradient3592-9"><stop id="stop3594-6" style="stop-color:#777777;stop-opacity:0.46666667" offset="0"/><stop id="stop3596-3" style="stop-color:#777777;stop-opacity:0" offset="1"/></linearGradient><radialGradient cx="16" cy="27" r="16" fx="16" fy="27" id="radialGradient3968" xlink:href="#linearGradient3592-9" gradientUnits="userSpaceOnUse" gradientTransform="matrix(1,0,0,0.3125,-2.0003e-4,1038.9247)"/><linearGradient x1="0.57509392" y1="1072.4515" x2="0.60391599" y2="1060.2229" id="linearGradient4992" xlink:href="#linearGradient4862" gradientUnits="userSpaceOnUse"/><linearGradient x1="10.462241" y1="1072.3016" x2="10.564579" y2="1061.2656" id="linearGradient5500" xlink:href="#linearGradient4862" gradientUnits="userSpaceOnUse"/><linearGradient x1="19.18796" y1="1072.771" x2="19.895576" y2="1056.9755" id="linearGradient6276" xlink:href="#linearGradient4714" gradientUnits="userSpaceOnUse" gradientTransform="translate(-10.00425,-0.00187275)"/><linearGradient x1="5.476079" y1="1072.376" x2="5.546319" y2="1060.29" id="linearGradient6280" xlink:href="#linearGradient4862" gradientUnits="userSpaceOnUse" gradientTransform="translate(10.022733,0.00921584)"/><linearGradient x1="109.87003" y1="1083.6937" x2="109.92194" y2="1063.4382" id="linearGradient6288" xlink:href="#linearGradient4862" gradientUnits="userSpaceOnUse"/><linearGradient x1="109.33134" y1="1083.353" x2="109.92194" y2="1063.4382" id="linearGradient6290" xlink:href="#linearGradient4714" gradientUnits="userSpaceOnUse"/><linearGradient x1="109.33134" y1="1083.353" x2="109.92194" y2="1063.4382" id="linearGradient6292" xlink:href="#linearGradient4862" gradientUnits="userSpaceOnUse"/><linearGradient x1="109.33134" y1="1083.353" x2="109.92194" y2="1063.4382" id="linearGradient6294" xlink:href="#linearGradient4862" gradientUnits="userSpaceOnUse"/><linearGradient x1="109.33134" y1="1083.353" x2="109.92194" y2="1063.4382" id="linearGradient6302" xlink:href="#linearGradient4714" gradientUnits="userSpaceOnUse"/></defs><metadata id="metadata14111"><rdf:RDF><cc:Work rdf:about=""><dc:format>image/svg+xml</dc:format><dc:type rdf:resource="http://purl.org/dc/dcmitype/StillImage"/><dc:title/></cc:Work></rdf:RDF></metadata><g transform="translate(0,-1020.3622)" id="layer1"><use transform="translate(64,0)" id="use3936" x="0" y="0" width="224" height="32" xlink:href="#g3930"/><use transform="translate(32,0)" id="use3934" x="0" y="0" width="224" height="32" xlink:href="#g3930"/><g transform="translate(-68,0)" id="g6242"><path d="m 152.5,1034.8622 2,4 2,-4 z" inkscape:connector-curvature="0" id="path3966-4-44" style="fill:#ffcc77;fill-opacity:1;stroke:#995500;stroke-width:1px;stroke-linecap:butt;stroke-linejoin:round;stroke-opacity:1"/><path d="m 152.5,1022.8622 4,0 0,12 -4,0 z" inkscape:connector-curvature="0" id="path3158-9-6-5" style="fill:#ff8800;fill-opacity:1;stroke:#995500;stroke-width:1px;stroke-linecap:round;stroke-linejoin:round;stroke-opacity:1"/></g><g id="g3930"><rect width="32" height="10" x="0" y="1042.3622" id="use5170" style="fill:url(#radialGradient3968);fill-opacity:1;fill-rule:evenodd;stroke:none"/><g transform="matrix(0.93358043,-0.35836795,0.35836795,0.93358043,-372.36025,42.720532)" id="use3926"><path d="m 14.022733,1072.368 0,-12 3,0 0,12 z" inkscape:connector-curvature="0" id="path3956" style="fill:url(#linearGradient6280);fill-opacity:1;stroke:#858585;stroke-width:1px;stroke-linecap:round;stroke-linejoin:round;stroke-opacity:1"/><path d="m 9,1072.3622 0,-11 3,0 0,11 z" inkscape:connector-curvature="0" id="path3958" style="fill:url(#linearGradient5500);fill-opacity:1;stroke:#858585;stroke-width:1px;stroke-linecap:round;stroke-linejoin:round;stroke-opacity:1"/><path d="m 3.9957504,1072.3637 0,-16 3,0 0,16 z" inkscape:connector-curvature="0" id="path3960" style="fill:url(#linearGradient6276);fill-opacity:1;stroke:#e6006c;stroke-width:1px;stroke-linecap:round;stroke-linejoin:round;stroke-opacity:1"/><path d="m -1,1072.3622 0,-9 3,0 0,9 z" inkscape:connector-curvature="0" id="path3962" style="fill:url(#linearGradient4992);fill-opacity:1;stroke:#858585;stroke-width:1px;stroke-linecap:round;stroke-linejoin:round;stroke-opacity:1"/><path d="m -4,54 21.461455,0.0073" inkscape:connector-curvature="0" transform="translate(0,1020.3622)" id="path3964" style="fill:none;stroke:#444444;stroke-width:1px;stroke-linecap:round;stroke-linejoin:bevel;stroke-opacity:1"/><path d="M -3,55 -2.99249,35.538528" inkscape:connector-curvature="0" transform="translate(0,1020.3622)" id="path3966" style="fill:none;stroke:#444444;stroke-width:1px;stroke-linecap:round;stroke-linejoin:round;stroke-opacity:1"/></g></g><use transform="translate(96,0)" id="use3928" x="0" y="0" width="224" height="32" xlink:href="#use5170"/><g transform="matrix(0.93358043,-0.35836795,0.35836795,0.93358043,-381.96064,72.181351)" id="use3996"><rect width="3" height="7" x="118.5" y="1076.8622" id="rect4019" style="fill:url(#linearGradient6294);fill-opacity:1;stroke:#858585;stroke-width:1;stroke-linecap:round;stroke-linejoin:round;stroke-miterlimit:4;stroke-opacity:1;stroke-dasharray:none"/><path d="m 106.5,1063.8622 0,10 m -1,-1 11,0" inkscape:connector-curvature="0" id="path4021" style="fill:none;stroke:#444444;stroke-width:1px;stroke-linecap:round;stroke-linejoin:round;stroke-opacity:1"/><rect width="3" height="5" x="108.5" y="1065.8624" id="rect4023" style="opacity:0.9;fill:url(#linearGradient6288);fill-opacity:1;stroke:#858585;stroke-width:1;stroke-linecap:round;stroke-linejoin:round;stroke-miterlimit:4;stroke-opacity:1;stroke-dasharray:none"/><rect width="3" height="7" x="113.5" y="1063.8624" id="rect4025" style="opacity:0.9;fill:url(#linearGradient6290);fill-opacity:1;stroke:#e6006c;stroke-width:1;stroke-linecap:round;stroke-linejoin:round;stroke-miterlimit:4;stroke-opacity:1;stroke-dasharray:none"/><rect width="3" height="5" x="113.5" y="1078.8622" id="rect4027" style="fill:url(#linearGradient6292);fill-opacity:1;stroke:#858585;stroke-width:1;stroke-linecap:round;stroke-linejoin:round;stroke-miterlimit:4;stroke-opacity:1;stroke-dasharray:none"/><rect width="3" height="13" x="123.5" y="1070.8622" id="rect4029" style="fill:url(#linearGradient6302);fill-opacity:1;stroke:#e6006c;stroke-width:1;stroke-linecap:round;stroke-linejoin:round;stroke-miterlimit:4;stroke-opacity:1;stroke-dasharray:none"/><path d="m 111.5,1075.8622 0,11 m -1,-1 16,0" inkscape:connector-curvature="0" id="path4031" style="fill:none;stroke:#444444;stroke-width:1px;stroke-linecap:round;stroke-linejoin:round;stroke-opacity:1"/></g><g transform="translate(-19.999873,1.0001131)" id="g6634"><path d="m 2878.4882,12.868066 a 6.2394724,6.5106826 0 1 1 -5e-4,-0.02466" transform="matrix(1.0417505,0,0,0.99834845,-2916.168,1020.3836)" id="path6624" style="fill:#33ce00;fill-opacity:1;stroke:#2ba115;stroke-width:0.9805665;stroke-linecap:round;stroke-linejoin:round;stroke-miterlimit:4;stroke-opacity:1;stroke-dasharray:none"/><path d="m 72,1034.3621 0,-2 3.000026,0 0,-3 2,0 0,3 2.999974,0 0,2 -2.999974,0 0,3.0001 -2,0 0,-3.0001 z" inkscape:connector-curvature="0" id="path6628" style="fill:#ffffff;fill-opacity:0.94117647;stroke:none"/></g></g></svg>
