<?xml version="1.0" encoding="UTF-8" standalone="no"?>
<svg xmlns:dc="http://purl.org/dc/elements/1.1/" xmlns:cc="http://creativecommons.org/ns#" xmlns:rdf="http://www.w3.org/1999/02/22-rdf-syntax-ns#" xmlns:svg="http://www.w3.org/2000/svg" xmlns="http://www.w3.org/2000/svg" xmlns:xlink="http://www.w3.org/1999/xlink" xmlns:inkscape="http://www.inkscape.org/namespaces/inkscape" version="1.1" width="160" height="32" id="svg14106"><defs id="defs14108"><linearGradient id="linearGradient4059"><stop id="stop4061" style="stop-color:#ff0078;stop-opacity:1" offset="0"/><stop id="stop4063" style="stop-color:#ff1985;stop-opacity:1" offset="1"/></linearGradient><linearGradient id="linearGradient3592-9"><stop id="stop3594-6" style="stop-color:#777777;stop-opacity:0.46666667" offset="0"/><stop id="stop3596-3" style="stop-color:#777777;stop-opacity:0" offset="1"/></linearGradient><linearGradient x1="486.70044" y1="970.8902" x2="486.70044" y2="949.8902" id="linearGradient6995" xlink:href="#linearGradient4059" gradientUnits="userSpaceOnUse" gradientTransform="translate(-765.99052,42.672794)"/><linearGradient x1="486.70044" y1="970.8902" x2="486.70044" y2="949.8902" id="linearGradient7003" xlink:href="#linearGradient4059" gradientUnits="userSpaceOnUse" gradientTransform="translate(-763.18973,43.747917)"/><radialGradient cx="16" cy="27" r="16" fx="16" fy="27" id="radialGradient4793" xlink:href="#linearGradient3592-9" gradientUnits="userSpaceOnUse" gradientTransform="matrix(1,0,0,0.3125,-2.0003e-4,1038.9247)"/><linearGradient x1="8.4513254" y1="1073.5535" x2="15.944016" y2="1053.9773" id="linearGradient4795" xlink:href="#linearGradient4059" gradientUnits="userSpaceOnUse"/><linearGradient x1="1501" y1="5" x2="1503" y2="11" id="linearGradient3667" xlink:href="#linearGradient6008" gradientUnits="userSpaceOnUse" gradientTransform="translate(1.1345935e-4,1020.5617)"/><linearGradient id="linearGradient6008"><stop id="stop6010" style="stop-color:#2fba18;stop-opacity:1" offset="0"/><stop id="stop6120" style="stop-color:#28a114;stop-opacity:1" offset="0.5"/><stop id="stop6012" style="stop-color:#2fbb17;stop-opacity:1" offset="1"/></linearGradient><linearGradient x1="1498.8068" y1="4.2157669" x2="1504" y2="17" id="linearGradient3738" xlink:href="#linearGradient6008" gradientUnits="userSpaceOnUse" gradientTransform="translate(-3.2806452e-6,1020.5622)"/></defs><metadata id="metadata14111"><rdf:RDF><cc:Work rdf:about=""><dc:format>image/svg+xml</dc:format><dc:type rdf:resource="http://purl.org/dc/dcmitype/StillImage"/><dc:title/></cc:Work></rdf:RDF></metadata><g transform="translate(0,-1020.3622)" id="layer1"><use transform="translate(32,0)" id="use3190" x="0" y="0" width="128" height="32" xlink:href="#g3184"/><g transform="translate(-68,0)" id="g6242"><path d="m 152.5,1034.8622 2,4 2,-4 z" inkscape:connector-curvature="0" id="path3966-4-44" style="fill:#ffcc77;fill-opacity:1;stroke:#995500;stroke-width:1px;stroke-linecap:butt;stroke-linejoin:round;stroke-opacity:1"/><path d="m 152.5,1022.8622 4,0 0,12 -4,0 z" inkscape:connector-curvature="0" id="path3158-9-6-5" style="fill:#ff8800;fill-opacity:1;stroke:#995500;stroke-width:1px;stroke-linecap:round;stroke-linejoin:round;stroke-opacity:1"/></g><g id="g3184"><rect width="32" height="10" x="0" y="1042.3622" id="use5170" style="fill:url(#radialGradient4793);fill-opacity:1;fill-rule:evenodd;stroke:none"/><g transform="matrix(0.74314483,-0.66913061,0.66913061,0.74314483,-701.50212,249.71898)" id="use3926"><path d="m 2.1712268,1071.059 7.525759,-19.6053 3.7343222,1.4335 -7.5257595,19.6053 z" inkscape:connector-curvature="0" id="path3960" style="fill:url(#linearGradient4795);fill-opacity:1;stroke:#e6006c;stroke-width:1px;stroke-linecap:round;stroke-linejoin:round;stroke-opacity:1"/><path d="m -0.4129977,1072.2094 7.4686248,2.867" inkscape:connector-curvature="0" id="path3964" style="fill:none;stroke:#444444;stroke-width:1px;stroke-linecap:round;stroke-linejoin:bevel;stroke-opacity:1"/></g></g><use transform="translate(64,0)" id="use3192" x="0" y="0" width="128" height="32" xlink:href="#g3184"/><use transform="translate(32,0)" id="use4797" x="0" y="0" width="1" height="1" xlink:href="#use3928"/><g id="g4815"><use transform="translate(96,0)" id="use3928" x="0" y="0" width="224" height="32" xlink:href="#use5170"/><g id="g4803"><path d="m 102.69925,1037.4256 6.524,-2.5526" inkscape:connector-curvature="0" id="path4021" style="fill:none;stroke:#444444;stroke-width:1px;stroke-linecap:round;stroke-linejoin:round;stroke-opacity:1"/><rect width="4" height="11" x="-274.42984" y="992.29395" transform="matrix(0.93358043,-0.35836795,0.35836795,0.93358043,0,0)" id="rect4025" style="fill:url(#linearGradient6995);fill-opacity:1;stroke:#e6006c;stroke-width:1;stroke-linecap:round;stroke-linejoin:round;stroke-miterlimit:4;stroke-opacity:1;stroke-dasharray:none"/></g><g id="g4811"><rect width="4" height="17" x="-263.62924" y="1000.3688" transform="matrix(0.93358043,-0.35836795,0.35836795,0.93358043,0,0)" id="rect4029" style="fill:url(#linearGradient7003);fill-opacity:1;stroke:#e6006c;stroke-width:1;stroke-linecap:round;stroke-linejoin:round;stroke-miterlimit:4;stroke-opacity:1;stroke-dasharray:none"/><path d="m 117.32303,1046.8563 7.46905,-2.8671" inkscape:connector-curvature="0" id="path4031" style="fill:none;stroke:#444444;stroke-width:1px;stroke-linecap:round;stroke-linejoin:round;stroke-opacity:1"/></g></g><use transform="translate(33.270115,9.4339735)" id="use4807" x="0" y="0" width="1" height="1" xlink:href="#g4803"/><use transform="translate(14,-2.0955895e-8)" id="use4809" x="0" y="0" width="1" height="1" xlink:href="#use4807"/><g transform="translate(-1376.2118,-1.2999887)" id="use4282"><path d="m 1510.5627,1025.0929 c -2.7803,1.2012 -3.2664,5.0631 -2.562,6.4503 l 3.5372,-1.482 c -0.5745,-1.4152 0.1582,-5.461 2.9222,-6.6605 z" inkscape:connector-curvature="0" id="path4737" style="fill:url(#linearGradient3667);fill-opacity:1;stroke:#228811;stroke-width:1;stroke-linecap:round;stroke-linejoin:round;stroke-miterlimit:4;stroke-opacity:1;stroke-dasharray:none;stroke-dashoffset:0"/><path d="m 1517.7001,1027.3621 -3.0001,1.4001 0.6,1.1998 6.85,2.2002 3.15,-6.9998 -0.6,-1.0624 -3.1,1.4627 c -1.2,-2.6431 -4.696,-3.3356 -7.5563,-2.0584 l -3.4813,1.6517 c 2.5475,-1.2709 5.9974,-0.4263 7.1377,2.2061 z" inkscape:connector-curvature="0" id="path4739" style="fill:url(#linearGradient3738);fill-opacity:1;stroke:#228811;stroke-width:1;stroke-linecap:round;stroke-linejoin:round;stroke-miterlimit:4;stroke-opacity:1;stroke-dasharray:none;stroke-dashoffset:0"/></g><g transform="translate(-19.999873,1.0001131)" id="g6634"><path d="m 2878.4882,12.868066 a 6.2394724,6.5106826 0 1 1 -5e-4,-0.02466" transform="matrix(1.0417505,0,0,0.99834845,-2916.168,1020.3836)" id="path6624" style="fill:#33ce00;fill-opacity:1;stroke:#2ba115;stroke-width:0.9805665;stroke-linecap:round;stroke-linejoin:round;stroke-miterlimit:4;stroke-opacity:1;stroke-dasharray:none"/><path d="m 72,1034.3621 0,-2 3.000026,0 0,-3 2,0 0,3 2.999974,0 0,2 -2.999974,0 0,3.0001 -2,0 0,-3.0001 z" inkscape:connector-curvature="0" id="path6628" style="fill:#ffffff;fill-opacity:0.94117647;stroke:none"/></g></g></svg>
