<?xml version="1.0" encoding="UTF-8" standalone="no"?>
<svg
   xmlns:dc="http://purl.org/dc/elements/1.1/"
   xmlns:cc="http://creativecommons.org/ns#"
   xmlns:rdf="http://www.w3.org/1999/02/22-rdf-syntax-ns#"
   xmlns:svg="http://www.w3.org/2000/svg"
   xmlns="http://www.w3.org/2000/svg"
   xmlns:xlink="http://www.w3.org/1999/xlink"
   version="1.1"
   id="svg14106"
   height="32"
   width="160">
  <defs
     id="defs14108">
    <linearGradient
       id="linearGradient4059">
      <stop
         id="stop4061"
         offset="0"
         style="stop-color:#ff0078;stop-opacity:1;" />
      <stop
         id="stop4063"
         offset="1"
         style="stop-color:#ff1985;stop-opacity:1;" />
    </linearGradient>
    <linearGradient
       id="linearGradient3592-9">
      <stop
         style="stop-color:#000000;stop-opacity:0.2;"
         offset="0"
         id="stop3594-6" />
      <stop
         style="stop-color:#000000;stop-opacity:0;"
         offset="1"
         id="stop3596-3" />
    </linearGradient>
    <radialGradient
       r="6.2500243"
       fy="11.073713"
       fx="2873.21"
       cy="11.073713"
       cx="2873.21"
       gradientTransform="matrix(0.84472205,-1.3923892e-6,1.3343892e-6,0.8814524,446.14615,1.2397114)"
       gradientUnits="userSpaceOnUse"
       id="radialGradient4629"
       xlink:href="#linearGradient5195-0" />
    <linearGradient
       id="linearGradient5195-0">
      <stop
         style="stop-color:#9bff7e;stop-opacity:1;"
         offset="0"
         id="stop5197-6" />
      <stop
         style="stop-color:#2fba18;stop-opacity:1;"
         offset="1"
         id="stop5199-2-2" />
    </linearGradient>
    <radialGradient
       r="5.5000229"
       fy="5.5"
       fx="2889"
       cy="5.5"
       cx="2889"
       gradientUnits="userSpaceOnUse"
       id="radialGradient4631"
       xlink:href="#linearGradient4073" />
    <linearGradient
       id="linearGradient4073">
      <stop
         style="stop-color:#9bff7e;stop-opacity:0;"
         offset="0"
         id="stop4075" />
      <stop
         id="stop4081"
         offset="0.67647058"
         style="stop-color:#9bff7e;stop-opacity:0.22352941;" />
      <stop
         style="stop-color:#9bff7e;stop-opacity:0.67716533;"
         offset="1"
         id="stop4077" />
    </linearGradient>
    <linearGradient
       gradientTransform="translate(-765.99052,42.672794)"
       gradientUnits="userSpaceOnUse"
       y2="949.8902"
       x2="486.70044"
       y1="970.8902"
       x1="486.70044"
       id="linearGradient6995"
       xlink:href="#linearGradient4059" />
    <linearGradient
       gradientTransform="translate(-763.18973,43.747917)"
       gradientUnits="userSpaceOnUse"
       y2="949.8902"
       x2="486.70044"
       y1="970.8902"
       x1="486.70044"
       id="linearGradient7003"
       xlink:href="#linearGradient4059" />
    <radialGradient
       r="16"
       fy="27"
       fx="16"
       cy="27"
       cx="16"
       gradientTransform="matrix(1,0,0,0.3125,-2.0003e-4,1038.9247)"
       gradientUnits="userSpaceOnUse"
       id="radialGradient4793"
       xlink:href="#linearGradient3592-9" />
    <linearGradient
       y2="1053.9773"
       x2="15.944016"
       y1="1073.5535"
       x1="8.4513254"
       gradientUnits="userSpaceOnUse"
       id="linearGradient4795"
       xlink:href="#linearGradient4059" />
    <linearGradient
       y2="11"
       x2="1503"
       y1="5"
       x1="1501"
       gradientTransform="translate(1.1345935e-4,1020.5617)"
       gradientUnits="userSpaceOnUse"
       id="linearGradient3667"
       xlink:href="#linearGradient6008" />
    <linearGradient
       id="linearGradient6008">
      <stop
         offset="0"
         style="stop-color:#2fba18;stop-opacity:1"
         id="stop6010" />
      <stop
         offset="0.5"
         style="stop-color:#28a114;stop-opacity:1"
         id="stop6120" />
      <stop
         offset="1"
         style="stop-color:#2fbb17;stop-opacity:1"
         id="stop6012" />
    </linearGradient>
    <linearGradient
       xlink:href="#linearGradient6008"
       id="linearGradient3738"
       gradientUnits="userSpaceOnUse"
       gradientTransform="translate(-3.2806452e-6,1020.5622)"
       x1="1498.8068"
       y1="4.2157669"
       x2="1504"
       y2="17" />
  </defs>
  <metadata
     id="metadata14111">
    <rdf:RDF>
      <cc:Work
         rdf:about="">
        <dc:format>image/svg+xml</dc:format>
        <dc:type
           rdf:resource="http://purl.org/dc/dcmitype/StillImage" />
        <dc:title />
      </cc:Work>
    </rdf:RDF>
  </metadata>
  <g
     transform="translate(0,-1020.3622)"
     id="layer1">
    <use
       height="32"
       width="128"
       transform="translate(32,0)"
       id="use3190"
       xlink:href="#g3184"
       y="0"
       x="0" />
    <g
       transform="translate(-2827.5,19.499945)"
       id="g5344">
      <path
         style="fill:url(#radialGradient4629);fill-opacity:1;stroke:#19640c;stroke-width:1;stroke-linecap:round;stroke-linejoin:round;stroke-miterlimit:4;stroke-dasharray:none;stroke-opacity:1"
         id="path5322"
         d="m 2877.9988,12.878415 a 5.75,6 0 0 1 -5.6268,6.120235 5.75,6 0 0 1 -5.8706,-5.865703 5.75,6 0 0 1 5.6157,-6.1313453 5.75,6 0 0 1 5.8812,5.8540903"
         transform="matrix(1.0417505,0,0,0.99834845,-108.66787,1000.8837)" />
      <path
         style="fill:url(#radialGradient4631);fill-opacity:1;stroke:none"
         id="path5334"
         d="m 2894.4989,5.3885468 a 5.5,5.5 0 0 1 -5.3822,5.6102162 5.5,5.5 0 0 1 -5.6153,-5.3768951 5.5,5.5 0 0 1 5.3715,-5.6203997 5.5,5.5 0 0 1 5.6255,5.3662497"
         transform="translate(-5.5,1008.3622)" />
      <path
         style="fill:#ffffff;fill-opacity:0.94117647;stroke:#19640c;stroke-width:1px;stroke-linecap:round;stroke-linejoin:round;stroke-opacity:0.25098039"
         d="m 2880,1014.8622 0,-2 2.5,0 0,-2.5 2,0 0,2.5 2.5,0 0,2 -2.5,0 0,2.5 -2,0 0,-2.5 z"
         id="path5290" />
    </g>
    <g
       transform="translate(-68,0)"
       id="g6242">
      <path
         style="fill:#ffcc77;fill-opacity:1;stroke:#995500;stroke-width:1px;stroke-linecap:butt;stroke-linejoin:round;stroke-opacity:1"
         d="m 152.5,1034.8622 2,4 2,-4 z"
         id="path3966-4-44" />
      <path
         style="fill:#ff8800;fill-opacity:1;stroke:#995500;stroke-width:1px;stroke-linecap:round;stroke-linejoin:round;stroke-opacity:1"
         d="m 152.5,1022.8622 4,0 0,12 -4,0 z"
         id="path3158-9-6-5" />
    </g>
    <g
       id="g3184">
      <rect
         style="fill:url(#radialGradient4793);fill-opacity:1;fill-rule:evenodd;stroke:none"
         id="use5170"
         width="32"
         height="10"
         x="0"
         y="1042.3622" />
      <g
         transform="matrix(0.74314483,-0.66913061,0.66913061,0.74314483,-701.50212,249.71898)"
         id="use3926">
        <path
           id="path3960"
           d="m 2.1712268,1071.059 7.525759,-19.6053 3.7343222,1.4335 -7.5257595,19.6053 z"
           style="fill:url(#linearGradient4795);fill-opacity:1;stroke:#e6006c;stroke-width:1px;stroke-linecap:round;stroke-linejoin:round;stroke-opacity:1" />
        <path
           id="path3964"
           d="m -0.4129977,1072.2094 7.4686248,2.867"
           style="fill:none;stroke:#444444;stroke-width:1px;stroke-linecap:round;stroke-linejoin:bevel;stroke-opacity:1" />
      </g>
    </g>
    <use
       height="32"
       width="128"
       transform="translate(64,0)"
       id="use3192"
       xlink:href="#g3184"
       y="0"
       x="0" />
    <use
       height="100%"
       width="100%"
       transform="translate(32,0)"
       id="use4797"
       xlink:href="#use3928"
       y="0"
       x="0" />
    <g
       id="g4815">
      <use
         x="0"
         y="0"
         xlink:href="#use5170"
         id="use3928"
         transform="translate(96,0)"
         width="224"
         height="32" />
      <g
         id="g4803">
        <path
           id="path4021"
           d="m 102.69925,1037.4256 6.524,-2.5526"
           style="fill:none;stroke:#444444;stroke-width:1px;stroke-linecap:round;stroke-linejoin:round;stroke-opacity:1" />
        <rect
           y="992.29395"
           x="-274.42984"
           height="11"
           width="4"
           id="rect4025"
           style="fill:url(#linearGradient6995);fill-opacity:1;stroke:#e6006c;stroke-width:1;stroke-linecap:round;stroke-linejoin:round;stroke-miterlimit:4;stroke-dasharray:none;stroke-opacity:1"
           transform="matrix(0.93358043,-0.35836795,0.35836795,0.93358043,0,0)" />
      </g>
      <g
         id="g4811">
        <rect
           style="fill:url(#linearGradient7003);fill-opacity:1;stroke:#e6006c;stroke-width:1;stroke-linecap:round;stroke-linejoin:round;stroke-miterlimit:4;stroke-dasharray:none;stroke-opacity:1"
           id="rect4029"
           width="4"
           height="17"
           x="-263.62924"
           y="1000.3688"
           transform="matrix(0.93358043,-0.35836795,0.35836795,0.93358043,0,0)" />
        <path
           style="fill:none;stroke:#444444;stroke-width:1px;stroke-linecap:round;stroke-linejoin:round;stroke-opacity:1"
           d="m 117.32303,1046.8563 7.46905,-2.8671"
           id="path4031" />
      </g>
    </g>
    <use
       height="100%"
       width="100%"
       transform="translate(33.270115,9.4339735)"
       id="use4807"
       xlink:href="#g4803"
       y="0"
       x="0" />
    <use
       height="100%"
       width="100%"
       transform="translate(14,-2.0955895e-8)"
       id="use4809"
       xlink:href="#use4807"
       y="0"
       x="0" />
    <g
       transform="translate(-1376.2118,-1.2999887)"
       id="use4282">
      <path
         d="m 1510.5627,1025.0929 c -2.7803,1.2012 -3.2664,5.0631 -2.562,6.4503 l 3.5372,-1.482 c -0.5745,-1.4152 0.1582,-5.461 2.9222,-6.6605 z"
         id="path4737"
         style="fill:url(#linearGradient3667);fill-opacity:1;stroke:#228811;stroke-width:1;stroke-linecap:round;stroke-linejoin:round;stroke-miterlimit:4;stroke-dasharray:none;stroke-dashoffset:0;stroke-opacity:1" />
      <path
         d="m 1517.7001,1027.3621 -3.0001,1.4001 0.6,1.1998 6.85,2.2002 3.15,-6.9998 -0.6,-1.0624 -3.1,1.4627 c -1.2,-2.6431 -4.696,-3.3356 -7.5563,-2.0584 l -3.4813,1.6517 c 2.5475,-1.2709 5.9974,-0.4263 7.1377,2.2061 z"
         id="path4739"
         style="fill:url(#linearGradient3738);fill-opacity:1;stroke:#228811;stroke-width:1;stroke-linecap:round;stroke-linejoin:round;stroke-miterlimit:4;stroke-dasharray:none;stroke-dashoffset:0;stroke-opacity:1" />
    </g>
  </g>
</svg>
