<?xml version="1.0" encoding="UTF-8" standalone="no"?>
<svg xmlns:dc="http://purl.org/dc/elements/1.1/" xmlns:cc="http://creativecommons.org/ns#" xmlns:rdf="http://www.w3.org/1999/02/22-rdf-syntax-ns#" xmlns:svg="http://www.w3.org/2000/svg" xmlns="http://www.w3.org/2000/svg" xmlns:xlink="http://www.w3.org/1999/xlink" xmlns:inkscape="http://www.inkscape.org/namespaces/inkscape" version="1.1" width="192" height="32" id="svg12497"><defs id="defs12499"><linearGradient id="linearGradient4197-5"><stop id="stop4199-8" style="stop-color:#ffee99;stop-opacity:1" offset="0"/><stop id="stop4201-3" style="stop-color:#ffe770;stop-opacity:1" offset="1"/></linearGradient><linearGradient id="linearGradient4189-8"><stop id="stop4191-4" style="stop-color:#ee9922;stop-opacity:1" offset="0"/><stop id="stop4193-0" style="stop-color:#b9730e;stop-opacity:1" offset="1"/></linearGradient><linearGradient id="linearGradient3592-9-5"><stop id="stop3594-6-2" style="stop-color:#777777;stop-opacity:0.46666667" offset="0"/><stop id="stop3596-3-6" style="stop-color:#777777;stop-opacity:0" offset="1"/></linearGradient><linearGradient x1="1501" y1="5" x2="1503" y2="11" id="linearGradient4765" xlink:href="#linearGradient6008" gradientUnits="userSpaceOnUse" gradientTransform="translate(1.1345935e-4,1020.5617)"/><linearGradient id="linearGradient6008"><stop id="stop6010" style="stop-color:#2fba18;stop-opacity:1" offset="0"/><stop id="stop6120" style="stop-color:#28a114;stop-opacity:1" offset="0.5"/><stop id="stop6012" style="stop-color:#2fbb17;stop-opacity:1" offset="1"/></linearGradient><linearGradient x1="1498.8068" y1="4.2157669" x2="1504" y2="17" id="linearGradient4767" xlink:href="#linearGradient6008" gradientUnits="userSpaceOnUse" gradientTransform="translate(-3.2806452e-6,1020.5622)"/><radialGradient cx="12.11248" cy="9.9016638" r="12.863735" fx="12.11248" fy="9.9016638" id="radialGradient4769" xlink:href="#linearGradient4197-5" gradientUnits="userSpaceOnUse" gradientTransform="matrix(1.206524,-0.02659563,0.02285661,1.0369014,-2.7278356,0.20794129)"/><linearGradient x1="-12.73225" y1="14.244227" x2="2.4488442" y2="30.66173" id="linearGradient4771" xlink:href="#linearGradient4189-8" gradientUnits="userSpaceOnUse"/><linearGradient x1="2282.9392" y1="56.999981" x2="2282.9392" y2="41.783119" id="linearGradient4773" xlink:href="#linearGradient3795" gradientUnits="userSpaceOnUse" gradientTransform="matrix(0.75574056,0,0,0.75574056,666.19022,1036.285)"/><linearGradient id="linearGradient3795"><stop id="stop3797" style="stop-color:#dadada;stop-opacity:1" offset="0"/><stop id="stop3799" style="stop-color:#ffffff;stop-opacity:1" offset="1"/></linearGradient><linearGradient x1="2281.616" y1="41.783119" x2="2281.616" y2="56.999981" id="linearGradient4776" xlink:href="#linearGradient3633-25" gradientUnits="userSpaceOnUse" gradientTransform="matrix(0.75574056,0,0,0.75574056,666.19022,1036.285)"/><linearGradient id="linearGradient3633-25"><stop id="stop3635-50" style="stop-color:#989898;stop-opacity:1" offset="0"/><stop id="stop3637-9" style="stop-color:#6b6b6b;stop-opacity:1" offset="1"/></linearGradient><linearGradient x1="2254.116" y1="43.283119" x2="2254.116" y2="58.499981" id="linearGradient4778" xlink:href="#linearGradient3633-25" gradientUnits="userSpaceOnUse" gradientTransform="matrix(0.75574056,0,0,0.75574056,686.97309,1035.1514)"/><linearGradient x1="2254.116" y1="58.499981" x2="2254.116" y2="43.283119" id="linearGradient4780" xlink:href="#linearGradient3795" gradientUnits="userSpaceOnUse" gradientTransform="matrix(0.75574056,0,0,0.75574056,686.97309,1035.1514)"/><linearGradient x1="2255.4392" y1="43.283119" x2="2255.4392" y2="58.499981" id="linearGradient4782" xlink:href="#linearGradient3633-25" gradientUnits="userSpaceOnUse" gradientTransform="matrix(0.75574056,0,0,0.75574056,686.97309,1035.1514)"/><linearGradient x1="2254.116" y1="43.283119" x2="2254.116" y2="58.499981" id="linearGradient4784" xlink:href="#linearGradient3633-25" gradientUnits="userSpaceOnUse" gradientTransform="matrix(0.75574056,0,0,-0.75574056,686.97309,1098.573)"/><radialGradient cx="16" cy="27" r="16" fx="16" fy="27" id="radialGradient3212" xlink:href="#linearGradient3592-9-5" gradientUnits="userSpaceOnUse" gradientTransform="matrix(1,0,0,0.3125,-1.999995e-4,1038.9249)"/><radialGradient cx="12.11248" cy="9.9016638" r="12.863735" fx="12.11248" fy="9.9016638" id="radialGradient3214" xlink:href="#linearGradient4197-5" gradientUnits="userSpaceOnUse" gradientTransform="matrix(1.206524,-0.02659563,0.02285661,1.0369014,-2.7278356,0.20794129)"/><linearGradient x1="-12.73225" y1="14.244227" x2="2.4488442" y2="30.66173" id="linearGradient3216" xlink:href="#linearGradient4189-8" gradientUnits="userSpaceOnUse"/><radialGradient cx="16" cy="27" r="16" fx="16" fy="27" id="radialGradient3228" xlink:href="#linearGradient3592-9-5" gradientUnits="userSpaceOnUse" gradientTransform="matrix(1,0,0,0.3125,127.9998,1038.9248)"/></defs><metadata id="metadata12502"><rdf:RDF><cc:Work rdf:about=""><dc:format>image/svg+xml</dc:format><dc:type rdf:resource="http://purl.org/dc/dcmitype/StillImage"/><dc:title/></cc:Work></rdf:RDF></metadata><g transform="translate(0,-1020.3622)" id="layer1"><g id="g12912"><rect width="32" height="10" x="0" y="1042.3622" id="use5275" style="fill:url(#radialGradient3212);fill-opacity:1;fill-rule:evenodd;stroke:none"/><path d="M 15,27 11.179396,19.25861 2.6362654,18.017221 8.8181327,11.991389 7.3587914,3.4827793 15,7.5 22.641208,3.4827789 21.181867,11.99139 l 6.181868,6.025831 -8.543131,1.24139 z" transform="matrix(0.96032197,0.27889373,-0.27889373,0.96032197,6.19923,1017.2342)" id="use5243" style="fill:url(#radialGradient3214);fill-opacity:1;stroke:url(#linearGradient3216);stroke-width:1;stroke-linecap:round;stroke-linejoin:round;stroke-miterlimit:4;stroke-opacity:1;stroke-dasharray:none"/></g><use transform="translate(97,1.7382813e-5)" id="use12910" x="0" y="0" width="128" height="32" xlink:href="#use5275"/><use transform="translate(32,1.7382813e-5)" id="use12916" x="0" y="0" width="128" height="32" xlink:href="#g12912"/><use transform="translate(32,0)" id="use12918" x="0" y="0" width="128" height="32" xlink:href="#use12916"/><g transform="translate(63.094,-9.9236823e-5)" id="g5333"><use transform="translate(30.699996,0)" id="use5309" x="0" y="0" width="3136" height="32" xlink:href="#use5243"/><use transform="translate(33.699996,0)" id="use5311" x="0" y="0" width="3136" height="32" xlink:href="#use5243"/></g><g transform="translate(-68,0)" id="g6242"><path d="m 152.5,1034.8622 2,4 2,-4 z" inkscape:connector-curvature="0" id="path3966-4-44" style="fill:#ffcc77;fill-opacity:1;stroke:#995500;stroke-width:1px;stroke-linecap:butt;stroke-linejoin:round;stroke-opacity:1"/><path d="m 152.5,1022.8622 4,0 0,12 -4,0 z" inkscape:connector-curvature="0" id="path3158-9-6-5" style="fill:#ff8800;fill-opacity:1;stroke:#995500;stroke-width:1px;stroke-linecap:round;stroke-linejoin:round;stroke-opacity:1"/></g><rect width="32" height="10" x="128" y="1042.3622" id="use4187" style="fill:url(#radialGradient3228);fill-opacity:1;fill-rule:evenodd;stroke:none"/><g transform="translate(-1376.212,-0.30001858)" id="use4282"><path d="m 1510.5627,1025.0929 c -2.7803,1.2012 -3.2664,5.0631 -2.562,6.4503 l 3.5372,-1.482 c -0.5745,-1.4152 0.1582,-5.461 2.9222,-6.6605 z" inkscape:connector-curvature="0" id="path4737" style="fill:url(#linearGradient4765);fill-opacity:1;stroke:#228811;stroke-width:1;stroke-linecap:round;stroke-linejoin:round;stroke-miterlimit:4;stroke-opacity:1;stroke-dasharray:none;stroke-dashoffset:0"/><path d="m 1517.7001,1027.3621 -3.0001,1.4001 0.6,1.1998 6.85,2.2002 3.15,-6.9998 -0.6,-1.0624 -3.1,1.4627 c -1.2,-2.6431 -4.696,-3.3356 -7.5563,-2.0584 l -3.4813,1.6517 c 2.5475,-1.2709 5.9974,-0.4263 7.1377,2.2061 z" inkscape:connector-curvature="0" id="path4739" style="fill:url(#linearGradient4767);fill-opacity:1;stroke:#228811;stroke-width:1;stroke-linecap:round;stroke-linejoin:round;stroke-miterlimit:4;stroke-opacity:1;stroke-dasharray:none;stroke-dashoffset:0"/></g><path d="M 15,27 11.179396,19.25861 2.6362654,18.017221 8.8181327,11.991389 7.3587914,3.4827793 15,7.5 22.641208,3.4827789 21.181867,11.99139 l 6.181868,6.025831 -8.543131,1.24139 z" transform="matrix(0.52259007,0.151769,-0.151769,0.52259007,146.1942,1029.8427)" id="path4294" style="fill:url(#radialGradient4769);fill-opacity:1;stroke:url(#linearGradient4771);stroke-width:1.83762002;stroke-linecap:round;stroke-linejoin:round;stroke-miterlimit:4;stroke-opacity:1;stroke-dasharray:none"/><g transform="matrix(0.51691125,-0.2019099,0.2019099,0.51691125,-1317.7429,969.11758)" id="use6087" style="stroke-width:1.80197775;stroke-miterlimit:4;stroke-dasharray:none"><path d="m 2403.5,1066.8622 0,13.5 -19.5,0 0,-13.5" inkscape:connector-curvature="0" id="path11719" style="fill:url(#linearGradient4773);fill-opacity:1;stroke:url(#linearGradient4776);stroke-width:1.80197775;stroke-linecap:round;stroke-linejoin:round;stroke-miterlimit:4;stroke-opacity:1;stroke-dasharray:none"/><path d="m 2384,1066.8622 9,8 1.5,0 9,-8" inkscape:connector-curvature="0" id="path11721" style="fill:none;stroke:url(#linearGradient4778);stroke-width:1.80197775;stroke-linecap:round;stroke-linejoin:round;stroke-miterlimit:4;stroke-opacity:1;stroke-dasharray:none"/><path d="m 2384.8608,1079.5019 8.1392,-7.6397 1.5,0 8.1391,7.6397" inkscape:connector-curvature="0" id="path11723" style="fill:url(#linearGradient4780);fill-opacity:1;stroke:url(#linearGradient4782);stroke-width:1.80197775;stroke-linecap:round;stroke-linejoin:round;stroke-miterlimit:4;stroke-opacity:1;stroke-dasharray:none"/><path d="m 2384,1066.8622 8.5,-8 2,0 9,8" inkscape:connector-curvature="0" id="path11725" style="fill:#ffffff;fill-opacity:1;stroke:url(#linearGradient4784);stroke-width:1.80197775;stroke-linecap:round;stroke-linejoin:round;stroke-miterlimit:4;stroke-opacity:1;stroke-dasharray:none"/></g><use transform="translate(32,0)" id="use3230" x="0" y="0" width="192" height="32" xlink:href="#use4187"/><use transform="translate(32,0)" id="use3232" x="0" y="0" width="192" height="32" xlink:href="#use4282"/><use transform="translate(32,0)" id="use3234" x="0" y="0" width="192" height="32" xlink:href="#path4294"/><use transform="translate(16.99957,0)" id="use3236" x="0" y="0" width="192" height="32" xlink:href="#path4294"/><g transform="translate(-19.999873,1.0001129)" id="g6634"><path d="m 2878.4882,12.868066 a 6.2394724,6.5106826 0 1 1 -5e-4,-0.02466" transform="matrix(1.0417505,0,0,0.99834845,-2916.168,1020.3836)" id="path6624" style="fill:#33ce00;fill-opacity:1;stroke:#2ba115;stroke-width:0.9805665;stroke-linecap:round;stroke-linejoin:round;stroke-miterlimit:4;stroke-opacity:1;stroke-dasharray:none"/><path d="m 72,1034.3621 0,-2 3.000026,0 0,-3 2,0 0,3 2.999974,0 0,2 -2.999974,0 0,3.0001 -2,0 0,-3.0001 z" inkscape:connector-curvature="0" id="path6628" style="fill:#ffffff;fill-opacity:0.94117647;stroke:none"/></g></g></svg>
