<?xml version="1.0" encoding="UTF-8" standalone="no"?>
<svg xmlns:dc="http://purl.org/dc/elements/1.1/" xmlns:cc="http://creativecommons.org/ns#" xmlns:rdf="http://www.w3.org/1999/02/22-rdf-syntax-ns#" xmlns:svg="http://www.w3.org/2000/svg" xmlns="http://www.w3.org/2000/svg" xmlns:xlink="http://www.w3.org/1999/xlink" xmlns:inkscape="http://www.inkscape.org/namespaces/inkscape" version="1.1" width="192" height="32" id="svg2"><defs id="defs4"><linearGradient id="linearGradient4116"><stop id="stop4118" style="stop-color:#bbbbbb;stop-opacity:1" offset="0"/><stop id="stop4120" style="stop-color:#aaaaaa;stop-opacity:1" offset="1"/></linearGradient><linearGradient id="linearGradient3592-9-5"><stop id="stop3594-6-2" style="stop-color:#777777;stop-opacity:0.46666667" offset="0"/><stop id="stop3596-3-6" style="stop-color:#777777;stop-opacity:0" offset="1"/></linearGradient><linearGradient x1="21" y1="1059.3622" x2="21" y2="1077.3622" id="linearGradient3383" xlink:href="#linearGradient4116" gradientUnits="userSpaceOnUse"/><radialGradient cx="16" cy="27" r="16" fx="16" fy="27" id="radialGradient3522" xlink:href="#linearGradient3592-9-5" gradientUnits="userSpaceOnUse" gradientTransform="matrix(1,0,0,0.3125,-2e-4,1038.9249)"/><linearGradient x1="1501" y1="5" x2="1503" y2="11" id="linearGradient4765" xlink:href="#linearGradient6008" gradientUnits="userSpaceOnUse" gradientTransform="translate(1.1345935e-4,1020.5617)"/><linearGradient id="linearGradient6008"><stop id="stop6010" style="stop-color:#2fba18;stop-opacity:1" offset="0"/><stop id="stop6120" style="stop-color:#28a114;stop-opacity:1" offset="0.5"/><stop id="stop6012" style="stop-color:#2fbb17;stop-opacity:1" offset="1"/></linearGradient><linearGradient x1="1498.8068" y1="4.2157669" x2="1504" y2="17" id="linearGradient4441" xlink:href="#linearGradient6008" gradientUnits="userSpaceOnUse" gradientTransform="translate(-3.2806452e-6,1020.5622)"/><linearGradient x1="21" y1="1059.3622" x2="21" y2="1074.3622" id="linearGradient5832" xlink:href="#linearGradient4116" gradientUnits="userSpaceOnUse" gradientTransform="translate(130,-32)"/><linearGradient x1="2282.9392" y1="56.999981" x2="2282.9392" y2="41.783119" id="linearGradient8609" xlink:href="#linearGradient3795" gradientUnits="userSpaceOnUse" gradientTransform="matrix(0.75574056,0,0,0.75574056,666.19022,1036.285)"/><linearGradient id="linearGradient3795"><stop id="stop3797" style="stop-color:#dadada;stop-opacity:1" offset="0"/><stop id="stop3799" style="stop-color:#ffffff;stop-opacity:1" offset="1"/></linearGradient><linearGradient x1="2281.616" y1="41.783119" x2="2281.616" y2="56.999981" id="linearGradient8611" xlink:href="#linearGradient3633-25" gradientUnits="userSpaceOnUse" gradientTransform="matrix(0.75574056,0,0,0.75574056,666.19022,1036.285)"/><linearGradient id="linearGradient3633-25"><stop id="stop3635-50" style="stop-color:#989898;stop-opacity:1" offset="0"/><stop id="stop3637-9" style="stop-color:#6b6b6b;stop-opacity:1" offset="1"/></linearGradient><linearGradient x1="2254.116" y1="43.283119" x2="2254.116" y2="58.499981" id="linearGradient8613" xlink:href="#linearGradient3633-25" gradientUnits="userSpaceOnUse" gradientTransform="matrix(0.75574056,0,0,0.75574056,686.97309,1035.1514)"/><linearGradient x1="2254.116" y1="58.499981" x2="2254.116" y2="43.283119" id="linearGradient8615" xlink:href="#linearGradient3795" gradientUnits="userSpaceOnUse" gradientTransform="matrix(0.75574056,0,0,0.75574056,686.97309,1035.1514)"/><linearGradient x1="2255.4392" y1="43.283119" x2="2255.4392" y2="58.499981" id="linearGradient8617" xlink:href="#linearGradient3633-25" gradientUnits="userSpaceOnUse" gradientTransform="matrix(0.75574056,0,0,0.75574056,686.97309,1035.1514)"/><linearGradient x1="2254.116" y1="43.283119" x2="2254.116" y2="58.499981" id="linearGradient5885" xlink:href="#linearGradient3633-25" gradientUnits="userSpaceOnUse" gradientTransform="matrix(0.75574056,0,0,-0.75574056,686.97309,1098.573)"/></defs><metadata id="metadata7"><rdf:RDF><cc:Work rdf:about=""><dc:format>image/svg+xml</dc:format><dc:type rdf:resource="http://purl.org/dc/dcmitype/StillImage"/><dc:title/></cc:Work></rdf:RDF></metadata><g transform="translate(0,-1020.3622)" id="layer1"><use transform="translate(64,0)" id="use3615" x="0" y="0" width="192" height="32" xlink:href="#g3587"/><use transform="translate(32,0)" id="use3613" x="0" y="0" width="192" height="32" xlink:href="#g3587"/><g id="g3587"><rect width="32" height="10" x="0" y="1042.3622" id="use3107" style="fill:url(#radialGradient3522);fill-opacity:1;fill-rule:evenodd;stroke:none"/><g transform="matrix(0.93358043,-0.35836795,0.35836795,0.93358043,-384.60487,44.354007)" id="use3109"><path d="m 10.5,1058.8622 17,0 0,19 -17,0 z" inkscape:connector-curvature="0" id="path3284" style="fill:url(#linearGradient3383);fill-opacity:1;stroke:#55555f;stroke-linecap:round;stroke-linejoin:round;stroke-opacity:1"/><rect width="14" height="4" x="12" y="1060.3622" id="rect3286" style="fill:#000000;fill-opacity:1;stroke:none"/><rect width="2" height="2" x="12" y="1065.3622" id="rect3288" style="fill:#eeeeee;fill-opacity:1;stroke:none"/><rect width="2" height="2" x="15" y="1065.3622" id="rect3290" style="fill:#eeeeee;fill-opacity:1;stroke:none"/><rect width="2" height="2" x="12" y="1068.3622" id="rect3292" style="fill:#eeeeee;fill-opacity:1;stroke:none"/><rect width="2" height="2" x="15" y="1068.3622" id="rect3294" style="fill:#eeeeee;fill-opacity:1;stroke:none"/><rect width="2" height="2" x="12" y="1071.3622" id="rect3296" style="fill:#eeeeee;fill-opacity:1;stroke:none"/><rect width="2" height="2" x="15" y="1071.3622" id="rect3298" style="fill:#eeeeee;fill-opacity:1;stroke:none"/><rect width="2" height="2" x="12" y="1074.3622" id="rect3300" style="fill:#eeeeee;fill-opacity:1;stroke:none"/><rect width="2" height="2" x="15" y="1074.3622" id="rect3302" style="fill:#eeeeee;fill-opacity:1;stroke:none"/><rect width="2" height="2" x="18" y="1065.3622" id="rect3304" style="fill:#eeeeee;fill-opacity:1;stroke:none"/><rect width="2" height="2" x="18" y="1068.3622" id="rect3306" style="fill:#eeeeee;fill-opacity:1;stroke:none"/><rect width="2" height="2" x="18" y="1071.3622" id="rect3308" style="fill:#eeeeee;fill-opacity:1;stroke:none"/><rect width="2" height="2" x="18" y="1074.3622" id="rect3310" style="fill:#eeeeee;fill-opacity:1;stroke:none"/><rect width="2" height="2.0000174" x="21" y="1065.3622" id="rect3312" style="fill:#666666;fill-opacity:1;stroke:none"/><rect width="2" height="2.0000174" x="21" y="1068.3622" id="rect3314" style="fill:#666666;fill-opacity:1;stroke:none"/><rect width="2" height="2.0000174" x="21" y="1071.3622" id="rect3316" style="fill:#666666;fill-opacity:1;stroke:none"/><rect width="2" height="2.0000174" x="21" y="1074.3622" id="rect3318" style="fill:#666666;fill-opacity:1;stroke:none"/><rect width="2" height="2" x="23" y="1061.3622" id="rect3320" style="fill:#00c42a;fill-opacity:1;stroke:none"/><rect width="2" height="2.0000174" x="24" y="1068.3622" id="rect3322" style="fill:#666666;fill-opacity:1;stroke:none"/><rect width="2" height="5" x="24" y="1071.3622" id="rect3324" style="fill:#666666;fill-opacity:1;stroke:none"/><rect width="2" height="2.0000174" x="24" y="1065.3622" id="rect3326" style="fill:#f60000;fill-opacity:1;stroke:none"/></g></g><g transform="translate(-19.999873,1.0001131)" id="g6634"><path d="m 2878.4882,12.868066 a 6.2394724,6.5106826 0 1 1 -5e-4,-0.02466" transform="matrix(1.0417505,0,0,0.99834845,-2916.168,1020.3836)" id="path6624" style="fill:#33ce00;fill-opacity:1;stroke:#2ba115;stroke-width:0.9805665;stroke-linecap:round;stroke-linejoin:round;stroke-miterlimit:4;stroke-opacity:1;stroke-dasharray:none"/><path d="m 72,1034.3621 0,-2 3.000026,0 0,-3 2,0 0,3 2.999974,0 0,2 -2.999974,0 0,3.0001 -2,0 0,-3.0001 z" inkscape:connector-curvature="0" id="path6628" style="fill:#ffffff;fill-opacity:0.94117647;stroke:none"/></g><g transform="translate(-68,0)" id="g6242"><path d="m 152.5,1034.8622 2,4 2,-4 z" inkscape:connector-curvature="0" id="path3966-4-44" style="fill:#ffcc77;fill-opacity:1;stroke:#995500;stroke-width:1px;stroke-linecap:butt;stroke-linejoin:round;stroke-opacity:1"/><path d="m 152.5,1022.8622 4,0 0,12 -4,0 z" inkscape:connector-curvature="0" id="path3158-9-6-5" style="fill:#ff8800;fill-opacity:1;stroke:#995500;stroke-width:1px;stroke-linecap:round;stroke-linejoin:round;stroke-opacity:1"/></g><g id="g3617"><use transform="translate(96,0)" id="use3535" x="0" y="0" width="192" height="32" xlink:href="#use3107"/><use transform="translate(94.5,0)" id="use3330" x="0" y="0" width="192" height="32" xlink:href="#use3109"/><use transform="translate(97.5,0)" id="use3280" x="0" y="0" width="192" height="32" xlink:href="#use3109"/></g><g id="g5791"><use transform="translate(128,1.7382813e-5)" id="use3537" x="0" y="0" width="192" height="32" xlink:href="#use3107"/><g transform="matrix(0.66963237,-0.25704778,0.25704778,0.66963237,-213.92002,384.80668)" id="g4476"><path d="m 140.5,1027.8622 14,0 0,15 -14,0 z" inkscape:connector-curvature="0" id="path3541" style="fill:url(#linearGradient5832);fill-opacity:1;stroke:#55555f;stroke-linecap:round;stroke-linejoin:round;stroke-opacity:1"/><rect width="11" height="2.9999826" x="142" y="1029.3622" id="rect3543" style="fill:#000000;fill-opacity:1;stroke:none"/><rect width="2" height="2" x="142" y="1033.3622" id="rect3545" style="fill:#eeeeee;fill-opacity:1;stroke:none"/><rect width="2" height="2" x="145" y="1033.3622" id="rect3547" style="fill:#eeeeee;fill-opacity:1;stroke:none"/><rect width="2" height="2" x="142" y="1036.3622" id="rect3553" style="fill:#eeeeee;fill-opacity:1;stroke:none"/><rect width="2" height="2" x="145" y="1036.3622" id="rect3555" style="fill:#eeeeee;fill-opacity:1;stroke:none"/><rect width="2" height="2" x="142" y="1039.3622" id="rect3557" style="fill:#eeeeee;fill-opacity:1;stroke:none"/><rect width="2" height="2" x="145" y="1039.3622" id="rect3559" style="fill:#eeeeee;fill-opacity:1;stroke:none"/><rect width="2" height="2.0000174" x="148" y="1033.3622" id="rect3569" style="fill:#666666;fill-opacity:1;stroke:none"/><rect width="2" height="2.0000174" x="148" y="1036.3622" id="rect3573" style="fill:#666666;fill-opacity:1;stroke:none"/><rect width="2" height="2.0000174" x="148" y="1039.3622" id="rect3575" style="fill:#666666;fill-opacity:1;stroke:none"/><path d="m 150.74017,1030.1023 1.51908,0 0,1.5204 -1.51908,0 z" inkscape:connector-curvature="0" id="rect3577" style="fill:#00c42a;fill-opacity:1;stroke:none"/><rect width="2" height="5" x="151" y="1036.3622" id="rect3581" style="fill:#666666;fill-opacity:1;stroke:none"/><rect width="2" height="2.0000174" x="151" y="1033.3622" id="rect3583" style="fill:#f60000;fill-opacity:1;stroke:none"/></g><g transform="translate(-1376.212,-0.3)" id="use4282"><path d="m 1510.5627,1025.0929 c -2.7803,1.2012 -3.2664,5.0631 -2.562,6.4503 l 3.5372,-1.482 c -0.5745,-1.4152 0.1582,-5.461 2.9222,-6.6605 z" inkscape:connector-curvature="0" id="path4737" style="fill:url(#linearGradient4765);fill-opacity:1;stroke:#228811;stroke-width:1;stroke-linecap:round;stroke-linejoin:round;stroke-miterlimit:4;stroke-opacity:1;stroke-dasharray:none;stroke-dashoffset:0"/><path d="m 1517.7001,1027.3621 -3.0001,1.4001 0.6,1.1998 6.85,2.2002 3.15,-6.9998 -0.6,-1.0624 -3.1,1.4627 c -1.2,-2.6431 -4.696,-3.3356 -7.5563,-2.0584 l -3.4813,1.6517 c 2.5475,-1.2709 5.9974,-0.4263 7.1377,2.2061 z" inkscape:connector-curvature="0" id="path4739" style="fill:url(#linearGradient4441);fill-opacity:1;stroke:#228811;stroke-width:1;stroke-linecap:round;stroke-linejoin:round;stroke-miterlimit:4;stroke-opacity:1;stroke-dasharray:none;stroke-dashoffset:0"/></g></g><use transform="translate(17.953699,6.7026929e-4)" id="use4494" x="0" y="0" width="192" height="32" xlink:href="#g4476"/><use transform="translate(32,0)" id="use5812" x="0" y="0" width="192" height="32" xlink:href="#g5791"/><g transform="matrix(0.51692799,-0.2019099,0.20191644,0.51691125,-1317.7893,969.11803)" id="use6095" style="stroke-width:1.80197775;stroke-miterlimit:4;stroke-dasharray:none"><path d="m 2403.5,1066.8622 0,13.5 -19.5,0 0,-13.5" inkscape:connector-curvature="0" id="path8601" style="fill:url(#linearGradient8609);fill-opacity:1;stroke:url(#linearGradient8611);stroke-width:1.80197775;stroke-linecap:round;stroke-linejoin:round;stroke-miterlimit:4;stroke-opacity:1;stroke-dasharray:none"/><path d="m 2384,1066.8622 9,8 1.5,0 9,-8" inkscape:connector-curvature="0" id="path8603" style="fill:none;stroke:url(#linearGradient8613);stroke-width:1.80197775;stroke-linecap:round;stroke-linejoin:round;stroke-miterlimit:4;stroke-opacity:1;stroke-dasharray:none"/><path d="m 2384.8608,1079.5019 8.1392,-7.6397 1.5,0 8.1391,7.6397" inkscape:connector-curvature="0" id="path8605" style="fill:url(#linearGradient8615);fill-opacity:1;stroke:url(#linearGradient8617);stroke-width:1.80197775;stroke-linecap:round;stroke-linejoin:round;stroke-miterlimit:4;stroke-opacity:1;stroke-dasharray:none"/><path d="m 2384,1066.8622 8.5,-8 2,0 9,8" inkscape:connector-curvature="0" id="path8607" style="fill:#ffffff;fill-opacity:1;stroke:url(#linearGradient5885);stroke-width:1.80197775;stroke-linecap:round;stroke-linejoin:round;stroke-miterlimit:4;stroke-opacity:1;stroke-dasharray:none"/></g></g></svg>
