<?xml version="1.0" encoding="UTF-8" standalone="no"?>
<svg xmlns:dc="http://purl.org/dc/elements/1.1/" xmlns:cc="http://creativecommons.org/ns#" xmlns:rdf="http://www.w3.org/1999/02/22-rdf-syntax-ns#" xmlns:svg="http://www.w3.org/2000/svg" xmlns="http://www.w3.org/2000/svg" xmlns:xlink="http://www.w3.org/1999/xlink" xmlns:inkscape="http://www.inkscape.org/namespaces/inkscape" version="1.1" width="288" height="32" id="svg16679"><defs id="defs16681"><linearGradient id="linearGradient3592-9-1"><stop id="stop3594-6-6" style="stop-color:#777777;stop-opacity:0.46666667" offset="0"/><stop id="stop3596-3-7" style="stop-color:#777777;stop-opacity:0" offset="1"/></linearGradient><linearGradient id="linearGradient3804"><stop id="stop3806" style="stop-color:#404040;stop-opacity:1" offset="0"/><stop id="stop3812" style="stop-color:#808080;stop-opacity:1" offset="0.5"/><stop id="stop3808" style="stop-color:#5c5c5c;stop-opacity:1" offset="1"/></linearGradient><linearGradient id="linearGradient4584-6"><stop id="stop4586-6" style="stop-color:#af8800;stop-opacity:1" offset="0"/><stop id="stop4588-0" style="stop-color:#c7af00;stop-opacity:1" offset="1"/></linearGradient><linearGradient id="linearGradient4574-3"><stop id="stop4576-0" style="stop-color:#ffd231;stop-opacity:1" offset="0"/><stop id="stop4578-6" style="stop-color:#ffff88;stop-opacity:1" offset="1"/></linearGradient><linearGradient x1="434.5" y1="44.5" x2="434.5" y2="54" id="linearGradient17406" xlink:href="#linearGradient4584-6" gradientUnits="userSpaceOnUse"/><linearGradient x1="434" y1="44" x2="434" y2="50.5" id="linearGradient17408" xlink:href="#linearGradient4574-3" gradientUnits="userSpaceOnUse" gradientTransform="translate(0.5,1020.3622)"/><linearGradient x1="434.5" y1="56.5" x2="434.5" y2="47.5" id="linearGradient17410" xlink:href="#linearGradient4574-3" gradientUnits="userSpaceOnUse"/><linearGradient x1="434.5" y1="56.5" x2="434.5" y2="47.5" id="linearGradient17412" xlink:href="#linearGradient4584-6" gradientUnits="userSpaceOnUse"/><linearGradient x1="12" y1="27" x2="6" y2="12" id="linearGradient18214" xlink:href="#linearGradient3804" gradientUnits="userSpaceOnUse" gradientTransform="translate(260,1020.3622)"/><radialGradient cx="16" cy="27" r="16" fx="16" fy="27" id="radialGradient18217" xlink:href="#linearGradient3592-9-1" gradientUnits="userSpaceOnUse" gradientTransform="matrix(1,0,0,0.3125,255.9998,1038.9248)"/><radialGradient cx="16" cy="27" r="16" fx="16" fy="27" id="radialGradient11359" xlink:href="#linearGradient3592-9-1" gradientUnits="userSpaceOnUse" gradientTransform="matrix(1,0,0,0.3125,415.9998,1038.9248)"/><radialGradient cx="16" cy="27" r="16" fx="16" fy="27" id="radialGradient11361" xlink:href="#linearGradient3592-9-1" gradientUnits="userSpaceOnUse" gradientTransform="matrix(1,0,0,0.3125,383.9998,1038.9248)"/></defs><metadata id="metadata16684"><rdf:RDF><cc:Work rdf:about=""><dc:format>image/svg+xml</dc:format><dc:type rdf:resource="http://purl.org/dc/dcmitype/StillImage"/></cc:Work></rdf:RDF></metadata><g transform="translate(0,-1020.3622)" id="layer1"><g transform="translate(-384,1.7382813e-5)" id="g5386"><rect width="32" height="10" x="384" y="1042.3622" id="use5382" style="fill:url(#radialGradient11361);fill-opacity:1;fill-rule:evenodd;stroke:none"/><g transform="translate(0,-32.000036)" id="use5384"><path d="m 10.543592,5.0211308 a 7.001276,7 0 0 1 6.2878,8.5115462" transform="translate(381.00128,1063.3622)" id="path16634" style="fill:none;stroke:#66bbff;stroke-width:2.5;stroke-linecap:round;stroke-linejoin:round;stroke-miterlimit:4;stroke-opacity:1;stroke-dasharray:none;stroke-dashoffset:0"/><path d="M 11.003035,-0.96125449 A 13.001276,13 0 0 1 22.77178,14.4318" transform="translate(381.00128,1063.3622)" id="path16636" style="fill:none;stroke:#66bbff;stroke-width:2.5;stroke-linecap:round;stroke-linejoin:round;stroke-miterlimit:4;stroke-opacity:1;stroke-dasharray:none;stroke-dashoffset:0"/><path d="M 11.515508,-6.9394705 A 19.001276,19 0 0 1 28.731034,15.193036" transform="translate(381.00128,1063.3622)" id="path16638" style="fill:none;stroke:#66bbff;stroke-width:2.5;stroke-linecap:round;stroke-linejoin:round;stroke-miterlimit:4;stroke-opacity:1;stroke-dasharray:none;stroke-dashoffset:0"/><path d="m 17.001276,17 a 2.001276,2 0 1 1 -4.002552,0 2.001276,2 0 1 1 4.002552,0 z" transform="translate(376.00128,1058.3622)" id="path16640" style="fill:#0066cc;fill-opacity:1;stroke:none"/></g></g><use transform="translate(32,0)" id="use16716" x="0" y="0" width="256" height="32" xlink:href="#g5386"/><use transform="translate(32,0)" id="use16718" x="0" y="0" width="256" height="32" xlink:href="#use16716"/><g transform="translate(-288,1.7382813e-5)" id="use4786"><rect width="32" height="10" x="416" y="1042.3622" id="rect16784" style="fill:url(#radialGradient11359);fill-opacity:1;fill-rule:evenodd;stroke:none"/><path d="m 17.001276,17 a 2.001276,2 0 1 1 -4.002552,0 2.001276,2 0 1 1 4.002552,0 z" transform="translate(408.00128,1026.3622)" id="path16786" style="fill:#0066cc;fill-opacity:1;stroke:none"/><g transform="translate(-96,-3.6e-5)" id="g16788" style="stroke:#d4d4d4;stroke-opacity:1"><path d="M 11.515508,-6.9394705 A 19.001276,19 0 0 1 28.731034,15.193036" transform="translate(509.00141,1031.3622)" id="path16790" style="fill:none;stroke:#d4d4d4;stroke-width:2.5;stroke-linecap:round;stroke-linejoin:round;stroke-miterlimit:4;stroke-opacity:1;stroke-dasharray:none;stroke-dashoffset:0"/><path d="M 11.003035,-0.96125449 A 13.001276,13 0 0 1 22.77178,14.4318" transform="translate(509.00141,1031.3622)" id="path16792" style="fill:none;stroke:#d4d4d4;stroke-width:2.5;stroke-linecap:round;stroke-linejoin:round;stroke-miterlimit:4;stroke-opacity:1;stroke-dasharray:none;stroke-dashoffset:0"/><path d="m 10.543592,5.0211308 a 7.001276,7 0 0 1 6.2878,8.5115462" transform="translate(509.00141,1031.3622)" id="path16794" style="fill:none;stroke:#d4d4d4;stroke-width:2.5;stroke-linecap:round;stroke-linejoin:round;stroke-miterlimit:4;stroke-opacity:1;stroke-dasharray:none;stroke-dashoffset:0"/></g></g><use transform="translate(32,0)" id="use16846" x="0" y="0" width="256" height="32" xlink:href="#use4786"/><use transform="translate(32,0)" id="use16848" x="0" y="0" width="256" height="32" xlink:href="#use16846"/><use transform="translate(32,0)" id="use17101" x="0" y="0" width="320" height="32" xlink:href="#use16718"/><use transform="translate(32,0)" id="use17103" x="0" y="0" width="320" height="32" xlink:href="#use16848"/><g transform="translate(-68,0)" id="g6242"><path d="m 152.5,1034.8622 2,4 2,-4 z" inkscape:connector-curvature="0" id="path3966-4-44" style="fill:#ffcc77;fill-opacity:1;stroke:#995500;stroke-width:1px;stroke-linecap:butt;stroke-linejoin:round;stroke-opacity:1"/><path d="m 152.5,1022.8622 4,0 0,12 -4,0 z" inkscape:connector-curvature="0" id="path3158-9-6-5" style="fill:#ff8800;fill-opacity:1;stroke:#995500;stroke-width:1px;stroke-linecap:round;stroke-linejoin:round;stroke-opacity:1"/></g><use transform="translate(128,0)" id="use17185" x="0" y="0" width="320" height="32" xlink:href="#g6242"/><g transform="matrix(0.92653313,-0.37621318,0.37621318,0.92653313,-686.80394,210.38536)" id="use5088"><path d="m 432,50.5 0,-3 c 0,0 0,-2.5 3,-2.5 3,0 3,2.5 3,2.5 l 0,3" inkscape:connector-curvature="0" transform="translate(0,1020.3622)" id="path16612" style="fill:none;stroke:url(#linearGradient17406);stroke-width:3;stroke-linecap:round;stroke-linejoin:round;stroke-miterlimit:4;stroke-opacity:1;stroke-dasharray:none"/><path d="m 432,1070.8622 0,-3 c 0,0 0,-2.5 3,-2.5 3,0 3,2.5 3,2.5 l 0,3" inkscape:connector-curvature="0" id="path16614" style="fill:none;stroke:url(#linearGradient17408);stroke-width:1px;stroke-linecap:round;stroke-linejoin:round;stroke-opacity:1"/><path d="m 430,56.5 0,-6 10,0 0,6 z" inkscape:connector-curvature="0" transform="translate(0,1020.3622)" id="path16616" style="fill:url(#linearGradient17410);fill-opacity:1;stroke:url(#linearGradient17412);stroke-width:1px;stroke-linecap:round;stroke-linejoin:round;stroke-opacity:1"/></g><use transform="translate(128,0)" id="use17369" x="0" y="0" width="320" height="32" xlink:href="#use5088"/><g id="g18233"><rect width="32" height="10" x="256" y="1042.3622" id="use5406" style="fill:url(#radialGradient18217);fill-opacity:1;fill-rule:evenodd;stroke:none"/><g id="g18226"><path d="m 272,1047.3622 -1,-15 11,11 m -2,-2 -8,2 5,-5 -5.31567,0.8839 2.94701,-3.1364" inkscape:connector-curvature="0" id="use5415" style="fill:none;stroke:url(#linearGradient18214);stroke-width:1px;stroke-linecap:round;stroke-linejoin:round;stroke-opacity:1"/><g id="g18221"><path d="M 5.8390639,16.729137 A 7,7 0 1 1 17.960821,11.260424" transform="translate(260.00005,1020.3622)" id="path3794" style="fill:none;stroke:#66bbff;stroke-linecap:round;stroke-linejoin:round;stroke-opacity:1"/><path d="M 4.308694,19.431448 A 10,10 0 1 1 20.993908,11.651005" transform="translate(260.00005,1020.3622)" id="path16979" style="fill:none;stroke:#66bbff;stroke-linecap:round;stroke-linejoin:round;stroke-opacity:1"/><path d="m 267.44021,13.824246 a 4,4 0 1 1 7.38613,-2.990067" transform="translate(0,1020.3622)" id="path17439" style="fill:none;stroke:#66bbff;stroke-width:1;stroke-linecap:round;stroke-linejoin:round;stroke-miterlimit:4;stroke-opacity:1;stroke-dasharray:none"/></g></g></g><g transform="translate(-19.999873,1.0001131)" id="g6634"><path d="m 2878.4882,12.868066 a 6.2394724,6.5106826 0 1 1 -5e-4,-0.02466" transform="matrix(1.0417505,0,0,0.99834845,-2916.168,1020.3836)" id="path6624" style="fill:#33ce00;fill-opacity:1;stroke:#2ba115;stroke-width:0.9805665;stroke-linecap:round;stroke-linejoin:round;stroke-miterlimit:4;stroke-opacity:1;stroke-dasharray:none"/><path d="m 72,1034.3621 0,-2 3.000026,0 0,-3 2,0 0,3 2.999974,0 0,2 -2.999974,0 0,3.0001 -2,0 0,-3.0001 z" inkscape:connector-curvature="0" id="path6628" style="fill:#ffffff;fill-opacity:0.94117647;stroke:none"/></g><use transform="translate(128,0)" id="use3461" x="0" y="0" width="288" height="32" xlink:href="#g6634"/></g></svg>
