<?xml version="1.0" encoding="UTF-8" standalone="no"?>
<svg xmlns:dc="http://purl.org/dc/elements/1.1/" xmlns:cc="http://creativecommons.org/ns#" xmlns:rdf="http://www.w3.org/1999/02/22-rdf-syntax-ns#" xmlns:svg="http://www.w3.org/2000/svg" xmlns="http://www.w3.org/2000/svg" xmlns:xlink="http://www.w3.org/1999/xlink" xmlns:inkscape="http://www.inkscape.org/namespaces/inkscape" version="1.1" width="128" height="32" id="svg4369"><defs id="defs4371"><linearGradient id="linearGradient3592-9"><stop id="stop3594-6" style="stop-color:#777777;stop-opacity:0.46666667" offset="0"/><stop id="stop3596-3" style="stop-color:#777777;stop-opacity:0" offset="1"/></linearGradient><linearGradient id="linearGradient6449"><stop id="stop6451" style="stop-color:#fce3cc;stop-opacity:1" offset="0"/><stop id="stop6453" style="stop-color:#facea6;stop-opacity:1" offset="1"/></linearGradient><linearGradient id="linearGradient7187"><stop id="stop7189" style="stop-color:#6aaedb;stop-opacity:1" offset="0"/><stop id="stop7191" style="stop-color:#499cd3;stop-opacity:1" offset="1"/></linearGradient><linearGradient x1="2574.1982" y1="52.821346" x2="2576.625" y2="54.96875" id="linearGradient11576" xlink:href="#linearGradient6449" gradientUnits="userSpaceOnUse" gradientTransform="translate(-1,1020.2372)"/><linearGradient x1="2561.688" y1="1060.6854" x2="2561.688" y2="1071.6854" id="linearGradient11578" xlink:href="#linearGradient7187" gradientUnits="userSpaceOnUse"/><linearGradient x1="2583.688" y1="1060.6854" x2="2583.688" y2="1071.6854" id="linearGradient11580" xlink:href="#linearGradient7187" gradientUnits="userSpaceOnUse"/><radialGradient cx="16" cy="27" r="16" fx="16" fy="27" id="radialGradient11582" xlink:href="#linearGradient3592-9" gradientUnits="userSpaceOnUse" gradientTransform="matrix(1,0,0,0.3125,2559.9998,1038.9248)"/><radialGradient cx="16" cy="27" r="16" fx="16" fy="27" id="radialGradient8400-2" xlink:href="#linearGradient3592-9" gradientUnits="userSpaceOnUse" gradientTransform="matrix(1,0,0,0.3125,2719.9998,1038.9248)"/><linearGradient id="linearGradient6449-7"><stop id="stop6451-1" style="stop-color:#fce3cc;stop-opacity:1" offset="0"/><stop id="stop6453-1" style="stop-color:#facea6;stop-opacity:1" offset="1"/></linearGradient><linearGradient id="linearGradient7187-9"><stop id="stop7189-3" style="stop-color:#6aaedb;stop-opacity:1" offset="0"/><stop id="stop7191-6" style="stop-color:#499cd3;stop-opacity:1" offset="1"/></linearGradient><linearGradient x1="2574.1982" y1="52.821346" x2="2576.625" y2="54.96875" id="linearGradient10820" xlink:href="#linearGradient6449-7" gradientUnits="userSpaceOnUse" gradientTransform="translate(-1,1020.2372)"/><linearGradient x1="2561.688" y1="1060.6854" x2="2561.688" y2="1071.6854" id="linearGradient10822" xlink:href="#linearGradient7187-9" gradientUnits="userSpaceOnUse"/><linearGradient x1="2583.688" y1="1060.6854" x2="2583.688" y2="1071.6854" id="linearGradient10824" xlink:href="#linearGradient7187-9" gradientUnits="userSpaceOnUse"/></defs><metadata id="metadata4374"><rdf:RDF><cc:Work rdf:about=""><dc:format>image/svg+xml</dc:format><dc:type rdf:resource="http://purl.org/dc/dcmitype/StillImage"/><dc:title/></cc:Work></rdf:RDF></metadata><g transform="translate(0,-1020.3622)" id="layer1"><g transform="translate(-2688,1.7382813e-5)" id="g4442"><g transform="matrix(0.93124471,-0.3643944,0.3643944,0.93124471,-80.23139,977.42191)" id="use7167"><path d="m 2583.546,1070.6048 c -1.6629,0.9034 -8.8114,8.9512 -10.9118,8.5085 -2.1004,-0.4426 -6.8264,-3.2759 -6.792,-4.1676 0.034,-0.8917 1.213,-4.4268 5.7126,-6.2285 15.1956,-6.0845 7.0847,-2.2422 8.1055,-3.1944" inkscape:connector-curvature="0" id="path8167" style="fill:#e1a773;fill-opacity:1;stroke:#ba8150;stroke-width:1px;stroke-linecap:round;stroke-linejoin:round;stroke-opacity:1"/><path d="m 2562.3438,1071.1434 c 2.2651,1.3827 5.3337,5.3256 7.5902,6.293 2.2565,0.9674 4.0708,1.9028 4.9613,1.7847 0.6438,-0.085 0.9505,-0.9782 1.0828,-1.1003 0.1581,-0.1459 0.9558,-0.067 1.3183,-0.5058 0.3625,-0.4391 0.3931,-1.0225 0.5301,-1.1988 0.1187,-0.1528 0.858,-0.1544 1.1833,-0.6191 0.2639,-0.377 0.3392,-1.0137 0.4787,-1.2076 0.1208,-0.1679 0.5531,-0.3096 0.8559,-0.8214 0.36,-0.6087 0.1691,-1.2744 -0.1539,-1.4792 -0.3233,-0.2049 -3.9652,-1.7335 -6.5449,-2.5512 -0.7856,-0.249 -3.8385,-1.2156 -3.7077,-1.3755 0.834,0.3396 2.5897,0.1353 3.0001,-0.8437 0.4104,-0.9791 -2.4927,-1.5064 -3.9778,-1.5496 -1.485,-0.043 -1.9724,0.279 -3.4938,0.1449 -1.5214,-0.1338 -2.6847,-1.0016 -2.6847,-1.0016" inkscape:connector-curvature="0" id="path8169" style="fill:url(#linearGradient11576);fill-opacity:1;stroke:#cc8e52;stroke-width:1px;stroke-linecap:round;stroke-linejoin:round;stroke-opacity:1"/><path d="m 2580.0007,1065.4699 c 0,0 -1.7968,0.8052 -3.887,0.9866 -2.0902,0.1814 -6.527,1.1798 -6.0937,2.9062 0.4333,1.7264 3.7877,-0.01 4.875,0.016" inkscape:connector-curvature="0" id="path8171" style="fill:#e1a773;fill-opacity:1;stroke:#ba8150;stroke-width:1px;stroke-linecap:round;stroke-linejoin:round;stroke-opacity:1"/><path d="m 2560.688,1071.1854 2,1 4,-7 -6,-3.5 z" inkscape:connector-curvature="0" id="path8173" style="fill:url(#linearGradient11578);fill-opacity:1;stroke:#2b7eb5;stroke-width:1px;stroke-linecap:round;stroke-linejoin:round;stroke-opacity:1"/><path d="m 2578.688,1065.1854 4,7 2,-1 0,-9.5 z" inkscape:connector-curvature="0" id="path8175" style="fill:url(#linearGradient11580);fill-opacity:1;stroke:#2b7eb5;stroke-width:1px;stroke-linecap:round;stroke-linejoin:round;stroke-opacity:1"/><path d="m 2565.2603,1074.7408 c 0.031,-0.6809 0.5641,-1.2902 1.4403,-1.2566 0.8762,0.034 1.1548,0.9894 1.3477,1.1153 0.1929,0.1259 0.7493,0.047 1.272,0.3707 0.5227,0.3241 0.66,0.7058 0.891,0.8171 0.231,0.1113 0.6752,0.1245 1.105,0.3996 0.4298,0.2755 0.5423,0.6489 0.7515,0.7818 0.2092,0.1329 0.9643,0 1.3036,0.6945 0.3393,0.6993 -0.3029,1.6248 -0.8072,1.7271 -0.5043,0.1022 -1.187,-0.5685 -1.4116,-0.6378 -0.2247,-0.069 -0.6578,-0.082 -1.0728,-0.2652 -0.415,-0.1827 -0.7999,-0.7638 -0.9739,-0.8757 -0.174,-0.1119 -0.9628,-0.2998 -1.2903,-0.5024 -0.3275,-0.2027 -0.6253,-0.7005 -0.7897,-0.8154 -0.1645,-0.1148 -0.9893,-0.2497 -1.2472,-0.456 -0.258,-0.2063 -0.5498,-0.416 -0.5184,-1.097 z" inkscape:connector-curvature="0" id="path8177" style="fill:#e1a773;fill-opacity:1;stroke:#ba8150;stroke-width:1px;stroke-linecap:round;stroke-linejoin:round;stroke-opacity:1"/><path d="m 2575.4587,1077.572 1.0954,0.555" inkscape:connector-curvature="0" id="path8179" style="fill:none;stroke:#cc8e52;stroke-width:0.60000002;stroke-linecap:round;stroke-linejoin:round;stroke-miterlimit:4;stroke-opacity:1;stroke-dasharray:none"/><path d="m 2576.7657,1075.7294 1.3797,0.7387" inkscape:connector-curvature="0" id="path8181" style="fill:none;stroke:#cc8e52;stroke-width:0.60000002;stroke-linecap:round;stroke-linejoin:round;stroke-miterlimit:4;stroke-opacity:1;stroke-dasharray:none"/><path d="m 2578.4307,1073.9484 c 0.4863,0.2193 1.6633,0.7418 1.3853,0.6255" inkscape:connector-curvature="0" id="path8183" style="fill:none;stroke:#cc8e52;stroke-width:0.60000002;stroke-linecap:round;stroke-linejoin:round;stroke-miterlimit:4;stroke-opacity:1;stroke-dasharray:none"/><path d="m 2567.1728,1075.8827 0.7343,-1.039" inkscape:connector-curvature="0" id="path8185" style="fill:none;stroke:#ba8150;stroke-width:0.60000002;stroke-linecap:round;stroke-linejoin:round;stroke-miterlimit:4;stroke-opacity:1;stroke-dasharray:none"/><path d="m 2569.1962,1077.2109 0.8516,-1.2344" inkscape:connector-curvature="0" id="path8187" style="fill:none;stroke:#ba8150;stroke-width:0.60000002;stroke-linecap:round;stroke-linejoin:round;stroke-miterlimit:4;stroke-opacity:1;stroke-dasharray:none"/><path d="m 2571.1521,1078.3574 0.8046,-1.2813" inkscape:connector-curvature="0" id="path8189" style="fill:none;stroke:#ba8150;stroke-width:0.60000002;stroke-linecap:round;stroke-linejoin:round;stroke-miterlimit:4;stroke-opacity:1;stroke-dasharray:none"/></g><g transform="translate(128,0)" id="g7992"><rect width="32" height="10" x="2560" y="1042.3622" id="rect5627" style="fill:url(#radialGradient11582);fill-opacity:1;fill-rule:evenodd;stroke:none"/><use transform="translate(-128,0)" id="use7980" x="0" y="0" width="2688" height="32" xlink:href="#use7167"/></g></g><use transform="translate(-2656,3.4765626e-5)" id="use5430" x="0" y="0" width="2912" height="32" xlink:href="#g7992"/><use transform="translate(64,0)" id="use4969" x="0" y="0" width="128" height="32" xlink:href="#g4442"/><g transform="translate(-1696,1.7382813e-5)" id="g8091"><path d="m 1780.5,1034.8622 2,4 2,-4 z" inkscape:connector-curvature="0" id="path8093" style="fill:#ffcc77;fill-opacity:1;stroke:#995500;stroke-width:1px;stroke-linecap:butt;stroke-linejoin:round;stroke-opacity:1"/><path d="m 1780.5,1022.8622 4,0 0,11.998 -4,0 z" inkscape:connector-curvature="0" id="path8095" style="fill:#ff8800;fill-opacity:1;stroke:#995500;stroke-width:1px;stroke-linecap:round;stroke-linejoin:round;stroke-opacity:1"/></g><g transform="translate(-2624,1.7382813e-5)" id="g5780"><g id="g10826"><rect width="32" height="10" x="2720" y="1042.3622" id="rect8392" style="fill:url(#radialGradient8400-2);fill-opacity:1;fill-rule:evenodd;stroke:none"/><use transform="translate(-2.9999997,0)" id="use10818" x="0" y="0" width="128" height="32" xlink:href="#use8402"/><g transform="matrix(0.93124471,-0.3643944,0.3643944,0.93124471,-46.631368,977.42193)" id="use8402"><path d="m 2583.546,1070.6048 c -1.6629,0.9034 -8.8114,8.9512 -10.9118,8.5085 -2.1004,-0.4426 -6.8264,-3.2759 -6.792,-4.1676 0.034,-0.8917 1.213,-4.4268 5.7126,-6.2285 15.1956,-6.0845 7.0847,-2.2422 8.1055,-3.1944" inkscape:connector-curvature="0" id="path11095" style="fill:#e1a773;fill-opacity:1;stroke:#ba8150;stroke-width:1px;stroke-linecap:round;stroke-linejoin:round;stroke-opacity:1"/><path d="m 2562.3438,1071.1434 c 2.2651,1.3827 5.3337,5.3256 7.5902,6.293 2.2565,0.9674 4.0708,1.9028 4.9613,1.7847 0.6438,-0.085 0.9505,-0.9782 1.0828,-1.1003 0.1581,-0.1459 0.9558,-0.067 1.3183,-0.5058 0.3625,-0.4391 0.3931,-1.0225 0.5301,-1.1988 0.1187,-0.1528 0.858,-0.1544 1.1833,-0.6191 0.2639,-0.377 0.3392,-1.0137 0.4787,-1.2076 0.1208,-0.1679 0.5531,-0.3096 0.8559,-0.8214 0.36,-0.6087 0.1691,-1.2744 -0.1539,-1.4792 -0.3233,-0.2049 -3.9652,-1.7335 -6.5449,-2.5512 -0.7856,-0.249 -3.8385,-1.2156 -3.7077,-1.3755 0.834,0.3396 2.5897,0.1353 3.0001,-0.8437 0.4104,-0.9791 -2.4927,-1.5064 -3.9778,-1.5496 -1.485,-0.043 -1.9724,0.279 -3.4938,0.1449 -1.5214,-0.1338 -2.6847,-1.0016 -2.6847,-1.0016" inkscape:connector-curvature="0" id="path11097" style="fill:url(#linearGradient10820);fill-opacity:1;stroke:#cc8e52;stroke-width:1px;stroke-linecap:round;stroke-linejoin:round;stroke-opacity:1"/><path d="m 2580.0007,1065.4699 c 0,0 -1.7968,0.8052 -3.887,0.9866 -2.0902,0.1814 -6.527,1.1798 -6.0937,2.9062 0.4333,1.7264 3.7877,-0.01 4.875,0.016" inkscape:connector-curvature="0" id="path11099" style="fill:#e1a773;fill-opacity:1;stroke:#ba8150;stroke-width:1px;stroke-linecap:round;stroke-linejoin:round;stroke-opacity:1"/><path d="m 2560.688,1071.1854 2,1 4,-7 -6,-3.5 z" inkscape:connector-curvature="0" id="path11101" style="fill:url(#linearGradient10822);fill-opacity:1;stroke:#2b7eb5;stroke-width:1px;stroke-linecap:round;stroke-linejoin:round;stroke-opacity:1"/><path d="m 2578.688,1065.1854 4,7 2,-1 0,-9.5 z" inkscape:connector-curvature="0" id="path11103" style="fill:url(#linearGradient10824);fill-opacity:1;stroke:#2b7eb5;stroke-width:1px;stroke-linecap:round;stroke-linejoin:round;stroke-opacity:1"/><path d="m 2565.2603,1074.7408 c 0.031,-0.6809 0.5641,-1.2902 1.4403,-1.2566 0.8762,0.034 1.1548,0.9894 1.3477,1.1153 0.1929,0.1259 0.7493,0.047 1.272,0.3707 0.5227,0.3241 0.66,0.7058 0.891,0.8171 0.231,0.1113 0.6752,0.1245 1.105,0.3996 0.4298,0.2755 0.5423,0.6489 0.7515,0.7818 0.2092,0.1329 0.9643,0 1.3036,0.6945 0.3393,0.6993 -0.3029,1.6248 -0.8072,1.7271 -0.5043,0.1022 -1.187,-0.5685 -1.4116,-0.6378 -0.2247,-0.069 -0.6578,-0.082 -1.0728,-0.2652 -0.415,-0.1827 -0.7999,-0.7638 -0.9739,-0.8757 -0.174,-0.1119 -0.9628,-0.2998 -1.2903,-0.5024 -0.3275,-0.2027 -0.6253,-0.7005 -0.7897,-0.8154 -0.1645,-0.1148 -0.9893,-0.2497 -1.2472,-0.456 -0.258,-0.2063 -0.5498,-0.416 -0.5184,-1.097 z" inkscape:connector-curvature="0" id="path11105" style="fill:#e1a773;fill-opacity:1;stroke:#ba8150;stroke-width:1px;stroke-linecap:round;stroke-linejoin:round;stroke-opacity:1"/><path d="m 2575.4587,1077.572 1.0954,0.555" inkscape:connector-curvature="0" id="path11107" style="fill:none;stroke:#cc8e52;stroke-width:0.60000002;stroke-linecap:round;stroke-linejoin:round;stroke-miterlimit:4;stroke-opacity:1;stroke-dasharray:none"/><path d="m 2576.7657,1075.7294 1.3797,0.7387" inkscape:connector-curvature="0" id="path11109" style="fill:none;stroke:#cc8e52;stroke-width:0.60000002;stroke-linecap:round;stroke-linejoin:round;stroke-miterlimit:4;stroke-opacity:1;stroke-dasharray:none"/><path d="m 2578.4307,1073.9484 c 0.4863,0.2193 1.6633,0.7418 1.3853,0.6255" inkscape:connector-curvature="0" id="path11111" style="fill:none;stroke:#cc8e52;stroke-width:0.60000002;stroke-linecap:round;stroke-linejoin:round;stroke-miterlimit:4;stroke-opacity:1;stroke-dasharray:none"/><path d="m 2567.1728,1075.8827 0.7343,-1.039" inkscape:connector-curvature="0" id="path11113" style="fill:none;stroke:#ba8150;stroke-width:0.60000002;stroke-linecap:round;stroke-linejoin:round;stroke-miterlimit:4;stroke-opacity:1;stroke-dasharray:none"/><path d="m 2569.1962,1077.2109 0.8516,-1.2344" inkscape:connector-curvature="0" id="path11115" style="fill:none;stroke:#ba8150;stroke-width:0.60000002;stroke-linecap:round;stroke-linejoin:round;stroke-miterlimit:4;stroke-opacity:1;stroke-dasharray:none"/><path d="m 2571.1521,1078.3574 0.8046,-1.2813" inkscape:connector-curvature="0" id="path11117" style="fill:none;stroke:#ba8150;stroke-width:0.60000002;stroke-linecap:round;stroke-linejoin:round;stroke-miterlimit:4;stroke-opacity:1;stroke-dasharray:none"/></g></g></g><g transform="translate(-19.999873,1.0001131)" id="g6634"><path d="m 2878.4882,12.868066 a 6.2394724,6.5106826 0 1 1 -5e-4,-0.02466" transform="matrix(1.0417505,0,0,0.99834845,-2916.168,1020.3836)" id="path6624" style="fill:#33ce00;fill-opacity:1;stroke:#2ba115;stroke-width:0.9805665;stroke-linecap:round;stroke-linejoin:round;stroke-miterlimit:4;stroke-opacity:1;stroke-dasharray:none"/><path d="m 72,1034.3621 0,-2 3.000026,0 0,-3 2,0 0,3 2.999974,0 0,2 -2.999974,0 0,3.0001 -2,0 0,-3.0001 z" inkscape:connector-curvature="0" id="path6628" style="fill:#ffffff;fill-opacity:0.94117647;stroke:none"/></g></g></svg>
