<?xml version="1.0" encoding="UTF-8" standalone="no"?>
<svg xmlns:dc="http://purl.org/dc/elements/1.1/" xmlns:cc="http://creativecommons.org/ns#" xmlns:rdf="http://www.w3.org/1999/02/22-rdf-syntax-ns#" xmlns:svg="http://www.w3.org/2000/svg" xmlns="http://www.w3.org/2000/svg" xmlns:xlink="http://www.w3.org/1999/xlink" xmlns:inkscape="http://www.inkscape.org/namespaces/inkscape" version="1.1" width="224" height="32" id="svg13116"><defs id="defs13118"><linearGradient id="linearGradient3592-9"><stop id="stop3594-6" style="stop-color:#777777;stop-opacity:0.46666667" offset="0"/><stop id="stop3596-3" style="stop-color:#777777;stop-opacity:0" offset="1"/></linearGradient><linearGradient id="linearGradient3795"><stop id="stop3797" style="stop-color:#dadada;stop-opacity:1" offset="0"/><stop id="stop3799" style="stop-color:#ffffff;stop-opacity:1" offset="1"/></linearGradient><linearGradient id="linearGradient3803"><stop id="stop3805" style="stop-color:#aaaaaa;stop-opacity:1" offset="0"/><stop id="stop3807" style="stop-color:#888888;stop-opacity:1" offset="1"/></linearGradient><linearGradient x1="5" y1="29" x2="-2" y2="14" id="linearGradient13347" xlink:href="#linearGradient3795" gradientUnits="userSpaceOnUse" gradientTransform="translate(607,1020.3622)"/><linearGradient x1="-8" y1="1036.3622" x2="-1" y2="1051.3622" id="linearGradient13349" xlink:href="#linearGradient3803" gradientUnits="userSpaceOnUse" gradientTransform="translate(608,0)"/><linearGradient x1="5" y1="29" x2="-2" y2="14" id="linearGradient13371" xlink:href="#linearGradient3795" gradientUnits="userSpaceOnUse" gradientTransform="translate(607,1020.3622)"/><linearGradient x1="-8" y1="1036.3622" x2="-1" y2="1051.3622" id="linearGradient13373" xlink:href="#linearGradient3803" gradientUnits="userSpaceOnUse" gradientTransform="translate(608,0)"/><linearGradient id="linearGradient4197-5"><stop id="stop4199-7" style="stop-color:#ffee99;stop-opacity:1" offset="0"/><stop id="stop4201-6" style="stop-color:#ffe770;stop-opacity:1" offset="1"/></linearGradient><linearGradient id="linearGradient4189-5"><stop id="stop4191-9" style="stop-color:#ee9922;stop-opacity:1" offset="0"/><stop id="stop4193-8" style="stop-color:#b9730e;stop-opacity:1" offset="1"/></linearGradient><radialGradient cx="12.11248" cy="9.9016638" r="12.863735" fx="12.11248" fy="9.9016638" id="radialGradient13826" xlink:href="#linearGradient4197-5" gradientUnits="userSpaceOnUse" gradientTransform="matrix(1.206524,-0.02659563,0.02285661,1.0369014,-2.7278356,0.20794129)"/><linearGradient x1="-12.73225" y1="14.244227" x2="2.4488442" y2="30.66173" id="linearGradient13828" xlink:href="#linearGradient4189-5" gradientUnits="userSpaceOnUse"/><radialGradient cx="16" cy="27" r="16" fx="16" fy="27" id="radialGradient9935" xlink:href="#linearGradient3592-9" gradientUnits="userSpaceOnUse" gradientTransform="matrix(1,0,0,0.3125,-2e-4,1038.9248)"/><linearGradient x1="5" y1="29" x2="-2" y2="14" id="linearGradient9937" xlink:href="#linearGradient3795" gradientUnits="userSpaceOnUse" gradientTransform="translate(607,1020.3622)"/><linearGradient x1="-8" y1="1036.3622" x2="-1" y2="1051.3622" id="linearGradient9939" xlink:href="#linearGradient3803" gradientUnits="userSpaceOnUse" gradientTransform="translate(608,0)"/><linearGradient id="linearGradient3592-9-3"><stop id="stop3594-6-68" style="stop-color:#000000;stop-opacity:0.2" offset="0"/><stop id="stop3596-3-90" style="stop-color:#000000;stop-opacity:0" offset="1"/></linearGradient><radialGradient cx="16" cy="27" r="16" fx="16" fy="27" id="radialGradient9956" xlink:href="#linearGradient3592-9-3" gradientUnits="userSpaceOnUse" gradientTransform="matrix(1,0,0,0.3125,63.9998,1038.9248)"/><linearGradient x1="5" y1="29" x2="-2" y2="14" id="linearGradient10759" xlink:href="#linearGradient3795" gradientUnits="userSpaceOnUse" gradientTransform="matrix(0.84126984,0,0,0.84747024,706.0571,1024.5039)"/><linearGradient x1="-8" y1="1036.3622" x2="-1" y2="1051.3622" id="linearGradient10761" xlink:href="#linearGradient3803" gradientUnits="userSpaceOnUse" gradientTransform="matrix(0.84126984,0,0,0.84747024,706.89837,159.7773)"/><linearGradient x1="1501" y1="5" x2="1503" y2="11" id="linearGradient6928" xlink:href="#linearGradient6008" gradientUnits="userSpaceOnUse" gradientTransform="translate(1.1345935e-4,1020.5617)"/><linearGradient id="linearGradient6008"><stop id="stop6010" style="stop-color:#2fba18;stop-opacity:1" offset="0"/><stop id="stop6120" style="stop-color:#28a114;stop-opacity:1" offset="0.5"/><stop id="stop6012" style="stop-color:#2fbb17;stop-opacity:1" offset="1"/></linearGradient><linearGradient x1="1498.8068" y1="4.2157669" x2="1504" y2="17" id="linearGradient6930" xlink:href="#linearGradient6008" gradientUnits="userSpaceOnUse" gradientTransform="translate(-3.2806452e-6,1020.5622)"/><linearGradient x1="2282.9392" y1="56.999981" x2="2282.9392" y2="41.783119" id="linearGradient6942" xlink:href="#linearGradient3795" gradientUnits="userSpaceOnUse" gradientTransform="matrix(0.75574056,0,0,0.75574056,666.19022,1036.285)"/><linearGradient x1="2281.616" y1="41.783119" x2="2281.616" y2="56.999981" id="linearGradient6944" xlink:href="#linearGradient3633-25" gradientUnits="userSpaceOnUse" gradientTransform="matrix(0.75574056,0,0,0.75574056,666.19022,1036.285)"/><linearGradient id="linearGradient3633-25"><stop id="stop3635-50" style="stop-color:#989898;stop-opacity:1" offset="0"/><stop id="stop3637-9" style="stop-color:#6b6b6b;stop-opacity:1" offset="1"/></linearGradient><linearGradient x1="2254.116" y1="43.283119" x2="2254.116" y2="58.499981" id="linearGradient6946" xlink:href="#linearGradient3633-25" gradientUnits="userSpaceOnUse" gradientTransform="matrix(0.75574056,0,0,0.75574056,686.97309,1035.1514)"/><linearGradient x1="2254.116" y1="58.499981" x2="2254.116" y2="43.283119" id="linearGradient6948" xlink:href="#linearGradient3795" gradientUnits="userSpaceOnUse" gradientTransform="matrix(0.75574056,0,0,0.75574056,686.97309,1035.1514)"/><linearGradient x1="2255.4392" y1="43.283119" x2="2255.4392" y2="58.499981" id="linearGradient6950" xlink:href="#linearGradient3633-25" gradientUnits="userSpaceOnUse" gradientTransform="matrix(0.75574056,0,0,0.75574056,686.97309,1035.1514)"/><linearGradient x1="2254.116" y1="43.283119" x2="2254.116" y2="58.499981" id="linearGradient6952" xlink:href="#linearGradient3633-25" gradientUnits="userSpaceOnUse" gradientTransform="matrix(0.75574056,0,0,-0.75574056,686.97309,1098.573)"/><linearGradient x1="5" y1="29" x2="-2" y2="14" id="linearGradient6119" xlink:href="#linearGradient3795" gradientUnits="userSpaceOnUse" gradientTransform="translate(607,1020.3622)"/><linearGradient x1="-8" y1="1036.3622" x2="-1" y2="1051.3622" id="linearGradient6121" xlink:href="#linearGradient3803" gradientUnits="userSpaceOnUse" gradientTransform="translate(608,0)"/><radialGradient cx="16" cy="27" r="16" fx="16" fy="27" id="radialGradient3238" xlink:href="#linearGradient3592-9" gradientUnits="userSpaceOnUse" gradientTransform="matrix(1,0,0,0.3125,-2e-4,1038.9248)"/><linearGradient x1="5" y1="29" x2="-2" y2="14" id="linearGradient3240" xlink:href="#linearGradient3795" gradientUnits="userSpaceOnUse" gradientTransform="translate(607,1020.3622)"/><linearGradient x1="-8" y1="1036.3622" x2="-1" y2="1051.3622" id="linearGradient3242" xlink:href="#linearGradient3803" gradientUnits="userSpaceOnUse" gradientTransform="translate(608,0)"/><radialGradient cx="16" cy="27" r="16" fx="16" fy="27" id="radialGradient3263" xlink:href="#linearGradient3592-9" gradientUnits="userSpaceOnUse" gradientTransform="matrix(1,0,0,0.3125,159.9998,1038.9248)"/></defs><metadata id="metadata13121"><rdf:RDF><cc:Work rdf:about=""><dc:format>image/svg+xml</dc:format><dc:type rdf:resource="http://purl.org/dc/dcmitype/StillImage"/><dc:title/></cc:Work></rdf:RDF></metadata><g transform="translate(0,-1020.3622)" id="layer1"><g id="g13276"><rect width="32" height="10" x="0" y="1042.3622" id="use5780" style="fill:url(#radialGradient3238);fill-opacity:1;fill-rule:evenodd;stroke:none"/><g transform="translate(-608,1.7382813e-5)" id="use5732"><path d="m 617,1047.3622 -6,-15 20,-8 6,15 z" inkscape:connector-curvature="0" id="path13128" style="fill:url(#linearGradient3240);fill-opacity:1;stroke:url(#linearGradient3242);stroke-width:1px;stroke-linecap:butt;stroke-linejoin:round;stroke-opacity:1"/><g transform="translate(608,0)" id="g13130"><path d="m 16.010153,1040.3622 c -2.73792,-1.503 -5.022202,-0.6843 -5.69448,2.2525 z" inkscape:connector-curvature="0" id="path13132" style="fill:#ee2222;fill-opacity:1;stroke:#ee2222;stroke-width:1px;stroke-linecap:round;stroke-linejoin:round;stroke-opacity:1"/><path d="m 15.45191,16.400823 a 2.857157,3.3597066 0 1 1 -8.58e-4,-0.03874" transform="matrix(0.93749386,-0.34800181,0.34800181,0.93749386,-6.9010887,1024.6384)" id="path13134" style="fill:#ffcc99;fill-opacity:1;stroke:none"/></g><g transform="translate(608,0)" id="g13136"><path d="m 15.467961,1031.0858 6.12405,-2.4622" inkscape:connector-curvature="0" id="path13138" style="fill:none;stroke:#999999;stroke-width:1px;stroke-linecap:round;stroke-linejoin:miter;stroke-opacity:1"/><path d="m 16.50968,1033.769 6.12405,-2.4622" inkscape:connector-curvature="0" id="path13140" style="fill:none;stroke:#999999;stroke-width:1px;stroke-linecap:round;stroke-linejoin:miter;stroke-opacity:1"/><path d="m 18.782523,1039.2617 6.12405,-2.4622" inkscape:connector-curvature="0" id="path13142" style="fill:none;stroke:#999999;stroke-width:1px;stroke-linecap:round;stroke-linejoin:miter;stroke-opacity:1"/><path d="m 17.582968,1036.5469 6.12405,-2.4622" inkscape:connector-curvature="0" id="path13144" style="fill:none;stroke:#999999;stroke-width:1px;stroke-linecap:round;stroke-linejoin:miter;stroke-opacity:1"/></g></g></g><use transform="translate(32,1.7382813e-5)" id="use13289" x="0" y="0" width="128" height="32" xlink:href="#g13276"/><g id="g13688"><use transform="translate(128,1.7382813e-5)" id="use13274" x="0" y="0" width="128" height="32" xlink:href="#use5780"/><g transform="translate(-481.5,1.7382813e-5)" id="use5861"><path d="m 617,1047.3622 -6,-15 20,-8 6,15 z" inkscape:connector-curvature="0" id="path13329" style="fill:url(#linearGradient13347);fill-opacity:1;stroke:url(#linearGradient13349);stroke-width:1px;stroke-linecap:butt;stroke-linejoin:round;stroke-opacity:1"/><g transform="translate(608,0)" id="g13331"><path d="m 16.010153,1040.3622 c -2.73792,-1.503 -5.022202,-0.6843 -5.69448,2.2525 z" inkscape:connector-curvature="0" id="path13333" style="fill:#ee2222;fill-opacity:1;stroke:#ee2222;stroke-width:1px;stroke-linecap:round;stroke-linejoin:round;stroke-opacity:1"/><path d="m 15.45191,16.400823 a 2.857157,3.3597066 0 1 1 -8.58e-4,-0.03874" transform="matrix(0.93749386,-0.34800181,0.34800181,0.93749386,-6.9010887,1024.6384)" id="path13335" style="fill:#ffcc99;fill-opacity:1;stroke:none"/></g><g transform="translate(608,0)" id="g13337"><path d="m 15.467961,1031.0858 6.12405,-2.4622" inkscape:connector-curvature="0" id="path13339" style="fill:none;stroke:#999999;stroke-width:1px;stroke-linecap:round;stroke-linejoin:miter;stroke-opacity:1"/><path d="m 16.50968,1033.769 6.12405,-2.4622" inkscape:connector-curvature="0" id="path13341" style="fill:none;stroke:#999999;stroke-width:1px;stroke-linecap:round;stroke-linejoin:miter;stroke-opacity:1"/><path d="m 18.782523,1039.2617 6.12405,-2.4622" inkscape:connector-curvature="0" id="path13343" style="fill:none;stroke:#999999;stroke-width:1px;stroke-linecap:round;stroke-linejoin:miter;stroke-opacity:1"/><path d="m 17.582968,1036.5469 6.12405,-2.4622" inkscape:connector-curvature="0" id="path13345" style="fill:none;stroke:#999999;stroke-width:1px;stroke-linecap:round;stroke-linejoin:miter;stroke-opacity:1"/></g></g><g transform="translate(-478.5,1.7382813e-5)" id="use5859"><path d="m 617,1047.3622 -6,-15 20,-8 6,15 z" inkscape:connector-curvature="0" id="path13353" style="fill:url(#linearGradient13371);fill-opacity:1;stroke:url(#linearGradient13373);stroke-width:1px;stroke-linecap:butt;stroke-linejoin:round;stroke-opacity:1"/><g transform="translate(608,0)" id="g13355"><path d="m 16.010153,1040.3622 c -2.73792,-1.503 -5.022202,-0.6843 -5.69448,2.2525 z" inkscape:connector-curvature="0" id="path13357" style="fill:#ee2222;fill-opacity:1;stroke:#ee2222;stroke-width:1px;stroke-linecap:round;stroke-linejoin:round;stroke-opacity:1"/><path d="m 15.45191,16.400823 a 2.857157,3.3597066 0 1 1 -8.58e-4,-0.03874" transform="matrix(0.93749386,-0.34800181,0.34800181,0.93749386,-6.9010887,1024.6384)" id="path13359" style="fill:#ffcc99;fill-opacity:1;stroke:none"/></g><g transform="translate(608,0)" id="g13361"><path d="m 15.467961,1031.0858 6.12405,-2.4622" inkscape:connector-curvature="0" id="path13363" style="fill:none;stroke:#999999;stroke-width:1px;stroke-linecap:round;stroke-linejoin:miter;stroke-opacity:1"/><path d="m 16.50968,1033.769 6.12405,-2.4622" inkscape:connector-curvature="0" id="path13365" style="fill:none;stroke:#999999;stroke-width:1px;stroke-linecap:round;stroke-linejoin:miter;stroke-opacity:1"/><path d="m 18.782523,1039.2617 6.12405,-2.4622" inkscape:connector-curvature="0" id="path13367" style="fill:none;stroke:#999999;stroke-width:1px;stroke-linecap:round;stroke-linejoin:miter;stroke-opacity:1"/><path d="m 17.582968,1036.5469 6.12405,-2.4622" inkscape:connector-curvature="0" id="path13369" style="fill:none;stroke:#999999;stroke-width:1px;stroke-linecap:round;stroke-linejoin:miter;stroke-opacity:1"/></g></g></g><g transform="translate(96,1.7382813e-5)" id="use13551"><rect width="32" height="10" x="0" y="1042.3622" id="rect9913" style="fill:url(#radialGradient9935);fill-opacity:1;fill-rule:evenodd;stroke:none"/><g transform="translate(-608,1.7382813e-5)" id="g9915"><path d="m 617,1047.3622 -6,-15 20,-8 6,15 z" inkscape:connector-curvature="0" id="path9917" style="fill:url(#linearGradient9937);fill-opacity:1;stroke:url(#linearGradient9939);stroke-width:1px;stroke-linecap:butt;stroke-linejoin:round;stroke-opacity:1"/><g transform="translate(608,0)" id="g9919"><path d="m 16.010153,1040.3622 c -2.73792,-1.503 -5.022202,-0.6843 -5.69448,2.2525 z" inkscape:connector-curvature="0" id="path9921" style="fill:#ee2222;fill-opacity:1;stroke:#ee2222;stroke-width:1px;stroke-linecap:round;stroke-linejoin:round;stroke-opacity:1"/><path d="m 15.45191,16.400823 a 2.857157,3.3597066 0 1 1 -8.58e-4,-0.03874" transform="matrix(0.93749386,-0.34800181,0.34800181,0.93749386,-6.9010887,1024.6384)" id="path9923" style="fill:#ffcc99;fill-opacity:1;stroke:none"/></g><g transform="translate(608,0)" id="g9925"><path d="m 15.467961,1031.0858 6.12405,-2.4622" inkscape:connector-curvature="0" id="path9927" style="fill:none;stroke:#999999;stroke-width:1px;stroke-linecap:round;stroke-linejoin:miter;stroke-opacity:1"/><path d="m 16.50968,1033.769 6.12405,-2.4622" inkscape:connector-curvature="0" id="path9929" style="fill:none;stroke:#999999;stroke-width:1px;stroke-linecap:round;stroke-linejoin:miter;stroke-opacity:1"/><path d="m 18.782523,1039.2617 6.12405,-2.4622" inkscape:connector-curvature="0" id="path9931" style="fill:none;stroke:#999999;stroke-width:1px;stroke-linecap:round;stroke-linejoin:miter;stroke-opacity:1"/><path d="m 17.582968,1036.5469 6.12405,-2.4622" inkscape:connector-curvature="0" id="path9933" style="fill:none;stroke:#999999;stroke-width:1px;stroke-linecap:round;stroke-linejoin:miter;stroke-opacity:1"/></g></g></g><path d="M 15,27 11.179396,19.25861 2.6362654,18.017221 8.8181327,11.991389 7.3587914,3.4827793 15,7.5 22.641208,3.4827789 21.181867,11.99139 l 6.181868,6.025831 -8.543131,1.24139 z" transform="matrix(0.52259007,0.151769,-0.151769,0.52259007,115.35677,1030.9757)" id="path4407-0" style="fill:url(#radialGradient13826);fill-opacity:1;stroke:url(#linearGradient13828);stroke-width:1.83762002;stroke-linecap:round;stroke-linejoin:round;stroke-miterlimit:4;stroke-opacity:1;stroke-dasharray:none"/><use transform="translate(114.5,30.000017)" id="use5872" x="0" y="0" width="3136" height="32" xlink:href="#rect4375"/><rect width="32" height="10" x="64" y="1042.3622" id="use5780-2" style="fill:url(#radialGradient9956);fill-opacity:1;fill-rule:evenodd;stroke:none"/><g transform="translate(-638,-0.0234)" id="g5878"><g id="g5874"/><g transform="translate(704,1.7382813e-5)" id="g4476"><g transform="translate(-1.92218,0)" id="g10750"><path d="m 714.4698,1047.3856 -5.04762,-12.7121 16.8254,-6.7798 5.04762,12.7121 z" inkscape:connector-curvature="0" transform="translate(-704,-1.7382813e-5)" id="path3793-9" style="fill:url(#linearGradient10759);fill-opacity:1;stroke:url(#linearGradient10761);stroke-width:1;stroke-linecap:butt;stroke-linejoin:round;stroke-miterlimit:4;stroke-opacity:1;stroke-dasharray:none"/><path d="m 720.36723,1041.4533 c -2.30333,-1.2738 -4.22503,-0.58 -4.79059,1.9089 z" inkscape:connector-curvature="0" transform="translate(-704,-1.7382813e-5)" id="path3813-6" style="fill:#ff2222;fill-opacity:1;stroke:#ff2222;stroke-width:0.84436435px;stroke-linecap:round;stroke-linejoin:round;stroke-opacity:1"/><path d="m 15.45191,16.400823 a 2.857157,3.3597066 0 1 1 -8.58e-4,-0.03874" transform="matrix(0.78868531,-0.29492118,0.29276343,0.79449815,-2.90731,1028.1278)" id="path3815-29" style="fill:#ffcc99;fill-opacity:1;stroke:none"/><path d="m 15.911101,1033.5918 5.151979,-2.0866" inkscape:connector-curvature="0" id="path3817-8" style="fill:none;stroke:#999999;stroke-width:1;stroke-linecap:round;stroke-linejoin:miter;stroke-miterlimit:4;stroke-opacity:1;stroke-dasharray:none"/><path d="m 16.787468,1035.8657 5.151979,-2.0866" inkscape:connector-curvature="0" id="path3817-3-01" style="fill:none;stroke:#999999;stroke-width:1;stroke-linecap:round;stroke-linejoin:miter;stroke-miterlimit:4;stroke-opacity:1;stroke-dasharray:none"/><path d="m 18.699543,1040.5838 3.746523,-1.6712" inkscape:connector-curvature="0" id="path3817-7-6" style="fill:none;stroke:#999999;stroke-width:1;stroke-linecap:round;stroke-linejoin:miter;stroke-miterlimit:4;stroke-opacity:1;stroke-dasharray:none"/><path d="m 17.690393,1038.2199 5.151979,-2.0866" inkscape:connector-curvature="0" id="path3817-9-73" style="fill:none;stroke:#999999;stroke-width:1;stroke-linecap:round;stroke-linejoin:miter;stroke-miterlimit:4;stroke-opacity:1;stroke-dasharray:none"/></g></g></g><g transform="translate(-68,0)" id="g6242"><path d="m 152.5,1034.8622 2,4 2,-4 z" inkscape:connector-curvature="0" id="path3966-4-44" style="fill:#ffcc77;fill-opacity:1;stroke:#995500;stroke-width:1px;stroke-linecap:butt;stroke-linejoin:round;stroke-opacity:1"/><path d="m 152.5,1022.8622 4,0 0,12 -4,0 z" inkscape:connector-curvature="0" id="path3158-9-6-5" style="fill:#ff8800;fill-opacity:1;stroke:#995500;stroke-width:1px;stroke-linecap:round;stroke-linejoin:round;stroke-opacity:1"/></g><rect width="32" height="10" x="160" y="1042.3622" id="use4189" style="fill:url(#radialGradient3263);fill-opacity:1;fill-rule:evenodd;stroke:none"/><g transform="translate(-1344.212,-0.30001841)" id="use5112"><path d="m 1510.5627,1025.0929 c -2.7803,1.2012 -3.2664,5.0631 -2.562,6.4503 l 3.5372,-1.482 c -0.5745,-1.4152 0.1582,-5.461 2.9222,-6.6605 z" inkscape:connector-curvature="0" id="path6924" style="fill:url(#linearGradient6928);fill-opacity:1;stroke:#228811;stroke-width:1;stroke-linecap:round;stroke-linejoin:round;stroke-miterlimit:4;stroke-opacity:1;stroke-dasharray:none;stroke-dashoffset:0"/><path d="m 1517.7001,1027.3621 -3.0001,1.4001 0.6,1.1998 6.85,2.2002 3.15,-6.9998 -0.6,-1.0624 -3.1,1.4627 c -1.2,-2.6431 -4.696,-3.3356 -7.5563,-2.0584 l -3.4813,1.6517 c 2.5475,-1.2709 5.9974,-0.4263 7.1377,2.2061 z" inkscape:connector-curvature="0" id="path6926" style="fill:url(#linearGradient6930);fill-opacity:1;stroke:#228811;stroke-width:1;stroke-linecap:round;stroke-linejoin:round;stroke-miterlimit:4;stroke-opacity:1;stroke-dasharray:none;stroke-dashoffset:0"/></g><g transform="matrix(0.51691125,-0.2019099,0.2019099,0.51691125,-1285.7424,969.11758)" id="use6089" style="stroke-width:1.80197775;stroke-miterlimit:4;stroke-dasharray:none"><path d="m 2403.5,1066.8622 0,13.5 -19.5,0 0,-13.5" inkscape:connector-curvature="0" id="path6934" style="fill:url(#linearGradient6942);fill-opacity:1;stroke:url(#linearGradient6944);stroke-width:1.80197775;stroke-linecap:round;stroke-linejoin:round;stroke-miterlimit:4;stroke-opacity:1;stroke-dasharray:none"/><path d="m 2384,1066.8622 9,8 1.5,0 9,-8" inkscape:connector-curvature="0" id="path6936" style="fill:none;stroke:url(#linearGradient6946);stroke-width:1.80197775;stroke-linecap:round;stroke-linejoin:round;stroke-miterlimit:4;stroke-opacity:1;stroke-dasharray:none"/><path d="m 2384.8608,1079.5019 8.1392,-7.6397 1.5,0 8.1391,7.6397" inkscape:connector-curvature="0" id="path6938" style="fill:url(#linearGradient6948);fill-opacity:1;stroke:url(#linearGradient6950);stroke-width:1.80197775;stroke-linecap:round;stroke-linejoin:round;stroke-miterlimit:4;stroke-opacity:1;stroke-dasharray:none"/><path d="m 2384,1066.8622 8.5,-8 2,0 9,8" inkscape:connector-curvature="0" id="path6940" style="fill:#ffffff;fill-opacity:1;stroke:url(#linearGradient6952);stroke-width:1.80197775;stroke-linecap:round;stroke-linejoin:round;stroke-miterlimit:4;stroke-opacity:1;stroke-dasharray:none"/></g><g transform="matrix(0.54838432,0,0,0.55278324,-159.2783,466.4399)" id="g6099"><path d="m 617,1047.3622 -6,-15 20,-8 6,15 z" inkscape:connector-curvature="0" id="path6101" style="fill:url(#linearGradient6119);fill-opacity:1;stroke:url(#linearGradient6121);stroke-width:1.81626856;stroke-linecap:butt;stroke-linejoin:round;stroke-miterlimit:4;stroke-opacity:1;stroke-dasharray:none"/><g transform="translate(608,0)" id="g6103"><path d="m 16.010153,1040.3622 c -2.73792,-1.503 -5.022202,-0.6843 -5.69448,2.2525 z" inkscape:connector-curvature="0" id="path6105" style="fill:#ee2222;fill-opacity:1;stroke:#ee2222;stroke-width:1px;stroke-linecap:round;stroke-linejoin:round;stroke-opacity:1"/><path d="m 15.45191,16.400823 a 2.857157,3.3597066 0 1 1 -8.58e-4,-0.03874" transform="matrix(0.93749386,-0.34800181,0.34800181,0.93749386,-6.9010887,1024.6384)" id="path6107" style="fill:#ffcc99;fill-opacity:1;stroke:none"/></g><g transform="translate(608,0)" id="g6109"><path d="m 15.833118,1031.4573 5.667558,-2.2812" inkscape:connector-curvature="0" id="path6111" style="fill:none;stroke:#999999;stroke-width:1.36220133;stroke-linecap:round;stroke-linejoin:miter;stroke-miterlimit:4;stroke-opacity:1;stroke-dasharray:none"/><path d="m 18.78178,1038.8092 5.669381,-2.2812" inkscape:connector-curvature="0" id="path6115" style="fill:none;stroke:#999999;stroke-width:1.36220133;stroke-linecap:round;stroke-linejoin:miter;stroke-miterlimit:4;stroke-opacity:1;stroke-dasharray:none"/><path d="m 17.218308,1035.19 5.668257,-2.2819" inkscape:connector-curvature="0" id="path6117" style="fill:none;stroke:#999999;stroke-width:1.36220133;stroke-linecap:round;stroke-linejoin:miter;stroke-miterlimit:4;stroke-opacity:1;stroke-dasharray:none"/></g></g><use transform="translate(32,0)" id="use3265" x="0" y="0" width="224" height="32" xlink:href="#use4189"/><use transform="translate(32,0)" id="use3267" x="0" y="0" width="224" height="32" xlink:href="#use5112"/><use transform="translate(32,0)" id="use3269" x="0" y="0" width="224" height="32" xlink:href="#g6099"/><use transform="translate(18.00048,0)" id="use3271" x="0" y="0" width="224" height="32" xlink:href="#g6099"/><g transform="translate(-19.999873,1.0001131)" id="g6634"><path d="m 2878.4882,12.868066 a 6.2394724,6.5106826 0 1 1 -5e-4,-0.02466" transform="matrix(1.0417505,0,0,0.99834845,-2916.168,1020.3836)" id="path6624" style="fill:#33ce00;fill-opacity:1;stroke:#2ba115;stroke-width:0.9805665;stroke-linecap:round;stroke-linejoin:round;stroke-miterlimit:4;stroke-opacity:1;stroke-dasharray:none"/><path d="m 72,1034.3621 0,-2 3.000026,0 0,-3 2,0 0,3 2.999974,0 0,2 -2.999974,0 0,3.0001 -2,0 0,-3.0001 z" inkscape:connector-curvature="0" id="path6628" style="fill:#ffffff;fill-opacity:0.94117647;stroke:none"/></g></g></svg>
