<?xml version="1.0" encoding="UTF-8" standalone="no"?>
<svg xmlns:dc="http://purl.org/dc/elements/1.1/" xmlns:cc="http://creativecommons.org/ns#" xmlns:rdf="http://www.w3.org/1999/02/22-rdf-syntax-ns#" xmlns:svg="http://www.w3.org/2000/svg" xmlns="http://www.w3.org/2000/svg" xmlns:xlink="http://www.w3.org/1999/xlink" xmlns:inkscape="http://www.inkscape.org/namespaces/inkscape" version="1.1" width="160" height="32" id="svg5060"><defs id="defs5062"><linearGradient id="linearGradient3592-9-7"><stop id="stop3594-6-0" style="stop-color:#777777;stop-opacity:0.46666667" offset="0"/><stop id="stop3596-3-4" style="stop-color:#777777;stop-opacity:0" offset="1"/></linearGradient><linearGradient id="linearGradient5565-3"><stop id="stop5567-0" style="stop-color:#ff2929;stop-opacity:1" offset="0"/><stop id="stop5569-1" style="stop-color:#ff4949;stop-opacity:1" offset="0.29166666"/><stop id="stop5571-6" style="stop-color:#d80000;stop-opacity:1" offset="0.56"/><stop id="stop5573-8" style="stop-color:#ff5151;stop-opacity:1" offset="0.75999999"/><stop id="stop5575-8" style="stop-color:#d80000;stop-opacity:1" offset="1"/></linearGradient><linearGradient id="linearGradient5057-0"><stop id="stop5059-0" style="stop-color:#721010;stop-opacity:1" offset="0"/><stop id="stop5061-8" style="stop-color:#540c0c;stop-opacity:1" offset="1"/></linearGradient><radialGradient cx="16" cy="27" r="16" fx="16" fy="27" id="radialGradient3026" xlink:href="#linearGradient3592-9-7" gradientUnits="userSpaceOnUse" gradientTransform="matrix(1,0,0,0.3125,2209.9998,1038.9248)"/><linearGradient x1="2202" y1="1068.3622" x2="2190" y2="1068.3622" id="linearGradient3028" xlink:href="#linearGradient5565-3" gradientUnits="userSpaceOnUse"/><linearGradient x1="2188.5" y1="43.5" x2="2188.5" y2="64.5" id="linearGradient3030" xlink:href="#linearGradient5057-0" gradientUnits="userSpaceOnUse"/><linearGradient x1="1501" y1="5" x2="1503" y2="11" id="linearGradient11472" xlink:href="#linearGradient6008" gradientUnits="userSpaceOnUse" gradientTransform="translate(1.1345935e-4,1020.5617)"/><linearGradient id="linearGradient6008"><stop id="stop6010" style="stop-color:#2fba18;stop-opacity:1" offset="0"/><stop id="stop6120" style="stop-color:#28a114;stop-opacity:1" offset="0.5"/><stop id="stop6012" style="stop-color:#2fbb17;stop-opacity:1" offset="1"/></linearGradient><linearGradient x1="1498.8068" y1="4.2157669" x2="1504" y2="17" id="linearGradient5202" xlink:href="#linearGradient6008" gradientUnits="userSpaceOnUse" gradientTransform="translate(-3.2806452e-6,1020.5622)"/><radialGradient cx="16" cy="27" r="16" fx="16" fy="27" id="radialGradient5241" xlink:href="#linearGradient3592-9-7" gradientUnits="userSpaceOnUse" gradientTransform="matrix(1,0,0,0.3125,95.9998,1038.9248)"/></defs><metadata id="metadata5065"><rdf:RDF><cc:Work rdf:about=""><dc:format>image/svg+xml</dc:format><dc:type rdf:resource="http://purl.org/dc/dcmitype/StillImage"/><dc:title/></cc:Work></rdf:RDF></metadata><g transform="translate(0,-1020.3622)" id="layer1"><g transform="translate(-2210,1.7382813e-5)" id="g5463"><rect width="32" height="10" x="2210" y="1042.3622" id="use5174" style="fill:url(#radialGradient3026);fill-opacity:1;fill-rule:evenodd;stroke:none"/><g transform="matrix(0.92839551,-0.37159355,0.37159355,0.92839551,-209.18956,852.88533)" id="use5456"><path d="m 2189.5,1073.3622 c 0,0 2,-0.5 4,-0.5 2,0 3,1.5 5,1.5 2,0 3.5,-0.5 3.5,-0.5 l -2.5,-4 2.5,-4.5 c 0,0 -1.5,0.5 -3.5,0.5 -2,0 -3,-1.5 -5,-1.5 -2,0 -4,0.5 -4,0.5 z" inkscape:connector-curvature="0" id="path5882" style="fill:url(#linearGradient3028);fill-opacity:1;stroke:#a40000;stroke-width:1px;stroke-linecap:round;stroke-linejoin:round;stroke-opacity:1"/><path d="m 2187.5,43.5 c 0,0 0.5,-0.5 1,-0.5 0.5,0 1,0.5 1,0.5 l 0,21 c 0,0 -0.5,0.5 -1,0.5 -0.5,0 -1,-0.5 -1,-0.5 z" inkscape:connector-curvature="0" transform="translate(0,1020.3622)" id="path5884" style="fill:url(#linearGradient3030);fill-opacity:1;stroke:none"/></g></g><rect width="32" height="10" x="96" y="1042.3622" id="use5351" style="fill:url(#radialGradient5241);fill-opacity:1;fill-rule:evenodd;stroke:none"/><use transform="translate(-2115.5,1.7382813e-5)" id="use5459" x="0" y="0" width="3168" height="32" xlink:href="#use5456"/><use transform="translate(3,0)" id="use5461" x="0" y="0" width="3168" height="32" xlink:href="#use5459"/><use transform="translate(32,0)" id="use6306" x="0" y="0" width="128" height="32" xlink:href="#g5463"/><use transform="translate(32,0)" id="use6308" x="0" y="0" width="128" height="32" xlink:href="#use6306"/><g transform="translate(-68,0)" id="g6242"><path d="m 152.5,1034.8622 2,4 2,-4 z" inkscape:connector-curvature="0" id="path3966-4-44" style="fill:#ffcc77;fill-opacity:1;stroke:#995500;stroke-width:1px;stroke-linecap:butt;stroke-linejoin:round;stroke-opacity:1"/><path d="m 152.5,1022.8622 4,0 0,12 -4,0 z" inkscape:connector-curvature="0" id="path3158-9-6-5" style="fill:#ff8800;fill-opacity:1;stroke:#995500;stroke-width:1px;stroke-linecap:round;stroke-linejoin:round;stroke-opacity:1"/></g><use transform="translate(32,0)" id="use5243" x="0" y="0" width="160" height="32" xlink:href="#use5351"/><use transform="matrix(0.6184612,0,0,0.6184612,68.713219,399.60934)" id="use3032" x="0" y="0" width="3168" height="32" xlink:href="#use5459"/><g transform="translate(-1376.212,-0.3)" id="use6093"><path d="m 1510.5627,1025.0929 c -2.7803,1.2012 -3.2664,5.0631 -2.562,6.4503 l 3.5372,-1.482 c -0.5745,-1.4152 0.1582,-5.461 2.9222,-6.6605 z" inkscape:connector-curvature="0" id="path11467" style="fill:url(#linearGradient11472);fill-opacity:1;stroke:#228811;stroke-width:1;stroke-linecap:round;stroke-linejoin:round;stroke-miterlimit:4;stroke-opacity:1;stroke-dasharray:none;stroke-dashoffset:0"/><path d="m 1517.7001,1027.3621 -3.0001,1.4001 0.6,1.1998 6.85,2.2002 3.15,-6.9998 -0.6,-1.0624 -3.1,1.4627 c -1.2,-2.6431 -4.696,-3.3356 -7.5563,-2.0584 l -3.4813,1.6517 c 2.5475,-1.2709 5.9974,-0.4263 7.1377,2.2061 z" inkscape:connector-curvature="0" id="path11469" style="fill:url(#linearGradient5202);fill-opacity:1;stroke:#228811;stroke-width:1;stroke-linecap:round;stroke-linejoin:round;stroke-miterlimit:4;stroke-opacity:1;stroke-dasharray:none;stroke-dashoffset:0"/></g><use transform="translate(14.243984,0)" id="use5245" x="0" y="0" width="160" height="32" xlink:href="#use3032"/><g transform="translate(-19.999873,1.0001131)" id="g6634"><path d="m 2878.4882,12.868066 a 6.2394724,6.5106826 0 1 1 -5e-4,-0.02466" transform="matrix(1.0417505,0,0,0.99834845,-2916.168,1020.3836)" id="path6624" style="fill:#33ce00;fill-opacity:1;stroke:#2ba115;stroke-width:0.9805665;stroke-linecap:round;stroke-linejoin:round;stroke-miterlimit:4;stroke-opacity:1;stroke-dasharray:none"/><path d="m 72,1034.3621 0,-2 3.000026,0 0,-3 2,0 0,3 2.999974,0 0,2 -2.999974,0 0,3.0001 -2,0 0,-3.0001 z" inkscape:connector-curvature="0" id="path6628" style="fill:#ffffff;fill-opacity:0.94117647;stroke:none"/></g></g></svg>
