<?xml version="1.0" encoding="UTF-8" standalone="no"?>
<svg xmlns:dc="http://purl.org/dc/elements/1.1/" xmlns:cc="http://creativecommons.org/ns#" xmlns:rdf="http://www.w3.org/1999/02/22-rdf-syntax-ns#" xmlns:svg="http://www.w3.org/2000/svg" xmlns="http://www.w3.org/2000/svg" xmlns:xlink="http://www.w3.org/1999/xlink" xmlns:inkscape="http://www.inkscape.org/namespaces/inkscape" version="1.1" width="160" height="32" id="svg3769"><defs id="defs3771"><linearGradient id="linearGradient3604"><stop id="stop3606-2" style="stop-color:#ff8800;stop-opacity:1" offset="0"/><stop id="stop3608" style="stop-color:#dd7700;stop-opacity:1" offset="1"/></linearGradient><linearGradient id="linearGradient3592"><stop id="stop3594" style="stop-color:#777777;stop-opacity:0.46666667" offset="0"/><stop id="stop3596" style="stop-color:#777777;stop-opacity:0" offset="1"/></linearGradient><linearGradient id="linearGradient6008"><stop id="stop6010" style="stop-color:#2fba18;stop-opacity:1" offset="0"/><stop id="stop6120" style="stop-color:#28a114;stop-opacity:1" offset="0.5"/><stop id="stop6012" style="stop-color:#2fbb17;stop-opacity:1" offset="1"/></linearGradient><linearGradient x1="29" y1="2" x2="34" y2="17" id="linearGradient9064" xlink:href="#linearGradient3604" gradientUnits="userSpaceOnUse" gradientTransform="translate(832,1052.3622)"/><linearGradient x1="2282.9392" y1="56.999981" x2="2282.9392" y2="41.783119" id="linearGradient8641" xlink:href="#linearGradient3795" gradientUnits="userSpaceOnUse" gradientTransform="matrix(0.75574056,0,0,0.75574056,666.19022,1036.285)"/><linearGradient id="linearGradient3795"><stop id="stop3797" style="stop-color:#dadada;stop-opacity:1" offset="0"/><stop id="stop3799" style="stop-color:#ffffff;stop-opacity:1" offset="1"/></linearGradient><linearGradient x1="2281.616" y1="41.783119" x2="2281.616" y2="56.999981" id="linearGradient8643" xlink:href="#linearGradient3633-25" gradientUnits="userSpaceOnUse" gradientTransform="matrix(0.75574056,0,0,0.75574056,666.19022,1036.285)"/><linearGradient id="linearGradient3633-25"><stop id="stop3635-50" style="stop-color:#989898;stop-opacity:1" offset="0"/><stop id="stop3637-9" style="stop-color:#6b6b6b;stop-opacity:1" offset="1"/></linearGradient><linearGradient x1="2254.116" y1="43.283119" x2="2254.116" y2="58.499981" id="linearGradient8645" xlink:href="#linearGradient3633-25" gradientUnits="userSpaceOnUse" gradientTransform="matrix(0.75574056,0,0,0.75574056,686.97309,1035.1514)"/><linearGradient x1="2254.116" y1="58.499981" x2="2254.116" y2="43.283119" id="linearGradient8647" xlink:href="#linearGradient3795" gradientUnits="userSpaceOnUse" gradientTransform="matrix(0.75574056,0,0,0.75574056,686.97309,1035.1514)"/><linearGradient x1="2255.4392" y1="43.283119" x2="2255.4392" y2="58.499981" id="linearGradient8649" xlink:href="#linearGradient3633-25" gradientUnits="userSpaceOnUse" gradientTransform="matrix(0.75574056,0,0,0.75574056,686.97309,1035.1514)"/><linearGradient x1="2254.116" y1="43.283119" x2="2254.116" y2="58.499981" id="linearGradient8651" xlink:href="#linearGradient3633-25" gradientUnits="userSpaceOnUse" gradientTransform="matrix(0.75574056,0,0,-0.75574056,686.97309,1098.573)"/><linearGradient x1="1501" y1="5" x2="1503" y2="11" id="linearGradient9721" xlink:href="#linearGradient6008" gradientUnits="userSpaceOnUse" gradientTransform="translate(1.1345935e-4,1020.5617)"/><linearGradient x1="1498.8068" y1="4.2157669" x2="1504" y2="17" id="linearGradient9723" xlink:href="#linearGradient6008" gradientUnits="userSpaceOnUse" gradientTransform="translate(-3.2806452e-6,1020.5622)"/><linearGradient x1="29" y1="2" x2="34" y2="17" id="linearGradient9725" xlink:href="#linearGradient3604" gradientUnits="userSpaceOnUse" gradientTransform="translate(1565,1017.2372)"/><radialGradient cx="16" cy="27" r="16" fx="16" fy="27" id="radialGradient9736" xlink:href="#linearGradient3592" gradientUnits="userSpaceOnUse" gradientTransform="matrix(1,0,0,0.3125,64,1038.9248)"/><radialGradient cx="16" cy="27" r="16" fx="16" fy="27" id="radialGradient9749" xlink:href="#linearGradient3592" gradientUnits="userSpaceOnUse" gradientTransform="matrix(1,0,0,0.3125,831.9998,1038.9248)"/></defs><metadata id="metadata3774"><rdf:RDF><cc:Work rdf:about=""><dc:format>image/svg+xml</dc:format><dc:type rdf:resource="http://purl.org/dc/dcmitype/StillImage"/><dc:title/></cc:Work></rdf:RDF></metadata><g transform="translate(0,-1020.3622)" id="layer1"><g transform="translate(-832,1.7382813e-5)" id="g4341"><rect width="32" height="10" x="832" y="1042.3622" id="use4318" style="fill:url(#radialGradient9749);fill-opacity:1;fill-rule:evenodd;stroke:none"/><g transform="translate(0,-32)" id="use4339"><path d="m 841,1079.3622 -6,-15 1,-3 5,-2 4,1 10,-4 6,15 -20,8 z" inkscape:connector-curvature="0" id="path11703" style="fill:#ffeedd;fill-opacity:1;stroke:#bb5500;stroke-width:1px;stroke-linecap:butt;stroke-linejoin:round;stroke-opacity:1"/><path d="m 841,1079.4872 20,-8.125 -6,-15 -10,4 -2,4 -5,2 -3,-2 6,15.125 z" inkscape:connector-curvature="0" id="path11705" style="fill:url(#linearGradient9064);fill-opacity:1;stroke:#bb5500;stroke-width:1px;stroke-linecap:butt;stroke-linejoin:round;stroke-opacity:1"/></g></g><use transform="translate(32,0)" id="use3810" x="0" y="0" width="96" height="32" xlink:href="#g4341"/><g transform="translate(-1503.2,-0.02498262)" id="g4779"><g transform="translate(-1.3,1.525)" id="g4733"><path d="m 1574,1044.3622 -3,-7.5 0.9,-2.2 2.9,-1.1 2.7,0.5 3.2,-1.2 2.9,7.6 z" inkscape:connector-curvature="0" id="path2818-5-2" style="fill:#ffeedd;fill-opacity:1;stroke:#bb5500;stroke-width:1px;stroke-linecap:butt;stroke-linejoin:round;stroke-opacity:1"/><path d="m 1574,1044.3622 9.6,-3.9004 -2.9,-7.5992 -3.2,1.1999 -1.5,2.2751 -3,1.2 -2,-0.8 z" inkscape:connector-curvature="0" id="path3594-9-5" style="fill:url(#linearGradient9725);fill-opacity:1;stroke:#bb5500;stroke-width:1px;stroke-linecap:butt;stroke-linejoin:round;stroke-opacity:1"/></g></g><g id="g9738"><rect width="32" height="10" x="64" y="1042.3622" id="rect2987-8-7-8-8-9-2-2" style="fill:url(#radialGradient9736);fill-opacity:1;stroke:none"/><g transform="translate(-1440.212,-0.29998262)" id="use4555"><path d="m 1510.5627,1025.0929 c -2.7803,1.2012 -3.2664,5.0631 -2.562,6.4503 l 3.5372,-1.482 c -0.5745,-1.4152 0.1582,-5.461 2.9222,-6.6605 z" inkscape:connector-curvature="0" id="path4733" style="fill:url(#linearGradient9721);fill-opacity:1;stroke:#228811;stroke-width:1;stroke-linecap:round;stroke-linejoin:round;stroke-miterlimit:4;stroke-opacity:1;stroke-dasharray:none;stroke-dashoffset:0"/><path d="m 1517.7001,1027.3621 -3.0001,1.4001 0.6,1.1998 6.85,2.2002 3.15,-6.9998 -0.6,-1.0624 -3.1,1.4627 c -1.2,-2.6431 -4.696,-3.3356 -7.5563,-2.0584 l -3.4813,1.6517 c 2.5475,-1.2709 5.9974,-0.4263 7.1377,2.2061 z" inkscape:connector-curvature="0" id="path4735" style="fill:url(#linearGradient9723);fill-opacity:1;stroke:#228811;stroke-width:1;stroke-linecap:round;stroke-linejoin:round;stroke-miterlimit:4;stroke-opacity:1;stroke-dasharray:none;stroke-dashoffset:0"/></g><use transform="translate(14.5,0)" id="use4559" x="0" y="0" width="3008" height="32" xlink:href="#g4779"/></g><use transform="translate(32,0)" id="use9745" x="0" y="0" width="160" height="32" xlink:href="#g9738"/><g transform="translate(-1471.2,-0.02496522)" id="g4679"><g transform="translate(-1.3,1.525)" id="g4681"><path d="m 1574,1044.3622 -3,-7.5 0.9,-2.2 2.9,-1.1 2.7,0.5 3.2,-1.2 2.9,7.6 z" inkscape:connector-curvature="0" id="path4683" style="fill:none;stroke:#bb5500;stroke-width:1;stroke-linecap:round;stroke-linejoin:round;stroke-miterlimit:4;stroke-opacity:1;stroke-dasharray:1, 2;stroke-dashoffset:0"/></g></g><use transform="translate(32,0)" id="use9747" x="0" y="0" width="160" height="32" xlink:href="#use9745"/><g transform="matrix(0.51691125,-0.2019099,0.2019099,0.51691125,-1317.7425,969.1176)" id="use3665" style="stroke-width:1.80197775;stroke-miterlimit:4;stroke-dasharray:none"><path d="m 2403.5,1066.8622 0,13.5 -19.5,0 0,-13.5" inkscape:connector-curvature="0" id="path8633" style="fill:url(#linearGradient8641);fill-opacity:1;stroke:url(#linearGradient8643);stroke-width:1.80197775;stroke-linecap:round;stroke-linejoin:round;stroke-miterlimit:4;stroke-opacity:1;stroke-dasharray:none"/><path d="m 2384,1066.8622 9,8 1.5,0 9,-8" inkscape:connector-curvature="0" id="path8635" style="fill:none;stroke:url(#linearGradient8645);stroke-width:1.80197775;stroke-linecap:round;stroke-linejoin:round;stroke-miterlimit:4;stroke-opacity:1;stroke-dasharray:none"/><path d="m 2384.8608,1079.5019 8.1392,-7.6397 1.5,0 8.1391,7.6397" inkscape:connector-curvature="0" id="path8637" style="fill:url(#linearGradient8647);fill-opacity:1;stroke:url(#linearGradient8649);stroke-width:1.80197775;stroke-linecap:round;stroke-linejoin:round;stroke-miterlimit:4;stroke-opacity:1;stroke-dasharray:none"/><path d="m 2384,1066.8622 8.5,-8 2,0 9,8" inkscape:connector-curvature="0" id="path8639" style="fill:#ffffff;fill-opacity:1;stroke:url(#linearGradient8651);stroke-width:1.80197775;stroke-linecap:round;stroke-linejoin:round;stroke-miterlimit:4;stroke-opacity:1;stroke-dasharray:none"/></g><g transform="translate(-19.999873,1.0001131)" id="g6634"><path d="m 2878.4882,12.868066 a 6.2394724,6.5106826 0 1 1 -5e-4,-0.02466" transform="matrix(1.0417505,0,0,0.99834845,-2916.168,1020.3836)" id="path6624" style="fill:#33ce00;fill-opacity:1;stroke:#2ba115;stroke-width:0.9805665;stroke-linecap:round;stroke-linejoin:round;stroke-miterlimit:4;stroke-opacity:1;stroke-dasharray:none"/><path d="m 72,1034.3621 0,-2 3.000026,0 0,-3 2,0 0,3 2.999974,0 0,2 -2.999974,0 0,3.0001 -2,0 0,-3.0001 z" inkscape:connector-curvature="0" id="path6628" style="fill:#ffffff;fill-opacity:0.94117647;stroke:none"/></g></g></svg>
