<?xml version="1.0" encoding="UTF-8" standalone="no"?>
<svg xmlns:dc="http://purl.org/dc/elements/1.1/" xmlns:cc="http://creativecommons.org/ns#" xmlns:rdf="http://www.w3.org/1999/02/22-rdf-syntax-ns#" xmlns:svg="http://www.w3.org/2000/svg" xmlns="http://www.w3.org/2000/svg" xmlns:xlink="http://www.w3.org/1999/xlink" xmlns:inkscape="http://www.inkscape.org/namespaces/inkscape" version="1.1" width="128" height="32" id="svg2"><defs id="defs4"><linearGradient id="linearGradient4385"><stop id="stop4387" style="stop-color:#c9dbff;stop-opacity:1" offset="0"/><stop id="stop4389" style="stop-color:#b3ccff;stop-opacity:1" offset="1"/></linearGradient><linearGradient id="linearGradient4039"><stop id="stop4041" style="stop-color:#ffffff;stop-opacity:1" offset="0"/><stop id="stop4043" style="stop-color:#eeeeee;stop-opacity:1" offset="1"/></linearGradient><linearGradient id="linearGradient3592-9-6-2"><stop id="stop3594-6-5-3" style="stop-color:#777777;stop-opacity:0.46666667" offset="0"/><stop id="stop3596-3-6-0" style="stop-color:#777777;stop-opacity:0" offset="1"/></linearGradient><radialGradient cx="16" cy="27" r="16" fx="16" fy="27" id="radialGradient3218" xlink:href="#linearGradient3592-9-6-2" gradientUnits="userSpaceOnUse" gradientTransform="matrix(1,0,0,0.3125,-1.9969329e-4,1038.9248)"/><radialGradient cx="16" cy="27" r="16" fx="16" fy="27" id="radialGradient5306" xlink:href="#linearGradient3592-9-6-2" gradientUnits="userSpaceOnUse" gradientTransform="matrix(1,0,0,0.3125,95.9998,1038.9248)"/><linearGradient id="linearGradient4385-0"><stop id="stop4387-8" style="stop-color:#c9dbff;stop-opacity:1" offset="0"/><stop id="stop4389-9" style="stop-color:#b3ccff;stop-opacity:1" offset="1"/></linearGradient><linearGradient x1="5" y1="17" x2="20" y2="17" id="linearGradient6421" xlink:href="#linearGradient4385-0" gradientUnits="userSpaceOnUse" gradientTransform="matrix(0.93358043,-0.35836795,0.35836795,0.93358043,95.15442,1023.6474)"/><linearGradient x1="21" y1="10" x2="21" y2="27" id="linearGradient7213" xlink:href="#linearGradient4039" gradientUnits="userSpaceOnUse"/><linearGradient x1="5" y1="17" x2="18" y2="14" id="linearGradient7215" xlink:href="#linearGradient4385" gradientUnits="userSpaceOnUse"/><linearGradient x1="21" y1="10" x2="21" y2="27" id="linearGradient7227" xlink:href="#linearGradient4039" gradientUnits="userSpaceOnUse"/><linearGradient x1="5" y1="17" x2="18" y2="14" id="linearGradient7229" xlink:href="#linearGradient4385" gradientUnits="userSpaceOnUse"/></defs><metadata id="metadata7"><rdf:RDF><cc:Work rdf:about=""><dc:format>image/svg+xml</dc:format><dc:type rdf:resource="http://purl.org/dc/dcmitype/StillImage"/><dc:title/></cc:Work></rdf:RDF></metadata><g transform="translate(0,-1020.3622)" id="layer1"><g id="g6554"><rect width="32" height="10" x="0" y="1042.3622" id="rect4375" style="fill:url(#radialGradient3218);fill-opacity:1;fill-rule:evenodd;stroke:none"/><g transform="matrix(0.93358043,-0.35836795,0.35836795,0.93358043,-368.01038,71.05718)" id="use4019"><path d="m 5,27 0,-17 15,0 0,17 z" inkscape:connector-curvature="0" transform="translate(0,1020.3622)" id="path7205" style="fill:url(#linearGradient7213);fill-opacity:1;stroke:#757575;stroke-width:0.89999998;stroke-linecap:round;stroke-linejoin:round;stroke-miterlimit:4;stroke-opacity:1;stroke-dasharray:none"/><path d="M 18,23 5,27 5,10 18,6 z" inkscape:connector-curvature="0" transform="translate(0,1020.3622)" id="path7207" style="fill:url(#linearGradient7215);fill-opacity:1;stroke:#515a6f;stroke-width:0.89999998;stroke-linecap:round;stroke-linejoin:round;stroke-miterlimit:4;stroke-opacity:1;stroke-dasharray:none"/><path d="m 10,1042.3622 4.8,-1.4" inkscape:connector-curvature="0" id="path7209" style="fill:none;stroke:#83a9ed;stroke-width:0.69999999;stroke-linecap:round;stroke-linejoin:round;stroke-miterlimit:4;stroke-opacity:1;stroke-dasharray:none"/><path d="m 10,1040.3622 4.8,-1.4" inkscape:connector-curvature="0" id="use7211" style="fill:none;stroke:#83a9ed;stroke-width:0.69999999;stroke-linecap:round;stroke-linejoin:round;stroke-miterlimit:4;stroke-opacity:1;stroke-dasharray:none"/></g></g><rect width="32" height="10" x="96" y="1042.3622" id="rect5302" style="fill:url(#radialGradient5306);fill-opacity:1;fill-rule:evenodd;stroke:none"/><path d="m 123.50196,1041.6867 -14.00371,5.3755 -6.09225,-15.8709 14.00371,-5.3755 z" inkscape:connector-curvature="0" id="path3241-0" style="fill:url(#linearGradient6421);fill-opacity:1;stroke:#515a6f;stroke-width:0.89999998;stroke-linecap:round;stroke-linejoin:round;stroke-miterlimit:4;stroke-opacity:1;stroke-dasharray:none"/><g transform="matrix(0.93358043,-0.35836795,0.35836795,0.93358043,-273.51069,71.05718)" id="use5304"><path d="m 5,27 0,-17 15,0 0,17 z" inkscape:connector-curvature="0" transform="translate(0,1020.3622)" id="path7219" style="fill:url(#linearGradient7227);fill-opacity:1;stroke:#757575;stroke-width:0.89999998;stroke-linecap:round;stroke-linejoin:round;stroke-miterlimit:4;stroke-opacity:1;stroke-dasharray:none"/><path d="M 18,23 5,27 5,10 18,6 z" inkscape:connector-curvature="0" transform="translate(0,1020.3622)" id="path7221" style="fill:url(#linearGradient7229);fill-opacity:1;stroke:#515a6f;stroke-width:0.89999998;stroke-linecap:round;stroke-linejoin:round;stroke-miterlimit:4;stroke-opacity:1;stroke-dasharray:none"/><path d="m 10,1042.3622 4.8,-1.4" inkscape:connector-curvature="0" id="path7223" style="fill:none;stroke:#83a9ed;stroke-width:0.69999999;stroke-linecap:round;stroke-linejoin:round;stroke-miterlimit:4;stroke-opacity:1;stroke-dasharray:none"/><path d="m 10,1040.3622 4.8,-1.4" inkscape:connector-curvature="0" id="use7225" style="fill:none;stroke:#83a9ed;stroke-width:0.69999999;stroke-linecap:round;stroke-linejoin:round;stroke-miterlimit:4;stroke-opacity:1;stroke-dasharray:none"/></g><use transform="translate(32,0)" id="use6558" x="0" y="0" width="128" height="32" xlink:href="#g6554"/><use transform="translate(64,0)" id="use6560" x="0" y="0" width="128" height="32" xlink:href="#g6554"/><g transform="translate(-68,0)" id="g6242"><path d="m 152.5,1034.8622 2,4 2,-4 z" inkscape:connector-curvature="0" id="path3966-4-44" style="fill:#ffcc77;fill-opacity:1;stroke:#995500;stroke-width:1px;stroke-linecap:butt;stroke-linejoin:round;stroke-opacity:1"/><path d="m 152.5,1022.8622 4,0 0,12 -4,0 z" inkscape:connector-curvature="0" id="path3158-9-6-5" style="fill:#ff8800;fill-opacity:1;stroke:#995500;stroke-width:1px;stroke-linecap:round;stroke-linejoin:round;stroke-opacity:1"/></g><g transform="translate(-19.999873,1.0001131)" id="g6634"><path d="m 2878.4882,12.868066 a 6.2394724,6.5106826 0 1 1 -5e-4,-0.02466" transform="matrix(1.0417505,0,0,0.99834845,-2916.168,1020.3836)" id="path6624" style="fill:#33ce00;fill-opacity:1;stroke:#2ba115;stroke-width:0.9805665;stroke-linecap:round;stroke-linejoin:round;stroke-miterlimit:4;stroke-opacity:1;stroke-dasharray:none"/><path d="m 72,1034.3621 0,-2 3.000026,0 0,-3 2,0 0,3 2.999974,0 0,2 -2.999974,0 0,3.0001 -2,0 0,-3.0001 z" inkscape:connector-curvature="0" id="path6628" style="fill:#ffffff;fill-opacity:0.94117647;stroke:none"/></g></g></svg>
