<?xml version="1.0" encoding="UTF-8" standalone="no"?>
<svg xmlns:dc="http://purl.org/dc/elements/1.1/" xmlns:cc="http://creativecommons.org/ns#" xmlns:rdf="http://www.w3.org/1999/02/22-rdf-syntax-ns#" xmlns:svg="http://www.w3.org/2000/svg" xmlns="http://www.w3.org/2000/svg" xmlns:xlink="http://www.w3.org/1999/xlink" xmlns:inkscape="http://www.inkscape.org/namespaces/inkscape" version="1.1" width="128" height="32" id="svg5460"><defs id="defs5462"><radialGradient cx="16" cy="27" r="16" fx="16" fy="27" id="radialGradient6792" xlink:href="#linearGradient3592-9" gradientUnits="userSpaceOnUse" gradientTransform="matrix(1,0,0,0.3125,2399.9999,1038.9248)"/><linearGradient id="linearGradient3592-9"><stop id="stop3594-6" style="stop-color:#777777;stop-opacity:0.46666667" offset="0"/><stop id="stop3596-3" style="stop-color:#777777;stop-opacity:0" offset="1"/></linearGradient><linearGradient id="linearGradient6008-7"><stop id="stop6010-1" style="stop-color:#2fba18;stop-opacity:1" offset="0"/><stop id="stop6120-0" style="stop-color:#28a114;stop-opacity:1" offset="0.5"/><stop id="stop6012-2" style="stop-color:#2fbb17;stop-opacity:1" offset="1"/></linearGradient><radialGradient cx="16" cy="27" r="16" fx="16" fy="27" id="radialGradient6784" xlink:href="#linearGradient3592-9" gradientUnits="userSpaceOnUse" gradientTransform="matrix(1,0,0,0.3125,2335.9999,1038.9248)"/><radialGradient cx="16" cy="27" r="16" fx="16" fy="27" id="radialGradient6796" xlink:href="#linearGradient3592-9" gradientUnits="userSpaceOnUse" gradientTransform="matrix(1,0,0,0.3125,2431.9999,1038.9248)"/><pattern patternUnits="userSpaceOnUse" width="2" height="1" patternTransform="translate(0,0) scale(10,10)" id="Strips1_1" inkscape:stockid="Stripes 1:1"><rect style="fill:black;stroke:none" x="0" y="-0.5" width="1" height="2" id="rect6029"/></pattern><radialGradient cx="16" cy="27" r="16" fx="16" fy="27" id="radialGradient6788" xlink:href="#linearGradient3592-9" gradientUnits="userSpaceOnUse" gradientTransform="matrix(1,0,0,0.3125,2367.9999,1038.9248)"/><linearGradient x1="2374.5" y1="57.5" x2="2374.5" y2="35.5" id="linearGradient5591" xlink:href="#linearGradient6008-7" gradientUnits="userSpaceOnUse" gradientTransform="matrix(0.9339215,-0.35747817,0.35747817,0.9339215,154.67639,1839.5797)"/><linearGradient x1="2355" y1="1055.3622" x2="2355" y2="1076.8622" id="linearGradient5593" xlink:href="#linearGradient6008-7" gradientUnits="userSpaceOnUse" gradientTransform="matrix(0.93521663,-0.35407604,0.35407604,0.93521663,-223.42317,868.60883)"/></defs><metadata id="metadata5465"><rdf:RDF><cc:Work rdf:about=""><dc:format>image/svg+xml</dc:format><dc:type rdf:resource="http://purl.org/dc/dcmitype/StillImage"/><dc:title/></cc:Work></rdf:RDF></metadata><g transform="translate(0,-1020.3622)" id="layer1"><g transform="translate(-2336,1.7382813e-5)" id="g5258"><rect width="32" height="10" x="2368" y="1042.3622" id="rect6786" style="fill:url(#radialGradient6788);fill-opacity:1;fill-rule:evenodd;stroke:none"/><path d="m 2374.2234,1028.013 1.0724,2.8017 14.0088,-5.3621 -1.0724,-2.8018 z m 8.7918,1.9885 -3.2509,12.4873 0.5362,1.4008 4.2026,-1.6086 1.7874,4.6696 5.6036,-2.1449 -1.7874,-4.6696 4.2026,-1.6086 -0.5362,-1.4009 z" inkscape:connector-curvature="0" id="use4314" style="fill:url(#linearGradient5591);fill-opacity:1;stroke:#228811;stroke-width:1px;stroke-linecap:round;stroke-linejoin:round;stroke-opacity:1"/></g><g transform="translate(-2336,1.7382813e-5)" id="g5250"><rect width="32" height="10" x="2432" y="1042.3622" id="rect6794" style="fill:url(#radialGradient6796);fill-opacity:1;fill-rule:evenodd;stroke:none"/><use transform="matrix(-1,0,0,-1,4832.6326,2069.7686)" id="use4316" style="stroke:url(#Strips1_1);stroke-opacity:1" x="0" y="0" width="2528" height="32" xlink:href="#use4314"/></g><g transform="translate(-2336,1.7382813e-5)" id="g5262"><rect width="32" height="10" x="2336" y="1042.3622" id="rect6782" style="fill:url(#radialGradient6784);fill-opacity:1;fill-rule:evenodd;stroke:none"/><path d="m 2350.0523,1038.7899 -6.0789,2.3015 -0.7082,-1.8704 4.7492,-15.6986 13.9551,8.6171 0.7082,1.8704 -6.0789,2.3015 2.3015,6.0789 -6.5465,2.4785 z" inkscape:connector-curvature="0" id="use4322" style="fill:url(#linearGradient5593);fill-opacity:1;stroke:#228811;stroke-width:1px;stroke-linecap:round;stroke-linejoin:round;stroke-opacity:1"/></g><g transform="translate(-2336,1.7382813e-5)" id="g5254"><rect width="32" height="10" x="2400" y="1042.3622" id="rect6790" style="fill:url(#radialGradient6792);fill-opacity:1;fill-rule:evenodd;stroke:none"/><use transform="matrix(-1,0,0,-1,4768.7027,2068.294)" id="use4324" x="0" y="0" width="2528" height="32" xlink:href="#use4322"/></g></g></svg>
