<?xml version="1.0" encoding="UTF-8" standalone="no"?>
<svg xmlns:dc="http://purl.org/dc/elements/1.1/" xmlns:cc="http://creativecommons.org/ns#" xmlns:rdf="http://www.w3.org/1999/02/22-rdf-syntax-ns#" xmlns:svg="http://www.w3.org/2000/svg" xmlns="http://www.w3.org/2000/svg" xmlns:xlink="http://www.w3.org/1999/xlink" xmlns:inkscape="http://www.inkscape.org/namespaces/inkscape" version="1.1" width="96" height="32" id="svg4257"><defs id="defs4259"><linearGradient id="linearGradient3592"><stop id="stop3594" style="stop-color:#777777;stop-opacity:0.46666667" offset="0"/><stop id="stop3596" style="stop-color:#777777;stop-opacity:0" offset="1"/></linearGradient><linearGradient id="linearGradient5647-0"><stop id="stop5649-8" style="stop-color:#ff2828;stop-opacity:1" offset="0"/><stop id="stop5651-5" style="stop-color:#dc0000;stop-opacity:1" offset="1"/></linearGradient><linearGradient id="linearGradient5655-7"><stop id="stop5657-9" style="stop-color:#bc0000;stop-opacity:1" offset="0"/><stop id="stop5659-7" style="stop-color:#8c0000;stop-opacity:1" offset="1"/></linearGradient><linearGradient x1="10.0625" y1="7.2767859" x2="17" y2="25" id="linearGradient5784" xlink:href="#linearGradient3633-25" gradientUnits="userSpaceOnUse"/><linearGradient id="linearGradient3633-25"><stop id="stop3635-50" style="stop-color:#989898;stop-opacity:1" offset="0"/><stop id="stop3637-9" style="stop-color:#6b6b6b;stop-opacity:1" offset="1"/></linearGradient><linearGradient x1="15.017858" y1="5.4107141" x2="22" y2="23" id="linearGradient5786" xlink:href="#linearGradient3641-42" gradientUnits="userSpaceOnUse"/><linearGradient id="linearGradient3641-42"><stop id="stop3643-3" style="stop-color:#6f6f6f;stop-opacity:1" offset="0"/><stop id="stop3645-1" style="stop-color:#545454;stop-opacity:1" offset="1"/></linearGradient><linearGradient x1="14.157836" y1="1042.4569" x2="10.157836" y2="1032.4569" id="linearGradient5788" xlink:href="#linearGradient3641-42" gradientUnits="userSpaceOnUse" gradientTransform="translate(-0.29176491,-2.5054161)"/><linearGradient x1="13.133928" y1="19.9107" x2="15.133928" y2="24.9107" id="linearGradient5790" xlink:href="#linearGradient3641-42" gradientUnits="userSpaceOnUse"/><radialGradient cx="16" cy="27" r="16.5" fx="16" fy="27" id="radialGradient3641" xlink:href="#linearGradient3592" gradientUnits="userSpaceOnUse" gradientTransform="matrix(0.96969697,0,0,0.30303031,64.48485,1039.1804)"/><linearGradient x1="10.0625" y1="7.2767859" x2="17" y2="25" id="linearGradient3597" xlink:href="#linearGradient5647-0" gradientUnits="userSpaceOnUse"/><linearGradient x1="15.017858" y1="5.4107141" x2="22" y2="23" id="linearGradient3599" xlink:href="#linearGradient5655-7" gradientUnits="userSpaceOnUse"/><linearGradient x1="14.157836" y1="1042.4569" x2="10.157836" y2="1032.4569" id="linearGradient3601" xlink:href="#linearGradient5655-7" gradientUnits="userSpaceOnUse" gradientTransform="translate(-0.29176491,-2.5054161)"/><linearGradient x1="13.133928" y1="19.9107" x2="15.133928" y2="24.9107" id="linearGradient3603" xlink:href="#linearGradient5655-7" gradientUnits="userSpaceOnUse"/><radialGradient cx="16" cy="27" r="16.5" fx="16" fy="27" id="radialGradient4255" xlink:href="#linearGradient3592" gradientUnits="userSpaceOnUse" gradientTransform="matrix(0.96969697,0,0,0.30303031,0.48485013,1039.1804)"/></defs><metadata id="metadata4262"><rdf:RDF><cc:Work rdf:about=""><dc:format>image/svg+xml</dc:format><dc:type rdf:resource="http://purl.org/dc/dcmitype/StillImage"/><dc:title/></cc:Work></rdf:RDF></metadata><g transform="translate(0,-1020.3622)" id="layer1"><use transform="translate(32,0)" id="use5227" x="0" y="0" width="96" height="32" xlink:href="#g5220"/><g id="g5220"><rect width="32" height="10" rx="0" ry="0" x="0" y="1042.3621" id="rect2818-99" style="fill:url(#radialGradient4255);fill-opacity:1;stroke:none"/><g transform="translate(-0.53570987,0.0446)" id="g5684"><path d="M 12,27 4.9285714,9.3214286 22.160714,2.4732143 29.232143,20.151786 12,27 z" inkscape:connector-curvature="0" transform="translate(0,1020.3622)" id="path3623" style="fill:url(#linearGradient3597);fill-opacity:1;stroke:url(#linearGradient3599);stroke-width:1px;stroke-linecap:round;stroke-linejoin:round;stroke-opacity:1"/><path d="m 18.005415,1037.4036 c 1.419646,-0.3504 1.860944,-11.743 -3.627537,-9.3058 -4.7888026,2.1265 1.970722,9.7147 3.627537,9.3058 z" inkscape:connector-curvature="0" id="path3653" style="fill:#ffffff;fill-opacity:1;stroke:url(#linearGradient3601);stroke-width:1px;stroke-linecap:round;stroke-linejoin:round;stroke-opacity:1"/><path d="m 20.732142,20.772322 a 2.1830356,2.0000217 0 1 1 -1e-6,-0.0025" transform="translate(0.66964351,1019.3935)" id="path3655" style="fill:#ffffff;fill-opacity:1;stroke:url(#linearGradient3603);stroke-width:1;stroke-linecap:round;stroke-linejoin:round;stroke-miterlimit:4;stroke-opacity:1;stroke-dasharray:none;stroke-dashoffset:0"/></g></g><rect width="32" height="10" rx="0" ry="0" x="64" y="1042.3621" id="rect2818-47" style="fill:url(#radialGradient3641);fill-opacity:1;stroke:none"/><g transform="translate(63.28571,0)" id="g5779"><path d="M 12,27 4.9285714,9.3214286 22.160714,2.4732143 29.232143,20.151786 12,27 z" inkscape:connector-curvature="0" transform="translate(0,1020.3622)" id="path3623-5" style="fill:url(#linearGradient5784);fill-opacity:1;stroke:url(#linearGradient5786);stroke-width:1px;stroke-linecap:round;stroke-linejoin:round;stroke-opacity:1"/><path d="m 18.005415,1037.4036 c 1.419646,-0.3504 1.860944,-11.743 -3.627537,-9.3058 -4.7888026,2.1265 1.970722,9.7147 3.627537,9.3058 z" inkscape:connector-curvature="0" id="path3653-3" style="fill:#ffffff;fill-opacity:1;stroke:url(#linearGradient5788);stroke-width:1px;stroke-linecap:round;stroke-linejoin:round;stroke-opacity:1"/><path d="m 20.732142,20.772322 a 2.1830356,2.0000217 0 1 1 -1e-6,-0.0025" transform="translate(0.66964351,1019.3935)" id="path3655-6" style="fill:#ffffff;fill-opacity:1;stroke:url(#linearGradient5790);stroke-width:1;stroke-linecap:round;stroke-linejoin:round;stroke-miterlimit:4;stroke-opacity:1;stroke-dasharray:none;stroke-dashoffset:0"/></g><g transform="translate(-19.999873,1.0001131)" id="g6634"><path d="m 2878.4882,12.868066 a 6.2394724,6.5106826 0 1 1 -5e-4,-0.02466" transform="matrix(1.0417505,0,0,0.99834845,-2916.168,1020.3836)" id="path6624" style="fill:#33ce00;fill-opacity:1;stroke:#2ba115;stroke-width:0.9805665;stroke-linecap:round;stroke-linejoin:round;stroke-miterlimit:4;stroke-opacity:1;stroke-dasharray:none"/><path d="m 72,1034.3621 0,-2 3.000026,0 0,-3 2,0 0,3 2.999974,0 0,2 -2.999974,0 0,3.0001 -2,0 0,-3.0001 z" inkscape:connector-curvature="0" id="path6628" style="fill:#ffffff;fill-opacity:0.94117647;stroke:none"/></g></g></svg>
