<?xml version="1.0" encoding="UTF-8" standalone="no"?>
<svg xmlns:dc="http://purl.org/dc/elements/1.1/" xmlns:cc="http://creativecommons.org/ns#" xmlns:rdf="http://www.w3.org/1999/02/22-rdf-syntax-ns#" xmlns:svg="http://www.w3.org/2000/svg" xmlns="http://www.w3.org/2000/svg" xmlns:xlink="http://www.w3.org/1999/xlink" xmlns:inkscape="http://www.inkscape.org/namespaces/inkscape" version="1.1" width="224" height="32" id="svg14106"><defs id="defs14108"><linearGradient id="linearGradient4080"><stop id="stop4082" style="stop-color:#72b2e0;stop-opacity:1" offset="0"/><stop id="stop4084" style="stop-color:#c3e4fb;stop-opacity:1" offset="1"/></linearGradient><linearGradient id="linearGradient3872"><stop id="stop3874" style="stop-color:#ff7b69;stop-opacity:1" offset="0"/><stop id="stop3876" style="stop-color:#ff381d;stop-opacity:1" offset="1"/></linearGradient><linearGradient id="linearGradient3864"><stop id="stop3866" style="stop-color:#95c191;stop-opacity:1" offset="0"/><stop id="stop3868" style="stop-color:#81be7b;stop-opacity:1" offset="1"/></linearGradient><linearGradient id="linearGradient3592-9"><stop id="stop3594-6" style="stop-color:#777777;stop-opacity:0.46666667" offset="0"/><stop id="stop3596-3" style="stop-color:#777777;stop-opacity:0" offset="1"/></linearGradient><linearGradient x1="1501" y1="5" x2="1503" y2="11" id="linearGradient8595" xlink:href="#linearGradient6008" gradientUnits="userSpaceOnUse" gradientTransform="translate(1.1345935e-4,1020.5617)"/><linearGradient id="linearGradient6008"><stop id="stop6010" style="stop-color:#2fba18;stop-opacity:1" offset="0"/><stop id="stop6120" style="stop-color:#28a114;stop-opacity:1" offset="0.5"/><stop id="stop6012" style="stop-color:#2fbb17;stop-opacity:1" offset="1"/></linearGradient><linearGradient x1="1498.8068" y1="4.2157669" x2="1504" y2="17" id="linearGradient8597" xlink:href="#linearGradient6008" gradientUnits="userSpaceOnUse" gradientTransform="translate(-3.2806452e-6,1020.5622)"/><linearGradient x1="2282.9392" y1="56.999981" x2="2282.9392" y2="41.783119" id="linearGradient8609" xlink:href="#linearGradient3795" gradientUnits="userSpaceOnUse" gradientTransform="matrix(0.75574056,0,0,0.75574056,666.19022,1036.285)"/><linearGradient id="linearGradient3795"><stop id="stop3797" style="stop-color:#dadada;stop-opacity:1" offset="0"/><stop id="stop3799" style="stop-color:#ffffff;stop-opacity:1" offset="1"/></linearGradient><linearGradient x1="2281.616" y1="41.783119" x2="2281.616" y2="56.999981" id="linearGradient8611" xlink:href="#linearGradient3633-25" gradientUnits="userSpaceOnUse" gradientTransform="matrix(0.75574056,0,0,0.75574056,666.19022,1036.285)"/><linearGradient id="linearGradient3633-25"><stop id="stop3635-50" style="stop-color:#989898;stop-opacity:1" offset="0"/><stop id="stop3637-9" style="stop-color:#6b6b6b;stop-opacity:1" offset="1"/></linearGradient><linearGradient x1="2254.116" y1="43.283119" x2="2254.116" y2="58.499981" id="linearGradient8613" xlink:href="#linearGradient3633-25" gradientUnits="userSpaceOnUse" gradientTransform="matrix(0.75574056,0,0,0.75574056,686.97309,1035.1514)"/><linearGradient x1="2254.116" y1="58.499981" x2="2254.116" y2="43.283119" id="linearGradient8615" xlink:href="#linearGradient3795" gradientUnits="userSpaceOnUse" gradientTransform="matrix(0.75574056,0,0,0.75574056,686.97309,1035.1514)"/><linearGradient x1="2255.4392" y1="43.283119" x2="2255.4392" y2="58.499981" id="linearGradient8617" xlink:href="#linearGradient3633-25" gradientUnits="userSpaceOnUse" gradientTransform="matrix(0.75574056,0,0,0.75574056,686.97309,1035.1514)"/><linearGradient x1="2254.116" y1="43.283119" x2="2254.116" y2="58.499981" id="linearGradient8619" xlink:href="#linearGradient3633-25" gradientUnits="userSpaceOnUse" gradientTransform="matrix(0.75574056,0,0,-0.75574056,686.97309,1098.573)"/><clipPath id="clipPath4005"><rect width="19" height="14" x="-24.499996" y="1062.8622" transform="scale(-1,1)" id="rect4007" style="fill:#ff0fe5;fill-opacity:0.32128517;stroke:none"/></clipPath><linearGradient id="linearGradient3872-3"><stop id="stop3874-8" style="stop-color:#ff7a69;stop-opacity:1" offset="0"/><stop id="stop3876-8" style="stop-color:#ff381d;stop-opacity:1" offset="1"/></linearGradient><clipPath id="clipPath4097"><path d="m 183.93615,10.786797 a 13.965359,13.965359 0 1 1 -27.93071,0 13.965359,13.965359 0 1 1 27.93071,0 z" transform="matrix(0.751856,0,0,0.751856,48.2065,7.3899)" id="path4099" style="fill:#ff41b3;fill-opacity:0.3052209;stroke:none"/></clipPath><clipPath id="clipPath4101"><path d="m 183.93615,10.786797 a 13.965359,13.965359 0 1 1 -27.93071,0 13.965359,13.965359 0 1 1 27.93071,0 z" transform="matrix(0.751856,0,0,0.751856,48.2065,7.3899)" id="path4103" style="fill:#ff41b3;fill-opacity:0.3052209;stroke:none"/></clipPath><clipPath id="clipPath4105"><path d="m 183.93615,10.786797 a 13.965359,13.965359 0 1 1 -27.93071,0 13.965359,13.965359 0 1 1 27.93071,0 z" transform="matrix(0.751856,0,0,0.751856,48.2065,7.3899)" id="path4107" style="fill:#ff41b3;fill-opacity:0.3052209;stroke:none"/></clipPath><clipPath id="clipPath4109"><path d="m 183.93615,10.786797 a 13.965359,13.965359 0 1 1 -27.93071,0 13.965359,13.965359 0 1 1 27.93071,0 z" transform="matrix(0.751856,0,0,0.751856,48.2065,7.3899)" id="path4111" style="fill:#ff41b3;fill-opacity:0.3052209;stroke:none"/></clipPath><radialGradient cx="16" cy="27" r="16" fx="16" fy="27" id="radialGradient3097" xlink:href="#linearGradient3592-9" gradientUnits="userSpaceOnUse" gradientTransform="matrix(1,0,0,0.3125,-2.0003e-4,1038.9247)"/><linearGradient x1="23" y1="57" x2="23" y2="42" id="linearGradient3099" xlink:href="#linearGradient3864" gradientUnits="userSpaceOnUse" gradientTransform="translate(0,1020.3622)"/><radialGradient cx="15" cy="40.058826" r="5.5" fx="15" fy="40.058826" id="radialGradient3101" xlink:href="#linearGradient3872" gradientUnits="userSpaceOnUse" gradientTransform="matrix(0.85701876,0,0,1.3244835,1.7028652,1005.6188)"/><radialGradient cx="15" cy="40.058826" r="5.5" fx="15" fy="40.058826" id="radialGradient3103" xlink:href="#linearGradient3872" gradientUnits="userSpaceOnUse" gradientTransform="matrix(0.85701876,0,0,1.3244835,1.7028652,1005.6188)"/><radialGradient cx="15" cy="40.058826" r="5.5" fx="15" fy="40.058826" id="radialGradient3105" xlink:href="#linearGradient3872-3" gradientUnits="userSpaceOnUse" gradientTransform="matrix(0.71875,0,0,1.1107954,90.2125,982.5588)"/><linearGradient x1="190.91884" y1="25.386864" x2="190.91884" y2="-3.8134317" id="linearGradient3109" xlink:href="#linearGradient4080" gradientUnits="userSpaceOnUse"/><radialGradient cx="15" cy="40.058826" r="5.5" fx="15" fy="40.058826" id="radialGradient3111" xlink:href="#linearGradient3872-3" gradientUnits="userSpaceOnUse" gradientTransform="matrix(0.85701876,0,0,1.3244835,156.70282,974.11882)"/><linearGradient x1="128" y1="54" x2="128" y2="44" id="linearGradient3120" xlink:href="#linearGradient3864" gradientUnits="userSpaceOnUse" gradientTransform="matrix(0.86392651,0,0,0.86392651,-340.78282,982.44817)"/><radialGradient cx="16" cy="27" r="16" fx="16" fy="27" id="radialGradient3131" xlink:href="#linearGradient3592-9" gradientUnits="userSpaceOnUse" gradientTransform="matrix(1,0,0,0.3125,127.9998,1038.9248)"/><clipPath id="clipPath3915"><rect width="10.404" height="7.9481239" x="-237.25656" y="1020.95" transform="matrix(0.93358043,-0.35836795,0.35836795,0.93358043,0,0)" id="rect3917" style="fill:#f800de;fill-opacity:0.40160648;stroke:none"/></clipPath></defs><metadata id="metadata14111"><rdf:RDF><cc:Work rdf:about=""><dc:format>image/svg+xml</dc:format><dc:type rdf:resource="http://purl.org/dc/dcmitype/StillImage"/><dc:title/></cc:Work></rdf:RDF></metadata><g transform="translate(0,-1020.3622)" id="layer1"><use transform="translate(32,0)" id="use4086" x="0" y="0" width="160" height="32" xlink:href="#use4084"/><use transform="translate(32,0)" id="use4084" x="0" y="0" width="160" height="32" xlink:href="#g4074"/><use transform="translate(96,0)" id="use3928" x="0" y="0" width="160" height="32" xlink:href="#g4019"/><g transform="translate(-68,0)" id="g6242"><path d="m 152.5,1034.8622 2,4 2,-4 z" inkscape:connector-curvature="0" id="path3966-4-44" style="fill:#ffcc77;fill-opacity:1;stroke:#995500;stroke-width:1px;stroke-linecap:butt;stroke-linejoin:round;stroke-opacity:1"/><path d="m 152.5,1022.8622 4,0 0,12 -4,0 z" inkscape:connector-curvature="0" id="path3158-9-6-5" style="fill:#ff8800;fill-opacity:1;stroke:#995500;stroke-width:1px;stroke-linecap:round;stroke-linejoin:round;stroke-opacity:1"/></g><g id="g4074"><g transform="translate(0,1.7382813e-5)" id="g4019"><rect width="32" height="10" x="0" y="1042.3622" id="use5170" style="fill:url(#radialGradient3097);fill-opacity:1;fill-rule:evenodd;stroke:none"/><g transform="matrix(1.0148886,-0.38957924,0.38957924,1.0148886,-415.94342,-43.918479)" id="use4017"><path d="m 5,1077.3622 0,-15 20,0 0,15 z" inkscape:connector-curvature="0" id="path3101" style="fill:url(#linearGradient3099);fill-opacity:1;stroke:#7cb475;stroke-width:0.91988462;stroke-linecap:round;stroke-linejoin:round;stroke-miterlimit:4;stroke-opacity:1;stroke-dasharray:none"/><path d="m 16.91399,1057.8 3.085487,10.5584 4.799272,-1.4025 0.841496,2.8796 -4.799272,1.4025 3.646484,12.4781 -2.879563,0.8415 -3.646484,-12.4781 -6.718981,1.9635 3.646484,12.4781 -2.879563,0.8415 -3.646484,-12.4781 -13.4379615,3.927 -0.8414962,-2.8796 23.0365057,-6.732 -3.085487,-10.5584 z" inkscape:connector-curvature="0" clip-path="url(#clipPath4005)" id="path3103" style="fill:#ffe2bb;fill-opacity:1;stroke:#7cb475;stroke-width:0.91988462;stroke-linecap:round;stroke-linejoin:round;stroke-miterlimit:4;stroke-opacity:1;stroke-dasharray:none;stroke-dashoffset:0"/><path d="m 16.91399,1057.8 3.085487,10.5584 4.799272,-1.4025 0.841496,2.8796 -4.799272,1.4025 3.646484,12.4781 -2.879563,0.8415 -3.646484,-12.4781 -6.718981,1.9635 3.646484,12.4781 -2.879563,0.8415 -3.646484,-12.4781 -13.4379615,3.927 -0.8414962,-2.8796 23.0365057,-6.732 -3.085487,-10.5584 z" inkscape:connector-curvature="0" clip-path="url(#clipPath4005)" id="path3989" style="fill:#ffe2bb;fill-opacity:1;stroke:#7cb475;stroke-width:0.91988462;stroke-linecap:round;stroke-linejoin:round;stroke-miterlimit:4;stroke-opacity:1;stroke-dasharray:none;stroke-dashoffset:0"/></g></g><g transform="translate(-5,-31.499983)" id="g3913"><path d="m 14.558147,1054.3909 c -2.571056,0 -4.285094,1.7141 -4.285094,4.2851 0,2.5711 4.285094,9.4272 4.285094,9.4272 0,0 4.285094,-6.8561 4.285094,-9.4272 0,-2.571 -1.714037,-4.2851 -4.285094,-4.2851 z" inkscape:connector-curvature="0" id="path3862" style="fill:url(#radialGradient3101);fill-opacity:1;stroke:#ee1c00;stroke-width:1;stroke-linecap:round;stroke-linejoin:round;stroke-miterlimit:4;stroke-opacity:1;stroke-dasharray:none"/><path d="m 14.558147,1054.3909 c -2.571056,0 -4.285094,1.7141 -4.285094,4.2851 0,2.5711 4.285094,9.4272 4.285094,9.4272 0,0 4.285094,-6.8561 4.285094,-9.4272 0,-2.571 -1.714037,-4.2851 -4.285094,-4.2851 z" inkscape:connector-curvature="0" id="path4020" style="fill:url(#radialGradient3103);fill-opacity:1;stroke:#ee1c00;stroke-width:1;stroke-linecap:round;stroke-linejoin:round;stroke-miterlimit:4;stroke-opacity:1;stroke-dasharray:none"/></g></g><g transform="translate(4.4803301,6.9978761)" id="g3908"><path d="m 100.99375,1023.4622 c -2.156248,0 -3.59375,1.4375 -3.59375,3.5938 0,2.1562 3.59375,7.9062 3.59375,7.9062 0,0 3.59375,-5.75 3.59375,-7.9062 0,-2.1563 -1.4375,-3.5938 -3.59375,-3.5938 z" inkscape:connector-curvature="0" id="path3862-4" style="fill:url(#radialGradient3105);fill-opacity:1;stroke:#ee1c00;stroke-width:0.80000001;stroke-linecap:round;stroke-linejoin:round;stroke-miterlimit:4;stroke-opacity:1;stroke-dasharray:none"/></g><use transform="translate(12.090897,-8.0518421)" id="use3918" x="0" y="0" width="160" height="32" xlink:href="#g3908"/><rect width="32" height="10" x="128" y="1042.3622" id="use4191" style="fill:url(#radialGradient3131);fill-opacity:1;fill-rule:evenodd;stroke:none"/><g transform="translate(-1376.212,-0.30001841)" id="use6091"><path d="m 1510.5627,1025.0929 c -2.7803,1.2012 -3.2664,5.0631 -2.562,6.4503 l 3.5372,-1.482 c -0.5745,-1.4152 0.1582,-5.461 2.9222,-6.6605 z" inkscape:connector-curvature="0" id="path8591" style="fill:url(#linearGradient8595);fill-opacity:1;stroke:#228811;stroke-width:1;stroke-linecap:round;stroke-linejoin:round;stroke-miterlimit:4;stroke-opacity:1;stroke-dasharray:none;stroke-dashoffset:0"/><path d="m 1517.7001,1027.3621 -3.0001,1.4001 0.6,1.1998 6.85,2.2002 3.15,-6.9998 -0.6,-1.0624 -3.1,1.4627 c -1.2,-2.6431 -4.696,-3.3356 -7.5563,-2.0584 l -3.4813,1.6517 c 2.5475,-1.2709 5.9974,-0.4263 7.1377,2.2061 z" inkscape:connector-curvature="0" id="path8593" style="fill:url(#linearGradient8597);fill-opacity:1;stroke:#228811;stroke-width:1;stroke-linecap:round;stroke-linejoin:round;stroke-miterlimit:4;stroke-opacity:1;stroke-dasharray:none;stroke-dashoffset:0"/></g><g transform="matrix(0.51691125,-0.2019099,0.2019099,0.51691125,-1317.7424,969.11758)" id="use6095" style="stroke-width:1.80197775;stroke-miterlimit:4;stroke-dasharray:none"><path d="m 2403.5,1066.8622 0,13.5 -19.5,0 0,-13.5" inkscape:connector-curvature="0" id="path8601" style="fill:url(#linearGradient8609);fill-opacity:1;stroke:url(#linearGradient8611);stroke-width:1.80197775;stroke-linecap:round;stroke-linejoin:round;stroke-miterlimit:4;stroke-opacity:1;stroke-dasharray:none"/><path d="m 2384,1066.8622 9,8 1.5,0 9,-8" inkscape:connector-curvature="0" id="path8603" style="fill:none;stroke:url(#linearGradient8613);stroke-width:1.80197775;stroke-linecap:round;stroke-linejoin:round;stroke-miterlimit:4;stroke-opacity:1;stroke-dasharray:none"/><path d="m 2384.8608,1079.5019 8.1392,-7.6397 1.5,0 8.1391,7.6397" inkscape:connector-curvature="0" id="path8605" style="fill:url(#linearGradient8615);fill-opacity:1;stroke:url(#linearGradient8617);stroke-width:1.80197775;stroke-linecap:round;stroke-linejoin:round;stroke-miterlimit:4;stroke-opacity:1;stroke-dasharray:none"/><path d="m 2384,1066.8622 8.5,-8 2,0 9,8" inkscape:connector-curvature="0" id="path8607" style="fill:#ffffff;fill-opacity:1;stroke:url(#linearGradient8619);stroke-width:1.80197775;stroke-linecap:round;stroke-linejoin:round;stroke-miterlimit:4;stroke-opacity:1;stroke-dasharray:none"/></g><g id="g3901"><rect width="11.295" height="8.6392651" x="-237.97554" y="1020.461" transform="matrix(0.93358043,-0.35836795,0.35836795,0.93358043,0,0)" id="rect4088" style="fill:url(#linearGradient3120);fill-opacity:1;stroke:#7cb475;stroke-width:1;stroke-linecap:round;stroke-linejoin:round;stroke-miterlimit:4;stroke-opacity:1;stroke-dasharray:none;stroke-dashoffset:0"/><path d="m 159.12123,1031.6459 -9.97192,8.276 -4.41392,-5.3183 -1.65163,1.4391 4.41393,5.3184 -5.98317,4.9656 1.43898,1.6516 5.98316,-4.9656 3.86222,4.6535 1.65156,-1.439 -3.86215,-4.6537 9.97192,-8.276 z" inkscape:connector-curvature="0" transform="translate(-0.29968043,-1.1185248e-4)" clip-path="url(#clipPath3915)" id="path4102" style="fill:#ffe2bb;fill-opacity:1;stroke:#7cb475;stroke-width:0.80000001;stroke-linecap:round;stroke-linejoin:round;stroke-miterlimit:4;stroke-opacity:1;stroke-dasharray:none"/><use transform="matrix(0.75926751,0,0,0.75926751,72.891361,250.15448)" id="use4123" x="0" y="0" width="160" height="32" xlink:href="#g3908"/></g><g transform="translate(32,0)" id="g3088"><use transform="translate(32,1.7382813e-5)" id="use3074" x="0" y="0" width="192" height="32" xlink:href="#use4191"/><path d="m 183.93615,10.786797 a 13.965359,13.965359 0 1 1 -27.93071,0 13.965359,13.965359 0 1 1 27.93071,0 z" transform="matrix(0.78766326,0,0,0.78766326,42.12025,1027.3659)" id="path3078" style="fill:url(#linearGradient3109);fill-opacity:1;stroke:#649cc5;stroke-width:1.2695781;stroke-miterlimit:4;stroke-opacity:1;stroke-dasharray:none"/><path d="m 186.3125,22.0625 -4.5625,-0.125 1.1875,-5.5625 -4.125,-2.0625 3,-3.625 6.75,0.625 z" inkscape:connector-curvature="0" transform="translate(0,1020.3622)" clip-path="url(#clipPath4109)" id="path4089" style="fill:#ffe2bb;fill-opacity:1;stroke:#7cb475;stroke-width:1px;stroke-linecap:butt;stroke-linejoin:miter;stroke-opacity:1"/><path d="M 173.8125,3.7499999 175.375,8.375 l -0.625,2.75 3,0.6875 2.25,-3.5 6.6875,-0.8750001 c 0,0 -5.5625,-4.9375 -5.625,-5.1875 -0.0625,-0.25 -7.25,1.5 -7.25,1.5 z" inkscape:connector-curvature="0" transform="translate(0,1020.3622)" clip-path="url(#clipPath4105)" id="path4091" style="fill:#ffe2bb;fill-opacity:1;stroke:#7cb475;stroke-width:1px;stroke-linecap:butt;stroke-linejoin:miter;stroke-opacity:1"/><path d="m 165.0625,16.5 5.875,-0.8125 0.5625,3.5 -1.25,3 2.125,1.5625 -0.875,3 -8.9375,-4.9375 z" inkscape:connector-curvature="0" transform="translate(0,1020.3622)" clip-path="url(#clipPath4101)" id="path4093" style="fill:#ffe2bb;fill-opacity:1;stroke:#7cb475;stroke-width:1px;stroke-linecap:butt;stroke-linejoin:miter;stroke-opacity:1"/><path d="M 162.1875,14.9375 167,14.25 171.5,8.6875 163.4375,3.2499999 161.625,12.75 z" inkscape:connector-curvature="0" transform="translate(0,1020.3622)" clip-path="url(#clipPath4097)" id="path4095" style="fill:#ffe2bb;fill-opacity:1;stroke:#7cb475;stroke-width:1px;stroke-linecap:butt;stroke-linejoin:miter;stroke-opacity:1"/><path d="m 169.5581,1022.8909 c -2.57106,0 -4.2851,1.7141 -4.2851,4.2851 0,2.5711 4.2851,9.4272 4.2851,9.4272 0,0 4.28509,-6.8561 4.28509,-9.4272 0,-2.571 -1.71404,-4.2851 -4.28509,-4.2851 z" inkscape:connector-curvature="0" id="path4020-0" style="fill:url(#radialGradient3111);fill-opacity:1;stroke:#ee1c00;stroke-width:1;stroke-linecap:round;stroke-linejoin:round;stroke-miterlimit:4;stroke-opacity:1;stroke-dasharray:none"/></g><use transform="translate(32,0)" id="use3906" x="0" y="0" width="224" height="32" xlink:href="#use4191"/><use transform="translate(32,0)" id="use3908" x="0" y="0" width="224" height="32" xlink:href="#use6091"/><use transform="translate(32.5,0)" id="use3910" x="0" y="0" width="224" height="32" xlink:href="#g3901"/><use transform="translate(17.999791,0)" id="use3912" x="0" y="0" width="224" height="32" xlink:href="#g3901"/><g transform="translate(-19.999873,1.0001131)" id="g6634"><path d="m 2878.4882,12.868066 a 6.2394724,6.5106826 0 1 1 -5e-4,-0.02466" transform="matrix(1.0417505,0,0,0.99834845,-2916.168,1020.3836)" id="path6624" style="fill:#33ce00;fill-opacity:1;stroke:#2ba115;stroke-width:0.9805665;stroke-linecap:round;stroke-linejoin:round;stroke-miterlimit:4;stroke-opacity:1;stroke-dasharray:none"/><path d="m 72,1034.3621 0,-2 3.000026,0 0,-3 2,0 0,3 2.999974,0 0,2 -2.999974,0 0,3.0001 -2,0 0,-3.0001 z" inkscape:connector-curvature="0" id="path6628" style="fill:#ffffff;fill-opacity:0.94117647;stroke:none"/></g></g></svg>
