<?xml version="1.0" encoding="UTF-8" standalone="no"?>
<!-- Created with Inkscape (http://www.inkscape.org/) -->

<svg
   xmlns:dc="http://purl.org/dc/elements/1.1/"
   xmlns:cc="http://creativecommons.org/ns#"
   xmlns:rdf="http://www.w3.org/1999/02/22-rdf-syntax-ns#"
   xmlns:svg="http://www.w3.org/2000/svg"
   xmlns="http://www.w3.org/2000/svg"
   xmlns:xlink="http://www.w3.org/1999/xlink"
   xmlns:inkscape="http://www.inkscape.org/namespaces/inkscape"
   version="1.1"
   width="128"
   height="32"
   id="svg2">
  <defs
     id="defs4">
    <linearGradient
       id="linearGradient4424">
      <stop
         id="stop4426"
         style="stop-color:#ff7b69;stop-opacity:1"
         offset="0" />
      <stop
         id="stop4428"
         style="stop-color:#ff381d;stop-opacity:1"
         offset="1" />
    </linearGradient>
    <linearGradient
       id="linearGradient3592-9">
      <stop
         id="stop3594-6"
         style="stop-color:#777777;stop-opacity:0.46666667"
         offset="0" />
      <stop
         id="stop3596-3"
         style="stop-color:#777777;stop-opacity:0"
         offset="1" />
    </linearGradient>
    <radialGradient
       cx="2873.21"
       cy="11.073713"
       r="6.2500243"
       fx="2873.21"
       fy="11.073713"
       id="radialGradient4629"
       xlink:href="#linearGradient5195-0"
       gradientUnits="userSpaceOnUse"
       gradientTransform="matrix(0.84472205,-1.3923892e-6,1.3343892e-6,0.8814524,446.14615,1.2397114)" />
    <linearGradient
       id="linearGradient5195-0">
      <stop
         id="stop5197-6"
         style="stop-color:#9bff7e;stop-opacity:1"
         offset="0" />
      <stop
         id="stop5199-2-2"
         style="stop-color:#2fba18;stop-opacity:1"
         offset="1" />
    </linearGradient>
    <radialGradient
       cx="2889"
       cy="5.5"
       r="5.5000229"
       fx="2889"
       fy="5.5"
       id="radialGradient4631"
       xlink:href="#linearGradient4073"
       gradientUnits="userSpaceOnUse" />
    <linearGradient
       id="linearGradient4073">
      <stop
         id="stop4075"
         style="stop-color:#9bff7e;stop-opacity:0"
         offset="0" />
      <stop
         id="stop4081"
         style="stop-color:#9bff7e;stop-opacity:0.22352941"
         offset="0.67647058" />
      <stop
         id="stop4077"
         style="stop-color:#9bff7e;stop-opacity:0.67716533"
         offset="1" />
    </linearGradient>
    <radialGradient
       cx="16"
       cy="27"
       r="16"
       fx="16"
       fy="27"
       id="radialGradient4598"
       xlink:href="#linearGradient3592-9"
       gradientUnits="userSpaceOnUse"
       gradientTransform="matrix(1,0,0,0.3125,-2.0009189e-4,1038.9246)" />
    <radialGradient
       cx="12.42327"
       cy="10.690011"
       r="3.6738281"
       fx="12.42327"
       fy="10.690011"
       id="radialGradient4684"
       xlink:href="#linearGradient4424"
       gradientUnits="userSpaceOnUse" />
    <radialGradient
       cx="16"
       cy="27"
       r="16"
       fx="16"
       fy="27"
       id="radialGradient4704"
       xlink:href="#linearGradient3592-9"
       gradientUnits="userSpaceOnUse"
       gradientTransform="matrix(1,0,0,0.3125,95.9998,1038.9246)" />
    <radialGradient
       cx="12.42327"
       cy="10.690011"
       r="3.6738281"
       fx="12.42327"
       fy="10.690011"
       id="radialGradient4719"
       xlink:href="#linearGradient4424"
       gradientUnits="userSpaceOnUse" />
    <radialGradient
       cx="12.42327"
       cy="10.690011"
       r="3.6738281"
       fx="12.42327"
       fy="10.690011"
       id="radialGradient4721"
       xlink:href="#linearGradient4424"
       gradientUnits="userSpaceOnUse" />
  </defs>
  <metadata
     id="metadata7">
    <rdf:RDF>
      <cc:Work
         rdf:about="">
        <dc:format>image/svg+xml</dc:format>
        <dc:type
           rdf:resource="http://purl.org/dc/dcmitype/StillImage" />
        <dc:title />
      </cc:Work>
    </rdf:RDF>
  </metadata>
  <g
     transform="translate(0,-1020.3622)"
     id="layer1">
    <g
       id="g4729"
       style="opacity:0.25">
      <path
         d="M 26,14 A 10,10 0 1 1 6,14 10,10 0 1 1 26,14 z"
         transform="matrix(-0.6,0,0,0.6,118.6,1025.9622)"
         id="path4690"
         style="fill:#ff381d;fill-opacity:1;stroke:none" />
      <path
         d="M 26,14 A 10,10 0 1 1 6,14 10,10 0 1 1 26,14 z"
         transform="matrix(-0.6,0,0,0.6,121.6,1025.9622)"
         id="path4713"
         style="fill:#ff381d;fill-opacity:1;stroke:none" />
    </g>
    <use
       transform="translate(32,0)"
       id="use4634"
       x="0"
       y="0"
       width="128"
       height="32"
       xlink:href="#g4628" />
    <g
       transform="translate(-2827.5,19.499945)"
       id="g5344">
      <path
         d="m 2877.9988,12.878415 a 5.75,6 0 1 1 -5e-4,-0.02272"
         transform="matrix(1.0417505,0,0,0.99834845,-108.66787,1000.8837)"
         id="path5322"
         style="fill:url(#radialGradient4629);fill-opacity:1;stroke:#19640c;stroke-width:1;stroke-linecap:round;stroke-linejoin:round;stroke-miterlimit:4;stroke-opacity:1;stroke-dasharray:none" />
      <path
         d="m 2894.4989,5.3885468 a 5.5,5.5 0 1 1 -5e-4,-0.020829"
         transform="translate(-5.5,1008.3622)"
         id="path5334"
         style="fill:url(#radialGradient4631);fill-opacity:1;stroke:none" />
      <path
         d="m 2880,1014.8622 0,-2 2.5,0 0,-2.5 2,0 0,2.5 2.5,0 0,2 -2.5,0 0,2.5 -2,0 0,-2.5 z"
         inkscape:connector-curvature="0"
         id="path5290"
         style="fill:#ffffff;fill-opacity:0.94117647;stroke:#19640c;stroke-width:1px;stroke-linecap:round;stroke-linejoin:round;stroke-opacity:0.25098039" />
    </g>
    <g
       transform="translate(-68,0)"
       id="g6242">
      <path
         d="m 152.5,1034.8622 2,4 2,-4 z"
         inkscape:connector-curvature="0"
         id="path3966-4-44"
         style="fill:#ffcc77;fill-opacity:1;stroke:#995500;stroke-width:1px;stroke-linecap:butt;stroke-linejoin:round;stroke-opacity:1" />
      <path
         d="m 152.5,1022.8622 4,0 0,12 -4,0 z"
         inkscape:connector-curvature="0"
         id="path3158-9-6-5"
         style="fill:#ff8800;fill-opacity:1;stroke:#995500;stroke-width:1px;stroke-linecap:round;stroke-linejoin:round;stroke-opacity:1" />
    </g>
    <g
       id="g4628">
      <rect
         width="32"
         height="10"
         x="0"
         y="1042.3622"
         id="use5170"
         style="fill:url(#radialGradient4598);fill-opacity:1;fill-rule:evenodd;stroke:none" />
      <path
         d="M 26,14 A 10,10 0 1 1 6,14 10,10 0 1 1 26,14 z"
         transform="matrix(-0.6,0,0,0.6,24.1,1025.9622)"
         id="path4576"
         style="fill:#ff381d;fill-opacity:0.25098039;stroke:none" />
      <path
         d="m 21.5,1041.3622 -7,-7 7,-7"
         inkscape:connector-curvature="0"
         id="path4602"
         style="fill:none;stroke:#ee1c00;stroke-width:1;stroke-linecap:round;stroke-miterlimit:4;stroke-opacity:1;stroke-dasharray:1, 2;stroke-dashoffset:2.6" />
      <path
         d="m 15.597098,10.690011 a 3.1738281,3.1738281 0 1 1 -6.3476559,0 3.1738281,3.1738281 0 1 1 6.3476559,0 z"
         transform="matrix(-0.63015385,0,0,0.63015385,22.328572,1027.6257)"
         id="path3914"
         style="fill:url(#radialGradient4684);fill-opacity:1;stroke:#ee1c00;stroke-width:1.58691406;stroke-miterlimit:4;stroke-opacity:1;stroke-dasharray:none" />
    </g>
    <use
       transform="translate(64,0)"
       id="use4636"
       x="0"
       y="0"
       width="128"
       height="32"
       xlink:href="#g4628" />
    <rect
       width="32"
       height="10"
       x="96"
       y="1042.3622"
       id="rect4688"
       style="fill:url(#radialGradient4704);fill-opacity:1;fill-rule:evenodd;stroke:none" />
    <path
       d="m 116,1041.3622 -7,-7 7,-7"
       inkscape:connector-curvature="0"
       id="path4692"
       style="fill:none;stroke:#ee1c00;stroke-width:1;stroke-linecap:round;stroke-miterlimit:4;stroke-opacity:1;stroke-dasharray:1, 2;stroke-dashoffset:2.6" />
    <path
       d="m 15.597098,10.690011 a 3.1738281,3.1738281 0 1 1 -6.3476559,0 3.1738281,3.1738281 0 1 1 6.3476559,0 z"
       transform="matrix(-0.63015385,0,0,0.63015385,116.82857,1027.6257)"
       id="path4694"
       style="fill:url(#radialGradient4721);fill-opacity:1;stroke:#ee1c00;stroke-width:1.58691406;stroke-miterlimit:4;stroke-opacity:1;stroke-dasharray:none" />
    <path
       d="m 119,1041.3622 -7,-7 7,-7"
       inkscape:connector-curvature="0"
       id="path4715"
       style="fill:none;stroke:#ee1c00;stroke-width:1;stroke-linecap:round;stroke-miterlimit:4;stroke-opacity:1;stroke-dasharray:1, 2;stroke-dashoffset:2.6" />
    <path
       d="m 15.597098,10.690011 a 3.1738281,3.1738281 0 1 1 -6.3476559,0 3.1738281,3.1738281 0 1 1 6.3476559,0 z"
       transform="matrix(-0.63015385,0,0,0.63015385,119.82857,1027.6257)"
       id="path4717"
       style="fill:url(#radialGradient4719);fill-opacity:1;stroke:#ee1c00;stroke-width:1.58691406;stroke-miterlimit:4;stroke-opacity:1;stroke-dasharray:none" />
  </g>
</svg>
