<?xml version="1.0" encoding="UTF-8" standalone="no"?>
<svg xmlns:dc="http://purl.org/dc/elements/1.1/" xmlns:cc="http://creativecommons.org/ns#" xmlns:rdf="http://www.w3.org/1999/02/22-rdf-syntax-ns#" xmlns:svg="http://www.w3.org/2000/svg" xmlns="http://www.w3.org/2000/svg" xmlns:xlink="http://www.w3.org/1999/xlink" xmlns:inkscape="http://www.inkscape.org/namespaces/inkscape" version="1.1" width="192" height="32" id="svg8645"><defs id="defs8647"><linearGradient id="linearGradient3592-9-0"><stop id="stop3594-6-4" style="stop-color:#777777;stop-opacity:0.46666667" offset="0"/><stop id="stop3596-3-7" style="stop-color:#777777;stop-opacity:0" offset="1"/></linearGradient><linearGradient id="linearGradient5666-8"><stop id="stop5668-9" style="stop-color:#ffffff;stop-opacity:1" offset="0"/><stop id="stop5670-4" style="stop-color:#eeeeee;stop-opacity:1" offset="1"/></linearGradient><linearGradient id="linearGradient5658-7"><stop id="stop5660-1" style="stop-color:#999999;stop-opacity:1" offset="0"/><stop id="stop5662-6" style="stop-color:#777777;stop-opacity:1" offset="1"/></linearGradient><linearGradient id="linearGradient5698-4"><stop id="stop5700-5" style="stop-color:#e7e7e7;stop-opacity:0.80000001" offset="0"/><stop id="stop6148-9" style="stop-color:#e7e7e7;stop-opacity:1" offset="0.5"/><stop id="stop5702-3" style="stop-color:#e7e7e7;stop-opacity:0.80000001" offset="1"/></linearGradient><linearGradient id="linearGradient5676-0"><stop id="stop5678-5" style="stop-color:#ffffff;stop-opacity:1" offset="0"/><stop id="stop5680-0" style="stop-color:#d1ddd8;stop-opacity:1" offset="1"/></linearGradient><linearGradient x1="3702.5" y1="35.5" x2="3702.5" y2="49" id="linearGradient8094-5" xlink:href="#linearGradient5666-8" gradientUnits="userSpaceOnUse" gradientTransform="translate(3.5,1033.8622)"/><linearGradient x1="3695" y1="35.5" x2="3695" y2="49" id="linearGradient8096-3" xlink:href="#linearGradient5658-7" gradientUnits="userSpaceOnUse" gradientTransform="translate(3.5,1033.8622)"/><linearGradient x1="3703" y1="1067.3622" x2="3703" y2="1056.3622" id="linearGradient8098-0" xlink:href="#linearGradient5698-4" gradientUnits="userSpaceOnUse" gradientTransform="translate(3,0)"/><linearGradient x1="3703" y1="1067.3622" x2="3703" y2="1056.3622" id="linearGradient8116-8" xlink:href="#linearGradient5698-4" gradientUnits="userSpaceOnUse" gradientTransform="translate(-2,0)"/><linearGradient x1="3703" y1="1067.3622" x2="3703" y2="1056.3622" id="linearGradient8130-2" xlink:href="#linearGradient5698-4" gradientUnits="userSpaceOnUse" gradientTransform="translate(-7,0)"/><linearGradient x1="3692" y1="1060.8622" x2="3708" y2="1060.8622" id="linearGradient8100-2" xlink:href="#linearGradient5698-4" gradientUnits="userSpaceOnUse" gradientTransform="translate(0,-1)"/><linearGradient x1="3692" y1="1060.8622" x2="3708" y2="1060.8622" id="linearGradient8144-4" xlink:href="#linearGradient5698-4" gradientUnits="userSpaceOnUse" gradientTransform="translate(0,4)"/><linearGradient x1="3702.5" y1="35.5" x2="3702.5" y2="49" id="linearGradient10562" xlink:href="#linearGradient5666-8" gradientUnits="userSpaceOnUse" gradientTransform="translate(3.5000262,1033.8622)"/><linearGradient x1="3695" y1="35.5" x2="3695" y2="49" id="linearGradient10564" xlink:href="#linearGradient5658-7" gradientUnits="userSpaceOnUse" gradientTransform="translate(3.5000262,1033.8622)"/><linearGradient x1="3703" y1="1067.3622" x2="3703" y2="1056.3622" id="linearGradient10566" xlink:href="#linearGradient5698-4" gradientUnits="userSpaceOnUse" gradientTransform="translate(3.0000262,1.0481141e-5)"/><linearGradient x1="3703" y1="1067.3622" x2="3703" y2="1056.3622" id="linearGradient10568" xlink:href="#linearGradient5698-4" gradientUnits="userSpaceOnUse" gradientTransform="translate(-1.9999738,1.0481141e-5)"/><linearGradient x1="3703" y1="1067.3622" x2="3703" y2="1056.3622" id="linearGradient10570" xlink:href="#linearGradient5698-4" gradientUnits="userSpaceOnUse" gradientTransform="translate(-6.9999738,1.0481141e-5)"/><linearGradient x1="3692" y1="1060.8622" x2="3708" y2="1060.8622" id="linearGradient10572" xlink:href="#linearGradient5698-4" gradientUnits="userSpaceOnUse" gradientTransform="translate(2.6158388e-5,-0.99998952)"/><linearGradient x1="3692" y1="1060.8622" x2="3708" y2="1060.8622" id="linearGradient10574" xlink:href="#linearGradient5698-4" gradientUnits="userSpaceOnUse" gradientTransform="translate(2.6158388e-5,4.0000105)"/><radialGradient cx="3689" cy="41" r="4.5" fx="3689" fy="41" id="radialGradient10576" xlink:href="#linearGradient5676-0" gradientUnits="userSpaceOnUse"/><linearGradient x1="1501" y1="5" x2="1503" y2="11" id="linearGradient4049" xlink:href="#linearGradient6008" gradientUnits="userSpaceOnUse" gradientTransform="translate(1.1345935e-4,1020.5617)"/><linearGradient id="linearGradient6008"><stop id="stop6010" style="stop-color:#2fba18;stop-opacity:1" offset="0"/><stop id="stop6120" style="stop-color:#28a114;stop-opacity:1" offset="0.5"/><stop id="stop6012" style="stop-color:#2fbb17;stop-opacity:1" offset="1"/></linearGradient><linearGradient x1="1498.8068" y1="4.2157669" x2="1504" y2="17" id="linearGradient4132" xlink:href="#linearGradient6008" gradientUnits="userSpaceOnUse" gradientTransform="translate(-3.2806452e-6,1020.5622)"/><radialGradient cx="16" cy="27" r="16" fx="16" fy="27" id="radialGradient3167" xlink:href="#linearGradient3592-9-0" gradientUnits="userSpaceOnUse" gradientTransform="matrix(1,0,0,0.3125,-2e-4,1038.9248)"/><linearGradient x1="3702.5" y1="35.5" x2="3702.5" y2="49" id="linearGradient3169" xlink:href="#linearGradient5666-8" gradientUnits="userSpaceOnUse" gradientTransform="translate(3.5,1033.8622)"/><linearGradient x1="3695" y1="35.5" x2="3695" y2="49" id="linearGradient3171" xlink:href="#linearGradient5658-7" gradientUnits="userSpaceOnUse" gradientTransform="translate(3.5,1033.8622)"/><linearGradient x1="3703" y1="1067.3622" x2="3703" y2="1056.3622" id="linearGradient3173" xlink:href="#linearGradient5698-4" gradientUnits="userSpaceOnUse" gradientTransform="translate(3,0)"/><linearGradient x1="3703" y1="1067.3622" x2="3703" y2="1056.3622" id="linearGradient3175" xlink:href="#linearGradient5698-4" gradientUnits="userSpaceOnUse" gradientTransform="translate(-2,0)"/><linearGradient x1="3703" y1="1067.3622" x2="3703" y2="1056.3622" id="linearGradient3177" xlink:href="#linearGradient5698-4" gradientUnits="userSpaceOnUse" gradientTransform="translate(-7,0)"/><linearGradient x1="3692" y1="1060.8622" x2="3708" y2="1060.8622" id="linearGradient3179" xlink:href="#linearGradient5698-4" gradientUnits="userSpaceOnUse" gradientTransform="translate(0,-1)"/><linearGradient x1="3692" y1="1060.8622" x2="3708" y2="1060.8622" id="linearGradient3181" xlink:href="#linearGradient5698-4" gradientUnits="userSpaceOnUse" gradientTransform="translate(0,4)"/><radialGradient cx="3689" cy="41" r="4.5" fx="3689" fy="41" id="radialGradient3183" xlink:href="#linearGradient5676-0" gradientUnits="userSpaceOnUse"/><radialGradient cx="16" cy="27" r="16" fx="16" fy="27" id="radialGradient3185" xlink:href="#linearGradient3592-9-0" gradientUnits="userSpaceOnUse" gradientTransform="matrix(1,0,0,0.3125,95.9998,1038.9248)"/><linearGradient x1="3702.2017" y1="38.664898" x2="3702.5" y2="49" id="linearGradient3187" xlink:href="#linearGradient5666-8" gradientUnits="userSpaceOnUse" gradientTransform="matrix(0.93150026,-0.36374067,0.36374067,0.93150026,-3316.7981,2342.6948)"/><linearGradient x1="3694.9331" y1="38.872471" x2="3695" y2="49" id="linearGradient3189" xlink:href="#linearGradient5658-7" gradientUnits="userSpaceOnUse" gradientTransform="matrix(0.93150026,-0.36374067,0.36374067,0.93150026,-3316.7981,2342.6948)"/><linearGradient x1="3703" y1="1067.3622" x2="3702.9541" y2="1061.1226" id="linearGradient3191" xlink:href="#linearGradient5698-4" gradientUnits="userSpaceOnUse" gradientTransform="matrix(0.93150026,-0.36374067,0.36374067,0.93150026,-3690.7,1393.197)"/><linearGradient x1="3703" y1="1067.3622" x2="3702.9653" y2="1061.9623" id="linearGradient3193" xlink:href="#linearGradient5698-4" gradientUnits="userSpaceOnUse" gradientTransform="matrix(0.93150026,-0.36374067,0.36374067,0.93150026,-3694.4303,1394.5896)"/><linearGradient x1="3692.8516" y1="1060.8822" x2="3701.7654" y2="1060.5936" id="linearGradient3195" xlink:href="#linearGradient5698-4" gradientUnits="userSpaceOnUse" gradientTransform="matrix(0.93150026,-0.36374067,0.36374067,0.93150026,-3686.4903,1395.9532)"/><radialGradient cx="3689" cy="41" r="4.5" fx="3689" fy="41" id="radialGradient3197" xlink:href="#linearGradient5676-0" gradientUnits="userSpaceOnUse"/><linearGradient x1="2282.9392" y1="56.999981" x2="2282.9392" y2="41.783119" id="linearGradient4773" xlink:href="#linearGradient3795" gradientUnits="userSpaceOnUse" gradientTransform="matrix(0.75574056,0,0,0.75574056,666.19022,1036.285)"/><linearGradient id="linearGradient3795"><stop id="stop3797" style="stop-color:#dadada;stop-opacity:1" offset="0"/><stop id="stop3799" style="stop-color:#ffffff;stop-opacity:1" offset="1"/></linearGradient><linearGradient x1="2281.616" y1="41.783119" x2="2281.616" y2="56.999981" id="linearGradient4776" xlink:href="#linearGradient3633-25" gradientUnits="userSpaceOnUse" gradientTransform="matrix(0.75574056,0,0,0.75574056,666.19022,1036.285)"/><linearGradient id="linearGradient3633-25"><stop id="stop3635-50" style="stop-color:#989898;stop-opacity:1" offset="0"/><stop id="stop3637-9" style="stop-color:#6b6b6b;stop-opacity:1" offset="1"/></linearGradient><linearGradient x1="2254.116" y1="43.283119" x2="2254.116" y2="58.499981" id="linearGradient4778" xlink:href="#linearGradient3633-25" gradientUnits="userSpaceOnUse" gradientTransform="matrix(0.75574056,0,0,0.75574056,686.97309,1035.1514)"/><linearGradient x1="2254.116" y1="58.499981" x2="2254.116" y2="43.283119" id="linearGradient4780" xlink:href="#linearGradient3795" gradientUnits="userSpaceOnUse" gradientTransform="matrix(0.75574056,0,0,0.75574056,686.97309,1035.1514)"/><linearGradient x1="2255.4392" y1="43.283119" x2="2255.4392" y2="58.499981" id="linearGradient4782" xlink:href="#linearGradient3633-25" gradientUnits="userSpaceOnUse" gradientTransform="matrix(0.75574056,0,0,0.75574056,686.97309,1035.1514)"/><linearGradient x1="2254.116" y1="43.283119" x2="2254.116" y2="58.499981" id="linearGradient3256" xlink:href="#linearGradient3633-25" gradientUnits="userSpaceOnUse" gradientTransform="matrix(0.75574056,0,0,-0.75574056,686.97309,1098.573)"/></defs><metadata id="metadata8650"><rdf:RDF><cc:Work rdf:about=""><dc:format>image/svg+xml</dc:format><dc:type rdf:resource="http://purl.org/dc/dcmitype/StillImage"/><dc:title/></cc:Work></rdf:RDF></metadata><g transform="translate(0,-1020.3622)" id="layer1"><use transform="translate(64,0)" id="use4477" x="0" y="0" width="160" height="32" xlink:href="#g4457"/><use transform="translate(32,0)" id="use4475" x="0" y="0" width="160" height="32" xlink:href="#g4457"/><g id="g4457"><rect width="32" height="10" x="0" y="1042.3622" id="use4846" style="fill:url(#radialGradient3167);fill-opacity:1;fill-rule:evenodd;stroke:none"/><g transform="matrix(0.93150026,-0.36374067,0.36374067,0.93150026,-3838.7229,1395.7533)" id="use6981"><g transform="translate(19,-8.5)" id="g8170"><path d="m 3693.5,1067.8622 20,0 0,15 -20,0 z" inkscape:connector-curvature="0" id="path8172" style="fill:url(#linearGradient3169);fill-opacity:1;stroke:url(#linearGradient3171);stroke-width:1px;stroke-linecap:round;stroke-linejoin:round;stroke-opacity:1"/><g transform="translate(3.5,13.5)" id="g8174"><path d="m 3705,1067.3622 0,-11" inkscape:connector-curvature="0" id="path8176" style="fill:none;stroke:url(#linearGradient3173);stroke-width:1px;stroke-linecap:round;stroke-linejoin:round;stroke-opacity:1"/><path d="m 3700,1067.3622 0,-11" inkscape:connector-curvature="0" id="path8178" style="fill:none;stroke:url(#linearGradient3175);stroke-width:1px;stroke-linecap:round;stroke-linejoin:round;stroke-opacity:1"/><path d="m 3695,1067.3622 0,-11" inkscape:connector-curvature="0" id="path8180" style="fill:none;stroke:url(#linearGradient3177);stroke-width:1px;stroke-linecap:round;stroke-linejoin:round;stroke-opacity:1"/><path d="m 3708,1059.3622 -16,0" inkscape:connector-curvature="0" id="path8182" style="fill:none;stroke:url(#linearGradient3179);stroke-width:1px;stroke-linecap:round;stroke-linejoin:round;stroke-opacity:1"/><path d="m 3708,1064.3622 -16,0" inkscape:connector-curvature="0" id="path8184" style="fill:none;stroke:url(#linearGradient3181);stroke-width:1px;stroke-linecap:round;stroke-linejoin:round;stroke-opacity:1"/></g></g><g transform="translate(20.5,0)" id="g8186"><path d="m 3695,41 a 6,6 0 1 1 -12,0 6,6 0 1 1 12,0 z" transform="translate(7,1020.3622)" id="path8188" style="fill:url(#radialGradient3183);fill-opacity:1;stroke:#2a5945;stroke-linecap:round;stroke-linejoin:round;stroke-opacity:1"/><path d="m 3696,1057.3622 0,4 2,0" inkscape:connector-curvature="0" id="path8190" style="fill:none;stroke:#444444;stroke-width:1px;stroke-linecap:round;stroke-linejoin:round;stroke-opacity:1"/><path d="m 3692,1061.3622 0.5,0" inkscape:connector-curvature="0" id="path8192" style="fill:none;stroke:#a2cab3;stroke-width:1px;stroke-linecap:round;stroke-linejoin:round;stroke-opacity:1"/><path d="m 3699.5,1061.3622 0.5,0" inkscape:connector-curvature="0" id="path8194" style="fill:none;stroke:#a2cab3;stroke-width:1px;stroke-linecap:round;stroke-linejoin:round;stroke-opacity:1"/><path d="m 3696,1065.3622 0,-0.5" inkscape:connector-curvature="0" id="path8196" style="fill:none;stroke:#a2cab3;stroke-width:1px;stroke-linecap:round;stroke-linejoin:round;stroke-opacity:1"/></g></g></g><rect width="32" height="10" x="96" y="1042.3622" id="use6995" style="fill:url(#radialGradient3185);fill-opacity:1;fill-rule:evenodd;stroke:none"/><g transform="matrix(0.93020562,-0.36703883,0.36703883,0.93020562,-3727.8009,1394.5014)" id="use6989"><path d="m 3693.5,1067.8622 20,0 0,15 -20,0 z" inkscape:connector-curvature="0" id="path8080" style="fill:url(#linearGradient8094-5);fill-opacity:1;stroke:url(#linearGradient8096-3);stroke-width:1px;stroke-linecap:round;stroke-linejoin:round;stroke-opacity:1"/><g transform="translate(3.5,13.5)" id="g8082"><path d="m 3705,1067.3622 0,-11" inkscape:connector-curvature="0" id="path8084" style="fill:none;stroke:url(#linearGradient8098-0);stroke-width:1px;stroke-linecap:round;stroke-linejoin:round;stroke-opacity:1"/><path d="m 3700,1067.3622 0,-11" inkscape:connector-curvature="0" id="use8086" style="fill:none;stroke:url(#linearGradient8116-8);stroke-width:1px;stroke-linecap:round;stroke-linejoin:round;stroke-opacity:1"/><path d="m 3695,1067.3622 0,-11" inkscape:connector-curvature="0" id="use8088" style="fill:none;stroke:url(#linearGradient8130-2);stroke-width:1px;stroke-linecap:round;stroke-linejoin:round;stroke-opacity:1"/><path d="m 3708,1059.3622 -16,0" inkscape:connector-curvature="0" id="path8090" style="fill:none;stroke:url(#linearGradient8100-2);stroke-width:1px;stroke-linecap:round;stroke-linejoin:round;stroke-opacity:1"/><path d="m 3708,1064.3622 -16,0" inkscape:connector-curvature="0" id="use8092" style="fill:none;stroke:url(#linearGradient8144-4);stroke-width:1px;stroke-linecap:round;stroke-linejoin:round;stroke-opacity:1"/></g></g><g transform="matrix(0.93150026,-0.36374067,0.36374067,0.93150026,-3741.6648,1395.7533)" id="use6997"><g transform="translate(19,-8.5)" id="g10534"><path d="m 3693.5,1067.8622 20,0 0,15 -20,0 z" inkscape:connector-curvature="0" id="path10536" style="fill:url(#linearGradient10562);fill-opacity:1;stroke:url(#linearGradient10564);stroke-width:1px;stroke-linecap:round;stroke-linejoin:round;stroke-opacity:1"/><g transform="translate(3.5,13.5)" id="g10538"><path d="m 3705,1067.3622 0,-11" inkscape:connector-curvature="0" id="path10540" style="fill:none;stroke:url(#linearGradient10566);stroke-width:1px;stroke-linecap:round;stroke-linejoin:round;stroke-opacity:1"/><path d="m 3700,1067.3622 0,-11" inkscape:connector-curvature="0" id="path10542" style="fill:none;stroke:url(#linearGradient10568);stroke-width:1px;stroke-linecap:round;stroke-linejoin:round;stroke-opacity:1"/><path d="m 3695,1067.3622 0,-11" inkscape:connector-curvature="0" id="path10544" style="fill:none;stroke:url(#linearGradient10570);stroke-width:1px;stroke-linecap:round;stroke-linejoin:round;stroke-opacity:1"/><path d="m 3708,1059.3622 -16,0" inkscape:connector-curvature="0" id="path10546" style="fill:none;stroke:url(#linearGradient10572);stroke-width:1px;stroke-linecap:round;stroke-linejoin:round;stroke-opacity:1"/><path d="m 3708,1064.3622 -16,0" inkscape:connector-curvature="0" id="path10548" style="fill:none;stroke:url(#linearGradient10574);stroke-width:1px;stroke-linecap:round;stroke-linejoin:round;stroke-opacity:1"/></g></g><g transform="translate(20.5,0)" id="g10550"><path d="m 3695,41 a 6,6 0 1 1 -12,0 6,6 0 1 1 12,0 z" transform="translate(7,1020.3622)" id="path10552" style="fill:url(#radialGradient10576);fill-opacity:1;stroke:#2a5945;stroke-linecap:round;stroke-linejoin:round;stroke-opacity:1"/><path d="m 3696,1057.3622 0,4 2,0" inkscape:connector-curvature="0" id="path10554" style="fill:none;stroke:#444444;stroke-width:1px;stroke-linecap:round;stroke-linejoin:round;stroke-opacity:1"/><path d="m 3692,1061.3622 0.5,0" inkscape:connector-curvature="0" id="path10556" style="fill:none;stroke:#a2cab3;stroke-width:1px;stroke-linecap:round;stroke-linejoin:round;stroke-opacity:1"/><path d="m 3699.5,1061.3622 0.5,0" inkscape:connector-curvature="0" id="path10558" style="fill:none;stroke:#a2cab3;stroke-width:1px;stroke-linecap:round;stroke-linejoin:round;stroke-opacity:1"/><path d="m 3696,1065.3622 0,-0.5" inkscape:connector-curvature="0" id="path10560" style="fill:none;stroke:#a2cab3;stroke-width:1px;stroke-linecap:round;stroke-linejoin:round;stroke-opacity:1"/></g></g><use transform="translate(32,0)" id="use4167" x="0" y="0" width="160" height="32" xlink:href="#use6995"/><g transform="translate(-68,0)" id="g6242"><path d="m 152.5,1034.8622 2,4 2,-4 z" inkscape:connector-curvature="0" id="path3966-4-44" style="fill:#ffcc77;fill-opacity:1;stroke:#995500;stroke-width:1px;stroke-linecap:butt;stroke-linejoin:round;stroke-opacity:1"/><path d="m 152.5,1022.8622 4,0 0,12 -4,0 z" inkscape:connector-curvature="0" id="path3158-9-6-5" style="fill:#ff8800;fill-opacity:1;stroke:#995500;stroke-width:1px;stroke-linecap:round;stroke-linejoin:round;stroke-opacity:1"/></g><g transform="translate(-1376.212,-0.3)" id="use6093"><path d="m 1510.5627,1025.0929 c -2.7803,1.2012 -3.2664,5.0631 -2.562,6.4503 l 3.5372,-1.482 c -0.5745,-1.4152 0.1582,-5.461 2.9222,-6.6605 z" inkscape:connector-curvature="0" id="path11467" style="fill:url(#linearGradient4049);fill-opacity:1;stroke:#228811;stroke-width:1;stroke-linecap:round;stroke-linejoin:round;stroke-miterlimit:4;stroke-opacity:1;stroke-dasharray:none;stroke-dashoffset:0"/><path d="m 1517.7001,1027.3621 -3.0001,1.4001 0.6,1.1998 6.85,2.2002 3.15,-6.9998 -0.6,-1.0624 -3.1,1.4627 c -1.2,-2.6431 -4.696,-3.3356 -7.5563,-2.0584 l -3.4813,1.6517 c 2.5475,-1.2709 5.9974,-0.4263 7.1377,2.2061 z" inkscape:connector-curvature="0" id="path11469" style="fill:url(#linearGradient4132);fill-opacity:1;stroke:#228811;stroke-width:1;stroke-linecap:round;stroke-linejoin:round;stroke-miterlimit:4;stroke-opacity:1;stroke-dasharray:none;stroke-dashoffset:0"/></g><use transform="translate(19.08277,3.5132e-4)" id="use5426" x="0" y="0" width="160" height="32" xlink:href="#g5416"/><g transform="translate(1.1,-0.5)" id="g5416"><g transform="matrix(0.85879395,0,0,0.85879395,27.079749,148.50552)" id="g4610"><path d="m 135.10643,1036.7379 11.91337,-4.9446 3.84618,9.1427 -11.91337,4.9446 z" inkscape:connector-curvature="0" id="path4363" style="fill:url(#linearGradient3187);fill-opacity:1;stroke:url(#linearGradient3189);stroke-width:0.93153894;stroke-linecap:round;stroke-linejoin:round;stroke-miterlimit:4;stroke-opacity:1;stroke-dasharray:none"/><path d="m 145.95696,1040.8772 -2.32808,-5.7008" inkscape:connector-curvature="0" id="path4369" style="fill:none;stroke:url(#linearGradient3191);stroke-width:0.93153894;stroke-linecap:round;stroke-linejoin:round;stroke-miterlimit:4;stroke-opacity:1;stroke-dasharray:none"/><path d="m 142.22682,1042.2698 -2.03277,-5.1517" inkscape:connector-curvature="0" id="path4371" style="fill:none;stroke:url(#linearGradient3193);stroke-width:1px;stroke-linecap:round;stroke-linejoin:round;stroke-opacity:1"/><path d="m 147.13469,1036.8318 -8.00918,3.4127" inkscape:connector-curvature="0" id="path4375" style="fill:none;stroke:url(#linearGradient3195);stroke-width:0.93153894;stroke-linecap:round;stroke-linejoin:round;stroke-miterlimit:4;stroke-opacity:1;stroke-dasharray:none"/></g><g transform="matrix(0.39898385,-0.15579883,0.15579883,0.39898385,-1495.4464,1192.2668)" id="g4377"><path d="m 3695,41 a 6,6 0 1 1 -12,0 6,6 0 1 1 12,0 z" transform="matrix(1.1361374,0,0,1.1361374,-493.21474,1013.6802)" id="path4379" style="fill:url(#radialGradient3197);fill-opacity:1;stroke:#2a5945;stroke-width:1.64394319;stroke-linecap:round;stroke-linejoin:round;stroke-miterlimit:4;stroke-opacity:1;stroke-dasharray:none"/><path d="m 3697.9738,1056.5514 0.023,3.7105 1.784,-0.044" inkscape:connector-curvature="0" id="path4381" style="fill:none;stroke:#444444;stroke-width:1.86774528;stroke-linecap:round;stroke-linejoin:round;stroke-miterlimit:4;stroke-opacity:1;stroke-dasharray:none"/></g></g><g transform="translate(-19.999873,1.0001131)" id="g6634"><path d="m 2878.4882,12.868066 a 6.2394724,6.5106826 0 1 1 -5e-4,-0.02466" transform="matrix(1.0417505,0,0,0.99834845,-2916.168,1020.3836)" id="path6624" style="fill:#33ce00;fill-opacity:1;stroke:#2ba115;stroke-width:0.9805665;stroke-linecap:round;stroke-linejoin:round;stroke-miterlimit:4;stroke-opacity:1;stroke-dasharray:none"/><path d="m 72,1034.3621 0,-2 3.000026,0 0,-3 2,0 0,3 2.999974,0 0,2 -2.999974,0 0,3.0001 -2,0 0,-3.0001 z" inkscape:connector-curvature="0" id="path6628" style="fill:#ffffff;fill-opacity:0.94117647;stroke:none"/></g><use transform="translate(64,0)" id="use3199" x="0" y="0" width="192" height="32" xlink:href="#use6995"/><use transform="translate(31.999958,0)" id="use3201" x="0" y="0" width="192" height="32" xlink:href="#use6093"/><use transform="translate(31.99977,0)" id="use3203" x="0" y="0" width="192" height="32" xlink:href="#g5416"/><g transform="matrix(0.51691125,-0.2019099,0.2019099,0.51691125,-1317.7425,969.11803)" id="use6087" style="stroke-width:1.80197775;stroke-miterlimit:4;stroke-dasharray:none"><path d="m 2403.5,1066.8622 0,13.5 -19.5,0 0,-13.5" inkscape:connector-curvature="0" id="path11719" style="fill:url(#linearGradient4773);fill-opacity:1;stroke:url(#linearGradient4776);stroke-width:1.80197775;stroke-linecap:round;stroke-linejoin:round;stroke-miterlimit:4;stroke-opacity:1;stroke-dasharray:none"/><path d="m 2384,1066.8622 9,8 1.5,0 9,-8" inkscape:connector-curvature="0" id="path11721" style="fill:none;stroke:url(#linearGradient4778);stroke-width:1.80197775;stroke-linecap:round;stroke-linejoin:round;stroke-miterlimit:4;stroke-opacity:1;stroke-dasharray:none"/><path d="m 2384.8608,1079.5019 8.1392,-7.6397 1.5,0 8.1391,7.6397" inkscape:connector-curvature="0" id="path11723" style="fill:url(#linearGradient4780);fill-opacity:1;stroke:url(#linearGradient4782);stroke-width:1.80197775;stroke-linecap:round;stroke-linejoin:round;stroke-miterlimit:4;stroke-opacity:1;stroke-dasharray:none"/><path d="m 2384,1066.8622 8.5,-8 2,0 9,8" inkscape:connector-curvature="0" id="path11725" style="fill:#ffffff;fill-opacity:1;stroke:url(#linearGradient3256);stroke-width:1.80197775;stroke-linecap:round;stroke-linejoin:round;stroke-miterlimit:4;stroke-opacity:1;stroke-dasharray:none"/></g></g></svg>
