<?xml version="1.0" encoding="UTF-8" standalone="no"?>
<svg xmlns:dc="http://purl.org/dc/elements/1.1/" xmlns:cc="http://creativecommons.org/ns#" xmlns:rdf="http://www.w3.org/1999/02/22-rdf-syntax-ns#" xmlns:svg="http://www.w3.org/2000/svg" xmlns="http://www.w3.org/2000/svg" xmlns:xlink="http://www.w3.org/1999/xlink" xmlns:inkscape="http://www.inkscape.org/namespaces/inkscape" version="1.1" width="96" height="32" id="svg2"><defs id="defs4"><linearGradient id="linearGradient3801"><stop id="stop3803" style="stop-color:#d6d6d6;stop-opacity:1" offset="0"/><stop id="stop3805" style="stop-color:#c4c4c4;stop-opacity:1" offset="1"/></linearGradient><linearGradient id="linearGradient5154"><stop id="stop5156" style="stop-color:#2fba18;stop-opacity:1" offset="0"/><stop id="stop5162" style="stop-color:#28a114;stop-opacity:1" offset="0.5"/><stop id="stop5158" style="stop-color:#2fba18;stop-opacity:1" offset="1"/></linearGradient><linearGradient id="linearGradient3592-9"><stop id="stop3594-6" style="stop-color:#777777;stop-opacity:0.46666667" offset="0"/><stop id="stop3596-3" style="stop-color:#777777;stop-opacity:0" offset="1"/></linearGradient><linearGradient id="linearGradient5676-0"><stop id="stop5678-5" style="stop-color:#ffffff;stop-opacity:1" offset="0"/><stop id="stop5680-0" style="stop-color:#d1ddd8;stop-opacity:1" offset="1"/></linearGradient><radialGradient cx="3689" cy="41" r="4.5" fx="3689" fy="41" id="radialGradient5732" xlink:href="#linearGradient5676-0" gradientUnits="userSpaceOnUse" gradientTransform="matrix(0.93150026,-0.36374067,0.36374067,0.93150026,-3410.4909,2335.7498)"/><linearGradient x1="19.908215" y1="61.740608" x2="19.74892" y2="69.549034" id="linearGradient3807" xlink:href="#linearGradient3801" gradientUnits="userSpaceOnUse"/><linearGradient x1="26.825142" y1="49.366211" x2="26.66585" y2="57.174637" id="linearGradient3831" xlink:href="#linearGradient3801" gradientUnits="userSpaceOnUse" gradientTransform="matrix(0.93358043,-0.35836795,0.35836795,0.93358043,-13.08762,991.0855)"/><linearGradient x1="27" y1="1077.3622" x2="27" y2="1055.3622" id="linearGradient3027" xlink:href="#linearGradient5154" gradientUnits="userSpaceOnUse" gradientTransform="matrix(-0.93358043,0.35836795,-0.35836795,-0.93358043,414.44494,2022.4158)"/><radialGradient cx="16" cy="27" r="16" fx="16" fy="27" id="radialGradient3911" xlink:href="#linearGradient3592-9" gradientUnits="userSpaceOnUse" gradientTransform="matrix(1,0,0,0.31249965,1.3997998,1038.0246)"/><linearGradient x1="-296.57104" y1="993.03778" x2="-296.99561" y2="1002.5151" id="linearGradient3956" xlink:href="#linearGradient3801" gradientUnits="userSpaceOnUse" gradientTransform="matrix(0.93358095,-0.35836775,0.35836815,0.93357991,-2.3000392,0.20115835)"/><linearGradient x1="-296.57104" y1="993.03778" x2="-296.99561" y2="1002.5151" id="linearGradient3958" xlink:href="#linearGradient3801" gradientUnits="userSpaceOnUse" gradientTransform="matrix(0.93358095,-0.35836775,0.35836815,0.93357991,-2.3000392,0.20115835)"/></defs><metadata id="metadata7"><rdf:RDF><cc:Work rdf:about=""><dc:format>image/svg+xml</dc:format><dc:type rdf:resource="http://purl.org/dc/dcmitype/StillImage"/><dc:title/></cc:Work></rdf:RDF></metadata><g transform="translate(0,-1020.3622)" id="layer1"><path d="m 20.043788,1037.8257 -2.744216,1.0534 0.0429,1.4062 -1.764139,0.6772 -0.09167,-7.7735 2.092351,-0.8032 5.133365,5.8382 -1.764138,0.6772 -0.904456,-1.0755 m -2.791306,-0.3772 1.864425,-0.7157 -1.969341,-2.3508 0.104916,3.0665" inkscape:connector-curvature="0" id="path3799" style="font-size:10px;font-style:normal;font-weight:bold;line-height:125%;letter-spacing:0px;word-spacing:0px;fill:none;stroke:#222222;stroke-width:1;stroke-linecap:round;stroke-linejoin:round;stroke-opacity:1;font-family:Sans;-inkscape-font-specification:Sans Bold"/><path d="m 20.043788,1037.8257 -2.744216,1.0534 0.0429,1.4062 -1.764139,0.6772 -0.09167,-7.7735 2.092351,-0.8032 5.133365,5.8382 -1.764138,0.6772 -0.904456,-1.0755 m -2.791306,-0.3772 1.864425,-0.7157 -1.969341,-2.3508 0.104916,3.0665" inkscape:connector-curvature="0" id="path5747" style="font-size:10px;font-style:normal;font-weight:bold;line-height:125%;letter-spacing:0px;word-spacing:0px;fill:url(#linearGradient3831);fill-opacity:1;stroke:none;font-family:Sans;-inkscape-font-specification:Sans Bold"/><g transform="matrix(0.93358043,-0.35836795,0.35836795,0.93358043,-11.064698,977.0542)" id="g3793" style="font-size:10px;font-style:normal;font-weight:bold;line-height:125%;letter-spacing:0px;word-spacing:0px;fill:none;stroke:#414141;stroke-linecap:round;stroke-linejoin:round;stroke-opacity:1;font-family:Sans;-inkscape-font-specification:Sans Bold"><path d="m 10.284242,61.921455 6.127929,0 0,1.137696 -3.911132,4.731445 4.023437,0 0,1.420898 -6.352539,0 0,-1.137695 3.911133,-4.731445 -3.798828,0 0,-1.420899" inkscape:connector-curvature="0" id="path3795" style="fill:none;stroke:#414141;stroke-linecap:round;stroke-linejoin:round;stroke-opacity:1"/><path d="m 10.284242,61.921455 6.127929,0 0,1.137696 -3.911132,4.731445 4.023437,0 0,1.420898 -6.352539,0 0,-1.137695 3.911133,-4.731445 -3.798828,0 0,-1.420899" inkscape:connector-curvature="0" id="path3797" style="fill:none;stroke:#222222;stroke-linecap:round;stroke-linejoin:round;stroke-opacity:1"/></g><rect width="32" height="9.9999886" x="1.4000002" y="1041.4624" id="use5574" style="fill:url(#radialGradient3911);fill-opacity:1;fill-rule:evenodd;stroke:none"/><path d="m 14.514663,1043.3464 0.537552,1.4004 -2.800742,1.0751 -0.537552,-1.4004 z m -1.325962,-3.4543 0.716736,1.8672 -2.800741,1.0751 -0.716736,-1.8672 z m -3.409966,-0.5119 -2.186045,-5.6949 -3.734322,1.4335 -0.358368,-0.9336 2.626117,-8.5061 7.643268,4.5641 0.358368,0.9335 -3.734322,1.4335 2.186045,5.6948 z" inkscape:connector-curvature="0" id="path5287" style="fill:url(#linearGradient3027);fill-opacity:1;stroke:#228811;stroke-width:1px;stroke-linecap:butt;stroke-linejoin:round;stroke-opacity:1"/><use transform="matrix(1,0,0,1.0000011,30.6,0.89884131)" id="use5331" x="0" y="0" width="64" height="32" xlink:href="#use5574"/><use transform="translate(32,0)" id="use5333" x="0" y="0" width="64" height="32" xlink:href="#path5287"/><g transform="translate(13.818029,4.8340155)" id="g5725"><path d="m 46.315978,1029.9196 a 6.0000002,6.0000002 0 0 1 -11.178004,4.3648 6.0000002,6.0000002 0 1 1 11.178004,-4.3648 z" inkscape:connector-curvature="0" id="path10552" style="fill:url(#radialGradient5732);fill-opacity:1;stroke:#2a5945;stroke-width:1;stroke-linecap:round;stroke-linejoin:round;stroke-opacity:1"/><path d="m 39.271945,1028.376 1.454963,3.726 1.863,-0.7275" inkscape:connector-curvature="0" id="path10554" style="fill:none;stroke:#444444;stroke-width:1px;stroke-linecap:round;stroke-linejoin:round;stroke-opacity:1"/><path d="m 37.000907,1033.557 0.46575,-0.1819" inkscape:connector-curvature="0" id="path10556" style="fill:none;stroke:#a2cab3;stroke-width:1px;stroke-linecap:round;stroke-linejoin:round;stroke-opacity:1"/><path d="m 43.987159,1030.8289 0.46575,-0.1819" inkscape:connector-curvature="0" id="path10558" style="fill:none;stroke:#a2cab3;stroke-width:1px;stroke-linecap:round;stroke-linejoin:round;stroke-opacity:1"/><path d="M 42.181871,1035.828 42,1035.3622" inkscape:connector-curvature="0" id="path10560" style="fill:none;stroke:#a2cab3;stroke-width:1px;stroke-linecap:round;stroke-linejoin:round;stroke-opacity:1"/></g><text x="1.375" y="40.25" transform="translate(0,1020.3622)" id="text5734" xml:space="preserve" style="font-size:40px;font-style:normal;font-weight:normal;line-height:125%;letter-spacing:0px;word-spacing:0px;fill:#000000;fill-opacity:1;stroke:none;font-family:Sans"><tspan x="1.375" y="40.25" id="tspan5736"/></text><g transform="matrix(0.93358043,-0.35836795,0.35836795,0.93358043,-11.064698,977.0542)" id="text5742" style="font-size:10px;font-style:normal;font-weight:bold;line-height:125%;letter-spacing:0px;word-spacing:0px;fill:#000000;fill-opacity:1;stroke:none;font-family:Sans;-inkscape-font-specification:Sans Bold"><path d="m 10.284242,61.921455 6.127929,0 0,1.137696 -3.911132,4.731445 4.023437,0 0,1.420898 -6.352539,0 0,-1.137695 3.911133,-4.731445 -3.798828,0 0,-1.420899" inkscape:connector-curvature="0" id="path5750" style="fill:url(#linearGradient3807);fill-opacity:1"/><path d="m 10.284242,61.921455 6.127929,0 0,1.137696 -3.911132,4.731445 4.023437,0 0,1.420898 -6.352539,0 0,-1.137695 3.911133,-4.731445 -3.798828,0 0,-1.420899" inkscape:connector-curvature="0" id="path3781" style="fill:none"/></g><use transform="matrix(1,0,0,1.0000011,62.6,0.89884131)" id="use3021" x="0" y="0" width="64" height="32" xlink:href="#use5574"/><use transform="translate(64,0)" id="use3023" x="0" y="0" width="64" height="32" xlink:href="#path5287"/><g transform="translate(1.785e-4,0.09952689)" id="g3948"><path d="m 84.29287,1036.5588 c -0.326634,-0.8509 -0.637013,-1.4187 -0.931028,-1.7033 -0.292191,-0.2888 -0.626701,-0.3609 -1.003535,-0.2163 -0.376836,0.1447 -0.578706,0.4227 -0.605622,0.834 -0.02807,0.4083 0.1212,1.0378 0.447844,1.8888 0.33013,0.86 0.643435,1.4353 0.939783,1.7261 0.296383,0.2906 0.632989,0.3637 1.009829,0.219 0.373796,-0.1435 0.57357,-0.4224 0.599328,-0.8367 0.02574,-0.4144 -0.126459,-1.0516 -0.456599,-1.9116 m 1.760298,-0.66 c 0.432788,1.1275 0.523858,2.0914 0.273293,2.892 -0.251766,0.7975 -0.824395,1.3677 -1.71786,1.7106 -0.896508,0.3442 -1.705103,0.3042 -2.42582,-0.12 -0.7219,-0.4273 -1.299216,-1.2046 -1.732014,-2.332 -0.433958,-1.1305 -0.525053,-2.0945 -0.2733,-2.892 0.250596,-0.8005 0.824144,-1.3729 1.720653,-1.717 0.893464,-0.343 1.70114,-0.3008 2.423027,0.1264 0.720712,0.4242 1.298053,1.2015 1.732021,2.332" inkscape:connector-curvature="0" id="path3930" style="font-size:9.99999428px;font-style:normal;font-weight:bold;line-height:125%;letter-spacing:0px;word-spacing:0px;fill:#000000;fill-opacity:1;stroke:#222222;stroke-width:0.99999946;stroke-opacity:1;font-family:Sans;-inkscape-font-specification:Sans Bold"/><path d="m 84.292869,1036.5591 c -0.326634,-0.8509 -0.637017,-1.4187 -0.93104,-1.7033 -0.292179,-0.2888 -0.626689,-0.3609 -1.003523,-0.2162 -0.376836,0.1446 -0.578706,0.4226 -0.605626,0.8339 -0.02808,0.4083 0.121204,1.0379 0.447838,1.8888 0.33014,0.86 0.643436,1.4354 0.939789,1.7261 0.296383,0.2907 0.632989,0.3637 1.009829,0.219 0.373797,-0.1435 0.573561,-0.4224 0.599319,-0.8367 0.02575,-0.4144 -0.126446,-1.0515 -0.456586,-1.9116 m 1.760289,-0.66 c 0.432794,1.1275 0.523863,2.0914 0.273289,2.892 -0.251757,0.7975 -0.824385,1.3677 -1.71785,1.7107 -0.896509,0.3441 -1.705104,0.3041 -2.425821,-0.1201 -0.7219,-0.4273 -1.299216,-1.2045 -1.73201,-2.332 -0.433958,-1.1305 -0.525057,-2.0945 -0.2733,-2.892 0.250592,-0.8005 0.824144,-1.3728 1.720649,-1.717 0.893469,-0.3429 1.70114,-0.3008 2.423022,0.1264 0.720717,0.4242 1.298062,1.2015 1.732021,2.332" inkscape:connector-curvature="0" id="path3920" style="font-size:9.99999428px;font-style:normal;font-weight:bold;line-height:125%;letter-spacing:0px;word-spacing:0px;fill:url(#linearGradient3956);fill-opacity:1;stroke:none;font-family:Sans;-inkscape-font-specification:Sans Bold"/></g><g transform="translate(2.3377e-4,-0.10047311)" id="g3952"><path d="m 88.192741,1037.3578 c 0.329751,0.023 0.6351,0.02 0.916037,-0.012 0.279638,-0.034 0.544282,-0.099 0.793447,-0.1947 0.522738,-0.2006 0.874527,-0.5013 1.055463,-0.902 0.179738,-0.4037 0.185794,-0.9012 0.01815,-1.4924 -0.148326,0.2313 -0.324905,0.4299 -0.529743,0.5957 -0.204841,0.1658 -0.444013,0.3012 -0.717524,0.4061 -0.695929,0.2672 -1.335726,0.2809 -1.919377,0.041 -0.581777,-0.2439 -0.999819,-0.6971 -1.254131,-1.3596 -0.28114,-0.7324 -0.269249,-1.4099 0.03569,-2.0326 0.307966,-0.6238 0.861578,-1.0891 1.660841,-1.3959 0.887381,-0.3406 1.689105,-0.3049 2.405159,0.1071 0.716045,0.4121 1.284054,1.1651 1.704015,2.2591 0.43163,1.1245 0.486953,2.1179 0.165959,2.9802 -0.322136,0.8595 -0.978575,1.4793 -1.969282,1.8596 -0.319098,0.1225 -0.633836,0.2154 -0.944215,0.2789 -0.309304,0.066 -0.621741,0.1061 -0.937516,0.1192 z m 1.390146,-2.8505 c 0.306937,-0.1178 0.499989,-0.3052 0.579155,-0.5623 0.07799,-0.26 0.04058,-0.5891 -0.112237,-0.9872 -0.151651,-0.3951 -0.343461,-0.6632 -0.57545,-0.8042 -0.231984,-0.1411 -0.501448,-0.1527 -0.808385,-0.035 -0.306939,0.1178 -0.499402,0.3067 -0.577403,0.5668 -0.078,0.2601 -0.04116,0.5877 0.110488,0.9827 0.152819,0.3981 0.345214,0.6677 0.577199,0.8088 0.23082,0.138 0.499694,0.1482 0.806633,0.03" inkscape:connector-curvature="0" id="path3932" style="font-size:9.99999428px;font-style:normal;font-weight:bold;line-height:125%;letter-spacing:0px;word-spacing:0px;fill:#000000;fill-opacity:1;stroke:#222222;stroke-width:1;stroke-linecap:round;stroke-linejoin:round;stroke-miterlimit:4;stroke-opacity:1;stroke-dasharray:none;font-family:Sans;-inkscape-font-specification:Sans Bold"/><path d="m 88.675699,1038.6163 -0.482972,-1.2582 c 0.32976,0.023 0.635109,0.02 0.916047,-0.012 0.279638,-0.035 0.544272,-0.099 0.793473,-0.1947 0.522712,-0.2007 0.874491,-0.5014 1.055437,-0.9021 0.179741,-0.4037 0.185793,-0.9012 0.01814,-1.4923 -0.14832,0.2313 -0.324908,0.4298 -0.529737,0.5956 -0.20484,0.1658 -0.444022,0.3012 -0.717524,0.4062 -0.695938,0.2671 -1.335726,0.2808 -1.919372,0.041 -0.581782,-0.2439 -0.999829,-0.6971 -1.254142,-1.3596 -0.281139,-0.7324 -0.269242,-1.4099 0.03569,-2.0325 0.307979,-0.6238 0.861587,-1.0891 1.660845,-1.3959 0.887387,-0.3407 1.689111,-0.305 2.405159,0.1071 0.716051,0.412 1.284063,1.165 1.704021,2.2591 0.431629,1.1244 0.486946,2.1178 0.165994,2.9803 -0.322171,0.8593 -0.97861,1.4791 -1.969317,1.8594 -0.319098,0.1225 -0.633837,0.2155 -0.944216,0.2789 -0.309304,0.066 -0.621741,0.1062 -0.937489,0.1193 m 0.907151,-4.1087 c 0.306933,-0.1179 0.49999,-0.3053 0.579146,-0.5623 0.078,-0.2601 0.04058,-0.5892 -0.112232,-0.9873 -0.15166,-0.3951 -0.343461,-0.6631 -0.575458,-0.8042 -0.231976,-0.1411 -0.50144,-0.1527 -0.808373,-0.035 -0.306943,0.1178 -0.499415,0.3068 -0.577407,0.5668 -0.078,0.2601 -0.04117,0.5877 0.110489,0.9827 0.152813,0.3982 0.345217,0.6678 0.577202,0.8088 0.230811,0.1381 0.49969,0.1482 0.806633,0.03" inkscape:connector-curvature="0" id="path3922" style="font-size:9.99999428px;font-style:normal;font-weight:bold;line-height:125%;letter-spacing:0px;word-spacing:0px;fill:url(#linearGradient3958);fill-opacity:1;stroke:none;font-family:Sans;-inkscape-font-specification:Sans Bold"/></g></g></svg>
