<?xml version="1.0" encoding="UTF-8" standalone="no"?>
<!-- Created with Inkscape (http://www.inkscape.org/) -->

<svg
   xmlns:dc="http://purl.org/dc/elements/1.1/"
   xmlns:cc="http://creativecommons.org/ns#"
   xmlns:rdf="http://www.w3.org/1999/02/22-rdf-syntax-ns#"
   xmlns:svg="http://www.w3.org/2000/svg"
   xmlns="http://www.w3.org/2000/svg"
   xmlns:xlink="http://www.w3.org/1999/xlink"
   xmlns:inkscape="http://www.inkscape.org/namespaces/inkscape"
   version="1.1"
   width="128"
   height="32"
   id="svg18470">
  <defs
     id="defs18472">
    <linearGradient
       id="linearGradient3592-9-5">
      <stop
         id="stop3594-6-7"
         style="stop-color:#777777;stop-opacity:0.46666667"
         offset="0" />
      <stop
         id="stop3596-3-9"
         style="stop-color:#777777;stop-opacity:0"
         offset="1" />
    </linearGradient>
    <radialGradient
       cx="16"
       cy="27"
       r="16"
       fx="16"
       fy="27"
       id="radialGradient18898"
       xlink:href="#linearGradient3592-9-5"
       gradientUnits="userSpaceOnUse"
       gradientTransform="matrix(1,0,0,0.3125,-2e-4,1038.9248)" />
    <linearGradient
       x1="12"
       y1="27"
       x2="6"
       y2="12"
       id="linearGradient18214"
       xlink:href="#linearGradient3804-8"
       gradientUnits="userSpaceOnUse"
       gradientTransform="translate(260,1020.3622)" />
    <linearGradient
       id="linearGradient3804-8">
      <stop
         id="stop3806-0"
         style="stop-color:#404040;stop-opacity:1"
         offset="0" />
      <stop
         id="stop3812-3"
         style="stop-color:#808080;stop-opacity:1"
         offset="0.5" />
      <stop
         id="stop3808-7"
         style="stop-color:#5c5c5c;stop-opacity:1"
         offset="1" />
    </linearGradient>
    <radialGradient
       cx="2873.21"
       cy="11.073713"
       r="6.2500243"
       fx="2873.21"
       fy="11.073713"
       id="radialGradient18354"
       xlink:href="#linearGradient5195-0-7"
       gradientUnits="userSpaceOnUse"
       gradientTransform="matrix(0.84472205,-1.3923892e-6,1.3343892e-6,0.8814524,446.14615,1.2397114)" />
    <linearGradient
       id="linearGradient5195-0-7">
      <stop
         id="stop5197-6-0"
         style="stop-color:#9bff7e;stop-opacity:1"
         offset="0" />
      <stop
         id="stop5199-2-2-9"
         style="stop-color:#2fba18;stop-opacity:1"
         offset="1" />
    </linearGradient>
    <radialGradient
       cx="2889"
       cy="5.5"
       r="5.5000229"
       fx="2889"
       fy="5.5"
       id="radialGradient18356"
       xlink:href="#linearGradient4073-9"
       gradientUnits="userSpaceOnUse" />
    <linearGradient
       id="linearGradient4073-9">
      <stop
         id="stop4075-9"
         style="stop-color:#9bff7e;stop-opacity:0"
         offset="0" />
      <stop
         id="stop4081-6"
         style="stop-color:#9bff7e;stop-opacity:0.22352941"
         offset="0.67647058" />
      <stop
         id="stop4077-8"
         style="stop-color:#9bff7e;stop-opacity:0.67716533"
         offset="1" />
    </linearGradient>
  </defs>
  <metadata
     id="metadata18475">
    <rdf:RDF>
      <cc:Work
         rdf:about="">
        <dc:format>image/svg+xml</dc:format>
        <dc:type
           rdf:resource="http://purl.org/dc/dcmitype/StillImage" />
        <dc:title />
      </cc:Work>
    </rdf:RDF>
  </metadata>
  <g
     transform="translate(0,-1020.3622)"
     id="layer1">
    <g
       id="g18916">
      <rect
         width="32"
         height="10"
         x="0"
         y="1042.3622"
         id="use5458"
         style="fill:url(#radialGradient18898);fill-opacity:1;fill-rule:evenodd;stroke:none" />
      <g
         id="g18910">
        <path
           d="m 17.001276,17 a 2.001276,2 0 1 1 -4.002552,0 2.001276,2 0 1 1 4.002552,0 z"
           transform="translate(-7.99872,1026.3622)"
           id="path4443"
           style="fill:#cc5b00;fill-opacity:1;stroke:none" />
        <path
           d="M 11.515508,-6.9394705 A 19.001276,19 0 0 1 28.731034,15.193036"
           transform="translate(-2.99872,1031.3622)"
           id="path4441"
           style="fill:none;stroke:#ffa066;stroke-width:2.5;stroke-linecap:round;stroke-linejoin:round;stroke-miterlimit:4;stroke-opacity:1;stroke-dasharray:none;stroke-dashoffset:0" />
        <path
           d="M 11.003035,-0.96125449 A 13.001276,13 0 0 1 22.77178,14.4318"
           transform="translate(-2.99872,1031.3622)"
           id="path4439"
           style="fill:none;stroke:#ffa066;stroke-width:2.5;stroke-linecap:round;stroke-linejoin:round;stroke-miterlimit:4;stroke-opacity:1;stroke-dasharray:none;stroke-dashoffset:0" />
        <path
           d="m 10.543592,5.0211308 a 7.001276,7 0 0 1 6.2878,8.5115462"
           transform="translate(-2.99872,1031.3622)"
           id="path4437"
           style="fill:none;stroke:#ffa066;stroke-width:2.5;stroke-linecap:round;stroke-linejoin:round;stroke-miterlimit:4;stroke-opacity:1;stroke-dasharray:none;stroke-dashoffset:0" />
      </g>
    </g>
    <g
       id="g18954">
      <use
         transform="translate(64,1.7382813e-5)"
         id="use18877"
         x="0"
         y="0"
         width="128"
         height="32"
         xlink:href="#use5458" />
      <g
         id="g18929">
        <g
           transform="translate(-416,1.7382813e-5)"
           id="use4430">
          <path
             d="m 17.001276,17 a 2.001276,2 0 1 1 -4.002552,0 2.001276,2 0 1 1 4.002552,0 z"
             transform="translate(472.00128,1026.3622)"
             id="path18765"
             style="fill:#cc5b00;fill-opacity:1;stroke:none" />
        </g>
        <path
           d="M 11.515508,-6.9394705 A 19.001276,19 0 0 1 28.731034,15.193036"
           transform="translate(61.00141,1031.3622)"
           id="path18264"
           style="fill:none;stroke:#d4d4d4;stroke-width:2.5;stroke-linecap:round;stroke-linejoin:round;stroke-miterlimit:4;stroke-opacity:1;stroke-dasharray:none;stroke-dashoffset:0" />
        <path
           d="M 11.003035,-0.96125449 A 13.001276,13 0 0 1 22.77178,14.4318"
           transform="translate(61.00141,1031.3622)"
           id="path18266"
           style="fill:none;stroke:#d4d4d4;stroke-width:2.5;stroke-linecap:round;stroke-linejoin:round;stroke-miterlimit:4;stroke-opacity:1;stroke-dasharray:none;stroke-dashoffset:0" />
        <path
           d="m 10.543592,5.0211308 a 7.001276,7 0 0 1 6.2878,8.5115462"
           transform="translate(61.00141,1031.3622)"
           id="path18268"
           style="fill:none;stroke:#d4d4d4;stroke-width:2.5;stroke-linecap:round;stroke-linejoin:round;stroke-miterlimit:4;stroke-opacity:1;stroke-dasharray:none;stroke-dashoffset:0" />
      </g>
    </g>
    <g
       id="g20483">
      <use
         transform="translate(32,0)"
         id="use18952"
         x="0"
         y="0"
         width="128"
         height="32"
         xlink:href="#use18877" />
      <g
         transform="translate(-160.09996,0)"
         id="g18226">
        <path
           d="m 272,1047.3622 -1,-15 11,11 m -2,-2 -8,2 5,-5 -5.31567,0.8839 2.94701,-3.1364"
           inkscape:connector-curvature="0"
           id="use5415"
           style="fill:none;stroke:url(#linearGradient18214);stroke-width:1px;stroke-linecap:round;stroke-linejoin:round;stroke-opacity:1" />
        <g
           id="g18221">
          <path
             d="M 5.8390639,16.729137 A 7,7 0 1 1 17.960821,11.260424"
             transform="translate(260.00005,1020.3622)"
             id="path3794"
             style="fill:none;stroke:#ffa066;stroke-linecap:round;stroke-linejoin:round;stroke-opacity:1" />
          <path
             d="M 4.308694,19.431448 A 10,10 0 1 1 20.993908,11.651005"
             transform="translate(260.00005,1020.3622)"
             id="path16979"
             style="fill:none;stroke:#ffa066;stroke-linecap:round;stroke-linejoin:round;stroke-opacity:1" />
          <path
             d="m 267.44021,13.824246 a 4,4 0 1 1 7.38613,-2.990067"
             transform="translate(0,1020.3622)"
             id="path17439"
             style="fill:none;stroke:#ffa066;stroke-width:1;stroke-linecap:round;stroke-linejoin:round;stroke-miterlimit:4;stroke-opacity:1;stroke-dasharray:none" />
        </g>
      </g>
    </g>
    <g
       id="g20492">
      <use
         transform="translate(32,1.7382813e-5)"
         id="use18924"
         x="0"
         y="0"
         width="128"
         height="32"
         xlink:href="#g18916" />
      <g
         transform="translate(-2827.5,19.499995)"
         id="use5749">
        <path
           d="m 2877.9988,12.878415 a 5.75,6 0 1 1 -5e-4,-0.02272"
           transform="matrix(1.0417505,0,0,0.99834845,-108.66787,1000.8837)"
           id="path18348"
           style="fill:url(#radialGradient18354);fill-opacity:1;stroke:#19640c;stroke-width:1;stroke-linecap:round;stroke-linejoin:round;stroke-miterlimit:4;stroke-opacity:1;stroke-dasharray:none" />
        <path
           d="m 2894.4989,5.3885468 a 5.5,5.5 0 1 1 -5e-4,-0.020829"
           transform="translate(-5.5,1008.3622)"
           id="path18350"
           style="fill:url(#radialGradient18356);fill-opacity:1;stroke:none" />
        <path
           d="m 2880,1014.8622 0,-2 2.5,0 0,-2.5 2,0 0,2.5 2.5,0 0,2 -2.5,0 0,2.5 -2,0 0,-2.5 z"
           inkscape:connector-curvature="0"
           id="path18352"
           style="fill:#ffffff;fill-opacity:0.94117647;stroke:#19640c;stroke-width:1px;stroke-linecap:round;stroke-linejoin:round;stroke-opacity:0.25098039" />
      </g>
    </g>
  </g>
</svg>
