<?xml version="1.0" encoding="UTF-8" standalone="no"?>
<svg xmlns:dc="http://purl.org/dc/elements/1.1/" xmlns:cc="http://creativecommons.org/ns#" xmlns:rdf="http://www.w3.org/1999/02/22-rdf-syntax-ns#" xmlns:svg="http://www.w3.org/2000/svg" xmlns="http://www.w3.org/2000/svg" xmlns:xlink="http://www.w3.org/1999/xlink" xmlns:inkscape="http://www.inkscape.org/namespaces/inkscape" version="1.1" width="224" height="32" id="svg15819"><defs id="defs15821"><linearGradient id="linearGradient3592"><stop id="stop3594" style="stop-color:#777777;stop-opacity:0.46666667" offset="0"/><stop id="stop3596" style="stop-color:#777777;stop-opacity:0" offset="1"/></linearGradient><linearGradient id="linearGradient3810-6-0"><stop id="stop3812-3-3" style="stop-color:#6f6f6f;stop-opacity:1" offset="0"/><stop id="stop3814-5-2" style="stop-color:#777777;stop-opacity:1" offset="1"/></linearGradient><linearGradient id="linearGradient3914-6-4"><stop id="stop3916-8-68" style="stop-color:#5e5e5e;stop-opacity:1" offset="0"/><stop id="stop3918-5-76" style="stop-color:#535353;stop-opacity:1" offset="1"/></linearGradient><linearGradient id="linearGradient3795-7-67"><stop id="stop3797-0-58" style="stop-color:#e7e7e7;stop-opacity:1" offset="0"/><stop id="stop3799-0-12" style="stop-color:#ffffff;stop-opacity:1" offset="1"/></linearGradient><linearGradient id="linearGradient3804-0-8"><stop id="stop3806-9-151" style="stop-color:#585858;stop-opacity:1" offset="0"/><stop id="stop3808-8-5" style="stop-color:#444444;stop-opacity:1" offset="1"/></linearGradient><linearGradient id="linearGradient3795-5-23"><stop id="stop3797-6-20" style="stop-color:#c7c7c7;stop-opacity:1" offset="0"/><stop id="stop3883-09" style="stop-color:#c4c4c4;stop-opacity:1" offset="0.5"/><stop id="stop3799-8-21" style="stop-color:#ffffff;stop-opacity:1" offset="1"/></linearGradient><linearGradient x1="-0.12042235" y1="13.616163" x2="6.5948114" y2="28.112909" id="linearGradient5562" xlink:href="#linearGradient5647-0" gradientUnits="userSpaceOnUse" gradientTransform="translate(1055.5,1020.3622)"/><linearGradient id="linearGradient5647-0"><stop id="stop5649-8" style="stop-color:#ff2828;stop-opacity:1" offset="0"/><stop id="stop5651-5" style="stop-color:#dc0000;stop-opacity:1" offset="1"/></linearGradient><linearGradient x1="-8" y1="1036.3622" x2="-1" y2="1051.3622" id="linearGradient4686" xlink:href="#linearGradient5655-7" gradientUnits="userSpaceOnUse" gradientTransform="translate(1056.5,0)"/><linearGradient id="linearGradient5655-7"><stop id="stop5657-9" style="stop-color:#bc0000;stop-opacity:1" offset="0"/><stop id="stop5659-7" style="stop-color:#8c0000;stop-opacity:1" offset="1"/></linearGradient><linearGradient x1="5" y1="31" x2="-3" y2="15" id="linearGradient4688" xlink:href="#linearGradient3795-7-67" gradientUnits="userSpaceOnUse" gradientTransform="matrix(0.99993386,0.01150116,-0.01150116,0.99993386,1054.1907,1018.962)"/><linearGradient x1="1" y1="13" x2="9" y2="29" id="linearGradient4690" xlink:href="#linearGradient3804-0-8" gradientUnits="userSpaceOnUse" gradientTransform="matrix(0.99993386,0.01150116,-0.01150116,0.99993386,1054.1907,1018.962)"/><linearGradient x1="0" y1="1028.3622" x2="2" y2="1032.3622" id="linearGradient15964" xlink:href="#linearGradient3795-5-23" gradientUnits="userSpaceOnUse" gradientTransform="translate(1056.5,0)"/><linearGradient x1="1" y1="13" x2="9" y2="29" id="linearGradient15966" xlink:href="#linearGradient3914-6-4" gradientUnits="userSpaceOnUse" gradientTransform="translate(1054.5,1018.8622)"/><linearGradient x1="5" y1="29" x2="-2" y2="14" id="linearGradient4753" xlink:href="#linearGradient3810-6-0" gradientUnits="userSpaceOnUse" gradientTransform="translate(1055.5,1020.3622)"/><linearGradient x1="-8" y1="1036.3622" x2="-1" y2="1051.3622" id="linearGradient4755" xlink:href="#linearGradient3914-6-4" gradientUnits="userSpaceOnUse" gradientTransform="translate(1056.5,0)"/><linearGradient x1="5" y1="31" x2="-3" y2="15" id="linearGradient4757" xlink:href="#linearGradient3795-7-67" gradientUnits="userSpaceOnUse" gradientTransform="matrix(0.99993386,0.01150116,-0.01150116,0.99993386,1054.1907,1018.962)"/><linearGradient x1="0" y1="1028.3622" x2="2" y2="1032.3622" id="linearGradient4759" xlink:href="#linearGradient3795-5-23" gradientUnits="userSpaceOnUse" gradientTransform="translate(1056.5,0)"/><linearGradient x1="1" y1="13" x2="9" y2="29" id="linearGradient4761" xlink:href="#linearGradient3914-6-4" gradientUnits="userSpaceOnUse" gradientTransform="translate(1054.5,1018.8622)"/><linearGradient x1="2282.9392" y1="56.999981" x2="2282.9392" y2="41.783119" id="linearGradient11486" xlink:href="#linearGradient3795" gradientUnits="userSpaceOnUse" gradientTransform="matrix(0.75574056,0,0,0.75574056,666.19022,1036.285)"/><linearGradient id="linearGradient3795"><stop id="stop3797" style="stop-color:#dadada;stop-opacity:1" offset="0"/><stop id="stop3799" style="stop-color:#ffffff;stop-opacity:1" offset="1"/></linearGradient><linearGradient x1="2281.616" y1="41.783119" x2="2281.616" y2="56.999981" id="linearGradient11488" xlink:href="#linearGradient3633-25" gradientUnits="userSpaceOnUse" gradientTransform="matrix(0.75574056,0,0,0.75574056,666.19022,1036.285)"/><linearGradient id="linearGradient3633-25"><stop id="stop3635-50" style="stop-color:#989898;stop-opacity:1" offset="0"/><stop id="stop3637-9" style="stop-color:#6b6b6b;stop-opacity:1" offset="1"/></linearGradient><linearGradient x1="2254.116" y1="43.283119" x2="2254.116" y2="58.499981" id="linearGradient11490" xlink:href="#linearGradient3633-25" gradientUnits="userSpaceOnUse" gradientTransform="matrix(0.75574056,0,0,0.75574056,686.97309,1035.1514)"/><linearGradient x1="2254.116" y1="58.499981" x2="2254.116" y2="43.283119" id="linearGradient11492" xlink:href="#linearGradient3795" gradientUnits="userSpaceOnUse" gradientTransform="matrix(0.75574056,0,0,0.75574056,686.97309,1035.1514)"/><linearGradient x1="2255.4392" y1="43.283119" x2="2255.4392" y2="58.499981" id="linearGradient11494" xlink:href="#linearGradient3633-25" gradientUnits="userSpaceOnUse" gradientTransform="matrix(0.75574056,0,0,0.75574056,686.97309,1035.1514)"/><linearGradient x1="2254.116" y1="43.283119" x2="2254.116" y2="58.499981" id="linearGradient11496" xlink:href="#linearGradient3633-25" gradientUnits="userSpaceOnUse" gradientTransform="matrix(0.75574056,0,0,-0.75574056,686.97309,1098.573)"/><linearGradient x1="1501" y1="5" x2="1503" y2="11" id="linearGradient11472" xlink:href="#linearGradient6008" gradientUnits="userSpaceOnUse" gradientTransform="translate(1.1345935e-4,1020.5617)"/><linearGradient id="linearGradient6008"><stop id="stop6010" style="stop-color:#2fba18;stop-opacity:1" offset="0"/><stop id="stop6120" style="stop-color:#28a114;stop-opacity:1" offset="0.5"/><stop id="stop6012" style="stop-color:#2fbb17;stop-opacity:1" offset="1"/></linearGradient><linearGradient x1="1498.8068" y1="4.2157669" x2="1504" y2="17" id="linearGradient11474" xlink:href="#linearGradient6008" gradientUnits="userSpaceOnUse" gradientTransform="translate(-3.2806452e-6,1020.5622)"/><radialGradient cx="16" cy="27" r="16" fx="16" fy="27" id="radialGradient11599" xlink:href="#linearGradient3592" gradientUnits="userSpaceOnUse" gradientTransform="matrix(1,0,0,0.3125,159.9998,1038.9248)"/><radialGradient cx="16" cy="27" r="16" fx="16" fy="27" id="radialGradient3319" xlink:href="#linearGradient3592" gradientUnits="userSpaceOnUse" gradientTransform="matrix(1,0,0,0.3125,0,1038.9247)"/><linearGradient x1="5" y1="29" x2="-2" y2="14" id="linearGradient3321" xlink:href="#linearGradient3810-6-0" gradientUnits="userSpaceOnUse" gradientTransform="translate(1055.5,1020.3622)"/><linearGradient x1="-8" y1="1036.3622" x2="-1" y2="1051.3622" id="linearGradient3323" xlink:href="#linearGradient3914-6-4" gradientUnits="userSpaceOnUse" gradientTransform="translate(1056.5,0)"/><linearGradient x1="5" y1="31" x2="-3" y2="15" id="linearGradient3325" xlink:href="#linearGradient3795-7-67" gradientUnits="userSpaceOnUse" gradientTransform="matrix(0.99993386,0.01150116,-0.01150116,0.99993386,1054.1907,1018.962)"/><linearGradient x1="1" y1="13" x2="9" y2="29" id="linearGradient3327" xlink:href="#linearGradient3804-0-8" gradientUnits="userSpaceOnUse" gradientTransform="matrix(0.99993386,0.01150116,-0.01150116,0.99993386,1054.1907,1018.962)"/><linearGradient x1="0" y1="1028.3622" x2="2" y2="1032.3622" id="linearGradient3329" xlink:href="#linearGradient3795-5-23" gradientUnits="userSpaceOnUse" gradientTransform="translate(1056.5,0)"/><linearGradient x1="1" y1="13" x2="9" y2="29" id="linearGradient3331" xlink:href="#linearGradient3914-6-4" gradientUnits="userSpaceOnUse" gradientTransform="translate(1054.5,1018.8622)"/></defs><metadata id="metadata15824"><rdf:RDF><cc:Work rdf:about=""><dc:format>image/svg+xml</dc:format><dc:type rdf:resource="http://purl.org/dc/dcmitype/StillImage"/><dc:title/></cc:Work></rdf:RDF></metadata><g transform="translate(0,-1020.3622)" id="layer1"><g id="g16035"><rect width="32" height="10" x="0" y="1042.3622" id="rect2996-2" style="fill:url(#radialGradient3319);fill-opacity:1;stroke:none"/><g transform="matrix(0.99661105,0.0822582,-0.0822582,0.99661105,-967.23254,-84.42567)" id="g4602"><path d="m 1069.5,1047.3622 -9,-18 14,-7 9,18 z" inkscape:connector-curvature="0" id="path3903-2" style="fill:url(#linearGradient3321);fill-opacity:1;stroke:url(#linearGradient3323);stroke-width:1px;stroke-linecap:butt;stroke-linejoin:round;stroke-opacity:1"/><path d="m 1080.7153,1039.3958 -7.1048,-14.1761 -10.2418,5.0794 7.0936,14.2588 z" inkscape:connector-curvature="0" id="path3006-6" style="fill:url(#linearGradient3325);fill-opacity:1;stroke:url(#linearGradient3327);stroke-width:1px;stroke-linecap:round;stroke-linejoin:round;stroke-opacity:1"/><path d="m 1064.3049,1024.6256 4.1849,-1.9952 0.7577,2.3265 3.1737,2.2104 -6.5373,3.2265 -0.142,-3.621 z" inkscape:connector-curvature="0" id="path3905-6" style="fill:url(#linearGradient3329);fill-opacity:1;stroke:url(#linearGradient3331);stroke-width:1px;stroke-linecap:round;stroke-linejoin:round;stroke-opacity:1"/></g></g><use transform="translate(96,1.7382813e-5)" id="use15911" x="0" y="0" width="128" height="32" xlink:href="#rect2996-2"/><g transform="matrix(0.99661105,0.0822582,-0.0822582,0.99661105,-871.33254,-84.425687)" id="g4676"><path d="m 1069.5,1047.3622 -9,-18 14,-7 9,18 z" inkscape:connector-curvature="0" id="path4678" style="fill:url(#linearGradient5562);fill-opacity:1;stroke:url(#linearGradient4686);stroke-width:1px;stroke-linecap:butt;stroke-linejoin:round;stroke-opacity:1"/><path d="m 1080.7153,1039.3958 -7.1048,-14.1761 -10.2418,5.0794 7.0936,14.2588 z" inkscape:connector-curvature="0" id="path4680" style="fill:url(#linearGradient4688);fill-opacity:1;stroke:url(#linearGradient4690);stroke-width:1px;stroke-linecap:round;stroke-linejoin:round;stroke-opacity:1"/><path d="m 1064.3049,1024.6256 4.1849,-1.9952 0.7577,2.3265 3.1737,2.2104 -6.5373,3.2265 -0.142,-3.621 z" inkscape:connector-curvature="0" id="path4682" style="fill:url(#linearGradient15964);fill-opacity:1;stroke:url(#linearGradient15966);stroke-width:1px;stroke-linecap:round;stroke-linejoin:round;stroke-opacity:1"/></g><use transform="translate(32,1.7382813e-5)" id="use16042" x="0" y="0" width="128" height="32" xlink:href="#g16035"/><use transform="translate(32,0)" id="use16044" x="0" y="0" width="128" height="32" xlink:href="#use16042"/><use transform="translate(126.5,-1.7373168e-5)" id="use4638" x="0" y="0" width="3008" height="32" xlink:href="#g4602"/><use transform="translate(129.5,-1.7373168e-5)" id="use4636" x="0" y="0" width="3008" height="32" xlink:href="#g4602"/><use transform="translate(32,0)" id="use16439" x="0" y="0" width="160" height="32" xlink:href="#use15911"/><g transform="translate(-68,0)" id="g6242"><path d="m 152.5,1034.8622 2,4 2,-4 z" inkscape:connector-curvature="0" id="path3966-4-44" style="fill:#ffcc77;fill-opacity:1;stroke:#995500;stroke-width:1px;stroke-linecap:butt;stroke-linejoin:round;stroke-opacity:1"/><path d="m 152.5,1022.8622 4,0 0,12 -4,0 z" inkscape:connector-curvature="0" id="path3158-9-6-5" style="fill:#ff8800;fill-opacity:1;stroke:#995500;stroke-width:1px;stroke-linecap:round;stroke-linejoin:round;stroke-opacity:1"/></g><rect width="32" height="10" x="160" y="1042.3622" id="use4193" style="fill:url(#radialGradient11599);fill-opacity:1;fill-rule:evenodd;stroke:none"/><g transform="translate(-1344.212,-0.30001334)" id="use6093"><path d="m 1510.5627,1025.0929 c -2.7803,1.2012 -3.2664,5.0631 -2.562,6.4503 l 3.5372,-1.482 c -0.5745,-1.4152 0.1582,-5.461 2.9222,-6.6605 z" inkscape:connector-curvature="0" id="path11467" style="fill:url(#linearGradient11472);fill-opacity:1;stroke:#228811;stroke-width:1;stroke-linecap:round;stroke-linejoin:round;stroke-miterlimit:4;stroke-opacity:1;stroke-dasharray:none;stroke-dashoffset:0"/><path d="m 1517.7001,1027.3621 -3.0001,1.4001 0.6,1.1998 6.85,2.2002 3.15,-6.9998 -0.6,-1.0624 -3.1,1.4627 c -1.2,-2.6431 -4.696,-3.3356 -7.5563,-2.0584 l -3.4813,1.6517 c 2.5475,-1.2709 5.9974,-0.4263 7.1377,2.2061 z" inkscape:connector-curvature="0" id="path11469" style="fill:url(#linearGradient11474);fill-opacity:1;stroke:#228811;stroke-width:1;stroke-linecap:round;stroke-linejoin:round;stroke-miterlimit:4;stroke-opacity:1;stroke-dasharray:none;stroke-dashoffset:0"/></g><g transform="matrix(0.51691125,-0.2019099,0.2019099,0.51691125,-1284.7424,969.11755)" id="use6097" style="stroke-width:1.80197775;stroke-miterlimit:4;stroke-dasharray:none"><path d="m 2403.5,1066.8622 0,13.5 -19.5,0 0,-13.5" inkscape:connector-curvature="0" id="path11478" style="fill:url(#linearGradient11486);fill-opacity:1;stroke:url(#linearGradient11488);stroke-width:1.80197775;stroke-linecap:round;stroke-linejoin:round;stroke-miterlimit:4;stroke-opacity:1;stroke-dasharray:none"/><path d="m 2384,1066.8622 9,8 1.5,0 9,-8" inkscape:connector-curvature="0" id="path11480" style="fill:none;stroke:url(#linearGradient11490);stroke-width:1.80197775;stroke-linecap:round;stroke-linejoin:round;stroke-miterlimit:4;stroke-opacity:1;stroke-dasharray:none"/><path d="m 2384.8608,1079.5019 8.1392,-7.6397 1.5,0 8.1391,7.6397" inkscape:connector-curvature="0" id="path11482" style="fill:url(#linearGradient11492);fill-opacity:1;stroke:url(#linearGradient11494);stroke-width:1.80197775;stroke-linecap:round;stroke-linejoin:round;stroke-miterlimit:4;stroke-opacity:1;stroke-dasharray:none"/><path d="m 2384,1066.8622 8.5,-8 2,0 9,8" inkscape:connector-curvature="0" id="path11484" style="fill:#ffffff;fill-opacity:1;stroke:url(#linearGradient11496);stroke-width:1.80197775;stroke-linecap:round;stroke-linejoin:round;stroke-miterlimit:4;stroke-opacity:1;stroke-dasharray:none"/></g><g transform="matrix(0.55088615,0.04625549,-0.045469,0.56041495,-360.54,410.01242)" id="g6143"><path d="m 1069.5,1047.3622 -9,-18 14,-7 9,18 z" inkscape:connector-curvature="0" id="path6145" style="fill:url(#linearGradient4753);fill-opacity:1;stroke:url(#linearGradient4755);stroke-width:1.79365909;stroke-linecap:butt;stroke-linejoin:round;stroke-miterlimit:4;stroke-opacity:1;stroke-dasharray:none"/><path d="m 1080.7153,1039.3958 -7.1048,-14.1761 -10.2418,5.0794 7.0936,14.2588 z" inkscape:connector-curvature="0" id="path6147" style="fill:url(#linearGradient4757);fill-opacity:1;stroke:none"/><path d="m 1064.3049,1024.6256 4.1849,-1.9952 0.7577,2.3265 3.1737,2.2104 -6.5373,3.2265 -0.142,-3.621 z" inkscape:connector-curvature="0" id="path6149" style="fill:url(#linearGradient4759);fill-opacity:1;stroke:url(#linearGradient4761);stroke-width:1.79365909;stroke-linecap:round;stroke-linejoin:round;stroke-miterlimit:4;stroke-opacity:1;stroke-dasharray:none"/></g><use transform="translate(32,1.7382813e-5)" id="use3333" x="0" y="0" width="224" height="32" xlink:href="#use4193"/><use transform="translate(31.999958,0)" id="use3335" x="0" y="0" width="224" height="32" xlink:href="#use6093"/><use transform="translate(32.000308,0)" id="use3337" x="0" y="0" width="224" height="32" xlink:href="#g6143"/><use transform="translate(18.000308,0)" id="use3339" x="0" y="0" width="224" height="32" xlink:href="#g6143"/><g transform="translate(-19.999873,1.0001131)" id="g6634"><path d="m 2878.4882,12.868066 a 6.2394724,6.5106826 0 1 1 -5e-4,-0.02466" transform="matrix(1.0417505,0,0,0.99834845,-2916.168,1020.3836)" id="path6624" style="fill:#33ce00;fill-opacity:1;stroke:#2ba115;stroke-width:0.9805665;stroke-linecap:round;stroke-linejoin:round;stroke-miterlimit:4;stroke-opacity:1;stroke-dasharray:none"/><path d="m 72,1034.3621 0,-2 3.000026,0 0,-3 2,0 0,3 2.999974,0 0,2 -2.999974,0 0,3.0001 -2,0 0,-3.0001 z" inkscape:connector-curvature="0" id="path6628" style="fill:#ffffff;fill-opacity:0.94117647;stroke:none"/></g></g></svg>
