<?xml version="1.0" encoding="UTF-8" standalone="no"?>
<svg xmlns:dc="http://purl.org/dc/elements/1.1/" xmlns:cc="http://creativecommons.org/ns#" xmlns:rdf="http://www.w3.org/1999/02/22-rdf-syntax-ns#" xmlns:svg="http://www.w3.org/2000/svg" xmlns="http://www.w3.org/2000/svg" xmlns:xlink="http://www.w3.org/1999/xlink" xmlns:inkscape="http://www.inkscape.org/namespaces/inkscape" version="1.1" width="96" height="32" id="svg4721"><defs id="defs4723"><linearGradient id="linearGradient3592-1"><stop id="stop3594-7" style="stop-color:#777777;stop-opacity:0.46666667" offset="0"/><stop id="stop3596-5" style="stop-color:#777777;stop-opacity:0" offset="1"/></linearGradient><linearGradient id="linearGradient6562-4"><stop id="stop6564-1" style="stop-color:#eeeeee;stop-opacity:1" offset="0"/><stop id="stop6566-1" style="stop-color:#ffffff;stop-opacity:1" offset="1"/></linearGradient><linearGradient id="linearGradient6554-3"><stop id="stop6556-5" style="stop-color:#999999;stop-opacity:1" offset="0"/><stop id="stop6558-4" style="stop-color:#999999;stop-opacity:1" offset="1"/></linearGradient><linearGradient id="linearGradient6576-2"><stop id="stop6578-8" style="stop-color:#ff4444;stop-opacity:1" offset="0"/><stop id="stop6580-7" style="stop-color:#ff0000;stop-opacity:1" offset="1"/></linearGradient><radialGradient cx="16" cy="27" r="16" fx="16" fy="27" id="radialGradient5198-3" xlink:href="#linearGradient3592-1" gradientUnits="userSpaceOnUse" gradientTransform="matrix(1,0,0,0.3125,2688,1038.9248)"/><linearGradient x1="2" y1="31" x2="-4" y2="16" id="linearGradient5333-1" xlink:href="#linearGradient6562-4" gradientUnits="userSpaceOnUse" gradientTransform="translate(-0.5,1017.8622)"/><linearGradient x1="7" y1="29" x2="1" y2="14" id="linearGradient5335-1" xlink:href="#linearGradient6554-3" gradientUnits="userSpaceOnUse" gradientTransform="translate(-0.5,1017.8622)"/><linearGradient x1="2" y1="31" x2="-4" y2="16" id="linearGradient5337-6" xlink:href="#linearGradient6562-4" gradientUnits="userSpaceOnUse" gradientTransform="translate(-0.5,1017.8622)"/><linearGradient x1="7" y1="29" x2="1" y2="14" id="linearGradient5339-7" xlink:href="#linearGradient6554-3" gradientUnits="userSpaceOnUse" gradientTransform="translate(-0.5,1017.8622)"/><radialGradient cx="17" cy="19" r="3.5" fx="17" fy="19" id="radialGradient5341-6" xlink:href="#linearGradient6576-2" gradientUnits="userSpaceOnUse"/><radialGradient cx="16" cy="27" r="16" fx="16" fy="27" id="radialGradient3247" xlink:href="#linearGradient3592-1" gradientUnits="userSpaceOnUse" gradientTransform="matrix(1,0,0,0.3125,1888,1038.9248)"/><linearGradient x1="2" y1="31" x2="-4" y2="16" id="linearGradient3249" xlink:href="#linearGradient6562-4" gradientUnits="userSpaceOnUse" gradientTransform="translate(-0.5,1016.8622)"/><linearGradient x1="7" y1="29" x2="1" y2="14" id="linearGradient3251" xlink:href="#linearGradient6554-3" gradientUnits="userSpaceOnUse" gradientTransform="translate(-0.5,1016.8622)"/><radialGradient cx="17" cy="19" r="3.5" fx="17" fy="19" id="radialGradient3253" xlink:href="#linearGradient6576-2" gradientUnits="userSpaceOnUse"/></defs><metadata id="metadata4726"><rdf:RDF><cc:Work rdf:about=""><dc:format>image/svg+xml</dc:format><dc:type rdf:resource="http://purl.org/dc/dcmitype/StillImage"/><dc:title/></cc:Work></rdf:RDF></metadata><g transform="translate(-1888,-1020.3622)" id="g4560"><rect width="32" height="10" x="1888" y="1042.3622" id="rect4902-1-5-8-0-4" style="fill:url(#radialGradient3247);fill-opacity:1;stroke:none"/><g transform="translate(1888,1.7382813e-5)" id="g6632"><g id="g6626"><path d="m 11.5,1043.8622 -6,-15 15,-6 6,15 z" inkscape:connector-curvature="0" id="path6044" style="fill:url(#linearGradient3249);fill-opacity:1;stroke:url(#linearGradient3251);stroke-width:1px;stroke-linecap:round;stroke-linejoin:round;stroke-opacity:1"/><g id="g6622"><path d="m 9.2,1030.8622 10,-4" inkscape:connector-curvature="0" id="path6588" style="fill:none;stroke:#aaaaaa;stroke-width:1px;stroke-linecap:round;stroke-linejoin:miter;stroke-opacity:1"/><path d="m 10,1032.8622 10,-4" inkscape:connector-curvature="0" id="path6590" style="fill:none;stroke:#aaaaaa;stroke-width:1px;stroke-linecap:round;stroke-linejoin:miter;stroke-opacity:1"/></g></g><g id="g6613"><path d="m 13.3,1040.0622 0,7 1.5,-1 1.5,1 0,-8" inkscape:connector-curvature="0" id="path6584" style="fill:#e41c1c;fill-opacity:1;stroke:#881010;stroke-width:1px;stroke-linecap:butt;stroke-linejoin:round;stroke-opacity:1"/><path d="m 15.03734,1040.6702 5.472455,4.3649 0.153552,-1.7962 1.717109,-0.5492 -6.254232,-4.9884" inkscape:connector-curvature="0" id="path6586" style="fill:#e41c1c;fill-opacity:1;stroke:#881010;stroke-width:1px;stroke-linecap:butt;stroke-linejoin:round;stroke-opacity:1"/><path d="m 20,19 a 3,3 0 1 1 -6,0 3,3 0 1 1 6,0 z" inkscape:connector-curvature="0" transform="translate(-2.2,1019.5622)" id="path6572" style="fill:url(#radialGradient3253);fill-opacity:1;stroke:#881111;stroke-width:1;stroke-linecap:round;stroke-linejoin:round;stroke-miterlimit:4;stroke-opacity:1;stroke-dasharray:none"/></g></g></g><g transform="translate(-2624,-1020.3622)" id="g4443"><rect width="32" height="10" x="2688" y="1042.3622" id="rect4095" style="fill:url(#radialGradient5198-3);fill-opacity:1;stroke:none"/><g transform="translate(256,0)" id="g5234"><g transform="translate(2430.5,1.7382813e-5)" id="g4097"><g id="g4099"><path d="m 11.5,1044.8622 -6,-15 15,-6 6,15 z" inkscape:connector-curvature="0" id="path4101" style="fill:url(#linearGradient5333-1);fill-opacity:1;stroke:url(#linearGradient5335-1);stroke-width:1px;stroke-linecap:round;stroke-linejoin:round;stroke-opacity:1"/><g id="g4103"/></g><g id="g4109"><path d="m 13.3,1040.0622 0,7 1.5,-1 1.5,1 0,-8" inkscape:connector-curvature="0" id="path4111" style="fill:#e41c1c;fill-opacity:1;stroke:#881010;stroke-width:1px;stroke-linecap:butt;stroke-linejoin:round;stroke-opacity:1"/><path d="m 15.03734,1040.6702 5.472455,4.3649 0.153552,-1.7962 1.717109,-0.5492 -6.254232,-4.9884" inkscape:connector-curvature="0" id="path4113" style="fill:#e41c1c;fill-opacity:1;stroke:#881010;stroke-width:1px;stroke-linecap:butt;stroke-linejoin:round;stroke-opacity:1"/></g></g><g transform="translate(2433.5,1.7382813e-5)" id="g4235"><g id="g4237"><path d="m 11.5,1044.8622 -6,-15 15,-6 6,15 z" inkscape:connector-curvature="0" id="path4239" style="fill:url(#linearGradient5337-6);fill-opacity:1;stroke:url(#linearGradient5339-7);stroke-width:1px;stroke-linecap:round;stroke-linejoin:round;stroke-opacity:1"/><g id="g4241"><path d="m 9.2,1032.3622 10,-4" inkscape:connector-curvature="0" id="path4243" style="fill:none;stroke:#aaaaaa;stroke-width:1px;stroke-linecap:round;stroke-linejoin:miter;stroke-opacity:1"/><path d="M 10,14 20,10" inkscape:connector-curvature="0" transform="translate(0,1020.3622)" id="path4245" style="fill:none;stroke:#aaaaaa;stroke-width:1px;stroke-linecap:round;stroke-linejoin:miter;stroke-opacity:1"/></g></g><g id="g4247"><path d="m 13.3,1040.0622 0,7 1.5,-1 1.5,1 0,-8" inkscape:connector-curvature="0" id="path4249" style="fill:#e41c1c;fill-opacity:1;stroke:#881010;stroke-width:1px;stroke-linecap:butt;stroke-linejoin:round;stroke-opacity:1"/><path d="m 15.03734,1040.6702 5.472455,4.3649 0.153552,-1.7962 1.717109,-0.5492 -6.254232,-4.9884" inkscape:connector-curvature="0" id="path4251" style="fill:#e41c1c;fill-opacity:1;stroke:#881010;stroke-width:1px;stroke-linecap:butt;stroke-linejoin:round;stroke-opacity:1"/><path d="m 20,19 a 3,3 0 1 1 -6,0 3,3 0 1 1 6,0 z" inkscape:connector-curvature="0" transform="translate(-2.2,1019.5622)" id="path4253" style="fill:url(#radialGradient5341-6);fill-opacity:1;stroke:#881111;stroke-width:1;stroke-linecap:round;stroke-linejoin:round;stroke-miterlimit:4;stroke-opacity:1;stroke-dasharray:none"/></g></g></g></g><use transform="translate(32,0)" id="use5420" x="0" y="0" width="96" height="32" xlink:href="#g4560"/><g transform="translate(-19.999873,-1019.3621)" id="g6634"><path d="m 2878.4882,12.868066 a 6.2394724,6.5106826 0 1 1 -5e-4,-0.02466" transform="matrix(1.0417505,0,0,0.99834845,-2916.168,1020.3836)" id="path6624" style="fill:#33ce00;fill-opacity:1;stroke:#2ba115;stroke-width:0.9805665;stroke-linecap:round;stroke-linejoin:round;stroke-miterlimit:4;stroke-opacity:1;stroke-dasharray:none"/><path d="m 72,1034.3621 0,-2 3.000026,0 0,-3 2,0 0,3 2.999974,0 0,2 -2.999974,0 0,3.0001 -2,0 0,-3.0001 z" inkscape:connector-curvature="0" id="path6628" style="fill:#ffffff;fill-opacity:0.94117647;stroke:none"/></g></svg>
