<?xml version="1.0" encoding="UTF-8" standalone="no"?>
<svg xmlns:dc="http://purl.org/dc/elements/1.1/" xmlns:cc="http://creativecommons.org/ns#" xmlns:rdf="http://www.w3.org/1999/02/22-rdf-syntax-ns#" xmlns:svg="http://www.w3.org/2000/svg" xmlns="http://www.w3.org/2000/svg" xmlns:xlink="http://www.w3.org/1999/xlink" xmlns:inkscape="http://www.inkscape.org/namespaces/inkscape" version="1.1" width="160" height="32" id="svg11864"><defs id="defs11866"><linearGradient id="linearGradient6941"><stop id="stop6943" style="stop-color:#dddddd;stop-opacity:1" offset="0"/><stop id="stop6949" style="stop-color:#ffffff;stop-opacity:1" offset="0.5"/><stop id="stop6945" style="stop-color:#dddddd;stop-opacity:1" offset="1"/></linearGradient><linearGradient id="linearGradient3592-9-6"><stop id="stop3594-6-5" style="stop-color:#777777;stop-opacity:0.46666667" offset="0"/><stop id="stop3596-3-6" style="stop-color:#777777;stop-opacity:0" offset="1"/></linearGradient><linearGradient id="linearGradient7187-9"><stop id="stop7189-3" style="stop-color:#6aaedb;stop-opacity:1" offset="0"/><stop id="stop7191-6" style="stop-color:#499cd3;stop-opacity:1" offset="1"/></linearGradient><radialGradient cx="16" cy="27" r="16" fx="16" fy="27" id="radialGradient3160" xlink:href="#linearGradient3592-9-6" gradientUnits="userSpaceOnUse" gradientTransform="matrix(1,0,0,0.3125,95.9998,18.562617)"/><radialGradient cx="16" cy="27" r="16" fx="16" fy="27" id="radialGradient3037" xlink:href="#linearGradient3592-9-6" gradientUnits="userSpaceOnUse" gradientTransform="matrix(1,0,0,0.3125,-2.0000745e-4,18.5626)"/><linearGradient x1="10" y1="10" x2="21" y2="21" id="linearGradient3039" xlink:href="#linearGradient6941" gradientUnits="userSpaceOnUse"/><linearGradient x1="2583.688" y1="1060.6854" x2="2583.688" y2="1071.6854" id="linearGradient3041" xlink:href="#linearGradient7187-9" gradientUnits="userSpaceOnUse" gradientTransform="matrix(-0.97479889,-0.22308543,-0.22308543,0.97479889,2761.0103,-455.81806)"/><linearGradient x1="10" y1="10" x2="21" y2="21" id="linearGradient3043" xlink:href="#linearGradient6941" gradientUnits="userSpaceOnUse"/><linearGradient x1="2583.688" y1="1060.6854" x2="2583.688" y2="1071.6854" id="linearGradient3045" xlink:href="#linearGradient7187-9" gradientUnits="userSpaceOnUse" gradientTransform="matrix(-0.97479889,-0.22308543,-0.22308543,0.97479889,2761.0103,-455.81806)"/><linearGradient x1="1501" y1="5" x2="1503" y2="11" id="linearGradient3667" xlink:href="#linearGradient6008" gradientUnits="userSpaceOnUse" gradientTransform="translate(1.1345935e-4,1020.5617)"/><linearGradient id="linearGradient6008"><stop id="stop6010" style="stop-color:#2fba18;stop-opacity:1" offset="0"/><stop id="stop6120" style="stop-color:#28a114;stop-opacity:1" offset="0.5"/><stop id="stop6012" style="stop-color:#2fbb17;stop-opacity:1" offset="1"/></linearGradient><linearGradient x1="1498.8068" y1="4.2157669" x2="1504" y2="17" id="linearGradient3738" xlink:href="#linearGradient6008" gradientUnits="userSpaceOnUse" gradientTransform="translate(-3.2806452e-6,1020.5622)"/><linearGradient x1="10" y1="10" x2="21" y2="21" id="linearGradient3945" xlink:href="#linearGradient6941" gradientUnits="userSpaceOnUse"/><linearGradient x1="2583.688" y1="1060.6854" x2="2583.688" y2="1071.6854" id="linearGradient3947" xlink:href="#linearGradient7187-9" gradientUnits="userSpaceOnUse" gradientTransform="matrix(-0.97479889,-0.22308543,-0.22308543,0.97479889,2761.0103,-455.81806)"/></defs><metadata id="metadata11869"><rdf:RDF><cc:Work rdf:about=""><dc:format>image/svg+xml</dc:format><dc:type rdf:resource="http://purl.org/dc/dcmitype/StillImage"/><dc:title/></cc:Work></rdf:RDF></metadata><use transform="translate(-12.547907,1.6848633e-4)" id="use3907" x="0" y="0" width="160" height="32" xlink:href="#g3887"/><g id="g5534"><rect width="32" height="10" x="0" y="21.999983" id="use12081" style="fill:url(#radialGradient3037);fill-opacity:1;fill-rule:evenodd;stroke:none"/><g id="g5527"><path d="m 15.696364,21.191045 4.962324,-4.973317 c 0,0 0.536957,-1.90092 0.510934,-2.550868 -0.02602,-0.649949 0.07873,-0.897614 -0.356756,-1.251419 C 20.37737,12.061635 18.57336,10.798271 18.088455,10.291612 17.72482,9.911664 17.100806,9.672031 16.291012,9.642456 15.481218,9.612881 10.647617,9.0151664 9.846055,8.4594567 L 7.8454644,7.0724805 4.6825879,12.28109 c 0.2975822,0.358513 1.725963,1.203423 2.0044299,2.067414" inkscape:connector-curvature="0" id="path6951" style="fill:#e1a773;fill-opacity:1;stroke:#ba8150;stroke-width:1;stroke-linecap:round;stroke-linejoin:round;stroke-miterlimit:4;stroke-opacity:1;stroke-dasharray:none"/><path d="m 18.800542,15.361144 c 0,0 0.342053,-0.919052 -0.07904,-1.454525 -0.490786,-0.624106 -1.766422,-0.884538 -1.946846,-0.987535 -0.180423,-0.102997 -0.712134,-0.202236 -1.195978,-0.134259 -0.483587,0.06791 -2.9477,1.303773 -2.968756,1.306913 l 2.347441,2.453976" inkscape:connector-curvature="0" id="path7509" style="fill:#c98c56;fill-opacity:1;stroke:#ba8150;stroke-width:1;stroke-linecap:round;stroke-linejoin:round;stroke-miterlimit:4;stroke-opacity:1;stroke-dasharray:none"/><g transform="matrix(-0.91977702,0.39244137,0.39244137,0.91977702,27.835501,-0.03574542)" id="use7505"><rect width="16" height="10.5" ry="0.5" x="6.5" y="9.5" id="rect5547" style="fill:url(#linearGradient3039);fill-opacity:1;stroke:#999999;stroke-width:1;stroke-linecap:round;stroke-linejoin:round;stroke-miterlimit:4;stroke-opacity:1;stroke-dasharray:none;stroke-dashoffset:0.9"/><rect width="15" height="2" ry="0" x="7" y="15.799995" id="rect5549" style="fill:#000000;fill-opacity:1;stroke:none"/></g><path d="m 6.709087,14.398617 c 1.1793529,2.44075 2.75766,3.451851 6.406924,4.006954 2.209094,0.336033 5.73022,2.068779 6.67536,1.075441 0.44029,-0.462743 0.343685,-1.143242 -0.119882,-1.605507 -0.388308,-0.387219 -2.291071,-0.929713 -2.81581,-1.097666 -1.870756,-0.598773 -3.280307,-1.989365 -4.25151,-2.65511" inkscape:connector-curvature="0" id="path7463" style="fill:#e1a773;fill-opacity:1;stroke:#ba8150;stroke-width:1;stroke-linecap:round;stroke-linejoin:round;stroke-miterlimit:4;stroke-opacity:1;stroke-dasharray:none"/><path d="M 9.6808353,7.25575 4.2200409,13.187 2.4935237,11.766032 4.6128384,2.5054415 z" inkscape:connector-curvature="0" id="path11103" style="fill:url(#linearGradient3041);fill-opacity:1;stroke:#2b7eb5;stroke-width:1px;stroke-linecap:round;stroke-linejoin:round;stroke-opacity:1"/></g></g><use transform="translate(32,0)" id="use5543" x="0" y="0" width="64" height="32" xlink:href="#g5534"/><use transform="translate(64,0)" id="use3157" x="0" y="0" width="96" height="32" xlink:href="#g5534"/><g transform="translate(-68,-1020.3622)" id="g6242"><path d="m 152.5,1034.8622 2,4 2,-4 z" inkscape:connector-curvature="0" id="path3966-4-44" style="fill:#ffcc77;fill-opacity:1;stroke:#995500;stroke-width:1px;stroke-linecap:butt;stroke-linejoin:round;stroke-opacity:1"/><path d="m 152.5,1022.8622 4,0 0,12 -4,0 z" inkscape:connector-curvature="0" id="path3158-9-6-5" style="fill:#ff8800;fill-opacity:1;stroke:#995500;stroke-width:1px;stroke-linecap:round;stroke-linejoin:round;stroke-opacity:1"/></g><rect width="32" height="10" x="96" y="22" id="rect3127" style="fill:url(#radialGradient3160);fill-opacity:1;fill-rule:evenodd;stroke:none"/><g transform="translate(94.500476,1.7166138e-5)" id="g3129"><path d="m 15.696364,21.191045 4.962324,-4.973317 c 0,0 0.536957,-1.90092 0.510934,-2.550868 -0.02602,-0.649949 0.07873,-0.897614 -0.356756,-1.251419 C 20.37737,12.061635 18.57336,10.798271 18.088455,10.291612 17.72482,9.911664 17.100806,9.672031 16.291012,9.642456 15.481218,9.612881 10.647617,9.0151664 9.846055,8.4594567 L 7.8454644,7.0724805 4.6825879,12.28109 c 0.2975822,0.358513 1.725963,1.203423 2.0044299,2.067414" inkscape:connector-curvature="0" id="path3131" style="fill:#e1a773;fill-opacity:1;stroke:#ba8150;stroke-width:1;stroke-linecap:round;stroke-linejoin:round;stroke-miterlimit:4;stroke-opacity:1;stroke-dasharray:none"/><path d="m 18.800542,15.361144 c 0,0 0.342053,-0.919052 -0.07904,-1.454525 -0.490786,-0.624106 -1.766422,-0.884538 -1.946846,-0.987535 -0.180423,-0.102997 -0.712134,-0.202236 -1.195978,-0.134259 -0.483587,0.06791 -2.9477,1.303773 -2.968756,1.306913 l 2.347441,2.453976" inkscape:connector-curvature="0" id="path3133" style="fill:#c98c56;fill-opacity:1;stroke:#ba8150;stroke-width:1;stroke-linecap:round;stroke-linejoin:round;stroke-miterlimit:4;stroke-opacity:1;stroke-dasharray:none"/><g transform="matrix(-0.91977702,0.39244137,0.39244137,0.91977702,27.835501,-0.03574542)" id="g3135"><rect width="16" height="10.5" ry="0.5" x="6.5" y="9.5" id="rect3137" style="fill:url(#linearGradient3043);fill-opacity:1;stroke:#999999;stroke-width:1;stroke-linecap:round;stroke-linejoin:round;stroke-miterlimit:4;stroke-opacity:1;stroke-dasharray:none;stroke-dashoffset:0.9"/><rect width="15" height="2" ry="0" x="7" y="15.799995" id="rect3139" style="fill:#000000;fill-opacity:1;stroke:none"/></g><path d="m 6.709087,14.398617 c 1.1793529,2.44075 2.75766,3.451851 6.406924,4.006954 2.209094,0.336033 5.73022,2.068779 6.67536,1.075441 0.44029,-0.462743 0.343685,-1.143242 -0.119882,-1.605507 -0.388308,-0.387219 -2.291071,-0.929713 -2.81581,-1.097666 -1.870756,-0.598773 -3.280307,-1.989365 -4.25151,-2.65511" inkscape:connector-curvature="0" id="path3141" style="fill:#e1a773;fill-opacity:1;stroke:#ba8150;stroke-width:1;stroke-linecap:round;stroke-linejoin:round;stroke-miterlimit:4;stroke-opacity:1;stroke-dasharray:none"/><path d="M 9.6808353,7.25575 4.2200409,13.187 2.4935237,11.766032 4.6128384,2.5054415 z" inkscape:connector-curvature="0" id="path3143" style="fill:url(#linearGradient3045);fill-opacity:1;stroke:#2b7eb5;stroke-width:1px;stroke-linecap:round;stroke-linejoin:round;stroke-opacity:1"/></g><use transform="translate(3,0)" id="use3162" x="0" y="0" width="96" height="32" xlink:href="#g3129"/><use transform="translate(32,0)" id="use3047" x="0" y="0" width="160" height="32" xlink:href="#rect3127"/><g transform="translate(-1376.212,-1021.6622)" id="use4282"><path d="m 1510.5627,1025.0929 c -2.7803,1.2012 -3.2664,5.0631 -2.562,6.4503 l 3.5372,-1.482 c -0.5745,-1.4152 0.1582,-5.461 2.9222,-6.6605 z" inkscape:connector-curvature="0" id="path4737" style="fill:url(#linearGradient3667);fill-opacity:1;stroke:#228811;stroke-width:1;stroke-linecap:round;stroke-linejoin:round;stroke-miterlimit:4;stroke-opacity:1;stroke-dasharray:none;stroke-dashoffset:0"/><path d="m 1517.7001,1027.3621 -3.0001,1.4001 0.6,1.1998 6.85,2.2002 3.15,-6.9998 -0.6,-1.0624 -3.1,1.4627 c -1.2,-2.6431 -4.696,-3.3356 -7.5563,-2.0584 l -3.4813,1.6517 c 2.5475,-1.2709 5.9974,-0.4263 7.1377,2.2061 z" inkscape:connector-curvature="0" id="path4739" style="fill:url(#linearGradient3738);fill-opacity:1;stroke:#228811;stroke-width:1;stroke-linecap:round;stroke-linejoin:round;stroke-miterlimit:4;stroke-opacity:1;stroke-dasharray:none;stroke-dashoffset:0"/></g><g transform="matrix(0.55253599,0,0,0.55253599,141.45124,11.554385)" id="g3887" style="stroke-width:1.23560965;stroke-miterlimit:4;stroke-dasharray:none"><path d="m 15.696364,21.191045 4.962324,-4.973317 c 0,0 0.536957,-1.90092 0.510934,-2.550868 -0.02602,-0.649949 0.07873,-0.897614 -0.356756,-1.251419 C 20.37737,12.061635 18.57336,10.798271 18.088455,10.291612 17.72482,9.911664 17.100806,9.672031 16.291012,9.642456 15.481218,9.612881 10.647617,9.0151664 9.846055,8.4594567 L 7.8454644,7.0724805 4.6825879,12.28109 c 0.2975822,0.358513 1.725963,1.203423 2.0044299,2.067414" inkscape:connector-curvature="0" id="path3889" style="fill:#e1a773;fill-opacity:1;stroke:#ba8150;stroke-width:1.23560965;stroke-linecap:round;stroke-linejoin:round;stroke-miterlimit:4;stroke-opacity:1;stroke-dasharray:none"/><path d="m 18.800542,15.361144 c 0,0 0.342053,-0.919052 -0.07904,-1.454525 -0.490786,-0.624106 -1.766422,-0.884538 -1.946846,-0.987535 -0.180423,-0.102997 -0.712134,-0.202236 -1.195978,-0.134259 -0.483587,0.06791 -2.9477,1.303773 -2.968756,1.306913 l 2.347441,2.453976" inkscape:connector-curvature="0" id="path3891" style="fill:#c98c56;fill-opacity:1;stroke:#ba8150;stroke-width:1.23560965;stroke-linecap:round;stroke-linejoin:round;stroke-miterlimit:4;stroke-opacity:1;stroke-dasharray:none"/><g transform="matrix(-0.91977702,0.39244137,0.39244137,0.91977702,27.835501,-0.03574542)" id="g3893" style="stroke-width:1.23560965;stroke-miterlimit:4;stroke-dasharray:none"><rect width="16" height="10.5" ry="0.5" x="6.5" y="9.5" id="rect3895" style="fill:url(#linearGradient3945);fill-opacity:1;stroke:#999999;stroke-width:1.23560965;stroke-linecap:round;stroke-linejoin:round;stroke-miterlimit:4;stroke-opacity:1;stroke-dasharray:none;stroke-dashoffset:0.9"/><rect width="14.8" height="2" ry="0" x="7.1124563" y="15.831042" id="rect3897" style="fill:#000000;fill-opacity:1;stroke:none"/></g><path d="m 6.709087,14.398617 c 1.1793529,2.44075 2.75766,3.451851 6.406924,4.006954 2.209094,0.336033 5.73022,2.068779 6.67536,1.075441 0.44029,-0.462743 0.343685,-1.143242 -0.119882,-1.605507 -0.388308,-0.387219 -2.291071,-0.929713 -2.81581,-1.097666 -1.870756,-0.598773 -3.280307,-1.989365 -4.25151,-2.65511" inkscape:connector-curvature="0" id="path3899" style="fill:#e1a773;fill-opacity:1;stroke:#ba8150;stroke-width:1.23560965;stroke-linecap:round;stroke-linejoin:round;stroke-miterlimit:4;stroke-opacity:1;stroke-dasharray:none"/><path d="M 9.6808353,7.25575 4.2200409,13.187 2.4935237,11.766032 4.6128384,2.5054415 z" inkscape:connector-curvature="0" id="path3901" style="fill:url(#linearGradient3947);fill-opacity:1;stroke:#2b7eb5;stroke-width:1.23560965;stroke-linecap:round;stroke-linejoin:round;stroke-miterlimit:4;stroke-opacity:1;stroke-dasharray:none"/></g><g transform="translate(-19.999873,-1019.3621)" id="g6634"><path d="m 2878.4882,12.868066 a 6.2394724,6.5106826 0 1 1 -5e-4,-0.02466" transform="matrix(1.0417505,0,0,0.99834845,-2916.168,1020.3836)" id="path6624" style="fill:#33ce00;fill-opacity:1;stroke:#2ba115;stroke-width:0.9805665;stroke-linecap:round;stroke-linejoin:round;stroke-miterlimit:4;stroke-opacity:1;stroke-dasharray:none"/><path d="m 72,1034.3621 0,-2 3.000026,0 0,-3 2,0 0,3 2.999974,0 0,2 -2.999974,0 0,3.0001 -2,0 0,-3.0001 z" inkscape:connector-curvature="0" id="path6628" style="fill:#ffffff;fill-opacity:0.94117647;stroke:none"/></g></svg>
