<?xml version="1.0" encoding="UTF-8" standalone="no"?>
<svg xmlns:dc="http://purl.org/dc/elements/1.1/" xmlns:cc="http://creativecommons.org/ns#" xmlns:rdf="http://www.w3.org/1999/02/22-rdf-syntax-ns#" xmlns:svg="http://www.w3.org/2000/svg" xmlns="http://www.w3.org/2000/svg" xmlns:xlink="http://www.w3.org/1999/xlink" xmlns:inkscape="http://www.inkscape.org/namespaces/inkscape" version="1.1" width="96" height="32" id="svg4572"><defs id="defs4574"><linearGradient id="linearGradient3592"><stop id="stop3594" style="stop-color:#777777;stop-opacity:0.46666667" offset="0"/><stop id="stop3596" style="stop-color:#777777;stop-opacity:0" offset="1"/></linearGradient><linearGradient id="linearGradient3837-8"><stop id="stop3839-6" style="stop-color:#888888;stop-opacity:1" offset="0"/><stop id="stop3853-5" style="stop-color:#dddddd;stop-opacity:1" offset="0.5"/><stop id="stop3841-9" style="stop-color:#888888;stop-opacity:1" offset="1"/></linearGradient><linearGradient x1="6.467567" y1="11.894346" x2="22.392214" y2="5.4137378" id="linearGradient4700" xlink:href="#linearGradient3837-8" gradientUnits="userSpaceOnUse" gradientTransform="translate(-1.5516951,1019.3125)"/><linearGradient x1="13" y1="22" x2="24.593296" y2="17.041599" id="linearGradient4703" xlink:href="#linearGradient3837-8" gradientUnits="userSpaceOnUse" gradientTransform="translate(-1.1865904,1020.2709)"/><radialGradient cx="16" cy="27" r="16" fx="16" fy="27" id="radialGradient3023" xlink:href="#linearGradient3592" gradientUnits="userSpaceOnUse" gradientTransform="matrix(1,0,0,0.3125,-8.6088562e-8,1038.9247)"/><linearGradient x1="13" y1="22" x2="24.593296" y2="17.041599" id="linearGradient4684" xlink:href="#linearGradient3837-8" gradientUnits="userSpaceOnUse" gradientTransform="matrix(0.8085151,0,0,0.8085151,34.592355,1025.0323)"/></defs><metadata id="metadata4577"><rdf:RDF><cc:Work rdf:about=""><dc:format>image/svg+xml</dc:format><dc:type rdf:resource="http://purl.org/dc/dcmitype/StillImage"/><dc:title/></cc:Work></rdf:RDF></metadata><g transform="translate(0,-1020.3622)" id="layer1"><rect width="32" height="10" x="0" y="1042.3622" id="rect2987-8" style="fill:url(#radialGradient3023);fill-opacity:1;stroke:none"/><g id="g4729"><path d="m 13.81341,1047.2709 -6.4563813,-16.004 12.5098513,-5.127 6.456381,16.004 z" inkscape:connector-curvature="0" id="path3765" style="fill:url(#linearGradient4703);fill-opacity:1;stroke:#444444;stroke-width:1px;stroke-linecap:round;stroke-linejoin:round;stroke-opacity:1"/><path d="m 17.493942,1043.4535 -4.908724,-11.7758" inkscape:connector-curvature="0" id="path3769" style="fill:none;stroke:#888888;stroke-width:1px;stroke-linecap:round;stroke-linejoin:round;stroke-opacity:1"/><path d="m 23.744531,1040.8164 -4.863086,-11.6389" inkscape:connector-curvature="0" id="path3769-0" style="fill:none;stroke:#666666;stroke-width:1px;stroke-linecap:round;stroke-linejoin:round;stroke-opacity:1"/><path d="m 14.936381,1044.4675 -4.908724,-11.8671" inkscape:connector-curvature="0" id="path3769-8" style="fill:none;stroke:#666666;stroke-width:1px;stroke-linecap:round;stroke-linejoin:round;stroke-opacity:1"/><path d="m 21.462627,1041.7747 -4.77181,-11.6389" inkscape:connector-curvature="0" id="path3769-5" style="fill:none;stroke:#888888;stroke-width:1px;stroke-linecap:round;stroke-linejoin:round;stroke-opacity:1"/></g><g id="g4736"><path d="m 5.3851704,1032.1231 16.5526796,-6.7938 -0.747462,-1.7475 -9.026069,1.752 -7.4330183,5.2109 z" inkscape:connector-curvature="0" id="path3767" style="fill:url(#linearGradient4700);fill-opacity:1;stroke:#444444;stroke-width:1px;stroke-linecap:round;stroke-linejoin:round;stroke-opacity:1"/><path d="m 12.231009,1025.1847 -0.502019,-1.1866" inkscape:connector-curvature="0" id="path3879" style="fill:none;stroke:#444444;stroke-width:1px;stroke-linecap:round;stroke-linejoin:miter;stroke-opacity:1"/></g><use transform="translate(32,1.7382813e-5)" id="use4708" x="0" y="0" width="64" height="32" xlink:href="#rect2987-8"/><path d="M 46.720082,1046.8622 41.5,1033.9227 l 10.114403,-4.1452 5.220082,12.9394 z" inkscape:connector-curvature="0" id="path6038" style="fill:url(#linearGradient4684);fill-opacity:1;stroke:#444444;stroke-width:0.99999994;stroke-linecap:round;stroke-linejoin:round;stroke-miterlimit:4;stroke-opacity:1;stroke-dasharray:none"/><path d="m 41.416942,1033.9171 c -0.952005,-1.201 -1.433864,-3.1615 -0.429787,-5.2804 0.524933,-1.1078 1.210795,-1.9391 1.463962,-3.8205 0.202774,0.363 0.925682,1.6032 1.127008,1.9991 1.209239,-1.41 -0.08516,-2.0763 3.990782,-4.3191 -0.292856,2.0595 2.78485,2.4707 2.569223,5.0754 0.679207,-0.2412 0.930337,-0.6558 1.282565,-1.1001 0.09396,1.2239 1.205379,1.6244 0.211207,3.4368" inkscape:connector-curvature="0" id="path4742" style="fill:#ff7700;fill-opacity:1;stroke:#f04c1a;stroke-width:0.80000001;stroke-linecap:round;stroke-linejoin:round;stroke-miterlimit:4;stroke-opacity:1;stroke-dasharray:none"/><path d="m 49.695847,1043.7758 -3.968777,-9.5209" inkscape:connector-curvature="0" id="path6040" style="fill:none;stroke:#888888;stroke-width:0.69999999;stroke-linecap:round;stroke-linejoin:round;stroke-miterlimit:4;stroke-opacity:1;stroke-dasharray:none"/><path d="m 54.749543,1041.6436 -3.931879,-9.4102" inkscape:connector-curvature="0" id="path6042" style="fill:none;stroke:#666666;stroke-width:0.69999999;stroke-linecap:round;stroke-linejoin:round;stroke-miterlimit:4;stroke-opacity:1;stroke-dasharray:none"/><path d="m 47.628021,1044.5956 -3.968778,-9.5947" inkscape:connector-curvature="0" id="path6044" style="fill:none;stroke:#666666;stroke-width:0.69999999;stroke-linecap:round;stroke-linejoin:round;stroke-miterlimit:4;stroke-opacity:1;stroke-dasharray:none"/><path d="m 52.904589,1042.4184 -3.85808,-9.4102" inkscape:connector-curvature="0" id="path6046" style="fill:none;stroke:#888888;stroke-width:0.69999999;stroke-linecap:round;stroke-linejoin:round;stroke-miterlimit:4;stroke-opacity:1;stroke-dasharray:none"/><path d="m 44.183708,1032.9216 c -1.603651,-2.613 2.062952,-0.9487 2.187612,-5.0397 1.101775,0.4658 0.567032,1.4147 1.655704,1.9335 0.162887,-0.096 0.378318,-0.1657 0.825192,-0.7358 0.560755,1.1697 -0.30319,1.398 -0.375649,2.0929" inkscape:connector-curvature="0" id="path5512" style="fill:#ffee00;fill-opacity:1;stroke:#ffee00;stroke-width:0.5;stroke-linecap:butt;stroke-linejoin:round;stroke-miterlimit:4;stroke-opacity:1;stroke-dasharray:none"/><use transform="translate(64,1.7382813e-5)" id="use3027" x="0" y="0" width="96" height="32" xlink:href="#rect2987-8"/><path d="m 89.614705,1035.3711 c -0.295266,0.5285 -1.029388,0.7873 -1.322545,1.3638 -0.672506,-0.7842 -1.607357,-0.9418 -0.774069,-3.1544 1.14966,-3.0527 -3.845972,-7.5745 -3.566159,-6.9202 0.973153,2.2752 0.782662,4.8047 -0.81639,6.0785 -2.820953,-2.0127 0.785685,-8.3358 -7.937132,-9.8789 2.446267,2.9829 -3.364824,7.6488 -1.15625,11.8125 -0.989017,-0.3512 -1.948445,-1.5487 -2.461337,-2.1957 0.164532,2.757 -2.463003,3.4409 -2.672656,7.6036 -0.225663,4.4806 4.037608,6.9804 11.290243,6.7796 7.908885,-0.2008 12.82981,-6.4978 9.416295,-11.4888 z" inkscape:connector-curvature="0" id="path3797" style="fill:#ff7700;fill-opacity:1;stroke:#f04c1a;stroke-width:1;stroke-linecap:round;stroke-linejoin:round;stroke-miterlimit:4;stroke-opacity:1;stroke-dasharray:none"/><path d="m 84.192779,1039.4457 c -0.14907,0.4968 -3.492499,2.8738 -3.953497,-0.8278 -0.295129,-2.3697 -1.919338,-3.6971 -1.919338,-3.6971 0,0 0.745207,1.7463 0.583671,3.8673 -0.09356,1.2284 -0.738486,2.5088 -1.72411,3.0167 -0.985624,0.5079 -1.280086,-0.175 -1.930795,-1.0051 -0.816534,1.7032 1.880437,3.1645 2.02524,5.1387 1.650133,0.1222 3.050681,0.1499 4.673063,-0.075 0,0 2.659348,-5.1767 2.245766,-6.4174 z" inkscape:connector-curvature="0" id="path3799" style="fill:#ffee00;fill-opacity:1;stroke:#ffee00;stroke-width:0.69999999;stroke-linecap:butt;stroke-linejoin:round;stroke-miterlimit:4;stroke-opacity:1;stroke-dasharray:none"/><path d="m 80.214035,1044.9693 c -0.647453,0.2013 -1.637874,0.2511 -2.014813,0.1772 -0.37694,-0.074 -0.242999,1.1744 -0.242999,1.1744 0.441762,0.095 2.507458,0.043 2.840212,0.022 0,0 0.06505,-1.5749 -0.5824,-1.3736 z" inkscape:connector-curvature="0" id="path3801" style="fill:#ffffff;fill-opacity:1;stroke:none"/><path d="m 41.42266,1034.0663 10.360037,-4.2472 z" inkscape:connector-curvature="0" id="path6075" style="fill:none;stroke:#f04c1a;stroke-width:0.80000001;stroke-linecap:round;stroke-linejoin:round;stroke-miterlimit:4;stroke-opacity:1;stroke-dasharray:none"/></g></svg>
