<?xml version="1.0" encoding="UTF-8" standalone="no"?>
<!-- Created with Inkscape (http://www.inkscape.org/) -->

<svg
   xmlns:dc="http://purl.org/dc/elements/1.1/"
   xmlns:cc="http://creativecommons.org/ns#"
   xmlns:rdf="http://www.w3.org/1999/02/22-rdf-syntax-ns#"
   xmlns:svg="http://www.w3.org/2000/svg"
   xmlns="http://www.w3.org/2000/svg"
   xmlns:xlink="http://www.w3.org/1999/xlink"
   xmlns:inkscape="http://www.inkscape.org/namespaces/inkscape"
   version="1.1"
   width="160"
   height="32"
   id="svg2">
  <defs
     id="defs4">
    <linearGradient
       id="linearGradient4164">
      <stop
         id="stop4166"
         style="stop-color:#d89362;stop-opacity:1"
         offset="0" />
      <stop
         id="stop4369"
         style="stop-color:#c37f50;stop-opacity:1"
         offset="0.5" />
      <stop
         id="stop4168"
         style="stop-color:#d89362;stop-opacity:1"
         offset="1" />
    </linearGradient>
    <linearGradient
       id="linearGradient4156">
      <stop
         id="stop4160"
         style="stop-color:#ffffff;stop-opacity:1"
         offset="0" />
      <stop
         id="stop4158"
         style="stop-color:#9d9d9d;stop-opacity:1"
         offset="1" />
    </linearGradient>
    <linearGradient
       id="linearGradient3592-9">
      <stop
         id="stop3594-6"
         style="stop-color:#777777;stop-opacity:0.46666667"
         offset="0" />
      <stop
         id="stop3596-3"
         style="stop-color:#777777;stop-opacity:0"
         offset="1" />
    </linearGradient>
    <radialGradient
       cx="2873.21"
       cy="11.073713"
       r="6.2500243"
       fx="2873.21"
       fy="11.073713"
       id="radialGradient4629"
       xlink:href="#linearGradient5195-0"
       gradientUnits="userSpaceOnUse"
       gradientTransform="matrix(0.84472205,-1.3923892e-6,1.3343892e-6,0.8814524,446.14615,1.2397114)" />
    <linearGradient
       id="linearGradient5195-0">
      <stop
         id="stop5197-6"
         style="stop-color:#9bff7e;stop-opacity:1"
         offset="0" />
      <stop
         id="stop5199-2-2"
         style="stop-color:#2fba18;stop-opacity:1"
         offset="1" />
    </linearGradient>
    <radialGradient
       cx="2889"
       cy="5.5"
       r="5.5000229"
       fx="2889"
       fy="5.5"
       id="radialGradient4631"
       xlink:href="#linearGradient4073"
       gradientUnits="userSpaceOnUse" />
    <linearGradient
       id="linearGradient4073">
      <stop
         id="stop4075"
         style="stop-color:#9bff7e;stop-opacity:0"
         offset="0" />
      <stop
         id="stop4081"
         style="stop-color:#9bff7e;stop-opacity:0.22352941"
         offset="0.67647058" />
      <stop
         id="stop4077"
         style="stop-color:#9bff7e;stop-opacity:0.67716533"
         offset="1" />
    </linearGradient>
    <radialGradient
       cx="16"
       cy="27"
       r="16"
       fx="16"
       fy="27"
       id="radialGradient3025"
       xlink:href="#linearGradient3592-9"
       gradientUnits="userSpaceOnUse"
       gradientTransform="matrix(1,0,0,0.3125,-2e-4,18.5626)" />
    <linearGradient
       x1="9.1875"
       y1="35.000854"
       x2="26.625"
       y2="56.09375"
       id="linearGradient3027"
       xlink:href="#linearGradient4164"
       gradientUnits="userSpaceOnUse"
       gradientTransform="matrix(-1,0,0,1,33,0)" />
    <radialGradient
       cx="23"
       cy="48"
       r="1.3"
       fx="23"
       fy="48"
       id="radialGradient3029"
       xlink:href="#linearGradient4156"
       gradientUnits="userSpaceOnUse" />
    <linearGradient
       id="linearGradient3815">
      <stop
         id="stop3817"
         style="stop-color:#f9c7cd;stop-opacity:1"
         offset="0" />
      <stop
         id="stop3819"
         style="stop-color:#f18995;stop-opacity:1"
         offset="1" />
    </linearGradient>
    <linearGradient
       id="linearGradient4024">
      <stop
         id="stop4026"
         style="stop-color:#7c7c7c;stop-opacity:1"
         offset="0" />
      <stop
         id="stop4032"
         style="stop-color:#d0d0d0;stop-opacity:1"
         offset="0.5" />
      <stop
         id="stop4028"
         style="stop-color:#7c7c7c;stop-opacity:1"
         offset="1" />
    </linearGradient>
    <radialGradient
       cx="147.13474"
       cy="39.382381"
       r="7.5"
       fx="147.13474"
       fy="39.382381"
       id="radialGradient3102"
       xlink:href="#linearGradient3815"
       gradientUnits="userSpaceOnUse"
       gradientTransform="matrix(2.1831102,-0.7125144,0.53656697,1.6440153,-198.43346,55.280644)" />
    <linearGradient
       x1="138.91158"
       y1="4.0345407"
       x2="139.99422"
       y2="10.530419"
       id="linearGradient3104"
       xlink:href="#linearGradient4024"
       gradientUnits="userSpaceOnUse" />
  </defs>
  <metadata
     id="metadata7">
    <rdf:RDF>
      <cc:Work
         rdf:about="">
        <dc:format>image/svg+xml</dc:format>
        <dc:type
           rdf:resource="http://purl.org/dc/dcmitype/StillImage" />
        <dc:title />
      </cc:Work>
    </rdf:RDF>
  </metadata>
  <use
     transform="translate(32,0)"
     id="use3201"
     x="0"
     y="0"
     width="128"
     height="32"
     xlink:href="#g3191" />
  <use
     transform="translate(96,1.7166138e-5)"
     id="use3376"
     x="0"
     y="0"
     width="96"
     height="32"
     xlink:href="#use5780" />
  <g
     id="g3191">
    <rect
       width="32"
       height="10"
       x="0"
       y="21.999983"
       id="use5780"
       style="fill:url(#radialGradient3025);fill-opacity:1;fill-rule:evenodd;stroke:none" />
    <g
       transform="matrix(0.93358043,-0.35836795,0.35836795,0.93358043,-16.927807,-23.499903)"
       id="use4598">
      <path
         d="m 12.5,48.5 -6,0 c -1,0 -1,1 -1,1 l 0,-5 c 0,0 0,-1 1,-1 l 6,0 z"
         inkscape:connector-curvature="0"
         id="path5006"
         style="fill:#d89362;fill-opacity:1;stroke:#6e4020;stroke-width:1px;stroke-linecap:round;stroke-linejoin:round;stroke-opacity:1" />
      <path
         d="m 27.5,55.5 0,-17 c 0,0 0,-1 -1,-1 l -19,0 0,17 19,0 z"
         inkscape:connector-curvature="0"
         id="path5008"
         style="fill:#a46235;fill-opacity:1;stroke:#85512d;stroke-width:1px;stroke-linecap:round;stroke-linejoin:round;stroke-opacity:1" />
      <path
         d="m 27.5,38.5 0,17 c 0,0 0,1 -1,1 l -20,0 0,-17 20,0 c 1,0 1,-1 1,-1 z"
         inkscape:connector-curvature="0"
         id="path5010"
         style="fill:url(#linearGradient3027);fill-opacity:1;stroke:#85512d;stroke-width:1px;stroke-linecap:round;stroke-linejoin:round;stroke-opacity:1" />
      <path
         d="m 12.5,45.5 -6,0 c -1,0 -1,-1 -1,-1 l 0,5 c 0,0 0,1 1,1 l 6,0 c 1,0 1,-1 1,-1 l 0,-3 c 0,0 0,-1 -1,-1 z"
         inkscape:connector-curvature="0"
         id="path5012"
         style="fill:#d89362;fill-opacity:1;stroke:#6e4020;stroke-width:1px;stroke-linecap:round;stroke-linejoin:round;stroke-opacity:1" />
      <path
         d="m 24,48 a 1,1 0 1 1 -2,0 1,1 0 1 1 2,0 z"
         transform="matrix(-1.2692308,0,0,1.2692308,39.242308,-12.873078)"
         id="path5014"
         style="fill:url(#radialGradient3029);fill-opacity:1;stroke:#606060;stroke-width:0.60000002;stroke-linecap:round;stroke-linejoin:round;stroke-miterlimit:4;stroke-opacity:1;stroke-dasharray:none;stroke-dashoffset:0" />
      <path
         d="m 8.4,54.5 17.1,0 0,-13 -17.1,0"
         inkscape:connector-curvature="0"
         id="path5016"
         style="fill:none;stroke:#e4b596;stroke-width:1;stroke-linecap:round;stroke-linejoin:round;stroke-miterlimit:4;stroke-opacity:0.19920319;stroke-dasharray:1, 2;stroke-dashoffset:0.9" />
    </g>
  </g>
  <use
     transform="translate(94.75,0)"
     id="use4812"
     x="0"
     y="0"
     width="96"
     height="32"
     xlink:href="#use4598" />
  <use
     transform="translate(97.25,0)"
     id="use4814"
     x="0"
     y="0"
     width="96"
     height="32"
     xlink:href="#use4598" />
  <use
     transform="translate(64,0)"
     id="use3203"
     x="0"
     y="0"
     width="128"
     height="32"
     xlink:href="#g3191" />
  <g
     transform="translate(32,0)"
     id="g3205">
    <path
       d="m 52.5,14.5 2,4 2,-4 z"
       inkscape:connector-curvature="0"
       id="path3966-4-44"
       style="fill:#ffcc77;fill-opacity:1;stroke:#995500;stroke-width:1px;stroke-linecap:butt;stroke-linejoin:round;stroke-opacity:1" />
    <path
       d="m 52.5,2.5 4,0 0,12 -4,0 z"
       inkscape:connector-curvature="0"
       id="path3158-9-6-5"
       style="fill:#ff8800;fill-opacity:1;stroke:#995500;stroke-width:1px;stroke-linecap:round;stroke-linejoin:round;stroke-opacity:1" />
  </g>
  <g
     transform="translate(-2827.5,-1000.8623)"
     id="g5344">
    <path
       d="m 2877.9988,12.878415 a 5.75,6 0 1 1 -5e-4,-0.02272"
       transform="matrix(1.0417505,0,0,0.99834845,-108.66787,1000.8837)"
       id="path5322"
       style="fill:url(#radialGradient4629);fill-opacity:1;stroke:#19640c;stroke-width:1;stroke-linecap:round;stroke-linejoin:round;stroke-miterlimit:4;stroke-opacity:1;stroke-dasharray:none" />
    <path
       d="m 2894.4989,5.3885468 a 5.5,5.5 0 1 1 -5e-4,-0.020829"
       transform="translate(-5.5,1008.3622)"
       id="path5334"
       style="fill:url(#radialGradient4631);fill-opacity:1;stroke:none" />
    <path
       d="m 2880,1014.8622 0,-2 2.5,0 0,-2.5 2,0 0,2.5 2.5,0 0,2 -2.5,0 0,2.5 -2,0 0,-2.5 z"
       inkscape:connector-curvature="0"
       id="path5290"
       style="fill:#ffffff;fill-opacity:0.94117647;stroke:#19640c;stroke-width:1px;stroke-linecap:round;stroke-linejoin:round;stroke-opacity:0.25098039" />
  </g>
  <use
     transform="translate(32,0)"
     id="use3082"
     x="0"
     y="0"
     width="160"
     height="32"
     xlink:href="#use3376" />
  <path
     d="m 136.3455,10.558506 0.59414,2.861175 c -0.84867,1.111015 -1.23124,3.006035 -1.03511,4.660285 l -1.37307,0.608526 1.37048,3.437771 1.38926,-0.563404 c 0.81251,1.328631 2.23418,2.513333 4.04191,2.813008 0.90812,0.155883 1.33549,1.857793 1.64475,2.66345 l 3.26735,-1.254218 -0.45318,-1.180574 c 0.8668,-0.183418 1.38693,-0.353981 2.14407,-0.82303 l 0.45318,1.180574 3.26731,-1.254202 c -0.42653,-1.479486 -0.83206,-1.92345 -0.21846,-3.159976 1.50362,-3.030014 1.41817,-5.485104 0.6752,-7.192661 -1.68696,-3.8770453 -6.18981,-5.0189777 -10.41909,-3.3955094 -0.60787,0.2333374 -2.04675,1.0173154 -2.56578,1.3598834 z"
     inkscape:connector-curvature="0"
     id="path3975"
     style="fill:url(#radialGradient3102);fill-opacity:1;stroke:#c1646f;stroke-width:1;stroke-linecap:round;stroke-linejoin:round;stroke-miterlimit:4;stroke-opacity:1;stroke-dasharray:none;stroke-dashoffset:1.49999999" />
  <path
     d="m 151.7,11.9 c 0.9902,-1.013832 2.73235,-1.818842 1.52613,-2.4341107 -0.54782,-0.279433 -1.19494,0.6209427 -0.48335,1.0125757 0.57409,0.315956 1.71588,0.291756 2.48408,-0.07964"
     inkscape:connector-curvature="0"
     id="path3977"
     style="fill:none;stroke:#c1646f;stroke-width:0.80000001;stroke-linecap:round;stroke-linejoin:miter;stroke-miterlimit:4;stroke-opacity:1;stroke-dasharray:none" />
  <path
     d="m 174,40 a 1,1 0 1 1 -2,0 1,1 0 1 1 2,0 z"
     transform="matrix(1.0210374,-0.39193952,0.39193952,1.0210374,-53.525008,43.375617)"
     id="path3979"
     style="fill:#c1646f;fill-opacity:1;stroke:none" />
  <use
     transform="translate(1.970117,-3.2701456)"
     id="use3989"
     x="0"
     y="0"
     width="160"
     height="32"
     xlink:href="#path3987" />
  <path
     d="m 143.6875,7.3125 a 2.6875,2.6875 0 1 1 -5.375,0 2.6875,2.6875 0 1 1 5.375,0 z"
     transform="matrix(0.9236625,0,0,0.9236625,11.80829,1.5367882)"
     id="path3987"
     style="fill:#f7f7f7;fill-opacity:1;stroke:url(#linearGradient3104);stroke-width:1.08264649;stroke-linecap:round;stroke-linejoin:round;stroke-miterlimit:4;stroke-opacity:1;stroke-dasharray:none;stroke-dashoffset:1.49999999" />
  <path
     d="m 140.57834,12.767871 c 2.58125,-1.589765 4.86842,-1.504556 5.97705,-1.166197"
     inkscape:connector-curvature="0"
     id="path3981"
     style="fill:none;stroke:#c5636f;stroke-width:1;stroke-linecap:round;stroke-linejoin:round;stroke-miterlimit:4;stroke-opacity:1;stroke-dasharray:none" />
</svg>
