<?xml version="1.0" encoding="UTF-8" standalone="no"?>
<!-- Created with Inkscape (http://www.inkscape.org/) -->

<svg
   xmlns:dc="http://purl.org/dc/elements/1.1/"
   xmlns:cc="http://creativecommons.org/ns#"
   xmlns:rdf="http://www.w3.org/1999/02/22-rdf-syntax-ns#"
   xmlns:svg="http://www.w3.org/2000/svg"
   xmlns="http://www.w3.org/2000/svg"
   xmlns:xlink="http://www.w3.org/1999/xlink"
   xmlns:inkscape="http://www.inkscape.org/namespaces/inkscape"
   version="1.1"
   width="64"
   height="64"
   id="svg2">
  <metadata
     id="metadata8">
    <rdf:RDF>
      <cc:Work
         rdf:about="">
        <dc:format>image/svg+xml</dc:format>
        <dc:type
           rdf:resource="http://purl.org/dc/dcmitype/StillImage" />
        <dc:title />
      </cc:Work>
    </rdf:RDF>
  </metadata>
  <defs
     id="defs6">
    <linearGradient
       x1="25.355333"
       y1="4.1186943"
       x2="18.233046"
       y2="22.67289"
       id="linearGradient4585"
       xlink:href="#linearGradient3754"
       gradientUnits="userSpaceOnUse"
       gradientTransform="matrix(0.85454268,0,0,0.85454268,-2.2346418,3.4992458)" />
    <linearGradient
       id="linearGradient3754">
      <stop
         id="stop3756"
         style="stop-color:#ff9215;stop-opacity:1"
         offset="0" />
      <stop
         id="stop3760"
         style="stop-color:#ff8800;stop-opacity:1"
         offset="0.5" />
      <stop
         id="stop3758"
         style="stop-color:#ec7e00;stop-opacity:1"
         offset="1" />
    </linearGradient>
    <linearGradient
       x1="25.355333"
       y1="4.1186943"
       x2="18.233046"
       y2="22.67289"
       id="linearGradient3235"
       xlink:href="#linearGradient3754"
       gradientUnits="userSpaceOnUse"
       gradientTransform="matrix(0.79778432,-0.30624071,0.30624071,0.79778432,-0.83220031,4.0676514)" />
  </defs>
  <g
     transform="scale(4.0000001,4.0000001)"
     id="g4588">
    <path
       d="m 8.0000001,9.7 c 4.6349609,-6.9333334 -4.6349605,-6.9333334 0,0 m -0.7724934,0 c -3.0899736,-6.9333334 -7.72493432,0 0,0 m 1.5449864,0 c 3.0899739,-6.9333334 7.7249349,0 0,0"
       inkscape:connector-curvature="0"
       id="path3773"
       style="fill:#ffffff" />
    <rect
       width="13.672683"
       height="13.672683"
       ry="2.857502"
       x="-2.2346418"
       y="3.4992459"
       transform="matrix(0.93358043,-0.35836795,0.35836795,0.93358043,0,0)"
       id="rect3762"
       style="fill:url(#linearGradient4585);fill-opacity:1;stroke:none" />
    <path
       d="m 8.0000001,9.7 c 4.6349609,-6.9333334 -4.6349605,-6.9333334 0,0 m -0.7724934,0 c -3.0899736,-6.9333334 -7.72493432,0 0,0 m 1.5449864,0 c 3.0899739,-6.9333334 7.7249349,0 0,0"
       inkscape:connector-curvature="0"
       id="path4446"
       style="fill:#ffffff" />
    <path
       d="M 12,4 2,4 2,10 3.0625,11 14,11 14,7 z M 8,4.90025 c 1.1587402,0 2.31748,1.7208333 0,5.1875 C 5.6825197,6.6210833 6.8412598,4.90025 8,4.90025 z m -3.6875,2.125 c 0.8430287,0.093099 1.9406332,0.8958333 2.90625,3.0625 -5.3108923,0 -4.7609132,-3.2673177 -2.90625,-3.0625 z m 7.375,0 c 1.854663,-0.2048177 2.404643,3.0625 -2.90625,3.0625 0.9656168,-2.1666667 2.063221,-2.969401 2.90625,-3.0625 z"
       inkscape:connector-curvature="0"
       id="rect4453"
       style="opacity:0.3;fill:url(#linearGradient3235);fill-opacity:1;stroke:none" />
  </g>
</svg>
