<?xml version="1.0" encoding="UTF-8" standalone="no"?>
<svg xmlns:dc="http://purl.org/dc/elements/1.1/" xmlns:cc="http://creativecommons.org/ns#" xmlns:rdf="http://www.w3.org/1999/02/22-rdf-syntax-ns#" xmlns:svg="http://www.w3.org/2000/svg" xmlns="http://www.w3.org/2000/svg" xmlns:inkscape="http://www.inkscape.org/namespaces/inkscape" version="1.1" width="170" height="170" id="svg2"><defs id="defs4"/><metadata id="metadata7"><rdf:RDF><cc:Work rdf:about=""><dc:format>image/svg+xml</dc:format><dc:type rdf:resource="http://purl.org/dc/dcmitype/StillImage"/><dc:title/></cc:Work></rdf:RDF></metadata><g transform="translate(0,-882.36218)" id="layer1"><g id="g3843"><g id="g3762"><g transform="matrix(1.0240909,0,0,1.0240963,0,-25.357996)" id="g2995"><rect width="166" height="166" x="0" y="0" transform="translate(0,886.36218)" id="rect2987" style="fill:none;stroke:none"/><path d="m 0,1046.3622 c 0.44251167,-4.0701 3.0744092,-6.1149 5,-7 13.515151,-6.2121 39.295782,-18.7896 43.510362,-19.4002 7.181262,-1.0404 10.695931,-1.6547 11.489638,-2.5998 0.933208,-1.1112 1.015233,-3.491 0,-5 -6.464861,-9.609 -11.353766,-22.64879 -15,-34.30002 0,0 -1.298354,0.22788 -2,-1 -4,-7 -5,-19.7 -5,-29.7 0,-3 2.218205,-2.01589 2.464039,-3.99437 C 41.242861,937.09981 38,893.36218 83,893.36218 c 45,0 44.09604,42.15019 42.60225,50.42548 -0.31579,1.74941 2.49852,1.06666 2.39775,3.57452 -0.39728,9.88693 -0.34516,22.10193 -5,29.9 -0.38204,0.64001 -2,1 -2,1 -3.9311,12.21379 -7.81961,22.53612 -15,34.10002 -0.81589,1.314 -1.22183,2.9919 0,5 1.03345,1.6985 6.55092,3.0553 13.2389,3.6516 3.90114,0.3478 31.39639,11.5982 42.28623,16.9896 3.13096,1.5501 4.51611,5.5209 4.47487,7.3588 l 0,7 -166,0 0,-6" inkscape:connector-curvature="0" id="path3757" style="fill:#888888;fill-opacity:0.2;stroke:none"/></g></g></g></g></svg>
