<?xml version="1.0" encoding="UTF-8" standalone="no"?>
<!-- Created with Inkscape (http://www.inkscape.org/) -->

<svg
   xmlns:dc="http://purl.org/dc/elements/1.1/"
   xmlns:cc="http://creativecommons.org/ns#"
   xmlns:rdf="http://www.w3.org/1999/02/22-rdf-syntax-ns#"
   xmlns:svg="http://www.w3.org/2000/svg"
   xmlns="http://www.w3.org/2000/svg"
   xmlns:sodipodi="http://sodipodi.sourceforge.net/DTD/sodipodi-0.dtd"
   xmlns:inkscape="http://www.inkscape.org/namespaces/inkscape"
   id="svg2"
   version="1.1"
   inkscape:version="0.48.4 r9939"
   width="32"
   height="32"
   sodipodi:docname="favicon32.svg">
  <metadata
     id="metadata8">
    <rdf:RDF>
      <cc:Work
         rdf:about="">
        <dc:format>image/svg+xml</dc:format>
        <dc:type
           rdf:resource="http://purl.org/dc/dcmitype/StillImage" />
        <dc:title />
      </cc:Work>
    </rdf:RDF>
  </metadata>
  <defs
     id="defs6" />
  <sodipodi:namedview
     pagecolor="#ffffff"
     bordercolor="#666666"
     borderopacity="1"
     objecttolerance="10"
     gridtolerance="10"
     guidetolerance="10"
     inkscape:pageopacity="0"
     inkscape:pageshadow="2"
     inkscape:window-width="1366"
     inkscape:window-height="717"
     id="namedview4"
     showgrid="true"
     inkscape:snap-bbox="true"
     inkscape:snap-global="true"
     inkscape:zoom="11.313708"
     inkscape:cx="42.542999"
     inkscape:cy="9.9446648"
     inkscape:window-x="0"
     inkscape:window-y="25"
     inkscape:window-maximized="1"
     inkscape:current-layer="svg2"
     inkscape:bbox-nodes="false"
     inkscape:bbox-paths="false"
     inkscape:snap-bbox-edge-midpoints="false"
     inkscape:snap-bbox-midpoints="false"
     inkscape:object-paths="false">
    <inkscape:grid
       type="xygrid"
       id="grid2987"
       empspacing="5"
       visible="true"
       enabled="true"
       snapvisiblegridlinesonly="true" />
  </sodipodi:namedview>
  <g
     id="g3145"
     transform="matrix(1.3333333,0,0,1.3333333,-21.333333,-9.3333333)">
    <path
       sodipodi:nodetypes="csssssssc"
       id="path3092"
       d="m 16,9 0,20 c 0,1.047198 0.952802,2 2,2 l 20,0 c 1.047198,0 2,-0.952802 2,-2 L 40,9 C 40,7.9528024 39.047198,7 38,7 L 18,7 c -1.047198,0 -2,0.9528024 -2,2"
       inkscape:connector-curvature="0"
       style="fill:#ff8800" />
    <path
       inkscape:connector-curvature="0"
       d="m 22.5,16 h 11 v 3 l -7,6 h 7 v 3 h -11 v -3 l 7,-6 h -7 z M 28,15 c 6,-9 -6,-9 0,0 m -1,0 c -4,-9 -10,0 0,0 m 2,0 c 4,-9 10,0 0,0"
       id="path3096"
       style="fill:#ffffff" />
  </g>
  <path
     style="fill:#ffffff"
     id="path3098"
     d="m 40,28 c -26.666667,2.666667 -13.333333,1.333333 0,0 z"
     inkscape:connector-curvature="0"
     sodipodi:nodetypes="cc" />
</svg>
