<?xml version="1.0" encoding="UTF-8" standalone="no"?>
<svg xmlns:dc="http://purl.org/dc/elements/1.1/" xmlns:cc="http://creativecommons.org/ns#" xmlns:rdf="http://www.w3.org/1999/02/22-rdf-syntax-ns#" xmlns:svg="http://www.w3.org/2000/svg" xmlns="http://www.w3.org/2000/svg" xmlns:inkscape="http://www.inkscape.org/namespaces/inkscape" version="1.1" width="9" height="11" id="svg2"><defs id="defs4"/><metadata id="metadata7"><rdf:RDF><cc:Work rdf:about=""><dc:format>image/svg+xml</dc:format><dc:type rdf:resource="http://purl.org/dc/dcmitype/StillImage"/><dc:title/></cc:Work></rdf:RDF></metadata><g transform="translate(0,-1041.3622)" id="layer1"><path d="m 3.5,1041.8622 c -2,0 -3,0.5 -3,2.5 l 0,1.5 3,0 c 0,-1 0,-1 1,-1 1,0 1,0.1 1,0.7 0,0.6 -3,0 -3,1.3 l -2.427e-4,1.4701 C 2.5,1048.5622 2.8,1048.8622 3.0242427,1048.8622 l 3.4757573,0 c 0,-1.5 2,-0.2 2,-2.7 l -10e-8,-1.8 c 0,-2 -1,-2.5 -3,-2.5 z" inkscape:connector-curvature="0" id="path2987" style="fill:#cccccc;fill-opacity:1;stroke:#333333;stroke-linecap:round;stroke-linejoin:round;stroke-opacity:1"/><rect width="4" height="3" ry="1.1159029" x="2.500001" y="1048.8622" id="rect3003" style="fill:#cccccc;fill-opacity:1;stroke:#333333;stroke-width:1;stroke-linecap:round;stroke-linejoin:round;stroke-miterlimit:4;stroke-opacity:1;stroke-dasharray:none"/></g></svg>
