<?xml version="1.0" encoding="UTF-8" standalone="no"?>
<svg
   xmlns:dc="http://purl.org/dc/elements/1.1/"
   xmlns:cc="http://creativecommons.org/ns#"
   xmlns:rdf="http://www.w3.org/1999/02/22-rdf-syntax-ns#"
   xmlns:svg="http://www.w3.org/2000/svg"
   xmlns="http://www.w3.org/2000/svg"
   xmlns:sodipodi="http://sodipodi.sourceforge.net/DTD/sodipodi-0.dtd"
   xmlns:inkscape="http://www.inkscape.org/namespaces/inkscape"
   version="1.1"
   width="51"
   height="24"
   id="svg2991"
   inkscape:version="0.48.4 r9939"
   sodipodi:docname="zvini.svg">
  <metadata
     id="metadata3015">
    <rdf:RDF>
      <cc:Work
         rdf:about="">
        <dc:format>image/svg+xml</dc:format>
        <dc:type
           rdf:resource="http://purl.org/dc/dcmitype/StillImage" />
      </cc:Work>
    </rdf:RDF>
  </metadata>
  <defs
     id="defs3013" />
  <sodipodi:namedview
     pagecolor="#ffffff"
     bordercolor="#666666"
     borderopacity="1"
     objecttolerance="10"
     gridtolerance="10"
     guidetolerance="10"
     inkscape:pageopacity="0"
     inkscape:pageshadow="2"
     inkscape:window-width="1920"
     inkscape:window-height="1024"
     id="namedview3011"
     showgrid="true"
     inkscape:zoom="18.634343"
     inkscape:cx="20.045568"
     inkscape:cy="15.155716"
     inkscape:window-x="0"
     inkscape:window-y="27"
     inkscape:window-maximized="1"
     inkscape:current-layer="svg2991">
    <inkscape:grid
       type="xygrid"
       id="grid3048" />
  </sodipodi:namedview>
  <g
     id="g3017"
     transform="matrix(0.25,0,0,0.25,-1.25e-7,3.75e-7)">
    <g
       transform="matrix(1.5,0,0,1.5,23.999999,24)"
       id="g3302">
      <path
         style="fill:#ff8800"
         inkscape:connector-curvature="0"
         d="m -15.999999,-10.666667 0,53.333332 c 0,2.792528 2.540805,5.333334 5.333333,5.333334 l 53.333332,0 c 2.792528,0 5.333333,-2.540806 5.333333,-5.333334 l 0,-53.333332 C 47.999999,-13.459193 45.459194,-16 42.666666,-16 l -53.333332,0 c -2.792528,0 -5.333333,2.540807 -5.333333,5.333333"
         id="path3092"
         sodipodi:nodetypes="csssssssc" />
      <path
         style="fill:#ffffff"
         id="path3096"
         d="M 1.3333335,10.000001 H 30.666666 V 18 L 12,34 h 18.666666 v 8 H 1.3333335 V 34 L 20,18 H 1.3333335 z M 16,7.333334 c 15.999999,-23.999999 -15.9999998,-23.999999 0,0 m -2.666667,0 c -10.6666662,-23.999999 -26.666666,0 0,0 m 5.333333,0 c 10.666667,-23.999999 26.666666,0 0,0"
         inkscape:connector-curvature="0" />
      <path
         style="fill:#ffffff"
         id="path3098"
         d="m 40,28 c -26.666667,2.666667 -13.333333,1.333333 0,0 z"
         inkscape:connector-curvature="0"
         sodipodi:nodetypes="cc" />
    </g>
    <g
       id="g3086">
      <path
         style="fill:#ffffff"
         inkscape:connector-curvature="0"
         id="path10"
         d="m 74,59 16,28 6,0 6,0 16,-28 -14,0 -8,14 -8,-14 -14,0 z" />
      <path
         style="fill:#ffffff"
         inkscape:connector-curvature="0"
         id="path16"
         d="m 124,59 v 32 h 12 V 59 z m 6,-8 c 20,-28 -20,-28 0,0 z" />
      <path
         style="fill:#ffffff"
         inkscape:connector-curvature="0"
         id="path18"
         d="m 144,59 v 32 h 12 V 59 z m 12,20 a 8,8 0 1 1 16,0 v 12 h 12 V 75 a 16,16 0 1 0 -32,0" />
      <path
         style="fill:#ffffff"
         inkscape:connector-curvature="0"
         id="path20"
         d="m 192,59 v 32 h 12 V 59 z m 6,-8 c 20,-28 -20,-28 0,0 z" />
    </g>
  </g>
</svg>
