<?xml version="1.0" encoding="UTF-8" standalone="no"?>
<!-- Created with Inkscape (http://www.inkscape.org/) -->

<svg
   xmlns:dc="http://purl.org/dc/elements/1.1/"
   xmlns:cc="http://creativecommons.org/ns#"
   xmlns:rdf="http://www.w3.org/1999/02/22-rdf-syntax-ns#"
   xmlns:svg="http://www.w3.org/2000/svg"
   xmlns="http://www.w3.org/2000/svg"
   xmlns:inkscape="http://www.inkscape.org/namespaces/inkscape"
   version="1.1"
   width="68"
   height="32"
   id="svg2991">
  <metadata
     id="metadata3015">
    <rdf:RDF>
      <cc:Work
         rdf:about="">
        <dc:format>image/svg+xml</dc:format>
        <dc:type
           rdf:resource="http://purl.org/dc/dcmitype/StillImage" />
      </cc:Work>
    </rdf:RDF>
  </metadata>
  <defs
     id="defs3013" />
  <path
     d="M 0,2.666667 V 29.333333 A 2.6666666,2.6666666 0 0 0 2.6666666,32 H 29.333333 a 2.6666666,2.6666666 0 0 0 2.666666,-2.666667 V 2.666667 A 2.6666666,2.6666666 0 0 0 29.333333,4e-7 H 2.6666666 A 2.6666666,2.6666666 0 0 0 0,2.666667"
     inkscape:connector-curvature="0"
     id="path3031"
     style="fill:#ff8800;fill-opacity:1" />
  <g
     transform="translate(6.3114078e-5,0)"
     id="g3871">
    <path
       d="M 8.6666665,12 H 23.333333 v 4 L 14,24 h 9.333333 v 4 H 8.6666665 V 24 L 18,16 H 8.6666665 z M 16,10.666667 c 7.999999,-12 -8.0000002,-12 0,0 m -1.333334,0 c -5.3333328,-12 -13.3333327,0 0,0 m 2.666667,0 c 5.333333,-12 13.333333,0 0,0"
       inkscape:connector-curvature="0"
       id="path3035"
       style="fill:#ffffff" />
    <path
       d="M 24.65625,17.989584 30,28 l 4,0 5.34375,-10.010416 -4.6875,0 L 32,23.34375 29.34375,17.989584 z"
       inkscape:connector-curvature="0"
       id="path3037"
       style="fill:#ffffff" />
    <path
       d="m 41.333332,18 0,10 4,0 0,-10 z m 2,-2.666666 c 6.666666,-9.3333333 -6.666667,-9.3333333 0,0 z"
       inkscape:connector-curvature="0"
       id="path3043"
       style="fill:#ffffff" />
    <path
       d="m 47.999999,18 0,10 4,0 0,-10 z m 4,6.666667 c 0,-1.396264 1.270403,-2.666665 2.666666,-2.666665 1.396264,0 2.666667,1.270401 2.666667,2.666665 l 0,3.333333 4,0 0,-4.666666 c 0,-2.792527 -2.540807,-5.333331 -5.333333,-5.333331 -2.792527,0 -5.333333,2.540804 -5.333333,5.333331"
       inkscape:connector-curvature="0"
       id="path3045"
       style="fill:#ffffff" />
    <path
       d="m 63.999998,18 0,10 4,0 0,-10 z m 2,-2.666666 c 6.666666,-9.3333333 -6.666667,-9.3333333 0,0 z"
       inkscape:connector-curvature="0"
       id="path3047"
       style="fill:#ffffff" />
  </g>
</svg>
