<?xml version="1.0" encoding="utf-8"?>
<!DOCTYPE svg PUBLIC "-//W3C//DTD SVG 1.1//EN" "http://www.w3.org/Graphics/SVG/1.1/DTD/svg11.dtd">
<svg xmlns="http://www.w3.org/2000/svg" version="1.1" width="51" height="24">
    <path fill="#f80" d="m0 2 v 20 a2 2 0 0 0 2 2 h20 a2 2 0 0 0 2 -2 v-20 a2 2 0 0 0 -2 -2 h-20 a2 2 0 0 0 -2 2" />
    <g fill="#fff">
        <path transform="translate(6.5, 9)" d="m0 0 h11 v3 l-7 6 h7 v3 h-11 v-3 l7 -6 h-7 z m5.5 -1 c6 -9 -6 -9 0 0 m-1 0 c-4 -9 -10 0 0 0 m2 0 c4 -9 10 0 0 0" />
        <path transform="translate(18.5, 14)" d="m0 0 l4 7 h1.5 v-3.5 l-2 -3.5 z" />
    </g>
    <g fill="#fff">
        <path transform="translate(29.5, 14)" d="m0 0 l-4 7 h-1.5 v-3.5 l2 -3.5 z" />
        <path transform="translate(31, 14)" d="m0 0 v8 h3 v-8 z m1.5 -2 c5 -7 -5 -7 0 0 z" />
        <path transform="translate(36, 14)" d="m0 0 v8 h3 v-8 z m3 5 a2 2 0 0 1 4 0 v3 h3 v-4 a4 4 0 0 0 -8 0" />
        <path transform="translate(48, 14)" d="m0 0 v8 h3 v-8 z m1.5 -2 c5 -7 -5 -7 0 0 z" />
    </g>
</svg>
