<?xml version="1.0" encoding="UTF-8" standalone="no"?>
<!-- Created with Inkscape (http://www.inkscape.org/) -->

<svg
   xmlns:dc="http://purl.org/dc/elements/1.1/"
   xmlns:cc="http://creativecommons.org/ns#"
   xmlns:rdf="http://www.w3.org/1999/02/22-rdf-syntax-ns#"
   xmlns:svg="http://www.w3.org/2000/svg"
   xmlns="http://www.w3.org/2000/svg"
   xmlns:xlink="http://www.w3.org/1999/xlink"
   xmlns:sodipodi="http://sodipodi.sourceforge.net/DTD/sodipodi-0.dtd"
   xmlns:inkscape="http://www.inkscape.org/namespaces/inkscape"
   width="16"
   height="16"
   id="svg2"
   version="1.1"
   inkscape:version="0.48.5 r10040"
   sodipodi:docname="16.svg">
  <defs
     id="defs4" />
  <sodipodi:namedview
     id="base"
     pagecolor="#ffffff"
     bordercolor="#666666"
     borderopacity="1.0"
     inkscape:pageopacity="0.0"
     inkscape:pageshadow="2"
     inkscape:zoom="2"
     inkscape:cx="75.83895"
     inkscape:cy="69.768993"
     inkscape:document-units="px"
     inkscape:current-layer="layer1"
     showgrid="false"
     inkscape:snap-bbox="true"
     borderlayer="false"
     showborder="false"
     inkscape:window-width="1920"
     inkscape:window-height="1017"
     inkscape:window-x="0"
     inkscape:window-y="27"
     inkscape:window-maximized="1">
    <inkscape:grid
       type="xygrid"
       id="grid3136"
       empspacing="5"
       visible="true"
       enabled="true"
       snapvisiblegridlinesonly="true" />
  </sodipodi:namedview>
  <metadata
     id="metadata7">
    <rdf:RDF>
      <cc:Work
         rdf:about="">
        <dc:format>image/svg+xml</dc:format>
        <dc:type
           rdf:resource="http://purl.org/dc/dcmitype/StillImage" />
      </cc:Work>
    </rdf:RDF>
  </metadata>
  <g
     inkscape:label="Layer 1"
     inkscape:groupmode="layer"
     id="layer1"
     transform="translate(0,-1036.3622)">
    <path
       d="m 0,1037.6955 0,13.3334 c 0,0.6981 0.6352013,1.3333 1.3333333,1.3333 l 13.3333337,0 c 0.698132,0 1.333333,-0.6352 1.333333,-1.3333 l 0,-13.3334 c 0,-0.6981 -0.635201,-1.3333 -1.333333,-1.3333 l -13.3333337,0 C 0.6352013,1036.3622 0,1036.9974 0,1037.6955"
       inkscape:connector-curvature="0"
       id="path3092"
       style="fill:#ff8800" />
    <path
       sodipodi:type="arc"
       style="fill:none;stroke:#ffffff;stroke-width:2;stroke-linecap:round;stroke-linejoin:round;stroke-miterlimit:4;stroke-opacity:1;stroke-dasharray:none"
       id="path3138"
       sodipodi:cx="8"
       sodipodi:cy="8"
       sodipodi:rx="4"
       sodipodi:ry="4"
       d="M 12,8 A 4,4 0 1 1 4,8 4,4 0 1 1 12,8 z"
       transform="matrix(0.92103482,0.38948025,-0.38948025,0.92103482,3.7475638,1033.8781)" />
    <path
       style="fill:#ffffff;fill-opacity:1;stroke:#ffffff;stroke-width:0.5;stroke-linecap:butt;stroke-linejoin:round;stroke-miterlimit:4;stroke-opacity:1;stroke-dasharray:none"
       d="m 8.6368864,1040.2886 0.7789548,-1.8421 1.8420688,0.7789 -0.778954,1.8421 z"
       id="path3908"
       inkscape:connector-curvature="0"
       inkscape:transform-center-y="-4.6052"
       inkscape:transform-center-x="-1.9473982" />
    <use
       x="0"
       y="0"
       xlink:href="#path3908"
       id="use3910"
       transform="matrix(0.70710678,0.70710678,-0.70710678,0.70710678,740.81874,300.22976)"
       width="16"
       height="16"
       inkscape:transform-center-x="-4.6333931"
       inkscape:transform-center-y="-1.8793452" />
    <use
       x="0"
       y="0"
       xlink:href="#path3908"
       id="use3912"
       transform="matrix(0,1,-1,0,1052.3622,1036.3622)"
       width="16"
       height="16"
       inkscape:transform-center-x="-4.6052025"
       inkscape:transform-center-y="1.9473993" />
    <use
       x="0"
       y="0"
       xlink:href="#path3908"
       inkscape:transform-center-y="4.6333459"
       id="use3914"
       transform="matrix(-0.70710678,0.70710678,-0.70710678,-0.70710678,752.13247,1777.1809)"
       width="16"
       height="16"
       inkscape:transform-center-x="-1.8793679" />
    <use
       x="0"
       y="0"
       xlink:href="#path3908"
       id="use3916"
       transform="matrix(-1,0,0,-1,15.999998,2088.7244)"
       width="16"
       height="16"
       inkscape:transform-center-y="4.6052044"
       inkscape:transform-center-x="1.9473997" />
    <use
       x="0"
       y="0"
       xlink:href="#path3908"
       inkscape:transform-center-y="1.8794028"
       id="use3918"
       transform="matrix(-0.70710678,-0.70710678,0.70710678,-0.70710678,-724.81876,1788.4947)"
       width="16"
       height="16"
       inkscape:transform-center-x="4.6334084" />
    <use
       x="0"
       y="0"
       xlink:href="#path3908"
       id="use3920"
       transform="matrix(0,-1,1,0,-1036.3622,1052.3622)"
       width="16"
       height="16"
       inkscape:transform-center-x="4.6052"
       inkscape:transform-center-y="-1.9473982" />
    <use
       x="0"
       y="0"
       xlink:href="#path3908"
       inkscape:transform-center-y="-4.633388"
       id="use3922"
       transform="matrix(0.70710678,-0.70710678,0.70710678,0.70710678,-736.13245,311.54346)"
       width="16"
       height="16"
       inkscape:transform-center-x="1.879353" />
  </g>
</svg>
