<?xml version="1.0" encoding="UTF-8" standalone="no"?>
<svg xmlns:dc="http://purl.org/dc/elements/1.1/" xmlns:cc="http://creativecommons.org/ns#" xmlns:rdf="http://www.w3.org/1999/02/22-rdf-syntax-ns#" xmlns:svg="http://www.w3.org/2000/svg" xmlns="http://www.w3.org/2000/svg" xmlns:xlink="http://www.w3.org/1999/xlink" xmlns:inkscape="http://www.inkscape.org/namespaces/inkscape" version="1.1" width="60" height="32" id="svg2991"><metadata id="metadata3015"><rdf:RDF><cc:Work rdf:about=""><dc:format>image/svg+xml</dc:format><dc:type rdf:resource="http://purl.org/dc/dcmitype/StillImage"/></cc:Work></rdf:RDF></metadata><defs id="defs3013"><clipPath id="clipPath3768-8"><rect width="13" height="10" x="29" y="22" id="rect3770-87" style="opacity:0.37593988;fill:#982566;fill-opacity:1;stroke:none"/></clipPath><clipPath id="clipPath3786-8"><path d="m 10,16 12,0 0,16 -12,0 z" inkscape:connector-curvature="0" id="path3788-5" style="opacity:0.62781953;fill:#790f6b;fill-opacity:1;stroke:none"/></clipPath></defs><rect width="27.345366" height="27.345366" ry="5.715004" x="-4.4692831" y="6.9984918" transform="matrix(0.93358043,-0.35836794,0.35836794,0.93358043,0,0)" id="rect3762" style="fill:#ff66aa;fill-opacity:1;stroke:none"/><g transform="translate(-0.02072594,0)" id="g3165"><path d="M 16,15 C 24.5,3 7.5,3 16,15 z m -1.3,0 c -5.333294,-12 -14.2,0.5 0,0 z m 2.6,0 c 5.333294,-12 14.2,0.5 0,0 z" inkscape:connector-curvature="0" id="path3035" style="fill:#ffffff;fill-opacity:1"/><path d="m 42.000062,22 0,10 4,0 0,-10 z M 46,28.5 C 46,27 46.400062,26 48.000062,26 c 1.6,0 2,1 2,2.5 l 0,3.5 4,0 L 54,28.5 C 53.999929,24.5 51.5,22 48.000062,22 44.5,22 42,24.5 42,28.5" inkscape:connector-curvature="0" id="path3045" style="fill:#ffffff;fill-opacity:1"/><path d="m 56.000062,22 0,10 4,0 0,-10 z M 58,20.3 c 7,-9.8 -7,-9.8 0,0 z" inkscape:connector-curvature="0" id="path3047" style="fill:#ffffff;fill-opacity:1"/><use transform="translate(-20.000001,0)" id="use3762" style="fill:#ffffff;fill-opacity:1" x="0" y="0" width="68" height="32" xlink:href="#path3047"/><path d="M 40,20.5 35.5,33.6 31,20.5" inkscape:connector-curvature="0" transform="translate(-7,0)" clip-path="url(#clipPath3768-8)" id="path3764" style="fill:none;stroke:#ffffff;stroke-width:4;stroke-linecap:butt;stroke-linejoin:miter;stroke-miterlimit:4;stroke-opacity:1;stroke-dasharray:none"/><path d="M 22,30 11,30 21,18 10,18" inkscape:connector-curvature="0" clip-path="url(#clipPath3786-8)" id="path3776" style="fill:none;stroke:#ffffff;stroke-width:4;stroke-linecap:butt;stroke-linejoin:miter;stroke-miterlimit:4;stroke-opacity:1;stroke-dasharray:none"/></g></svg>
