<?xml version="1.0" encoding="UTF-8" standalone="no"?>
<!-- Created with Inkscape (http://www.inkscape.org/) -->

<svg
   xmlns:dc="http://purl.org/dc/elements/1.1/"
   xmlns:cc="http://creativecommons.org/ns#"
   xmlns:rdf="http://www.w3.org/1999/02/22-rdf-syntax-ns#"
   xmlns:svg="http://www.w3.org/2000/svg"
   xmlns="http://www.w3.org/2000/svg"
   xmlns:sodipodi="http://sodipodi.sourceforge.net/DTD/sodipodi-0.dtd"
   xmlns:inkscape="http://www.inkscape.org/namespaces/inkscape"
   width="164"
   height="164"
   id="svg2"
   version="1.1"
   inkscape:version="0.48.5 r10040"
   sodipodi:docname="empty-photo.svg">
  <defs
     id="defs4" />
  <sodipodi:namedview
     id="base"
     pagecolor="#ffffff"
     bordercolor="#666666"
     borderopacity="1.0"
     inkscape:pageopacity="0.0"
     inkscape:pageshadow="2"
     inkscape:zoom="2"
     inkscape:cx="237.13342"
     inkscape:cy="32.672957"
     inkscape:document-units="px"
     inkscape:current-layer="g3762"
     showgrid="true"
     showborder="false"
     inkscape:snap-global="false"
     inkscape:window-width="1920"
     inkscape:window-height="1017"
     inkscape:window-x="0"
     inkscape:window-y="27"
     inkscape:window-maximized="1">
    <inkscape:grid
       type="xygrid"
       id="grid2985"
       empspacing="5"
       visible="true"
       enabled="true"
       snapvisiblegridlinesonly="true" />
  </sodipodi:namedview>
  <metadata
     id="metadata7">
    <rdf:RDF>
      <cc:Work
         rdf:about="">
        <dc:format>image/svg+xml</dc:format>
        <dc:type
           rdf:resource="http://purl.org/dc/dcmitype/StillImage" />
        <dc:title />
      </cc:Work>
    </rdf:RDF>
  </metadata>
  <g
     inkscape:label="Layer 1"
     inkscape:groupmode="layer"
     id="layer1"
     transform="translate(0,-888.36218)">
    <g
       id="g3843">
      <g
         id="g3762">
        <g
           id="g2995"
           transform="matrix(0.98794649,0,0,0.98795169,0,12.679188)">
          <rect
             transform="translate(0,886.36218)"
             y="0"
             x="0"
             height="166"
             width="166"
             id="rect2987"
             style="fill:#ffffff;fill-opacity:1;fill-rule:evenodd;stroke:none" />
          <path
             sodipodi:nodetypes="csssscssszssscsssscccc"
             inkscape:connector-curvature="0"
             id="path3757"
             d="m 0,1046.3622 c 0.44251167,-4.0701 3.0744092,-6.1149 5,-7 13.515151,-6.2121 39.295782,-18.7896 43.510362,-19.4002 7.181262,-1.0404 10.695931,-1.6547 11.489638,-2.5998 0.933208,-1.1112 1.015233,-3.491 0,-5 -6.464861,-9.609 -11.353766,-22.64879 -15,-34.30002 0,0 -1.298354,0.22788 -2,-1 -4,-7 -5,-19.7 -5,-29.7 0,-3 2.218205,-2.01589 2.464039,-3.99437 C 41.242861,937.09981 38,893.36218 83,893.36218 c 45,0 44.09604,42.15019 42.60225,50.42548 -0.31579,1.74941 2.49852,1.06666 2.39775,3.57452 -0.39728,9.88693 -0.34516,22.10193 -5,29.9 -0.38204,0.64001 -2,1 -2,1 -3.9311,12.21379 -7.81961,22.53612 -15,34.10002 -0.81589,1.314 -1.22183,2.9919 0,5 1.03345,1.6985 6.55092,3.0553 13.2389,3.6516 3.90114,0.3478 31.39639,11.5982 42.28623,16.9896 3.13096,1.5501 4.51611,5.5209 4.47487,7.3588 l 0,7 -166,0 0,-6"
             style="fill:#eeeeee;fill-opacity:1;stroke:none" />
        </g>
      </g>
    </g>
  </g>
</svg>
