<?xml version="1.0" encoding="UTF-8" standalone="no"?>
<svg
   xmlns:dc="http://purl.org/dc/elements/1.1/"
   xmlns:cc="http://creativecommons.org/ns#"
   xmlns:rdf="http://www.w3.org/1999/02/22-rdf-syntax-ns#"
   xmlns:svg="http://www.w3.org/2000/svg"
   xmlns="http://www.w3.org/2000/svg"
   xmlns:sodipodi="http://sodipodi.sourceforge.net/DTD/sodipodi-0.dtd"
   xmlns:inkscape="http://www.inkscape.org/namespaces/inkscape"
   version="1.1"
   width="204"
   height="96"
   id="svg2"
   inkscape:version="0.48.5 r10040"
   sodipodi:docname="zvini-large.svg">
  <metadata
     id="metadata26">
    <rdf:RDF>
      <cc:Work
         rdf:about="">
        <dc:format>image/svg+xml</dc:format>
        <dc:type
           rdf:resource="http://purl.org/dc/dcmitype/StillImage" />
        <dc:title />
      </cc:Work>
    </rdf:RDF>
  </metadata>
  <defs
     id="defs24" />
  <sodipodi:namedview
     pagecolor="#ffffff"
     bordercolor="#666666"
     borderopacity="1"
     objecttolerance="10"
     gridtolerance="10"
     guidetolerance="10"
     inkscape:pageopacity="0"
     inkscape:pageshadow="2"
     inkscape:window-width="1920"
     inkscape:window-height="1044"
     id="namedview22"
     showgrid="true"
     inkscape:zoom="5.6568543"
     inkscape:cx="116.23571"
     inkscape:cy="42.591384"
     inkscape:window-x="1920"
     inkscape:window-y="0"
     inkscape:window-maximized="1"
     inkscape:current-layer="svg2"
     inkscape:snap-bbox="true">
    <inkscape:grid
       type="xygrid"
       id="grid3016"
       empspacing="5"
       visible="true"
       enabled="true"
       snapvisiblegridlinesonly="true" />
  </sodipodi:namedview>
  <path
     d="M 0,7.9999974 V 87.999998 a 8.0000001,8.0000001 0 0 0 8.0000001,8.000001 H 88.000002 A 8.0000001,8.0000001 0 0 0 96,87.999998 V 7.9999974 A 8.0000001,8.0000001 0 0 0 88.000002,-2.6400001e-6 H 8.0000001 A 8.0000001,8.0000001 0 0 0 0,7.9999974"
     id="path3031"
     style="fill:#ff8800;fill-opacity:1"
     inkscape:connector-curvature="0" />
  <g
     transform="matrix(3.0000001,0,0,3.0000001,1.8934224e-4,2.9999972)"
     id="g3871">
    <path
       d="M 8.6666665,12 H 23.333333 v 4 L 14,24 h 9.333333 v 4 H 8.6666665 V 24 L 18,16 H 8.6666665 z M 16,10.666667 c 7.999999,-12 -8.0000002,-12 0,0 m -1.333334,0 c -5.3333328,-12 -13.3333327,0 0,0 m 2.666667,0 c 5.333333,-12 13.333333,0 0,0"
       id="path3035"
       inkscape:connector-curvature="0"
       style="fill:#ffffff" />
    <path
       sodipodi:nodetypes="cccccccc"
       inkscape:connector-curvature="0"
       id="path3037"
       d="M 24.65625,17.989584 30,28 l 4,0 5.34375,-10.010416 -4.6875,0 L 32,23.34375 29.34375,17.989584 z"
       style="fill:#ffffff" />
    <path
       sodipodi:nodetypes="ccccccc"
       d="m 41.333332,18 0,10 4,0 0,-10 z m 2,-2.666666 c 6.666666,-9.3333333 -6.666667,-9.3333333 0,0 z"
       id="path3043"
       inkscape:connector-curvature="0"
       style="fill:#ffffff" />
    <path
       sodipodi:nodetypes="ccccccssccssc"
       d="m 47.999999,18 0,10 4,0 0,-10 z m 4,6.666667 c 0,-1.396264 1.270403,-2.666665 2.666666,-2.666665 1.396264,0 2.666667,1.270401 2.666667,2.666665 l 0,3.333333 4,0 0,-4.666666 c 0,-2.792527 -2.540807,-5.333331 -5.333333,-5.333331 -2.792527,0 -5.333333,2.540804 -5.333333,5.333331"
       id="path3045"
       inkscape:connector-curvature="0"
       style="fill:#ffffff" />
    <path
       sodipodi:nodetypes="ccccccc"
       d="m 63.999998,18 0,10 4,0 0,-10 z m 2,-2.666666 c 6.666666,-9.3333333 -6.666667,-9.3333333 0,0 z"
       id="path3047"
       inkscape:connector-curvature="0"
       style="fill:#ffffff" />
  </g>
</svg>
