<?xml version="1.0" encoding="UTF-8" standalone="no"?>
<!-- Created with Inkscape (http://www.inkscape.org/) -->

<svg
   xmlns:dc="http://purl.org/dc/elements/1.1/"
   xmlns:cc="http://creativecommons.org/ns#"
   xmlns:rdf="http://www.w3.org/1999/02/22-rdf-syntax-ns#"
   xmlns:svg="http://www.w3.org/2000/svg"
   xmlns="http://www.w3.org/2000/svg"
   xmlns:xlink="http://www.w3.org/1999/xlink"
   xmlns:sodipodi="http://sodipodi.sourceforge.net/DTD/sodipodi-0.dtd"
   xmlns:inkscape="http://www.inkscape.org/namespaces/inkscape"
   width="128"
   height="32"
   id="svg2"
   version="1.1"
   inkscape:version="0.48.5 r10040"
   sodipodi:docname="point.svg">
  <defs
     id="defs4">
    <linearGradient
       id="linearGradient4424">
      <stop
         style="stop-color:#ff7b69;stop-opacity:1;"
         offset="0"
         id="stop4426" />
      <stop
         style="stop-color:#ff381d;stop-opacity:1;"
         offset="1"
         id="stop4428" />
    </linearGradient>
    <linearGradient
       id="linearGradient3592-9">
      <stop
         id="stop3594-6"
         offset="0"
         style="stop-color:#777777;stop-opacity:0.46666667;" />
      <stop
         id="stop3596-3"
         offset="1"
         style="stop-color:#777777;stop-opacity:0;" />
    </linearGradient>
    <radialGradient
       inkscape:collect="always"
       xlink:href="#linearGradient3592-9"
       id="radialGradient4598"
       gradientUnits="userSpaceOnUse"
       gradientTransform="matrix(1,0,0,0.3125,-2.0009189e-4,1038.9246)"
       cx="16"
       cy="27"
       fx="16"
       fy="27"
       r="16" />
    <radialGradient
       inkscape:collect="always"
       xlink:href="#linearGradient4424"
       id="radialGradient4684"
       gradientUnits="userSpaceOnUse"
       cx="12.42327"
       cy="10.690011"
       fx="12.42327"
       fy="10.690011"
       r="3.6738281" />
    <radialGradient
       inkscape:collect="always"
       xlink:href="#linearGradient3592-9"
       id="radialGradient4704"
       gradientUnits="userSpaceOnUse"
       gradientTransform="matrix(1,0,0,0.3125,95.9998,1038.9246)"
       cx="16"
       cy="27"
       fx="16"
       fy="27"
       r="16" />
    <radialGradient
       inkscape:collect="always"
       xlink:href="#linearGradient4424"
       id="radialGradient4719"
       gradientUnits="userSpaceOnUse"
       cx="12.42327"
       cy="10.690011"
       fx="12.42327"
       fy="10.690011"
       r="3.6738281" />
    <radialGradient
       inkscape:collect="always"
       xlink:href="#linearGradient4424"
       id="radialGradient4721"
       gradientUnits="userSpaceOnUse"
       cx="12.42327"
       cy="10.690011"
       fx="12.42327"
       fy="10.690011"
       r="3.6738281" />
  </defs>
  <sodipodi:namedview
     id="base"
     pagecolor="#ffffff"
     bordercolor="#666666"
     borderopacity="1.0"
     inkscape:pageopacity="0.0"
     inkscape:pageshadow="2"
     inkscape:zoom="4"
     inkscape:cx="36.183945"
     inkscape:cy="2.2969511"
     inkscape:document-units="px"
     inkscape:current-layer="layer1"
     showgrid="true"
     showguides="true"
     inkscape:guide-bbox="true"
     inkscape:window-width="1366"
     inkscape:window-height="705"
     inkscape:window-x="0"
     inkscape:window-y="27"
     inkscape:window-maximized="1">
    <inkscape:grid
       empspacing="5"
       visible="true"
       enabled="true"
       snapvisiblegridlinesonly="true"
       type="xygrid"
       id="grid4506" />
  </sodipodi:namedview>
  <metadata
     id="metadata7">
    <rdf:RDF>
      <cc:Work
         rdf:about="">
        <dc:format>image/svg+xml</dc:format>
        <dc:type
           rdf:resource="http://purl.org/dc/dcmitype/StillImage" />
        <dc:title />
      </cc:Work>
    </rdf:RDF>
  </metadata>
  <g
     inkscape:label="Layer 1"
     inkscape:groupmode="layer"
     id="layer1"
     transform="translate(0,-1020.3622)">
    <g
       id="g4729"
       style="opacity:0.25">
      <path
         sodipodi:type="arc"
         style="fill:#ff381d;fill-opacity:1;stroke:none"
         id="path4690"
         sodipodi:cx="16"
         sodipodi:cy="14"
         sodipodi:rx="10"
         sodipodi:ry="10"
         d="M 26,14 C 26,19.522847 21.522847,24 16,24 10.477153,24 6,19.522847 6,14 6,8.4771525 10.477153,4 16,4 21.522847,4 26,8.4771525 26,14 z"
         transform="matrix(-0.6,0,0,0.6,118.6,1025.9622)" />
      <path
         transform="matrix(-0.6,0,0,0.6,121.6,1025.9622)"
         d="M 26,14 C 26,19.522847 21.522847,24 16,24 10.477153,24 6,19.522847 6,14 6,8.4771525 10.477153,4 16,4 21.522847,4 26,8.4771525 26,14 z"
         sodipodi:ry="10"
         sodipodi:rx="10"
         sodipodi:cy="14"
         sodipodi:cx="16"
         id="path4713"
         style="fill:#ff381d;fill-opacity:1;stroke:none"
         sodipodi:type="arc" />
    </g>
    <use
       x="0"
       y="0"
       xlink:href="#g4628"
       id="use4634"
       transform="translate(32,0)"
       width="128"
       height="32" />
    <g
       id="g6242"
       transform="translate(-68,0)">
      <path
         sodipodi:nodetypes="cccc"
         inkscape:connector-curvature="0"
         id="path3966-4-44"
         d="m 152.5,1034.8622 2,4 2,-4 z"
         style="fill:#ffcc77;fill-opacity:1;stroke:#995500;stroke-width:1px;stroke-linecap:butt;stroke-linejoin:round;stroke-opacity:1" />
      <path
         sodipodi:nodetypes="ccccc"
         inkscape:connector-curvature="0"
         id="path3158-9-6-5"
         d="m 152.5,1022.8622 4,0 0,12 -4,0 z"
         style="fill:#ff8800;fill-opacity:1;stroke:#995500;stroke-width:1px;stroke-linecap:round;stroke-linejoin:round;stroke-opacity:1" />
    </g>
    <g
       id="g4628">
      <rect
         y="1042.3622"
         x="0"
         height="10"
         width="32"
         id="use5170"
         style="fill:url(#radialGradient4598);fill-opacity:1;fill-rule:evenodd;stroke:none" />
      <path
         transform="matrix(-0.6,0,0,0.6,24.1,1025.9622)"
         d="M 26,14 C 26,19.522847 21.522847,24 16,24 10.477153,24 6,19.522847 6,14 6,8.4771525 10.477153,4 16,4 21.522847,4 26,8.4771525 26,14 z"
         sodipodi:ry="10"
         sodipodi:rx="10"
         sodipodi:cy="14"
         sodipodi:cx="16"
         id="path4576"
         style="fill:#ff381d;fill-opacity:0.25098039;stroke:none"
         sodipodi:type="arc" />
      <path
         sodipodi:nodetypes="ccc"
         inkscape:connector-curvature="0"
         id="path4602"
         d="m 21.5,1041.3622 -7,-7 7,-7"
         style="fill:none;stroke:#ee1c00;stroke-width:1;stroke-linecap:round;stroke-miterlimit:4;stroke-opacity:1;stroke-dasharray:1, 2;stroke-dashoffset:2.6" />
      <path
         transform="matrix(-0.63015385,0,0,0.63015385,22.328572,1027.6257)"
         d="m 15.597098,10.690011 c 0,1.752857 -1.420971,3.173828 -3.173828,3.173828 -1.752857,0 -3.1738279,-1.420971 -3.1738279,-3.173828 0,-1.7528568 1.4209709,-3.1738281 3.1738279,-3.1738281 1.752857,0 3.173828,1.4209713 3.173828,3.1738281 z"
         sodipodi:ry="3.1738281"
         sodipodi:rx="3.1738281"
         sodipodi:cy="10.690011"
         sodipodi:cx="12.42327"
         id="path3914"
         style="fill:url(#radialGradient4684);fill-opacity:1;stroke:#ee1c00;stroke-width:1.58691406;stroke-miterlimit:4;stroke-opacity:1;stroke-dasharray:none"
         sodipodi:type="arc" />
    </g>
    <use
       x="0"
       y="0"
       xlink:href="#g4628"
       id="use4636"
       transform="translate(64,0)"
       width="128"
       height="32" />
    <rect
       y="1042.3622"
       x="96"
       height="10"
       width="32"
       id="rect4688"
       style="fill:url(#radialGradient4704);fill-opacity:1;fill-rule:evenodd;stroke:none" />
    <path
       sodipodi:nodetypes="ccc"
       inkscape:connector-curvature="0"
       id="path4692"
       d="m 116,1041.3622 -7,-7 7,-7"
       style="fill:none;stroke:#ee1c00;stroke-width:1;stroke-linecap:round;stroke-miterlimit:4;stroke-opacity:1;stroke-dasharray:1, 2;stroke-dashoffset:2.6" />
    <path
       transform="matrix(-0.63015385,0,0,0.63015385,116.82857,1027.6257)"
       d="m 15.597098,10.690011 c 0,1.752857 -1.420971,3.173828 -3.173828,3.173828 -1.752857,0 -3.1738279,-1.420971 -3.1738279,-3.173828 0,-1.7528568 1.4209709,-3.1738281 3.1738279,-3.1738281 1.752857,0 3.173828,1.4209713 3.173828,3.1738281 z"
       sodipodi:ry="3.1738281"
       sodipodi:rx="3.1738281"
       sodipodi:cy="10.690011"
       sodipodi:cx="12.42327"
       id="path4694"
       style="fill:url(#radialGradient4721);fill-opacity:1;stroke:#ee1c00;stroke-width:1.58691406;stroke-miterlimit:4;stroke-opacity:1;stroke-dasharray:none"
       sodipodi:type="arc" />
    <path
       style="fill:none;stroke:#ee1c00;stroke-width:1;stroke-linecap:round;stroke-miterlimit:4;stroke-opacity:1;stroke-dasharray:1, 2;stroke-dashoffset:2.6"
       d="m 119,1041.3622 -7,-7 7,-7"
       id="path4715"
       inkscape:connector-curvature="0"
       sodipodi:nodetypes="ccc" />
    <path
       sodipodi:type="arc"
       style="fill:url(#radialGradient4719);fill-opacity:1;stroke:#ee1c00;stroke-width:1.58691406;stroke-miterlimit:4;stroke-opacity:1;stroke-dasharray:none"
       id="path4717"
       sodipodi:cx="12.42327"
       sodipodi:cy="10.690011"
       sodipodi:rx="3.1738281"
       sodipodi:ry="3.1738281"
       d="m 15.597098,10.690011 c 0,1.752857 -1.420971,3.173828 -3.173828,3.173828 -1.752857,0 -3.1738279,-1.420971 -3.1738279,-3.173828 0,-1.7528568 1.4209709,-3.1738281 3.1738279,-3.1738281 1.752857,0 3.173828,1.4209713 3.173828,3.1738281 z"
       transform="matrix(-0.63015385,0,0,0.63015385,119.82857,1027.6257)" />
    <g
       id="g6634"
       transform="translate(-19.999873,1.0001131)">
      <path
         sodipodi:type="arc"
         style="fill:#33ce00;fill-opacity:1;stroke:#2ba115;stroke-width:0.9805665;stroke-linecap:round;stroke-linejoin:round;stroke-miterlimit:4;stroke-opacity:1;stroke-dasharray:none"
         id="path6624"
         sodipodi:cx="2872.25"
         sodipodi:cy="13"
         sodipodi:rx="6.2394724"
         sodipodi:ry="6.5106826"
         d="m 2878.4882,12.868066 c 0.07,3.595012 -2.6665,6.568415 -6.1118,6.64128 -3.4452,0.07287 -6.2948,-2.7824 -6.3646,-6.377412 -0.07,-3.5950124 2.6665,-6.5684146 6.1118,-6.6412797 3.436,-0.07267 6.2814,2.7676696 6.3641,6.3527557"
         transform="matrix(1.0417505,0,0,0.99834845,-2916.168,1020.3836)"
         sodipodi:start="6.2629197"
         sodipodi:end="12.542317"
         sodipodi:open="true" />
      <path
         style="fill:#ffffff;fill-opacity:0.94117647;stroke:none"
         d="m 72,1034.3621 0,-2 3.000026,0 0,-3 2,0 0,3 2.999974,0 0,2 -2.999974,0 0,3.0001 -2,0 0,-3.0001 z"
         id="path6628"
         inkscape:connector-curvature="0"
         sodipodi:nodetypes="ccccccccccccc" />
    </g>
  </g>
</svg>
