<?xml version="1.0" encoding="UTF-8" standalone="no"?>
<!-- Created with Inkscape (http://www.inkscape.org/) -->

<svg
   xmlns:dc="http://purl.org/dc/elements/1.1/"
   xmlns:cc="http://creativecommons.org/ns#"
   xmlns:rdf="http://www.w3.org/1999/02/22-rdf-syntax-ns#"
   xmlns:svg="http://www.w3.org/2000/svg"
   xmlns="http://www.w3.org/2000/svg"
   xmlns:xlink="http://www.w3.org/1999/xlink"
   xmlns:sodipodi="http://sodipodi.sourceforge.net/DTD/sodipodi-0.dtd"
   xmlns:inkscape="http://www.inkscape.org/namespaces/inkscape"
   version="1.1"
   width="160"
   height="32"
   id="svg11864"
   inkscape:version="0.48.5 r10040"
   sodipodi:docname="transaction.svg">
  <sodipodi:namedview
     pagecolor="#ffffff"
     bordercolor="#666666"
     borderopacity="1"
     objecttolerance="10"
     gridtolerance="10"
     guidetolerance="10"
     inkscape:pageopacity="0"
     inkscape:pageshadow="2"
     inkscape:window-width="1920"
     inkscape:window-height="1017"
     id="namedview3258"
     showgrid="false"
     inkscape:zoom="5.6568542"
     inkscape:cx="52.520185"
     inkscape:cy="41.572728"
     inkscape:window-x="0"
     inkscape:window-y="27"
     inkscape:window-maximized="1"
     inkscape:current-layer="svg11864"
     inkscape:snap-bbox="true"
     inkscape:snap-global="true"
     showborder="true">
    <inkscape:grid
       type="xygrid"
       id="grid3536"
       empspacing="5"
       visible="true"
       enabled="true"
       snapvisiblegridlinesonly="true" />
  </sodipodi:namedview>
  <defs
     id="defs11866">
    <linearGradient
       id="linearGradient6941">
      <stop
         style="stop-color:#dddddd;stop-opacity:1;"
         offset="0"
         id="stop6943" />
      <stop
         id="stop6949"
         offset="0.5"
         style="stop-color:#ffffff;stop-opacity:1;" />
      <stop
         style="stop-color:#dddddd;stop-opacity:1;"
         offset="1"
         id="stop6945" />
    </linearGradient>
    <linearGradient
       id="linearGradient3592-9-6">
      <stop
         id="stop3594-6-5"
         style="stop-color:#777777;stop-opacity:0.46666667;"
         offset="0" />
      <stop
         id="stop3596-3-6"
         style="stop-color:#777777;stop-opacity:0;"
         offset="1" />
    </linearGradient>
    <linearGradient
       id="linearGradient7187-9">
      <stop
         id="stop7189-3"
         style="stop-color:#6aaedb;stop-opacity:1"
         offset="0" />
      <stop
         id="stop7191-6"
         style="stop-color:#499cd3;stop-opacity:1"
         offset="1" />
    </linearGradient>
    <radialGradient
       cx="2873.21"
       cy="11.073713"
       r="6.2500243"
       fx="2873.21"
       fy="11.073713"
       id="radialGradient4943"
       xlink:href="#linearGradient5195-0-3"
       gradientUnits="userSpaceOnUse"
       gradientTransform="matrix(0.84472205,-1.3923892e-6,1.3343892e-6,0.8814524,446.14615,1.2397114)" />
    <linearGradient
       id="linearGradient5195-0-3">
      <stop
         id="stop5197-6-6"
         style="stop-color:#9bff7e;stop-opacity:1"
         offset="0" />
      <stop
         id="stop5199-2-2-6"
         style="stop-color:#2fba18;stop-opacity:1"
         offset="1" />
    </linearGradient>
    <radialGradient
       cx="2889"
       cy="5.5"
       r="5.5000229"
       fx="2889"
       fy="5.5"
       id="radialGradient4945"
       xlink:href="#linearGradient4073-4"
       gradientUnits="userSpaceOnUse" />
    <linearGradient
       id="linearGradient4073-4">
      <stop
         id="stop4075-1"
         style="stop-color:#9bff7e;stop-opacity:0"
         offset="0" />
      <stop
         id="stop4081-5"
         style="stop-color:#9bff7e;stop-opacity:0.22352941"
         offset="0.67647058" />
      <stop
         id="stop4077-9"
         style="stop-color:#9bff7e;stop-opacity:0.67716533"
         offset="1" />
    </linearGradient>
    <radialGradient
       inkscape:collect="always"
       xlink:href="#linearGradient3592-9-6"
       id="radialGradient3160"
       gradientUnits="userSpaceOnUse"
       gradientTransform="matrix(1,0,0,0.3125,95.9998,18.562617)"
       cx="16"
       cy="27"
       fx="16"
       fy="27"
       r="16" />
    <radialGradient
       inkscape:collect="always"
       xlink:href="#linearGradient3592-9-6"
       id="radialGradient3037"
       gradientUnits="userSpaceOnUse"
       gradientTransform="matrix(1,0,0,0.3125,-2.0000745e-4,18.5626)"
       cx="16"
       cy="27"
       fx="16"
       fy="27"
       r="16" />
    <linearGradient
       inkscape:collect="always"
       xlink:href="#linearGradient6941"
       id="linearGradient3039"
       gradientUnits="userSpaceOnUse"
       x1="10"
       y1="10"
       x2="21"
       y2="21" />
    <linearGradient
       inkscape:collect="always"
       xlink:href="#linearGradient7187-9"
       id="linearGradient3041"
       gradientUnits="userSpaceOnUse"
       gradientTransform="matrix(-0.97479889,-0.22308543,-0.22308543,0.97479889,2761.0103,-455.81806)"
       x1="2583.688"
       y1="1060.6854"
       x2="2583.688"
       y2="1071.6854" />
    <linearGradient
       inkscape:collect="always"
       xlink:href="#linearGradient6941"
       id="linearGradient3043"
       gradientUnits="userSpaceOnUse"
       x1="10"
       y1="10"
       x2="21"
       y2="21" />
    <linearGradient
       inkscape:collect="always"
       xlink:href="#linearGradient7187-9"
       id="linearGradient3045"
       gradientUnits="userSpaceOnUse"
       gradientTransform="matrix(-0.97479889,-0.22308543,-0.22308543,0.97479889,2761.0103,-455.81806)"
       x1="2583.688"
       y1="1060.6854"
       x2="2583.688"
       y2="1071.6854" />
    <linearGradient
       inkscape:collect="always"
       xlink:href="#linearGradient6008"
       id="linearGradient3667"
       gradientUnits="userSpaceOnUse"
       gradientTransform="translate(1.1345935e-4,1020.5617)"
       x1="1501"
       y1="5"
       x2="1503"
       y2="11" />
    <linearGradient
       id="linearGradient6008">
      <stop
         id="stop6010"
         style="stop-color:#2fba18;stop-opacity:1"
         offset="0" />
      <stop
         id="stop6120"
         style="stop-color:#28a114;stop-opacity:1"
         offset="0.5" />
      <stop
         id="stop6012"
         style="stop-color:#2fbb17;stop-opacity:1"
         offset="1" />
    </linearGradient>
    <linearGradient
       y2="17"
       x2="1504"
       y1="4.2157669"
       x1="1498.8068"
       gradientTransform="translate(-3.2806452e-6,1020.5622)"
       gradientUnits="userSpaceOnUse"
       id="linearGradient3738"
       xlink:href="#linearGradient6008"
       inkscape:collect="always" />
    <linearGradient
       inkscape:collect="always"
       xlink:href="#linearGradient6941"
       id="linearGradient3945"
       gradientUnits="userSpaceOnUse"
       x1="10"
       y1="10"
       x2="21"
       y2="21" />
    <linearGradient
       inkscape:collect="always"
       xlink:href="#linearGradient7187-9"
       id="linearGradient3947"
       gradientUnits="userSpaceOnUse"
       gradientTransform="matrix(-0.97479889,-0.22308543,-0.22308543,0.97479889,2761.0103,-455.81806)"
       x1="2583.688"
       y1="1060.6854"
       x2="2583.688"
       y2="1071.6854" />
  </defs>
  <metadata
     id="metadata11869">
    <rdf:RDF>
      <cc:Work
         rdf:about="">
        <dc:format>image/svg+xml</dc:format>
        <dc:type
           rdf:resource="http://purl.org/dc/dcmitype/StillImage" />
        <dc:title />
      </cc:Work>
    </rdf:RDF>
  </metadata>
  <use
     x="0"
     y="0"
     xlink:href="#g3887"
     id="use3907"
     transform="translate(-12.547907,1.6848633e-4)"
     width="160"
     height="32" />
  <g
     id="g5534">
    <rect
       style="fill:url(#radialGradient3037);fill-opacity:1;fill-rule:evenodd;stroke:none"
       id="use12081"
       y="21.999983"
       x="0"
       height="10"
       width="32" />
    <g
       id="g5527">
      <path
         style="fill:#e1a773;fill-opacity:1;stroke:#ba8150;stroke-width:1;stroke-linecap:round;stroke-linejoin:round;stroke-miterlimit:4;stroke-opacity:1;stroke-dasharray:none"
         d="m 15.696364,21.191045 4.962324,-4.973317 c 0,0 0.536957,-1.90092 0.510934,-2.550868 -0.02602,-0.649949 0.07873,-0.897614 -0.356756,-1.251419 C 20.37737,12.061635 18.57336,10.798271 18.088455,10.291612 17.72482,9.911664 17.100806,9.672031 16.291012,9.642456 15.481218,9.612881 10.647617,9.0151664 9.846055,8.4594567 L 7.8454644,7.0724805 4.6825879,12.28109 c 0.2975822,0.358513 1.725963,1.203423 2.0044299,2.067414"
         id="path6951"
         inkscape:connector-curvature="0"
         sodipodi:nodetypes="cczzszsccc" />
      <path
         style="fill:#c98c56;fill-opacity:1;stroke:#ba8150;stroke-width:1;stroke-linecap:round;stroke-linejoin:round;stroke-miterlimit:4;stroke-opacity:1;stroke-dasharray:none"
         d="m 18.800542,15.361144 c 0,0 0.342053,-0.919052 -0.07904,-1.454525 -0.490786,-0.624106 -1.766422,-0.884538 -1.946846,-0.987535 -0.180423,-0.102997 -0.712134,-0.202236 -1.195978,-0.134259 -0.483587,0.06791 -2.9477,1.303773 -2.968756,1.306913 l 2.347441,2.453976"
         id="path7509"
         inkscape:connector-curvature="0"
         sodipodi:nodetypes="cszscc" />
      <g
         transform="matrix(-0.91977702,0.39244137,0.39244137,0.91977702,27.835501,-0.03574542)"
         id="use7505">
        <rect
           style="fill:url(#linearGradient3039);fill-opacity:1;stroke:#999999;stroke-width:1;stroke-linecap:round;stroke-linejoin:round;stroke-miterlimit:4;stroke-opacity:1;stroke-dasharray:none;stroke-dashoffset:0.9"
           id="rect5547"
           width="16"
           height="10.5"
           x="6.5"
           y="9.5"
           ry="0.5" />
        <rect
           style="fill:#000000;fill-opacity:1;stroke:none"
           id="rect5549"
           width="15"
           height="2"
           x="7"
           y="15.799995"
           ry="0" />
      </g>
      <path
         inkscape:connector-curvature="0"
         id="path7463"
         d="m 6.709087,14.398617 c 1.1793529,2.44075 2.75766,3.451851 6.406924,4.006954 2.209094,0.336033 5.73022,2.068779 6.67536,1.075441 0.44029,-0.462743 0.343685,-1.143242 -0.119882,-1.605507 -0.388308,-0.387219 -2.291071,-0.929713 -2.81581,-1.097666 -1.870756,-0.598773 -3.280307,-1.989365 -4.25151,-2.65511"
         style="fill:#e1a773;fill-opacity:1;stroke:#ba8150;stroke-width:1;stroke-linecap:round;stroke-linejoin:round;stroke-miterlimit:4;stroke-opacity:1;stroke-dasharray:none"
         sodipodi:nodetypes="cssssc" />
      <path
         d="M 9.6808353,7.25575 4.2200409,13.187 2.4935237,11.766032 4.6128384,2.5054415 z"
         inkscape:connector-curvature="0"
         id="path11103"
         style="fill:url(#linearGradient3041);fill-opacity:1;stroke:#2b7eb5;stroke-width:1px;stroke-linecap:round;stroke-linejoin:round;stroke-opacity:1" />
    </g>
  </g>
  <use
     x="0"
     y="0"
     xlink:href="#g5534"
     id="use5543"
     transform="translate(32,0)"
     width="64"
     height="32" />
  <g
     id="g5344"
     transform="translate(-2827.6071,-1000.862)">
    <path
       inkscape:connector-curvature="0"
       style="fill:url(#radialGradient4943);fill-opacity:1;stroke:#19640c;stroke-width:1;stroke-linecap:round;stroke-linejoin:round;stroke-miterlimit:4;stroke-opacity:1;stroke-dasharray:none"
       id="path5322"
       transform="matrix(1.0417505,0,0,0.99834845,-108.66787,1000.8837)"
       d="m 2877.9988,12.878415 a 5.75,6 0 1 1 -5e-4,-0.02272" />
    <path
       inkscape:connector-curvature="0"
       style="fill:url(#radialGradient4945);fill-opacity:1;stroke:none"
       id="path5334"
       transform="translate(-5.5,1008.3622)"
       d="m 2894.4989,5.3885468 a 5.5,5.5 0 1 1 -5e-4,-0.020829" />
    <path
       style="fill:#ffffff;fill-opacity:0.94117647;stroke:#19640c;stroke-width:1px;stroke-linecap:round;stroke-linejoin:round;stroke-opacity:0.25098039"
       id="path5290"
       inkscape:connector-curvature="0"
       d="m 2880,1014.8622 0,-2 2.5,0 0,-2.5 2,0 0,2.5 2.5,0 0,2 -2.5,0 0,2.5 -2,0 0,-2.5 z" />
  </g>
  <use
     x="0"
     y="0"
     xlink:href="#g5534"
     id="use3157"
     transform="translate(64,0)"
     width="96"
     height="32" />
  <g
     id="g6242"
     transform="translate(-68,-1020.3622)">
    <path
       sodipodi:nodetypes="cccc"
       inkscape:connector-curvature="0"
       id="path3966-4-44"
       d="m 152.5,1034.8622 2,4 2,-4 z"
       style="fill:#ffcc77;fill-opacity:1;stroke:#995500;stroke-width:1px;stroke-linecap:butt;stroke-linejoin:round;stroke-opacity:1" />
    <path
       sodipodi:nodetypes="ccccc"
       inkscape:connector-curvature="0"
       id="path3158-9-6-5"
       d="m 152.5,1022.8622 4,0 0,12 -4,0 z"
       style="fill:#ff8800;fill-opacity:1;stroke:#995500;stroke-width:1px;stroke-linecap:round;stroke-linejoin:round;stroke-opacity:1" />
  </g>
  <rect
     style="fill:url(#radialGradient3160);fill-opacity:1;fill-rule:evenodd;stroke:none"
     id="rect3127"
     y="22"
     x="96"
     height="10"
     width="32" />
  <g
     id="g3129"
     transform="translate(94.500476,1.7166138e-5)">
    <path
       style="fill:#e1a773;fill-opacity:1;stroke:#ba8150;stroke-width:1;stroke-linecap:round;stroke-linejoin:round;stroke-miterlimit:4;stroke-opacity:1;stroke-dasharray:none"
       d="m 15.696364,21.191045 4.962324,-4.973317 c 0,0 0.536957,-1.90092 0.510934,-2.550868 -0.02602,-0.649949 0.07873,-0.897614 -0.356756,-1.251419 C 20.37737,12.061635 18.57336,10.798271 18.088455,10.291612 17.72482,9.911664 17.100806,9.672031 16.291012,9.642456 15.481218,9.612881 10.647617,9.0151664 9.846055,8.4594567 L 7.8454644,7.0724805 4.6825879,12.28109 c 0.2975822,0.358513 1.725963,1.203423 2.0044299,2.067414"
       id="path3131"
       inkscape:connector-curvature="0"
       sodipodi:nodetypes="cczzszsccc" />
    <path
       style="fill:#c98c56;fill-opacity:1;stroke:#ba8150;stroke-width:1;stroke-linecap:round;stroke-linejoin:round;stroke-miterlimit:4;stroke-opacity:1;stroke-dasharray:none"
       d="m 18.800542,15.361144 c 0,0 0.342053,-0.919052 -0.07904,-1.454525 -0.490786,-0.624106 -1.766422,-0.884538 -1.946846,-0.987535 -0.180423,-0.102997 -0.712134,-0.202236 -1.195978,-0.134259 -0.483587,0.06791 -2.9477,1.303773 -2.968756,1.306913 l 2.347441,2.453976"
       id="path3133"
       inkscape:connector-curvature="0"
       sodipodi:nodetypes="cszscc" />
    <g
       transform="matrix(-0.91977702,0.39244137,0.39244137,0.91977702,27.835501,-0.03574542)"
       id="g3135">
      <rect
         style="fill:url(#linearGradient3043);fill-opacity:1;stroke:#999999;stroke-width:1;stroke-linecap:round;stroke-linejoin:round;stroke-miterlimit:4;stroke-opacity:1;stroke-dasharray:none;stroke-dashoffset:0.9"
         id="rect3137"
         width="16"
         height="10.5"
         x="6.5"
         y="9.5"
         ry="0.5" />
      <rect
         style="fill:#000000;fill-opacity:1;stroke:none"
         id="rect3139"
         width="15"
         height="2"
         x="7"
         y="15.799995"
         ry="0" />
    </g>
    <path
       inkscape:connector-curvature="0"
       id="path3141"
       d="m 6.709087,14.398617 c 1.1793529,2.44075 2.75766,3.451851 6.406924,4.006954 2.209094,0.336033 5.73022,2.068779 6.67536,1.075441 0.44029,-0.462743 0.343685,-1.143242 -0.119882,-1.605507 -0.388308,-0.387219 -2.291071,-0.929713 -2.81581,-1.097666 -1.870756,-0.598773 -3.280307,-1.989365 -4.25151,-2.65511"
       style="fill:#e1a773;fill-opacity:1;stroke:#ba8150;stroke-width:1;stroke-linecap:round;stroke-linejoin:round;stroke-miterlimit:4;stroke-opacity:1;stroke-dasharray:none"
       sodipodi:nodetypes="cssssc" />
    <path
       d="M 9.6808353,7.25575 4.2200409,13.187 2.4935237,11.766032 4.6128384,2.5054415 z"
       inkscape:connector-curvature="0"
       id="path3143"
       style="fill:url(#linearGradient3045);fill-opacity:1;stroke:#2b7eb5;stroke-width:1px;stroke-linecap:round;stroke-linejoin:round;stroke-opacity:1" />
  </g>
  <use
     x="0"
     y="0"
     xlink:href="#g3129"
     id="use3162"
     transform="translate(3,0)"
     width="96"
     height="32" />
  <use
     x="0"
     y="0"
     xlink:href="#rect3127"
     id="use3047"
     transform="translate(32,0)"
     width="160"
     height="32" />
  <g
     id="use4282"
     transform="translate(-1376.212,-1021.6622)">
    <path
       style="fill:url(#linearGradient3667);fill-opacity:1;stroke:#228811;stroke-width:1;stroke-linecap:round;stroke-linejoin:round;stroke-miterlimit:4;stroke-opacity:1;stroke-dasharray:none;stroke-dashoffset:0"
       id="path4737"
       inkscape:connector-curvature="0"
       d="m 1510.5627,1025.0929 c -2.7803,1.2012 -3.2664,5.0631 -2.562,6.4503 l 3.5372,-1.482 c -0.5745,-1.4152 0.1582,-5.461 2.9222,-6.6605 z" />
    <path
       style="fill:url(#linearGradient3738);fill-opacity:1;stroke:#228811;stroke-width:1;stroke-linecap:round;stroke-linejoin:round;stroke-miterlimit:4;stroke-opacity:1;stroke-dasharray:none;stroke-dashoffset:0"
       id="path4739"
       inkscape:connector-curvature="0"
       d="m 1517.7001,1027.3621 -3.0001,1.4001 0.6,1.1998 6.85,2.2002 3.15,-6.9998 -0.6,-1.0624 -3.1,1.4627 c -1.2,-2.6431 -4.696,-3.3356 -7.5563,-2.0584 l -3.4813,1.6517 c 2.5475,-1.2709 5.9974,-0.4263 7.1377,2.2061 z" />
  </g>
  <g
     transform="matrix(0.55253599,0,0,0.55253599,141.45124,11.554385)"
     id="g3887"
     style="stroke-width:1.23560965;stroke-miterlimit:4;stroke-dasharray:none">
    <path
       sodipodi:nodetypes="cczzszsccc"
       inkscape:connector-curvature="0"
       id="path3889"
       d="m 15.696364,21.191045 4.962324,-4.973317 c 0,0 0.536957,-1.90092 0.510934,-2.550868 -0.02602,-0.649949 0.07873,-0.897614 -0.356756,-1.251419 C 20.37737,12.061635 18.57336,10.798271 18.088455,10.291612 17.72482,9.911664 17.100806,9.672031 16.291012,9.642456 15.481218,9.612881 10.647617,9.0151664 9.846055,8.4594567 L 7.8454644,7.0724805 4.6825879,12.28109 c 0.2975822,0.358513 1.725963,1.203423 2.0044299,2.067414"
       style="fill:#e1a773;fill-opacity:1;stroke:#ba8150;stroke-width:1.23560965;stroke-linecap:round;stroke-linejoin:round;stroke-miterlimit:4;stroke-opacity:1;stroke-dasharray:none" />
    <path
       sodipodi:nodetypes="cszscc"
       inkscape:connector-curvature="0"
       id="path3891"
       d="m 18.800542,15.361144 c 0,0 0.342053,-0.919052 -0.07904,-1.454525 -0.490786,-0.624106 -1.766422,-0.884538 -1.946846,-0.987535 -0.180423,-0.102997 -0.712134,-0.202236 -1.195978,-0.134259 -0.483587,0.06791 -2.9477,1.303773 -2.968756,1.306913 l 2.347441,2.453976"
       style="fill:#c98c56;fill-opacity:1;stroke:#ba8150;stroke-width:1.23560965;stroke-linecap:round;stroke-linejoin:round;stroke-miterlimit:4;stroke-opacity:1;stroke-dasharray:none" />
    <g
       id="g3893"
       transform="matrix(-0.91977702,0.39244137,0.39244137,0.91977702,27.835501,-0.03574542)"
       style="stroke-width:1.23560965;stroke-miterlimit:4;stroke-dasharray:none">
      <rect
         ry="0.5"
         y="9.5"
         x="6.5"
         height="10.5"
         width="16"
         id="rect3895"
         style="fill:url(#linearGradient3945);fill-opacity:1;stroke:#999999;stroke-width:1.23560965;stroke-linecap:round;stroke-linejoin:round;stroke-miterlimit:4;stroke-opacity:1;stroke-dasharray:none;stroke-dashoffset:0.9" />
      <rect
         ry="0"
         y="15.831042"
         x="7.1124563"
         height="2"
         width="14.8"
         id="rect3897"
         style="fill:#000000;fill-opacity:1;stroke:none" />
    </g>
    <path
       sodipodi:nodetypes="cssssc"
       style="fill:#e1a773;fill-opacity:1;stroke:#ba8150;stroke-width:1.23560965;stroke-linecap:round;stroke-linejoin:round;stroke-miterlimit:4;stroke-opacity:1;stroke-dasharray:none"
       d="m 6.709087,14.398617 c 1.1793529,2.44075 2.75766,3.451851 6.406924,4.006954 2.209094,0.336033 5.73022,2.068779 6.67536,1.075441 0.44029,-0.462743 0.343685,-1.143242 -0.119882,-1.605507 -0.388308,-0.387219 -2.291071,-0.929713 -2.81581,-1.097666 -1.870756,-0.598773 -3.280307,-1.989365 -4.25151,-2.65511"
       id="path3899"
       inkscape:connector-curvature="0" />
    <path
       style="fill:url(#linearGradient3947);fill-opacity:1;stroke:#2b7eb5;stroke-width:1.23560965;stroke-linecap:round;stroke-linejoin:round;stroke-miterlimit:4;stroke-opacity:1;stroke-dasharray:none"
       id="path3901"
       inkscape:connector-curvature="0"
       d="M 9.6808353,7.25575 4.2200409,13.187 2.4935237,11.766032 4.6128384,2.5054415 z" />
  </g>
</svg>
