<?xml version="1.0" encoding="UTF-8" standalone="no"?>
<!-- Created with Inkscape (http://www.inkscape.org/) -->

<svg
   xmlns:dc="http://purl.org/dc/elements/1.1/"
   xmlns:cc="http://creativecommons.org/ns#"
   xmlns:rdf="http://www.w3.org/1999/02/22-rdf-syntax-ns#"
   xmlns:svg="http://www.w3.org/2000/svg"
   xmlns="http://www.w3.org/2000/svg"
   xmlns:xlink="http://www.w3.org/1999/xlink"
   xmlns:sodipodi="http://sodipodi.sourceforge.net/DTD/sodipodi-0.dtd"
   xmlns:inkscape="http://www.inkscape.org/namespaces/inkscape"
   width="128"
   height="32"
   id="svg6964"
   version="1.1"
   inkscape:version="0.48.5 r10040"
   sodipodi:docname="user.svg">
  <defs
     id="defs6966">
    <linearGradient
       id="linearGradient3592-9-1">
      <stop
         id="stop3594-6-1"
         offset="0"
         style="stop-color:#777777;stop-opacity:0.46666667;" />
      <stop
         id="stop3596-3-8"
         offset="1"
         style="stop-color:#777777;stop-opacity:0;" />
    </linearGradient>
    <linearGradient
       id="linearGradient5471-7">
      <stop
         style="stop-color:#ff4141;stop-opacity:1;"
         offset="0"
         id="stop5473-6" />
      <stop
         style="stop-color:#ff0000;stop-opacity:1;"
         offset="1"
         id="stop5475-0" />
    </linearGradient>
    <linearGradient
       id="linearGradient5830-9">
      <stop
         style="stop-color:#ffcc99;stop-opacity:1;"
         offset="0"
         id="stop5832-4" />
      <stop
         style="stop-color:#ffc285;stop-opacity:1;"
         offset="1"
         id="stop5834-9" />
    </linearGradient>
    <radialGradient
       inkscape:collect="always"
       xlink:href="#linearGradient3592-9-1"
       id="radialGradient4387-9"
       gradientUnits="userSpaceOnUse"
       gradientTransform="matrix(1,0,0,0.3125,2975.9998,1038.9248)"
       cx="16"
       cy="27"
       fx="16"
       fy="27"
       r="16" />
    <linearGradient
       inkscape:collect="always"
       xlink:href="#linearGradient5471-7"
       id="linearGradient7609"
       gradientUnits="userSpaceOnUse"
       x1="2847.5"
       y1="48"
       x2="2847.5"
       y2="56.5" />
    <linearGradient
       inkscape:collect="always"
       xlink:href="#linearGradient5830-9"
       id="linearGradient7611"
       gradientUnits="userSpaceOnUse"
       x1="2842"
       y1="36"
       x2="2842"
       y2="49.5" />
    <linearGradient
       inkscape:collect="always"
       xlink:href="#linearGradient5471-7"
       id="linearGradient7701"
       gradientUnits="userSpaceOnUse"
       x1="2847.5"
       y1="48"
       x2="2847.5"
       y2="56.5" />
    <linearGradient
       inkscape:collect="always"
       xlink:href="#linearGradient5830-9"
       id="linearGradient7703"
       gradientUnits="userSpaceOnUse"
       x1="2842"
       y1="36"
       x2="2842"
       y2="49.5" />
    <radialGradient
       inkscape:collect="always"
       xlink:href="#linearGradient3592-9-1"
       id="radialGradient7711"
       gradientUnits="userSpaceOnUse"
       gradientTransform="matrix(1,0,0,0.3125,-2e-4,1038.9248)"
       cx="16"
       cy="27"
       fx="16"
       fy="27"
       r="16" />
  </defs>
  <sodipodi:namedview
     id="base"
     pagecolor="#ffffff"
     bordercolor="#666666"
     borderopacity="1.0"
     inkscape:pageopacity="0.0"
     inkscape:pageshadow="2"
     inkscape:zoom="1"
     inkscape:cx="94.135545"
     inkscape:cy="15.653872"
     inkscape:document-units="px"
     inkscape:current-layer="layer1"
     showgrid="false"
     inkscape:snap-bbox="true"
     inkscape:window-width="1366"
     inkscape:window-height="705"
     inkscape:window-x="0"
     inkscape:window-y="27"
     inkscape:window-maximized="1">
    <inkscape:grid
       type="xygrid"
       id="grid7365"
       empspacing="5"
       visible="true"
       enabled="true"
       snapvisiblegridlinesonly="true" />
  </sodipodi:namedview>
  <metadata
     id="metadata6969">
    <rdf:RDF>
      <cc:Work
         rdf:about="">
        <dc:format>image/svg+xml</dc:format>
        <dc:type
           rdf:resource="http://purl.org/dc/dcmitype/StillImage" />
        <dc:title />
      </cc:Work>
    </rdf:RDF>
  </metadata>
  <g
     inkscape:label="Layer 1"
     inkscape:groupmode="layer"
     id="layer1"
     transform="translate(0,-1020.3622)">
    <g
       id="g7713">
      <rect
         y="1042.3622"
         x="0"
         height="10"
         width="32"
         id="rect7615"
         style="fill:url(#radialGradient7711);fill-opacity:1;fill-rule:evenodd;stroke:none" />
      <g
         transform="matrix(0.92988191,-0.36785818,0.36785818,0.92988191,-3020.2752,1086.8462)"
         id="g7617">
        <g
           id="g7619">
          <path
             sodipodi:nodetypes="czcczcccc"
             transform="translate(0,1020.3622)"
             inkscape:connector-curvature="0"
             id="path7621"
             d="m 2837,51.5 c 0,0 0.2636,0.07082 0.5,-0.5 0.2364,-0.57082 0,-3 0,-3 l 5,0 c 0,0 -0.2364,2.42918 0,3 0.2364,0.57082 0.5,0.5 0.5,0.5 l -2,2 -2,0 z"
             style="fill:#ffb56b;fill-opacity:1;stroke:#f9a047;stroke-width:1px;stroke-linecap:round;stroke-linejoin:round;stroke-opacity:1" />
          <path
             sodipodi:nodetypes="cczczzczc"
             transform="translate(0,1020.3622)"
             inkscape:connector-curvature="0"
             id="path7623"
             d="m 2830.5,56.5 19,0 c 0,0 0.048,-1.92336 -1,-3 -1.0479,-1.07664 -5.5,-2 -5.5,-2 0,0 -0.7565,0.69204 -1.5,1 -0.7435,0.30796 -2.2565,0.30796 -3,0 -0.7435,-0.30796 -1.5,-1 -1.5,-1 0,0 -4.4521,0.92336 -5.5,2 -1.0479,1.07664 -1,3 -1,3 z"
             style="fill:url(#linearGradient7701);fill-opacity:1;stroke:#c00000;stroke-width:1px;stroke-linecap:round;stroke-linejoin:round;stroke-opacity:1" />
          <path
             sodipodi:nodetypes="zzzzz"
             transform="translate(0,1020.3622)"
             inkscape:connector-curvature="0"
             id="path7625"
             d="m 2840,49.5 c -3.5792,-0.0118 -5.4568,-6.556931 -4.9255,-9.350951 0.5314,-2.794021 2.7604,-4.177311 4.9255,-4.234835 2.1651,-0.05752 4.5383,1.133084 5.1464,3.969669 0.6082,2.836586 -1.5672,9.62792 -5.1464,9.616117 z"
             style="fill:url(#linearGradient7703);fill-opacity:1;stroke:#f9a047;stroke-width:1px;stroke-linecap:round;stroke-linejoin:round;stroke-opacity:1" />
        </g>
      </g>
    </g>
    <g
       id="g8536"
       transform="translate(-2880,1.7382813e-5)">
      <rect
         style="fill:url(#radialGradient4387-9);fill-opacity:1;fill-rule:evenodd;stroke:none"
         id="rect4379"
         width="32"
         height="10"
         x="2976"
         y="1042.3622" />
      <g
         transform="matrix(0.92988191,-0.36785818,0.36785818,0.92988191,-44.775672,1086.8462)"
         id="use4381">
        <g
           id="g7194">
          <path
             sodipodi:nodetypes="czcczcccc"
             transform="translate(0,1020.3622)"
             inkscape:connector-curvature="0"
             id="path7196"
             d="m 2837,51.5 c 0,0 0.2636,0.07082 0.5,-0.5 0.2364,-0.57082 0,-3 0,-3 l 5,0 c 0,0 -0.2364,2.42918 0,3 0.2364,0.57082 0.5,0.5 0.5,0.5 l -2,2 -2,0 z"
             style="fill:#ffb56b;fill-opacity:1;stroke:#f9a047;stroke-width:1px;stroke-linecap:round;stroke-linejoin:round;stroke-opacity:1" />
          <path
             sodipodi:nodetypes="cczczzczc"
             transform="translate(0,1020.3622)"
             inkscape:connector-curvature="0"
             id="path7198"
             d="m 2830.5,56.5 19,0 c 0,0 0.048,-1.92336 -1,-3 -1.0479,-1.07664 -5.5,-2 -5.5,-2 0,0 -0.7565,0.69204 -1.5,1 -0.7435,0.30796 -2.2565,0.30796 -3,0 -0.7435,-0.30796 -1.5,-1 -1.5,-1 0,0 -4.4521,0.92336 -5.5,2 -1.0479,1.07664 -1,3 -1,3 z"
             style="fill:url(#linearGradient7609);fill-opacity:1;stroke:#c00000;stroke-width:1px;stroke-linecap:round;stroke-linejoin:round;stroke-opacity:1" />
          <path
             sodipodi:nodetypes="zzzzz"
             transform="translate(0,1020.3622)"
             inkscape:connector-curvature="0"
             id="path7200"
             d="m 2840,49.5 c -3.5792,-0.0118 -5.4568,-6.556931 -4.9255,-9.350951 0.5314,-2.794021 2.7604,-4.177311 4.9255,-4.234835 2.1651,-0.05752 4.5383,1.133084 5.1464,3.969669 0.6082,2.836586 -1.5672,9.62792 -5.1464,9.616117 z"
             style="fill:url(#linearGradient7611);fill-opacity:1;stroke:#f9a047;stroke-width:1px;stroke-linecap:round;stroke-linejoin:round;stroke-opacity:1" />
        </g>
      </g>
      <use
         height="32"
         width="2912"
         transform="translate(2.979002,-0.11550085)"
         id="use4389"
         xlink:href="#use4381"
         y="0"
         x="0" />
    </g>
    <use
       x="0"
       y="0"
       xlink:href="#g7713"
       id="use7721"
       transform="translate(32,1.7382813e-5)"
       width="128"
       height="32" />
    <use
       x="0"
       y="0"
       xlink:href="#use7721"
       id="use7727"
       transform="translate(32,0)"
       width="128"
       height="32" />
    <path
       sodipodi:open="true"
       sodipodi:end="12.542317"
       sodipodi:start="6.2629197"
       transform="matrix(1.0417505,0,0,0.99834845,-2904.1679,1020.3836)"
       d="m 2878.4882,12.868065 a 6.2394986,6.5107274 0 1 1 -5e-4,-0.02466"
       sodipodi:ry="6.5107274"
       sodipodi:rx="6.2394986"
       sodipodi:cy="13"
       sodipodi:cx="2872.25"
       id="path5434"
       style="fill:#ff2828;fill-opacity:1;stroke:#c31818;stroke-width:0.98056650000000001;stroke-linecap:round;stroke-linejoin:round;stroke-miterlimit:4;stroke-opacity:1;stroke-dasharray:none"
       sodipodi:type="arc" />
    <path
       sodipodi:nodetypes="ccccc"
       inkscape:connector-curvature="0"
       id="path5438"
       d="m 84,1034.3622 0,-2 8,0 0,2 z"
       style="fill:#ffffff;fill-opacity:0.94117647;stroke:none" />
    <g
       id="g6634"
       transform="translate(-19.999873,1.0001129)">
      <path
         sodipodi:type="arc"
         style="fill:#33ce00;fill-opacity:1;stroke:#2ba115;stroke-width:0.9805665;stroke-linecap:round;stroke-linejoin:round;stroke-miterlimit:4;stroke-opacity:1;stroke-dasharray:none"
         id="path6624"
         sodipodi:cx="2872.25"
         sodipodi:cy="13"
         sodipodi:rx="6.2394724"
         sodipodi:ry="6.5106826"
         d="m 2878.4882,12.868066 c 0.07,3.595012 -2.6665,6.568415 -6.1118,6.64128 -3.4452,0.07287 -6.2948,-2.7824 -6.3646,-6.377412 -0.07,-3.5950124 2.6665,-6.5684146 6.1118,-6.6412797 3.436,-0.07267 6.2814,2.7676696 6.3641,6.3527557"
         transform="matrix(1.0417505,0,0,0.99834845,-2916.168,1020.3836)"
         sodipodi:start="6.2629197"
         sodipodi:end="12.542317"
         sodipodi:open="true" />
      <path
         style="fill:#ffffff;fill-opacity:0.94117647;stroke:none"
         d="m 72,1034.3621 0,-2 3.000026,0 0,-3 2,0 0,3 2.999974,0 0,2 -2.999974,0 0,3.0001 -2,0 0,-3.0001 z"
         id="path6628"
         inkscape:connector-curvature="0"
         sodipodi:nodetypes="ccccccccccccc" />
    </g>
  </g>
</svg>
