<?xml version="1.0" encoding="UTF-8" standalone="no"?>
<!-- Created with Inkscape (http://www.inkscape.org/) -->

<svg
   xmlns:dc="http://purl.org/dc/elements/1.1/"
   xmlns:cc="http://creativecommons.org/ns#"
   xmlns:rdf="http://www.w3.org/1999/02/22-rdf-syntax-ns#"
   xmlns:svg="http://www.w3.org/2000/svg"
   xmlns="http://www.w3.org/2000/svg"
   xmlns:inkscape="http://www.inkscape.org/namespaces/inkscape"
   version="1.1"
   width="68"
   height="32"
   id="svg3029">
  <metadata
     id="metadata3053">
    <rdf:RDF>
      <cc:Work
         rdf:about="">
        <dc:format>image/svg+xml</dc:format>
        <dc:type
           rdf:resource="http://purl.org/dc/dcmitype/StillImage" />
      </cc:Work>
    </rdf:RDF>
  </metadata>
  <defs
     id="defs3051" />
  <g
     transform="matrix(1.3333333,0,0,1.3333333,0,-10.666667)"
     id="g3031">
    <path
       d="m 0,10 v 20 a 2,2 0 0 0 2,2 h 20 a 2,2 0 0 0 2,-2 V 10 A 2,2 0 0 0 22,8 H 2 a 2,2 0 0 0 -2,2"
       inkscape:connector-curvature="0"
       id="path3031"
       style="fill:#ff66aa;fill-opacity:1" />
    <g
       transform="translate(0,8)"
       id="g3033"
       style="fill:#ffffff">
      <path
         d="M 0,0 H 11 V 3 L 4,9 h 7 v 3 H 0 V 9 L 7,3 H 0 z m 5.5,-1 c 6,-9 -6,-9 0,0 m -1,0 c -4,-9 -10,0 0,0 m 2,0 c 4,-9 10,0 0,0"
         inkscape:connector-curvature="0"
         transform="translate(6.5,9)"
         id="path3035" />
      <path
         d="M 0,0 4,7 H 5.5 V 3.5 L 3.5,0 z"
         inkscape:connector-curvature="0"
         transform="translate(18.5,14)"
         id="path3037" />
    </g>
    <g
       transform="translate(0,8)"
       id="g3039"
       style="fill:#ffffff">
      <path
         d="M 0,0 -4,7 H -5.5 V 3.5 l 2,-3.5 z"
         inkscape:connector-curvature="0"
         transform="translate(29.5,14)"
         id="path3041" />
      <path
         d="M 0,0 V 8 H 3 V 0 z m 1.5,-2 c 5,-7 -5,-7 0,0 z"
         inkscape:connector-curvature="0"
         transform="translate(31,14)"
         id="path3043" />
      <path
         d="M 0,0 V 8 H 3 V 0 z m 3,5 a 2,2 0 0 1 4,0 v 3 h 3 V 4 A 4,4 0 0 0 2,4"
         inkscape:connector-curvature="0"
         transform="translate(36,14)"
         id="path3045" />
      <path
         d="M 0,0 V 8 H 3 V 0 z m 1.5,-2 c 5,-7 -5,-7 0,0 z"
         inkscape:connector-curvature="0"
         transform="translate(48,14)"
         id="path3047" />
    </g>
  </g>
</svg>
