<?xml version="1.0" encoding="UTF-8" standalone="no"?>
<svg
   xmlns:dc="http://purl.org/dc/elements/1.1/"
   xmlns:cc="http://creativecommons.org/ns#"
   xmlns:rdf="http://www.w3.org/1999/02/22-rdf-syntax-ns#"
   xmlns:svg="http://www.w3.org/2000/svg"
   xmlns="http://www.w3.org/2000/svg"
   xmlns:sodipodi="http://sodipodi.sourceforge.net/DTD/sodipodi-0.dtd"
   xmlns:inkscape="http://www.inkscape.org/namespaces/inkscape"
   version="1.1"
   width="68"
   height="32"
   id="svg2"
   inkscape:version="0.48.4 r9939"
   sodipodi:docname="zvini.svg">
  <metadata
     id="metadata26">
    <rdf:RDF>
      <cc:Work
         rdf:about="">
        <dc:format>image/svg+xml</dc:format>
        <dc:type
           rdf:resource="http://purl.org/dc/dcmitype/StillImage" />
      </cc:Work>
    </rdf:RDF>
  </metadata>
  <defs
     id="defs24" />
  <sodipodi:namedview
     pagecolor="#ffffff"
     bordercolor="#666666"
     borderopacity="1"
     objecttolerance="10"
     gridtolerance="10"
     guidetolerance="10"
     inkscape:pageopacity="0"
     inkscape:pageshadow="2"
     inkscape:window-width="1366"
     inkscape:window-height="717"
     id="namedview22"
     showgrid="false"
     inkscape:zoom="6.2156863"
     inkscape:cx="41.18612"
     inkscape:cy="12"
     inkscape:window-x="0"
     inkscape:window-y="25"
     inkscape:window-maximized="1"
     inkscape:current-layer="svg2" />
  <g
     id="g3062"
     transform="matrix(1.3333333,0,0,1.3333333,0,-10.666667)">
    <path
       inkscape:connector-curvature="0"
       style="fill:#22aa11;fill-opacity:1"
       id="path4"
       d="m 0,10 v 20 a 2,2 0 0 0 2,2 h 20 a 2,2 0 0 0 2,-2 V 10 A 2,2 0 0 0 22,8 H 2 a 2,2 0 0 0 -2,2" />
    <g
       transform="translate(0,8)"
       style="fill:#ffffff"
       id="g6">
      <path
         inkscape:connector-curvature="0"
         id="path8"
         d="M 0,0 H 11 V 3 L 4,9 h 7 v 3 H 0 V 9 L 7,3 H 0 z m 5.5,-1 c 6,-9 -6,-9 0,0 m -1,0 c -4,-9 -10,0 0,0 m 2,0 c 4,-9 10,0 0,0"
         transform="translate(6.5,9)" />
      <path
         inkscape:connector-curvature="0"
         id="path10"
         d="M 0,0 4,7 H 5.5 V 3.5 L 3.5,0 z"
         transform="translate(18.5,14)" />
    </g>
    <g
       transform="translate(0,8)"
       style="fill:#ffffff"
       id="g12">
      <path
         inkscape:connector-curvature="0"
         id="path14"
         d="M 0,0 -4,7 H -5.5 V 3.5 l 2,-3.5 z"
         transform="translate(29.5,14)" />
      <path
         inkscape:connector-curvature="0"
         id="path16"
         d="M 0,0 V 8 H 3 V 0 z m 1.5,-2 c 5,-7 -5,-7 0,0 z"
         transform="translate(31,14)" />
      <path
         inkscape:connector-curvature="0"
         id="path18"
         d="M 0,0 V 8 H 3 V 0 z m 3,5 a 2,2 0 0 1 4,0 v 3 h 3 V 4 A 4,4 0 0 0 2,4"
         transform="translate(36,14)" />
      <path
         inkscape:connector-curvature="0"
         id="path20"
         d="M 0,0 V 8 H 3 V 0 z m 1.5,-2 c 5,-7 -5,-7 0,0 z"
         transform="translate(48,14)" />
    </g>
  </g>
</svg>
