<?xml version="1.0" encoding="UTF-8" standalone="no"?>
<!-- Created with Inkscape (http://www.inkscape.org/) -->

<svg
   xmlns:dc="http://purl.org/dc/elements/1.1/"
   xmlns:cc="http://creativecommons.org/ns#"
   xmlns:rdf="http://www.w3.org/1999/02/22-rdf-syntax-ns#"
   xmlns:svg="http://www.w3.org/2000/svg"
   xmlns="http://www.w3.org/2000/svg"
   xmlns:xlink="http://www.w3.org/1999/xlink"
   xmlns:sodipodi="http://sodipodi.sourceforge.net/DTD/sodipodi-0.dtd"
   xmlns:inkscape="http://www.inkscape.org/namespaces/inkscape"
   version="1.1"
   width="16"
   height="16"
   id="svg2"
   inkscape:version="0.48.5 r10040"
   sodipodi:docname="icon16.svg">
  <sodipodi:namedview
     pagecolor="#ffffff"
     bordercolor="#666666"
     borderopacity="1"
     objecttolerance="10"
     gridtolerance="10"
     guidetolerance="10"
     inkscape:pageopacity="0"
     inkscape:pageshadow="2"
     inkscape:window-width="1920"
     inkscape:window-height="1044"
     id="namedview3011"
     showgrid="true"
     inkscape:zoom="16.970563"
     inkscape:cx="4.4300157"
     inkscape:cy="-0.35982757"
     inkscape:window-x="1920"
     inkscape:window-y="0"
     inkscape:window-maximized="1"
     inkscape:current-layer="svg2"
     inkscape:snap-bbox="true"
     showborder="false">
    <inkscape:grid
       type="xygrid"
       id="grid2985"
       empspacing="5"
       visible="true"
       enabled="true"
       snapvisiblegridlinesonly="true" />
  </sodipodi:namedview>
  <metadata
     id="metadata8">
    <rdf:RDF>
      <cc:Work
         rdf:about="">
        <dc:format>image/svg+xml</dc:format>
        <dc:type
           rdf:resource="http://purl.org/dc/dcmitype/StillImage" />
        <dc:title />
      </cc:Work>
    </rdf:RDF>
  </metadata>
  <defs
     id="defs6">
    <linearGradient
       id="linearGradient3754">
      <stop
         style="stop-color:#ff9215;stop-opacity:1;"
         offset="0"
         id="stop3756" />
      <stop
         id="stop3760"
         offset="0.5"
         style="stop-color:#ff8800;stop-opacity:1;" />
      <stop
         style="stop-color:#ec7e00;stop-opacity:1;"
         offset="1"
         id="stop3758" />
    </linearGradient>
    <linearGradient
       inkscape:collect="always"
       xlink:href="#linearGradient3754"
       id="linearGradient4581"
       gradientUnits="userSpaceOnUse"
       gradientTransform="matrix(0.79778432,-0.30624071,0.30624071,0.79778432,-0.83220031,4.0676514)"
       x1="25.355333"
       y1="4.1186943"
       x2="18.233046"
       y2="22.67289" />
    <linearGradient
       inkscape:collect="always"
       xlink:href="#linearGradient3754"
       id="linearGradient4585"
       gradientUnits="userSpaceOnUse"
       gradientTransform="matrix(0.85454268,0,0,0.85454268,-2.2346418,3.4992458)"
       x1="25.355333"
       y1="4.1186943"
       x2="18.233046"
       y2="22.67289" />
  </defs>
  <g
     id="g4588">
    <path
       sodipodi:nodetypes="cccccc"
       style="fill:#ffffff"
       id="path3773"
       inkscape:connector-curvature="0"
       d="m 8.0000001,9.7 c 4.6349609,-6.9333334 -4.6349605,-6.9333334 0,0 m -0.7724934,0 c -3.0899736,-6.9333334 -7.72493432,0 0,0 m 1.5449864,0 c 3.0899739,-6.9333334 7.7249349,0 0,0" />
    <rect
       transform="matrix(0.93358043,-0.35836795,0.35836795,0.93358043,0,0)"
       ry="2.857502"
       y="3.4992459"
       x="-2.2346418"
       height="13.672683"
       width="13.672683"
       id="rect3762"
       style="fill:url(#linearGradient4585);fill-opacity:1;stroke:none" />
    <path
       d="m 8.0000001,9.7 c 4.6349609,-6.9333334 -4.6349605,-6.9333334 0,0 m -0.7724934,0 c -3.0899736,-6.9333334 -7.72493432,0 0,0 m 1.5449864,0 c 3.0899739,-6.9333334 7.7249349,0 0,0"
       inkscape:connector-curvature="0"
       id="path4446"
       style="fill:#ffffff"
       sodipodi:nodetypes="cccccc" />
    <path
       sodipodi:nodetypes="cccccccscsscsscs"
       inkscape:connector-curvature="0"
       id="rect4453"
       d="M 12,4 2,4 2,10 3.0625,11 14,11 14,7 z M 8,4.90025 c 1.1587402,0 2.31748,1.7208333 0,5.1875 C 5.6825197,6.6210833 6.8412598,4.90025 8,4.90025 z m -3.6875,2.125 c 0.8430287,0.093099 1.9406332,0.8958333 2.90625,3.0625 -5.3108923,0 -4.7609132,-3.2673177 -2.90625,-3.0625 z m 7.375,0 c 1.854663,-0.2048177 2.404643,3.0625 -2.90625,3.0625 0.9656168,-2.1666667 2.063221,-2.969401 2.90625,-3.0625 z"
       style="opacity:0.3;fill:url(#linearGradient4581);fill-opacity:1;stroke:none" />
  </g>
</svg>
