<?xml version="1.0" encoding="UTF-8" standalone="no"?>
<!-- Created with Inkscape (http://www.inkscape.org/) -->

<svg
   xmlns:dc="http://purl.org/dc/elements/1.1/"
   xmlns:cc="http://creativecommons.org/ns#"
   xmlns:rdf="http://www.w3.org/1999/02/22-rdf-syntax-ns#"
   xmlns:svg="http://www.w3.org/2000/svg"
   xmlns="http://www.w3.org/2000/svg"
   xmlns:xlink="http://www.w3.org/1999/xlink"
   xmlns:inkscape="http://www.inkscape.org/namespaces/inkscape"
   version="1.1"
   width="128"
   height="32"
   id="svg5060">
  <defs
     id="defs5062">
    <linearGradient
       id="linearGradient3592-9-7">
      <stop
         id="stop3594-6-0"
         style="stop-color:#000000;stop-opacity:0.2"
         offset="0" />
      <stop
         id="stop3596-3-4"
         style="stop-color:#000000;stop-opacity:0"
         offset="1" />
    </linearGradient>
    <linearGradient
       id="linearGradient5565-3">
      <stop
         id="stop5567-0"
         style="stop-color:#ff2929;stop-opacity:1"
         offset="0" />
      <stop
         id="stop5569-1"
         style="stop-color:#ff4949;stop-opacity:1"
         offset="0.29166666" />
      <stop
         id="stop5571-6"
         style="stop-color:#d80000;stop-opacity:1"
         offset="0.56" />
      <stop
         id="stop5573-8"
         style="stop-color:#ff5151;stop-opacity:1"
         offset="0.75999999" />
      <stop
         id="stop5575-8"
         style="stop-color:#d80000;stop-opacity:1"
         offset="1" />
    </linearGradient>
    <linearGradient
       id="linearGradient5057-0">
      <stop
         id="stop5059-0"
         style="stop-color:#721010;stop-opacity:1"
         offset="0" />
      <stop
         id="stop5061-8"
         style="stop-color:#540c0c;stop-opacity:1"
         offset="1" />
    </linearGradient>
    <radialGradient
       cx="16"
       cy="27"
       r="16"
       fx="16"
       fy="27"
       id="radialGradient6284"
       xlink:href="#linearGradient3592-9-7"
       gradientUnits="userSpaceOnUse"
       gradientTransform="matrix(1,0,0,0.3125,2177.9998,1038.9248)" />
    <radialGradient
       cx="2873.21"
       cy="11.073713"
       r="6.2500243"
       fx="2873.21"
       fy="11.073713"
       id="radialGradient4731"
       xlink:href="#linearGradient5195-0-6"
       gradientUnits="userSpaceOnUse"
       gradientTransform="matrix(0.84472205,-1.3923892e-6,1.3343892e-6,0.8814524,446.14615,1.2397114)" />
    <linearGradient
       id="linearGradient5195-0-6">
      <stop
         id="stop5197-6-6"
         style="stop-color:#9bff7e;stop-opacity:1"
         offset="0" />
      <stop
         id="stop5199-2-2-3"
         style="stop-color:#2fba18;stop-opacity:1"
         offset="1" />
    </linearGradient>
    <radialGradient
       cx="2889"
       cy="5.5"
       r="5.5000229"
       fx="2889"
       fy="5.5"
       id="radialGradient4733"
       xlink:href="#linearGradient4073-7"
       gradientUnits="userSpaceOnUse" />
    <linearGradient
       id="linearGradient4073-7">
      <stop
         id="stop4075-8"
         style="stop-color:#9bff7e;stop-opacity:0"
         offset="0" />
      <stop
         id="stop4081-9"
         style="stop-color:#9bff7e;stop-opacity:0.22352941"
         offset="0.67647058" />
      <stop
         id="stop4077-81"
         style="stop-color:#9bff7e;stop-opacity:0.67716533"
         offset="1" />
    </linearGradient>
    <radialGradient
       cx="16"
       cy="27"
       r="16"
       fx="16"
       fy="27"
       id="radialGradient3169"
       xlink:href="#linearGradient3592-9-7"
       gradientUnits="userSpaceOnUse"
       gradientTransform="matrix(1,0,0,0.3125,2209.9998,1038.9248)" />
    <linearGradient
       x1="2202"
       y1="1068.3622"
       x2="2190"
       y2="1068.3622"
       id="linearGradient3171"
       xlink:href="#linearGradient5565-3"
       gradientUnits="userSpaceOnUse" />
    <linearGradient
       x1="2188.5"
       y1="43.5"
       x2="2188.5"
       y2="64.5"
       id="linearGradient3173"
       xlink:href="#linearGradient5057-0"
       gradientUnits="userSpaceOnUse" />
  </defs>
  <metadata
     id="metadata5065">
    <rdf:RDF>
      <cc:Work
         rdf:about="">
        <dc:format>image/svg+xml</dc:format>
        <dc:type
           rdf:resource="http://purl.org/dc/dcmitype/StillImage" />
        <dc:title />
      </cc:Work>
    </rdf:RDF>
  </metadata>
  <g
     transform="translate(0,-1020.3622)"
     id="layer1">
    <g
       transform="translate(-2210,1.7382813e-5)"
       id="g5463">
      <rect
         width="32"
         height="10"
         x="2210"
         y="1042.3622"
         id="use5174"
         style="fill:url(#radialGradient3169);fill-opacity:1;fill-rule:evenodd;stroke:none" />
      <g
         transform="matrix(0.92839551,-0.37159355,0.37159355,0.92839551,-209.18956,852.88533)"
         id="use5456">
        <path
           d="m 2189.5,1073.3622 c 0,0 2,-0.5 4,-0.5 2,0 3,1.5 5,1.5 2,0 3.5,-0.5 3.5,-0.5 l -2.5,-4 2.5,-4.5 c 0,0 -1.5,0.5 -3.5,0.5 -2,0 -3,-1.5 -5,-1.5 -2,0 -4,0.5 -4,0.5 z"
           inkscape:connector-curvature="0"
           id="path5882"
           style="fill:url(#linearGradient3171);fill-opacity:1;stroke:#a40000;stroke-width:1px;stroke-linecap:round;stroke-linejoin:round;stroke-opacity:1" />
        <path
           d="m 2187.5,43.5 c 0,0 0.5,-0.5 1,-0.5 0.5,0 1,0.5 1,0.5 l 0,21 c 0,0 -0.5,0.5 -1,0.5 -0.5,0 -1,-0.5 -1,-0.5 z"
           inkscape:connector-curvature="0"
           transform="translate(0,1020.3622)"
           id="path5884"
           style="fill:url(#linearGradient3173);fill-opacity:1;stroke:none" />
      </g>
    </g>
    <g
       transform="translate(-2082,1.7382813e-5)"
       id="g5477">
      <rect
         width="32"
         height="10"
         x="2178"
         y="1042.3622"
         id="use5351"
         style="fill:url(#radialGradient6284);fill-opacity:1;fill-rule:evenodd;stroke:none" />
      <use
         transform="translate(-33.499993,0)"
         id="use5459"
         x="0"
         y="0"
         width="3168"
         height="32"
         xlink:href="#use5456" />
      <use
         transform="translate(3,0)"
         id="use5461"
         x="0"
         y="0"
         width="3168"
         height="32"
         xlink:href="#use5459" />
    </g>
    <use
       transform="translate(32,0)"
       id="use6306"
       x="0"
       y="0"
       width="128"
       height="32"
       xlink:href="#g5463" />
    <use
       transform="translate(32,0)"
       id="use6308"
       x="0"
       y="0"
       width="128"
       height="32"
       xlink:href="#use6306" />
    <g
       transform="translate(-68,0)"
       id="g6242">
      <path
         d="m 152.5,1034.8622 2,4 2,-4 z"
         inkscape:connector-curvature="0"
         id="path3966-4-44"
         style="fill:#ffcc77;fill-opacity:1;stroke:#995500;stroke-width:1px;stroke-linecap:butt;stroke-linejoin:round;stroke-opacity:1" />
      <path
         d="m 152.5,1022.8622 4,0 0,12 -4,0 z"
         inkscape:connector-curvature="0"
         id="path3158-9-6-5"
         style="fill:#ff8800;fill-opacity:1;stroke:#995500;stroke-width:1px;stroke-linecap:round;stroke-linejoin:round;stroke-opacity:1" />
    </g>
    <g
       transform="translate(-2827.5,19.499945)"
       id="g5344">
      <path
         d="m 2877.9988,12.878415 a 5.75,6 0 1 1 -5e-4,-0.02272"
         transform="matrix(1.0417505,0,0,0.99834845,-108.66787,1000.8837)"
         id="path5322"
         style="fill:url(#radialGradient4731);fill-opacity:1;stroke:#19640c;stroke-width:1;stroke-linecap:round;stroke-linejoin:round;stroke-miterlimit:4;stroke-opacity:1;stroke-dasharray:none" />
      <path
         d="m 2894.4989,5.3885468 a 5.5,5.5 0 1 1 -5e-4,-0.020829"
         transform="translate(-5.5,1008.3622)"
         id="path5334"
         style="fill:url(#radialGradient4733);fill-opacity:1;stroke:none" />
      <path
         d="m 2880,1014.8622 0,-2 2.5,0 0,-2.5 2,0 0,2.5 2.5,0 0,2 -2.5,0 0,2.5 -2,0 0,-2.5 z"
         inkscape:connector-curvature="0"
         id="path5290"
         style="fill:#ffffff;fill-opacity:0.94117647;stroke:#19640c;stroke-width:1px;stroke-linecap:round;stroke-linejoin:round;stroke-opacity:0.25098039" />
    </g>
  </g>
</svg>
