<?xml version="1.0" encoding="UTF-8" standalone="no"?>
<!-- Created with Inkscape (http://www.inkscape.org/) -->

<svg
   xmlns:dc="http://purl.org/dc/elements/1.1/"
   xmlns:cc="http://creativecommons.org/ns#"
   xmlns:rdf="http://www.w3.org/1999/02/22-rdf-syntax-ns#"
   xmlns:svg="http://www.w3.org/2000/svg"
   xmlns="http://www.w3.org/2000/svg"
   xmlns:xlink="http://www.w3.org/1999/xlink"
   xmlns:inkscape="http://www.inkscape.org/namespaces/inkscape"
   version="1.1"
   width="96"
   height="32"
   id="svg3769">
  <defs
     id="defs3771">
    <radialGradient
       cx="16"
       cy="27"
       r="16"
       fx="16"
       fy="27"
       id="radialGradient4828"
       xlink:href="#linearGradient3592-9"
       gradientUnits="userSpaceOnUse"
       gradientTransform="matrix(1,0,0,0.3125,831.9998,1038.9248)" />
    <linearGradient
       id="linearGradient3592-9">
      <stop
         id="stop3594-6"
         style="stop-color:#000000;stop-opacity:0.2"
         offset="0" />
      <stop
         id="stop3596-3"
         style="stop-color:#000000;stop-opacity:0"
         offset="1" />
    </linearGradient>
    <linearGradient
       x1="29"
       y1="2"
       x2="34"
       y2="17"
       id="linearGradient4830"
       xlink:href="#linearGradient3604"
       gradientUnits="userSpaceOnUse"
       gradientTransform="translate(832,1052.3622)" />
    <linearGradient
       id="linearGradient3604">
      <stop
         id="stop3606-2"
         style="stop-color:#ff8800;stop-opacity:1"
         offset="0" />
      <stop
         id="stop3608"
         style="stop-color:#dd7700;stop-opacity:1"
         offset="1" />
    </linearGradient>
    <radialGradient
       cx="2873.21"
       cy="11.073713"
       r="6.2500243"
       fx="2873.21"
       fy="11.073713"
       id="radialGradient4832"
       xlink:href="#linearGradient5195-0"
       gradientUnits="userSpaceOnUse"
       gradientTransform="matrix(0.84472205,-1.3923892e-6,1.3343892e-6,0.8814524,446.14615,1.2397114)" />
    <linearGradient
       id="linearGradient5195-0">
      <stop
         id="stop5197-6"
         style="stop-color:#9bff7e;stop-opacity:1"
         offset="0" />
      <stop
         id="stop5199-2-2"
         style="stop-color:#2fba18;stop-opacity:1"
         offset="1" />
    </linearGradient>
    <radialGradient
       cx="2889"
       cy="5.5"
       r="5.5000229"
       fx="2889"
       fy="5.5"
       id="radialGradient4834"
       xlink:href="#linearGradient4073"
       gradientUnits="userSpaceOnUse" />
    <linearGradient
       id="linearGradient4073">
      <stop
         id="stop4075"
         style="stop-color:#9bff7e;stop-opacity:0"
         offset="0" />
      <stop
         id="stop4081"
         style="stop-color:#9bff7e;stop-opacity:0.22352941"
         offset="0.67647058" />
      <stop
         id="stop4077"
         style="stop-color:#9bff7e;stop-opacity:0.67716533"
         offset="1" />
    </linearGradient>
    <radialGradient
       cx="16"
       cy="27"
       r="16"
       fx="16"
       fy="27"
       id="radialGradient11649"
       xlink:href="#linearGradient3592-9-0"
       gradientUnits="userSpaceOnUse"
       gradientTransform="matrix(1,0,0,0.3125,1087.9998,1038.9248)" />
    <linearGradient
       id="linearGradient3592-9-0">
      <stop
         id="stop3594-6-2"
         style="stop-color:#000000;stop-opacity:0.2"
         offset="0" />
      <stop
         id="stop3596-3-2"
         style="stop-color:#000000;stop-opacity:0"
         offset="1" />
    </linearGradient>
    <linearGradient
       x1="8"
       y1="23"
       x2="10"
       y2="28"
       id="linearGradient5125"
       xlink:href="#linearGradient5066-6"
       gradientUnits="userSpaceOnUse"
       gradientTransform="translate(1090,1020.3622)" />
    <linearGradient
       id="linearGradient5066-6">
      <stop
         id="stop5068-8"
         style="stop-color:#229922;stop-opacity:1"
         offset="0" />
      <stop
         id="stop5070-7"
         style="stop-color:#117711;stop-opacity:1"
         offset="1" />
    </linearGradient>
    <linearGradient
       x1="29"
       y1="2"
       x2="34"
       y2="17"
       id="linearGradient5122"
       xlink:href="#linearGradient3604"
       gradientUnits="userSpaceOnUse"
       gradientTransform="translate(1086,1019.2372)" />
    <linearGradient
       id="linearGradient4218-8">
      <stop
         id="stop4220-1"
         style="stop-color:#229922;stop-opacity:1"
         offset="0" />
      <stop
         id="stop4222-9"
         style="stop-color:#22bb22;stop-opacity:1"
         offset="1" />
    </linearGradient>
    <linearGradient
       x1="30"
       y1="20"
       x2="22"
       y2="0"
       id="linearGradient3937"
       xlink:href="#linearGradient4218-8"
       gradientUnits="userSpaceOnUse"
       gradientTransform="translate(1090,1020.3622)" />
    <linearGradient
       x1="29"
       y1="1018.3622"
       x2="37"
       y2="1038.3622"
       id="linearGradient3939"
       xlink:href="#linearGradient5066-6"
       gradientUnits="userSpaceOnUse"
       gradientTransform="translate(1088,0)" />
  </defs>
  <metadata
     id="metadata3774">
    <rdf:RDF>
      <cc:Work
         rdf:about="">
        <dc:format>image/svg+xml</dc:format>
        <dc:type
           rdf:resource="http://purl.org/dc/dcmitype/StillImage" />
        <dc:title />
      </cc:Work>
    </rdf:RDF>
  </metadata>
  <g
     transform="translate(0,-1020.3622)"
     id="layer1">
    <g
       transform="translate(-832,1.7382813e-5)"
       id="g4341">
      <rect
         width="32"
         height="10"
         x="832"
         y="1042.3622"
         id="use4318"
         style="fill:url(#radialGradient4828);fill-opacity:1;fill-rule:evenodd;stroke:none" />
      <g
         transform="translate(0,-32)"
         id="use4339">
        <path
           d="m 841,1079.3622 -6,-15 1,-3 5,-2 4,1 10,-4 6,15 -20,8 z"
           inkscape:connector-curvature="0"
           id="path11703"
           style="fill:#ffeedd;fill-opacity:1;stroke:#bb5500;stroke-width:1px;stroke-linecap:butt;stroke-linejoin:round;stroke-opacity:1" />
        <path
           d="m 841,1079.4872 20,-8.125 -6,-15 -10,4 -2,4 -5,2 -3,-2 6,15.125 z"
           inkscape:connector-curvature="0"
           id="path11705"
           style="fill:url(#linearGradient4830);fill-opacity:1;stroke:#bb5500;stroke-width:1px;stroke-linecap:butt;stroke-linejoin:round;stroke-opacity:1" />
      </g>
    </g>
    <use
       transform="translate(32,0)"
       id="use3810"
       x="0"
       y="0"
       width="96"
       height="32"
       xlink:href="#g4341" />
    <g
       transform="translate(-2827.5,19.499945)"
       id="use5367">
      <path
         d="m 2877.9988,12.878415 a 5.75,6 0 1 1 -5e-4,-0.02272"
         transform="matrix(1.0417505,0,0,0.99834845,-108.66787,1000.8837)"
         id="path11359"
         style="fill:url(#radialGradient4832);fill-opacity:1;stroke:#19640c;stroke-width:1;stroke-linecap:round;stroke-linejoin:round;stroke-miterlimit:4;stroke-opacity:1;stroke-dasharray:none" />
      <path
         d="m 2894.4989,5.3885468 a 5.5,5.5 0 1 1 -5e-4,-0.020829"
         transform="translate(-5.5,1008.3622)"
         id="path11361"
         style="fill:url(#radialGradient4834);fill-opacity:1;stroke:none" />
      <path
         d="m 2880,1014.8622 0,-2 2.5,0 0,-2.5 2,0 0,2.5 2.5,0 0,2 -2.5,0 0,2.5 -2,0 0,-2.5 z"
         inkscape:connector-curvature="0"
         id="path11363"
         style="fill:#ffffff;fill-opacity:0.94117647;stroke:#19640c;stroke-width:1px;stroke-linecap:round;stroke-linejoin:round;stroke-opacity:0.25098039" />
    </g>
    <g
       transform="translate(-1024,1.7382813e-5)"
       id="g4326">
      <rect
         width="32"
         height="10"
         x="1088"
         y="1042.3622"
         id="use5131"
         style="fill:url(#radialGradient11649);fill-opacity:1;fill-rule:evenodd;stroke:none" />
      <path
         d="m 1095,1046.3622 -4,-10 1,-3 5,-2 4,1 5,-2 4,10 -15,6 z"
         inkscape:connector-curvature="0"
         id="path2818-5"
         style="fill:#ffeedd;fill-opacity:1;stroke:#bb5500;stroke-width:1px;stroke-linecap:butt;stroke-linejoin:round;stroke-opacity:1" />
      <path
         d="m 1105,1046.3622 c -2.0759,0.097 -3.5975,0.1446 -4.6875,-2.25 l 5,-2 c 0.8477,2.1897 2.8075,2.0586 4.6875,2.25 0,0 -5,2 -5,2 z"
         inkscape:connector-curvature="0"
         id="path5040"
         style="fill:url(#linearGradient5125);fill-opacity:1;stroke:#11711f;stroke-width:1px;stroke-linecap:butt;stroke-linejoin:round;stroke-opacity:0.94117647" />
      <path
         d="m 1095,1046.3622 15,-6.125 -4,-10 -5,2 -2,4 -5,2 -3,-2 4,10.125 z"
         inkscape:connector-curvature="0"
         id="path3594-9"
         style="fill:url(#linearGradient5122);fill-opacity:1;stroke:#bb5500;stroke-width:1px;stroke-linecap:butt;stroke-linejoin:round;stroke-opacity:1" />
      <path
         d="m 1107.5625,1038.8622 c 0.6037,1.5093 0.1875,3.75 -0.5625,5.5 -0.75,1.75 -2,2 -2,2 l 5,-2 c 0,0 1.25,-0.25 2,-2 0.75,-1.75 1.1662,-3.9907 0.5625,-5.5 -0.6667,-1.6667 -1.875,-5.25 -1.875,-5.25 l 5,-2 -0.6125,-1.5 -10.5438,-4.6562 -4.5187,10.4062 0.675,1.75 5,-2 c 0,0 1.2083,3.5833 1.875,5.25 z"
         inkscape:connector-curvature="0"
         id="path3706"
         style="fill:url(#linearGradient3937);fill-opacity:1;fill-rule:evenodd;stroke:url(#linearGradient3939);stroke-width:1px;stroke-linecap:butt;stroke-linejoin:round;stroke-opacity:1" />
    </g>
  </g>
</svg>
